<svg width="368" height="299" viewBox="0 0 368 299" fill="none" xmlns="http://www.w3.org/2000/svg">
<g opacity="0.5">
<path d="M215.706 137.64C204.543 136.226 202.767 142.775 202.698 152.427C202.617 164.385 194.361 166.881 184.49 166.763C173.743 166.62 168.219 161.176 167.781 150.228C167.689 147.78 167.839 145.248 168.323 142.859C170.814 130.746 150.911 122.461 162.327 109.362C173.478 96.5601 183.026 115.151 195.26 112.013C217.112 106.414 219.28 120.785 215.129 138.342C215.106 138.365 215.683 137.652 215.683 137.652L215.706 137.64Z" fill="#AE3728"/>
<path d="M99.0267 139.509C90.0197 117.678 110.977 123.099 116.725 114.66C119.844 110.08 126.164 113.792 125.65 117.945C124.307 128.774 131.69 141.419 124.809 149.751C110.615 166.936 108.921 137.48 98.3608 138.735C98.3841 138.748 99.0383 139.523 99.0383 139.523L99.0267 139.509Z" fill="#AE3728"/>
<path d="M233.093 230.59C246.485 211.548 241.848 192.505 231.052 174.913C223.606 162.773 218.592 150.57 217.874 136.529L217.244 137.291C227.26 120.95 229.868 104.045 215.329 89.5916C199.052 73.3999 171.689 73.9751 148.231 88.9289C155.991 65.5979 175.67 52.207 203.651 54.7826C226.327 56.8707 247.631 63.2473 246.926 93.13C246.837 96.8184 249.861 103.245 252.607 103.945C297.722 115.586 300.997 154.308 306.881 189.292C311.038 213.948 308.392 239.68 309.728 264.886C310.534 280.053 303.038 285.754 289.419 284.704C253.766 281.966 217.987 294.307 181.856 278.89C167.683 272.839 147.488 280.415 130.077 282.253C121.548 283.154 112.956 286.48 104.553 278.002C151.708 270.275 111.356 239.943 121.699 219.65C126.625 247.257 142.914 253.309 166.473 245.444C168.93 244.619 172.042 243.468 174.171 244.256C197.339 252.883 218.038 252.146 233.723 230.04C247.001 237.054 258.718 237.529 259.94 219.187C261.338 198.219 260.267 177.089 260.267 148.507C246.333 173.426 247.392 193.556 245.578 212.973C244.771 221.55 246.963 231.44 233.105 230.59H233.093Z" fill="#AE3728"/>
<path d="M94.9248 140.668C93.8894 150.696 96.6714 160.132 102.784 167.458C115.584 182.801 114.598 202.517 104.007 212.997C86.1547 230.664 88.8619 250.079 88.7496 270.347C88.6872 281.154 89.1737 292.325 76.8482 296.685C65.3834 300.731 54.8418 297.439 45.2858 289.736C16.0064 266.125 4.32961 233.291 1.03614 197.817C-10.6033 72.423 76.9729 -4.95736 205.655 9.79492C337.755 24.9493 392.06 154.918 350.069 263.424C346.139 273.577 340.338 281.418 331.356 286.532C325.892 284.333 327.414 281.053 328.998 278.012C372.275 194.475 352.414 108.16 276.24 48.9249C214.6 0.986273 114.91 8.0734 52.746 64.8081C-0.41101 113.325 -4.82723 221.755 44.6122 273.325C51.6108 280.626 59.4203 290.918 71.0222 286.281C81.8009 281.971 79.2435 270.058 79.231 260.646C79.206 243.695 78.7694 229.232 66.0072 213.135C49.8642 192.778 45.8597 164.706 62.9383 139.474C65.8076 135.227 68.9264 132.01 69.6874 126.079C73.5173 96.2478 80.9151 91.3471 111.954 96.1473C79.8672 119.381 78.969 121.882 95.6234 141.422L94.9248 140.706V140.668Z" fill="#AE3728"/>
<path d="M219.706 129.64C208.543 128.226 206.767 134.775 206.698 144.427C206.617 156.385 198.361 158.881 188.49 158.763C177.743 158.62 172.219 153.176 171.781 142.228C171.689 139.78 171.839 137.248 172.323 134.859C174.814 122.746 154.911 114.461 166.327 101.362C177.478 88.5601 187.026 107.151 199.26 104.013C221.112 98.4141 223.28 112.785 219.129 130.342C219.106 130.365 219.683 129.652 219.683 129.652L219.706 129.64Z" fill="#FF462E"/>
<path d="M103.027 131.509C94.0197 109.678 114.977 115.099 120.725 106.66C123.844 102.08 130.164 105.792 129.65 109.945C128.307 120.774 135.69 133.419 128.809 141.751C114.615 158.936 112.921 129.48 102.361 130.735C102.384 130.748 103.038 131.523 103.038 131.523L103.027 131.509Z" fill="#FF462E"/>
<path d="M237.093 222.59C250.485 203.548 245.848 184.505 235.052 166.913C227.606 154.773 222.592 142.57 221.874 128.529L221.244 129.291C231.26 112.95 233.868 96.0453 219.329 81.5916C203.052 65.3999 175.689 65.9751 152.231 80.9289C159.991 57.5979 179.67 44.207 207.651 46.7826C230.327 48.8707 251.631 55.2473 250.926 85.13C250.837 88.8184 253.861 95.2451 256.607 95.9452C301.722 107.586 304.997 146.308 310.881 181.292C315.038 205.948 312.392 231.68 313.728 256.886C314.534 272.053 307.038 277.754 293.419 276.704C257.766 273.966 221.987 286.307 185.856 270.89C171.683 264.839 151.488 272.415 134.077 274.253C125.548 275.154 116.956 278.48 108.553 270.002C155.708 262.275 115.356 231.943 125.699 211.65C130.625 239.257 146.914 245.309 170.473 237.444C172.93 236.619 176.042 235.468 178.171 236.256C201.339 244.883 222.038 244.146 237.723 222.04C251.001 229.054 262.718 229.529 263.94 211.187C265.338 190.219 264.267 169.089 264.267 140.507C250.333 165.426 251.392 185.556 249.578 204.973C248.771 213.55 250.963 223.44 237.105 222.59H237.093Z" fill="#FF462E"/>
<path d="M98.9248 132.668C97.8894 142.696 100.671 152.132 106.784 159.458C119.584 174.801 118.598 194.517 108.007 204.997C90.1547 222.664 92.8619 242.079 92.7496 262.347C92.6872 273.154 93.1737 284.325 80.8482 288.685C69.3834 292.731 58.8418 289.439 49.2858 281.736C20.0064 258.125 8.32961 225.291 5.03614 189.817C-6.60326 64.423 80.9729 -12.9574 209.655 1.79492C341.755 16.9493 396.06 146.918 354.069 255.424C350.139 265.577 344.338 273.418 335.356 278.532C329.892 276.333 331.414 273.053 332.998 270.012C376.275 186.475 356.414 100.16 280.24 40.9249C218.6 -7.01373 118.91 0.0733978 56.746 56.8081C3.58899 105.325 -0.827234 213.755 48.6122 265.325C55.6108 272.626 63.4203 282.918 75.0222 278.281C85.8009 273.971 83.2435 262.058 83.231 252.646C83.206 235.695 82.7694 221.232 70.0072 205.135C53.8642 184.778 49.8597 156.706 66.9383 131.474C69.8076 127.227 72.9264 124.01 73.6874 118.079C77.5173 88.2478 84.9151 83.3471 115.954 88.1473C83.8672 111.381 82.969 113.882 99.6234 133.422L98.9248 132.706V132.668Z" fill="#FF462E"/>
</g>
</svg>
