<svg width="541" height="387" viewBox="0 0 541 387" fill="none" xmlns="http://www.w3.org/2000/svg">
<rect x="165.308" y="68" width="75.9332" height="75.9332" rx="37.9666" transform="rotate(-45 165.308 68)" stroke="#FF618B" stroke-opacity="0.5"/>
<rect x="212.308" y="68" width="75.9332" height="75.9332" rx="37.9666" transform="rotate(-45 212.308 68)" stroke="#FF97DD" stroke-opacity="0.5"/>
<rect x="259.308" y="68" width="75.9332" height="75.9332" rx="37.9666" transform="rotate(-45 259.308 68)" stroke="#F05836" stroke-opacity="0.5"/>
<rect x="151.707" y="68" width="95.1665" height="95.1665" rx="47.5833" transform="rotate(-45 151.707 68)" stroke="#FF618B" stroke-opacity="0.25"/>
<rect x="198.707" y="68" width="95.1665" height="95.1665" rx="47.5833" transform="rotate(-45 198.707 68)" stroke="#FF97DD" stroke-opacity="0.25"/>
<rect x="245.707" y="68" width="95.1665" height="95.1665" rx="47.5833" transform="rotate(-45 245.707 68)" stroke="#F05836" stroke-opacity="0.25"/>
<circle cx="312.5" cy="67.5" r="27.5" fill="#C13F22" stroke="#F05836" stroke-width="4"/>
<g clip-path="url(#clip0_1503_1365)">
<path d="M312.502 75.1403C318.096 75.1403 322.99 77.5465 325.651 81.1368L322.837 82.4675C320.671 79.9009 316.851 78.1959 312.502 78.1959C308.152 78.1959 304.333 79.9009 302.166 82.4675L299.354 81.1353C302.015 77.545 306.907 75.1403 312.502 75.1403ZM312.502 52.2236C314.528 52.2236 316.471 53.0284 317.903 54.461C319.336 55.8936 320.14 57.8366 320.14 59.8625V64.4459C320.14 66.4143 319.38 68.3068 318.019 69.7286C316.657 71.1503 314.8 71.9917 312.833 72.0771L312.502 72.0847C310.476 72.0847 308.533 71.2799 307.1 69.8474C305.667 68.4148 304.863 66.4718 304.863 64.4459V59.8625C304.863 57.894 305.623 56.0016 306.984 54.5798C308.346 53.158 310.203 52.3167 312.17 52.2313L312.502 52.2236ZM312.502 55.2792C311.332 55.2791 310.208 55.7258 309.357 56.5278C308.506 57.3298 307.994 58.4266 307.926 59.5936L307.918 59.8625V64.4459C307.917 65.6389 308.381 66.7854 309.212 67.6417C310.043 68.498 311.175 68.9966 312.367 69.0316C313.56 69.0666 314.719 68.6353 315.598 67.8292C316.478 67.0231 317.008 65.9058 317.077 64.7147L317.085 64.4459V59.8625C317.085 58.6469 316.602 57.4812 315.742 56.6216C314.883 55.7621 313.717 55.2792 312.502 55.2792V55.2792Z" fill="#FFF4ED"/>
</g>
<circle cx="265.5" cy="67.5" r="27.5" fill="#E149B0" stroke="#FF97DD" stroke-width="4"/>
<g clip-path="url(#clip1_1503_1365)">
<path d="M265.502 75.1403C271.096 75.1403 275.99 77.5465 278.651 81.1368L275.837 82.4675C273.671 79.9009 269.851 78.1959 265.502 78.1959C261.152 78.1959 257.333 79.9009 255.166 82.4675L252.354 81.1353C255.015 77.545 259.907 75.1403 265.502 75.1403ZM265.502 52.2236C267.528 52.2236 269.471 53.0284 270.903 54.461C272.336 55.8936 273.14 57.8366 273.14 59.8625V64.4459C273.14 66.4143 272.38 68.3068 271.019 69.7286C269.657 71.1503 267.8 71.9917 265.833 72.0771L265.502 72.0847C263.476 72.0847 261.533 71.2799 260.1 69.8474C258.667 68.4148 257.863 66.4718 257.863 64.4459V59.8625C257.863 57.894 258.623 56.0016 259.984 54.5798C261.346 53.158 263.203 52.3167 265.17 52.2313L265.502 52.2236ZM265.502 55.2792C264.332 55.2791 263.208 55.7258 262.357 56.5278C261.506 57.3298 260.994 58.4266 260.926 59.5936L260.918 59.8625V64.4459C260.917 65.6389 261.381 66.7854 262.212 67.6417C263.043 68.498 264.175 68.9966 265.367 69.0316C266.56 69.0666 267.719 68.6353 268.598 67.8292C269.478 67.0231 270.008 65.9058 270.077 64.7147L270.085 64.4459V59.8625C270.085 58.6469 269.602 57.4812 268.742 56.6216C267.883 55.7621 266.717 55.2792 265.502 55.2792V55.2792Z" fill="#FFF4ED"/>
</g>
<circle cx="218.5" cy="68.5" r="27.5" fill="#C6365C" stroke="#FF618B" stroke-width="4"/>
<g clip-path="url(#clip2_1503_1365)">
<path d="M218.502 76.1403C224.096 76.1403 228.99 78.5465 231.651 82.1368L228.837 83.4675C226.671 80.9009 222.851 79.1959 218.502 79.1959C214.152 79.1959 210.333 80.9009 208.166 83.4675L205.354 82.1353C208.015 78.545 212.907 76.1403 218.502 76.1403ZM218.502 53.2236C220.528 53.2236 222.471 54.0284 223.903 55.461C225.336 56.8936 226.14 58.8366 226.14 60.8625V65.4459C226.14 67.4143 225.38 69.3068 224.019 70.7286C222.657 72.1503 220.8 72.9917 218.833 73.0771L218.502 73.0847C216.476 73.0847 214.533 72.2799 213.1 70.8474C211.667 69.4148 210.863 67.4718 210.863 65.4459V60.8625C210.863 58.894 211.623 57.0016 212.984 55.5798C214.346 54.158 216.203 53.3167 218.17 53.2313L218.502 53.2236ZM218.502 56.2792C217.332 56.2791 216.208 56.7258 215.357 57.5278C214.506 58.3298 213.994 59.4266 213.926 60.5936L213.918 60.8625V65.4459C213.917 66.6389 214.381 67.7854 215.212 68.6417C216.043 69.498 217.175 69.9966 218.367 70.0316C219.56 70.0666 220.719 69.6353 221.598 68.8292C222.478 68.0231 223.008 66.9058 223.077 65.7147L223.085 65.4459V60.8625C223.085 59.6469 222.602 58.4812 221.742 57.6216C220.883 56.7621 219.717 56.2792 218.502 56.2792V56.2792Z" fill="#FFF4ED"/>
</g>
<g clip-path="url(#clip3_1503_1365)">
<path d="M115.625 312.875L139.131 320.71C139.253 320.751 139.359 320.827 139.436 320.93C139.512 321.033 139.555 321.157 139.559 321.285C139.563 321.413 139.527 321.539 139.457 321.646C139.387 321.754 139.285 321.837 139.166 321.884L128.25 326.25L122.718 337.313C122.662 337.425 122.573 337.518 122.463 337.58C122.353 337.641 122.227 337.667 122.102 337.656C121.976 337.644 121.857 337.595 121.76 337.515C121.663 337.434 121.593 337.326 121.558 337.205L114.825 313.639C114.794 313.53 114.793 313.414 114.823 313.304C114.853 313.194 114.912 313.094 114.994 313.016C115.077 312.937 115.179 312.882 115.29 312.858C115.401 312.833 115.517 312.839 115.625 312.875V312.875Z" fill="#FF97DD"/>
</g>
<g clip-path="url(#clip4_1503_1365)">
<path d="M363.375 213.875L339.869 221.71C339.747 221.751 339.641 221.827 339.564 221.93C339.488 222.033 339.445 222.157 339.441 222.285C339.437 222.413 339.473 222.539 339.543 222.646C339.613 222.754 339.715 222.837 339.834 222.884L350.75 227.25L356.282 238.313C356.338 238.425 356.427 238.518 356.537 238.58C356.647 238.641 356.773 238.667 356.898 238.656C357.024 238.644 357.143 238.595 357.24 238.515C357.337 238.434 357.407 238.326 357.442 238.205L364.175 214.639C364.206 214.53 364.207 214.414 364.177 214.304C364.147 214.194 364.088 214.094 364.006 214.016C363.923 213.937 363.821 213.882 363.71 213.858C363.599 213.833 363.483 213.839 363.375 213.875V213.875Z" fill="#F05836"/>
</g>
<g clip-path="url(#clip5_1503_1365)">
<path d="M298.375 359.875L274.869 367.71C274.747 367.751 274.641 367.827 274.564 367.93C274.488 368.033 274.445 368.157 274.441 368.285C274.437 368.413 274.473 368.539 274.543 368.646C274.613 368.754 274.715 368.837 274.834 368.884L285.75 373.25L291.282 384.313C291.338 384.425 291.427 384.518 291.537 384.58C291.647 384.641 291.773 384.667 291.898 384.656C292.024 384.644 292.143 384.595 292.24 384.515C292.337 384.434 292.407 384.326 292.442 384.205L299.175 360.639C299.206 360.53 299.207 360.414 299.177 360.304C299.147 360.194 299.088 360.094 299.006 360.016C298.923 359.937 298.821 359.882 298.71 359.858C298.599 359.833 298.483 359.839 298.375 359.875V359.875Z" fill="#FF618B"/>
</g>
<rect opacity="0.5" y="139" width="537" height="20" rx="4" fill="#4F4F4F" fill-opacity="0.25"/>
<rect opacity="0.5" y="165" width="537" height="20" rx="4" fill="#4F4F4F" fill-opacity="0.25"/>
<path opacity="0.5" d="M0 242C0 239.791 1.79086 238 4 238H533C535.209 238 537 239.791 537 242V254C537 256.209 535.209 258 533 258H4C1.79086 258 0 256.209 0 254V242Z" fill="#4F4F4F" fill-opacity="0.25"/>
<path opacity="0.5" d="M4 340C4 337.791 5.79086 336 8 336H298C300.209 336 302 337.791 302 340V352C302 354.209 300.209 356 298 356H8.00001C5.79087 356 4 354.209 4 352V340Z" fill="#4F4F4F" fill-opacity="0.25"/>
<rect opacity="0.5" y="264" width="537" height="20" rx="4" fill="#4F4F4F" fill-opacity="0.25"/>
<rect opacity="0.5" x="4" y="362" width="537" height="20" rx="4" fill="#4F4F4F" fill-opacity="0.25"/>
<rect opacity="0.5" y="290" width="112" height="20" rx="4" fill="#4F4F4F" fill-opacity="0.25"/>
<rect opacity="0.5" y="191" width="367" height="20" rx="4" fill="#4F4F4F" fill-opacity="0.25"/>
<defs>
<clipPath id="clip0_1503_1365">
<rect width="36.6667" height="36.6667" fill="white" transform="translate(294.168 49.168)"/>
</clipPath>
<clipPath id="clip1_1503_1365">
<rect width="36.6667" height="36.6667" fill="white" transform="translate(247.168 49.168)"/>
</clipPath>
<clipPath id="clip2_1503_1365">
<rect width="36.6667" height="36.6667" fill="white" transform="translate(200.168 50.168)"/>
</clipPath>
<clipPath id="clip3_1503_1365">
<rect width="30" height="30" fill="white" transform="translate(112 310)"/>
</clipPath>
<clipPath id="clip4_1503_1365">
<rect width="30" height="30" fill="white" transform="matrix(-1 0 0 1 367 211)"/>
</clipPath>
<clipPath id="clip5_1503_1365">
<rect width="30" height="30" fill="white" transform="matrix(-1 0 0 1 302 357)"/>
</clipPath>
</defs>
</svg>
