<svg width="365" height="227" viewBox="0 0 365 227" fill="none" xmlns="http://www.w3.org/2000/svg">
<rect opacity="0.25" y="116" width="365" height="8" rx="4" fill="#4F4F4F" fill-opacity="0.25"/>
<rect opacity="0.25" y="128" width="365" height="8" rx="4" fill="#4F4F4F" fill-opacity="0.25"/>
<rect opacity="0.25" y="140" width="365" height="8" rx="4" fill="#4F4F4F" fill-opacity="0.25"/>
<path opacity="0.25" d="M0 156C0 153.791 1.79086 152 4 152H115V160H4C1.79086 160 0 158.209 0 156Z" fill="#4F4F4F" fill-opacity="0.25"/>
<rect opacity="0.25" y="171" width="365" height="8" rx="4" fill="#4F4F4F" fill-opacity="0.25"/>
<rect opacity="0.25" y="183" width="365" height="8" rx="4" fill="#4F4F4F" fill-opacity="0.25"/>
<path opacity="0.25" d="M0 199C0 196.791 1.79086 195 4 195H298V203H4.00001C1.79087 203 0 201.209 0 199Z" fill="#4F4F4F" fill-opacity="0.25"/>
<rect opacity="0.25" y="207" width="365" height="8" rx="4" fill="#4F4F4F" fill-opacity="0.25"/>
<rect opacity="0.25" y="219" width="192" height="8" rx="4" fill="#4F4F4F" fill-opacity="0.25"/>
<g clip-path="url(#clip0_1436_1005)">
<path d="M117.175 165.725L131.279 170.426C131.352 170.45 131.416 170.496 131.462 170.558C131.507 170.619 131.533 170.693 131.536 170.77C131.538 170.847 131.517 170.923 131.474 170.987C131.432 171.052 131.371 171.101 131.3 171.13L124.75 173.75L121.431 180.387C121.397 180.455 121.344 180.51 121.278 180.547C121.212 180.584 121.136 180.6 121.061 180.593C120.986 180.586 120.915 180.556 120.856 180.508C120.798 180.46 120.756 180.395 120.735 180.323L116.695 166.183C116.676 166.117 116.676 166.048 116.694 165.982C116.712 165.916 116.747 165.856 116.797 165.809C116.846 165.762 116.907 165.729 116.974 165.714C117.041 165.699 117.11 165.703 117.175 165.725V165.725Z" fill="#2EE08B"/>
</g>
<g clip-path="url(#clip1_1436_1005)">
<path d="M296.275 209.175L291.574 223.279C291.55 223.352 291.504 223.416 291.442 223.462C291.381 223.507 291.307 223.533 291.23 223.536C291.153 223.538 291.077 223.517 291.013 223.474C290.948 223.432 290.899 223.371 290.87 223.3L288.25 216.75L281.613 213.431C281.545 213.397 281.49 213.344 281.453 213.278C281.416 213.212 281.4 213.136 281.407 213.061C281.414 212.986 281.444 212.915 281.492 212.856C281.54 212.798 281.605 212.756 281.677 212.735L295.817 208.695C295.883 208.676 295.952 208.676 296.018 208.694C296.084 208.712 296.144 208.747 296.191 208.797C296.238 208.846 296.271 208.907 296.286 208.974C296.301 209.041 296.297 209.11 296.275 209.175V209.175Z" fill="#E02E2E"/>
</g>
<line x1="299" y1="192" x2="299" y2="206" stroke="#E02E2E" stroke-width="2"/>
<line x1="116" y1="149" x2="116" y2="163" stroke="#2EE08B" stroke-width="2"/>
<circle cx="143.5" cy="47.5" r="22.5" fill="#9E2727" stroke="#E02E2E" stroke-width="4"/>
<g clip-path="url(#clip2_1436_1005)">
<path d="M143.5 53.75C148.077 53.75 152.081 55.7187 154.258 58.6562L151.956 59.745C150.183 57.645 147.058 56.25 143.5 56.25C139.941 56.25 136.816 57.645 135.043 59.745L132.742 58.655C134.92 55.7175 138.922 53.75 143.5 53.75ZM143.5 35C145.157 35 146.747 35.6585 147.919 36.8306C149.091 38.0027 149.75 39.5924 149.75 41.25V45C149.75 46.6106 149.128 48.159 148.014 49.3222C146.9 50.4855 145.38 51.1738 143.771 51.2437L143.5 51.25C141.842 51.25 140.252 50.5915 139.08 49.4194C137.908 48.2473 137.25 46.6576 137.25 45V41.25C137.25 39.6394 137.872 38.091 138.986 36.9278C140.099 35.7645 141.619 35.0761 143.228 35.0063L143.5 35ZM143.5 37.5C142.543 37.4999 141.623 37.8654 140.927 38.5216C140.231 39.1778 139.812 40.0751 139.756 41.03L139.75 41.25V45C139.749 45.9761 140.128 46.9142 140.808 47.6148C141.488 48.3154 142.414 48.7234 143.39 48.752C144.365 48.7806 145.314 48.4277 146.033 47.7682C146.753 47.1086 147.187 46.1945 147.243 45.22L147.25 45V41.25C147.25 40.2554 146.855 39.3016 146.151 38.5983C145.448 37.8951 144.494 37.5 143.5 37.5V37.5Z" fill="white"/>
</g>
<circle cx="222.5" cy="47.5" r="22.5" fill="#1E8051" stroke="#2EE08B" stroke-width="4"/>
<g clip-path="url(#clip3_1436_1005)">
<path d="M222.5 53.75C227.077 53.75 231.081 55.7187 233.258 58.6562L230.956 59.745C229.183 57.645 226.058 56.25 222.5 56.25C218.941 56.25 215.816 57.645 214.043 59.745L211.742 58.655C213.92 55.7175 217.922 53.75 222.5 53.75ZM222.5 35C224.157 35 225.747 35.6585 226.919 36.8306C228.091 38.0027 228.75 39.5924 228.75 41.25V45C228.75 46.6106 228.128 48.159 227.014 49.3222C225.9 50.4855 224.38 51.1738 222.771 51.2437L222.5 51.25C220.842 51.25 219.252 50.5915 218.08 49.4194C216.908 48.2473 216.25 46.6576 216.25 45V41.25C216.25 39.6394 216.872 38.091 217.986 36.9278C219.099 35.7645 220.619 35.0761 222.228 35.0063L222.5 35ZM222.5 37.5C221.543 37.4999 220.623 37.8654 219.927 38.5216C219.231 39.1778 218.812 40.0751 218.756 41.03L218.75 41.25V45C218.749 45.9761 219.128 46.9142 219.808 47.6148C220.488 48.3154 221.414 48.7234 222.39 48.752C223.365 48.7806 224.314 48.4277 225.033 47.7682C225.753 47.1086 226.187 46.1945 226.243 45.22L226.25 45V41.25C226.25 40.2554 225.855 39.3016 225.151 38.5983C224.448 37.8951 223.494 37.5 222.5 37.5V37.5Z" fill="white"/>
</g>
<circle cx="222.5" cy="47.5" r="39" stroke="#2EE08B" stroke-opacity="0.5"/>
<circle cx="222.5" cy="47.5" r="47" stroke="#2EE08B" stroke-opacity="0.25"/>
<circle cx="222.5" cy="47.5" r="31" stroke="#2EE08B" stroke-opacity="0.75"/>
<circle cx="143.5" cy="47.5" r="47" stroke="#E02E2E" stroke-opacity="0.25"/>
<circle cx="143.5" cy="47.5" r="31" stroke="#E02E2E" stroke-opacity="0.75"/>
<circle cx="143.5" cy="47.5" r="39" stroke="#E02E2E" stroke-opacity="0.5"/>
<defs>
<clipPath id="clip0_1436_1005">
<rect width="18" height="18" fill="white" transform="translate(115 164)"/>
</clipPath>
<clipPath id="clip1_1436_1005">
<rect width="18" height="18" fill="white" transform="matrix(0 1 -1 0 298 207)"/>
</clipPath>
<clipPath id="clip2_1436_1005">
<rect width="30" height="30" fill="white" transform="translate(128.5 32.5)"/>
</clipPath>
<clipPath id="clip3_1436_1005">
<rect width="30" height="30" fill="white" transform="translate(207.5 32.5)"/>
</clipPath>
</defs>
</svg>
