<svg width="365" height="111" viewBox="0 0 365 111" fill="none" xmlns="http://www.w3.org/2000/svg">
<rect opacity="0.25" width="365" height="8" rx="4" fill="#4F4F4F" fill-opacity="0.25"/>
<rect opacity="0.25" y="12" width="365" height="8" rx="4" fill="#4F4F4F" fill-opacity="0.25"/>
<rect opacity="0.25" y="24" width="365" height="8" rx="4" fill="#4F4F4F" fill-opacity="0.25"/>
<path opacity="0.25" d="M0 40C0 37.7909 1.79086 36 4 36H115V44H4C1.79086 44 0 42.2091 0 40Z" fill="#4F4F4F" fill-opacity="0.25"/>
<rect opacity="0.25" y="55" width="365" height="8" rx="4" fill="#4F4F4F" fill-opacity="0.25"/>
<rect opacity="0.25" y="67" width="365" height="8" rx="4" fill="#4F4F4F" fill-opacity="0.25"/>
<path opacity="0.25" d="M0 83C0 80.7909 1.79086 79 4 79H298V87H4.00001C1.79087 87 0 85.2091 0 83Z" fill="#4F4F4F" fill-opacity="0.25"/>
<rect opacity="0.25" y="91" width="365" height="8" rx="4" fill="#4F4F4F" fill-opacity="0.25"/>
<rect opacity="0.25" y="103" width="192" height="8" rx="4" fill="#4F4F4F" fill-opacity="0.25"/>
<g clip-path="url(#clip0_1422_977)">
<path d="M117.175 49.7246L131.279 54.4256C131.352 54.4498 131.416 54.4958 131.462 54.5575C131.507 54.6192 131.533 54.6935 131.536 54.7704C131.538 54.8472 131.517 54.9229 131.474 54.9872C131.432 55.0515 131.371 55.1013 131.3 55.1298L124.75 57.7496L121.431 64.3871C121.397 64.4547 121.344 64.5105 121.278 64.5472C121.212 64.5839 121.136 64.5998 121.061 64.5929C120.986 64.5859 120.915 64.5564 120.856 64.5081C120.798 64.4599 120.756 64.3952 120.735 64.3226L116.695 50.1828C116.676 50.1171 116.676 50.0476 116.694 49.9817C116.712 49.9158 116.747 49.856 116.797 49.8088C116.846 49.7617 116.907 49.7289 116.974 49.714C117.041 49.6992 117.11 49.7028 117.175 49.7246V49.7246Z" fill="#2EE08B"/>
</g>
<g clip-path="url(#clip1_1422_977)">
<path d="M296.275 93.175L291.574 107.279C291.55 107.352 291.504 107.416 291.442 107.462C291.381 107.507 291.307 107.533 291.23 107.536C291.153 107.538 291.077 107.517 291.013 107.474C290.948 107.432 290.899 107.371 290.87 107.3L288.25 100.75L281.613 97.4313C281.545 97.3975 281.49 97.3441 281.453 97.2781C281.416 97.212 281.4 97.1364 281.407 97.0612C281.414 96.986 281.444 96.9146 281.492 96.8564C281.54 96.7983 281.605 96.756 281.677 96.7353L295.817 92.695C295.883 92.6763 295.952 92.6759 296.018 92.6938C296.084 92.7117 296.144 92.7473 296.191 92.7967C296.238 92.8461 296.271 92.9075 296.286 92.9741C296.301 93.0408 296.297 93.1103 296.275 93.175V93.175Z" fill="#E02E2E"/>
</g>
<line x1="299" y1="76" x2="299" y2="90" stroke="#E02E2E" stroke-width="2"/>
<line x1="116" y1="33" x2="116" y2="47" stroke="#2EE08B" stroke-width="2"/>
<defs>
<clipPath id="clip0_1422_977">
<rect width="18" height="18" fill="white" transform="translate(115 48)"/>
</clipPath>
<clipPath id="clip1_1422_977">
<rect width="18" height="18" fill="white" transform="matrix(0 1 -1 0 298 91)"/>
</clipPath>
</defs>
</svg>
