<svg width="685" height="286" viewBox="0 0 685 286" fill="none" xmlns="http://www.w3.org/2000/svg">
<g clip-path="url(#clip0_1501_1133)">
<rect width="249" height="69" rx="10" transform="matrix(0.960714 0.27754 -0.749838 0.661622 1.73828 -54)" fill="#4F4F4F" fill-opacity="0.25"/>
<path d="M49.9908 -22.6993L53.2803 -21.749L38.3316 -8.55887L49.4912 -5.33496L47.0197 -3.15426L32.5706 -7.32846L49.9908 -22.6993ZM61.1617 -10.8443L64.3282 -9.92951L54.2743 -1.05849L51.1078 -1.97326L61.1617 -10.8443ZM64.5764 -14.0734C64.9603 -14.4121 65.475 -14.6381 66.1203 -14.7515C66.7657 -14.8648 67.3138 -14.8564 67.7647 -14.7261C68.2361 -14.5899 68.5283 -14.3556 68.6412 -14.0232C68.7542 -13.6908 68.6187 -13.3552 68.2348 -13.0165C67.8509 -12.6777 67.3465 -12.4487 66.7217 -12.3295C66.1128 -12.2243 65.5727 -12.2398 65.1013 -12.376C64.6504 -12.5063 64.3502 -12.7335 64.2007 -13.0577C64.0673 -13.3961 64.1925 -13.7346 64.5764 -14.0734ZM60.1698 0.644635L68.0401 -6.29975L65.8573 -6.93032L68.0408 -8.85696L70.2236 -8.22639L74.3027 -11.8256C75.7424 -13.0959 77.2948 -13.9496 78.9599 -14.3866C80.6251 -14.8236 82.2979 -14.7994 83.9785 -14.3139C84.4294 -14.1836 84.8756 -13.9892 85.317 -13.7305C85.7744 -13.4859 86.1063 -13.2027 86.3127 -12.8808L83.1912 -11.6748C83.1667 -11.8692 83.0635 -12.0302 82.8815 -12.1577C82.72 -12.2793 82.5163 -12.3756 82.2704 -12.4466C81.5531 -12.6539 80.7975 -12.6473 80.0037 -12.427C79.2098 -12.2066 78.349 -11.6871 77.4212 -10.8685L73.3901 -7.31162L77.4482 -6.13929L75.2646 -4.21265L71.2066 -5.38498L63.3363 1.55941L60.1698 0.644635ZM76.1986 5.55621C74.7024 5.12399 73.6454 4.55633 73.0275 3.85324C72.4257 3.13603 72.2377 2.34167 72.4637 1.47016C72.7057 0.584529 73.3465 -0.317009 74.3863 -1.23446C75.3781 -2.10956 76.5916 -2.80821 78.0268 -3.33039C79.4984 -3.86077 81.0173 -4.18077 82.5835 -4.29041C84.1701 -4.39412 85.6295 -4.25355 86.9617 -3.86869C88.6833 -3.37134 89.7158 -2.61403 90.0592 -1.59677C90.4231 -0.57359 90.0959 0.615291 89.0777 1.96987L75.763 1.43964L76.4648 -0.0438215L87.2091 0.305919L86.2516 0.394647C86.5015 -0.113956 86.544 -0.607546 86.3791 -1.08612C86.2301 -1.57882 85.6945 -1.95838 84.7722 -2.22482C84.0344 -2.43797 83.2243 -2.50337 82.342 -2.42101C81.4962 -2.34684 80.6511 -2.14131 79.8068 -1.80441C78.999 -1.47571 78.2672 -1.02201 77.6113 -0.443309C76.9395 0.149504 76.5218 0.722071 76.3583 1.27439C76.2313 1.81852 76.3313 2.30643 76.6582 2.73812C77.0056 3.17573 77.5688 3.50703 78.3476 3.73202C78.901 3.89188 79.5036 3.97229 80.1554 3.97324C80.8278 3.98012 81.5094 3.94283 82.2002 3.86137L81.8215 5.88785C80.8092 5.98887 79.7995 6.01567 78.7922 5.96824C77.8214 5.91263 76.9569 5.77528 76.1986 5.55621ZM90.1289 9.55243C89.1861 9.28007 88.402 8.90367 87.7767 8.42324C87.1673 7.9287 86.8317 7.3727 86.7697 6.75525L89.5141 5.91805C89.6675 6.43078 89.917 6.85882 90.2624 7.20218C90.6443 7.53733 91.0914 7.77892 91.6038 7.92695C92.0137 8.04536 92.4146 8.12371 92.8065 8.16198C93.2144 8.18614 93.6089 8.1502 93.9898 8.05415C94.3707 7.95809 94.7051 7.78304 94.993 7.52897C95.329 7.23257 95.4495 6.95823 95.3545 6.70596C95.2595 6.4537 95.0506 6.20598 94.7276 5.9628C94.4047 5.71962 94.043 5.47463 93.6426 5.2278C92.8283 4.67405 92.3924 4.09846 92.335 3.50105C92.2935 2.88952 92.6167 2.28029 93.3045 1.67336C93.8324 1.20758 94.4923 0.817396 95.2841 0.502806C96.1124 0.180022 97.0269 -0.0148039 98.0277 -0.0816723C99.0285 -0.148541 100.041 -0.0339538 101.066 0.262088C102.009 0.534447 102.751 0.851872 103.292 1.21436C103.85 1.56274 104.236 2.00217 104.451 2.53266L101.733 3.49007C101.652 3.12943 101.428 2.81158 101.059 2.53653C100.727 2.25329 100.364 2.0454 99.9705 1.91286C99.6016 1.80629 99.2154 1.75094 98.812 1.74681C98.4246 1.72858 98.0507 1.77044 97.6903 1.87241C97.3458 1.96027 97.0617 2.103 96.8377 2.30061C96.4973 2.57698 96.3666 2.84836 96.4455 3.11474C96.561 3.37293 96.7904 3.62657 97.1339 3.87566C97.4933 4.11065 97.8344 4.34972 98.1574 4.5929C98.6488 4.90348 99.0124 5.24273 99.2484 5.61067C99.5003 5.96449 99.5938 6.3381 99.5288 6.73151C99.4638 7.12493 99.1593 7.56158 98.6155 8.04148C98.0236 8.56372 97.2793 9.00444 96.3825 9.36365C95.5017 9.70874 94.5221 9.9129 93.4439 9.97612C92.3816 10.0252 91.2766 9.88399 90.1289 9.55243ZM115.052 -0.446965L118.219 0.467806L113.78 4.38461L117.223 5.37931L115.279 7.09423L111.836 6.09953L103.75 13.2345L100.583 12.3197L108.67 5.18476L106.395 4.52755L108.338 2.81262L110.613 3.46984L115.052 -0.446965ZM106.865 19.7833L130.258 9.11679L133.147 9.95163L109.97 20.6803L106.865 19.7833ZM114.875 16.5326L118.76 5.79519L122.326 6.82542L118.551 16.1333L114.875 16.5326ZM144.688 3.22427L147.854 4.13904L129.21 20.5896L126.044 19.6748L144.688 3.22427ZM139.846 23.9432C138.35 23.511 137.293 22.9433 136.675 22.2402C136.073 21.523 135.885 20.7287 136.111 19.8572C136.353 18.9715 136.994 18.07 138.034 17.1525C139.025 16.2774 140.239 15.5788 141.674 15.0566C143.146 14.5262 144.665 14.2062 146.231 14.0966C147.817 13.9929 149.277 14.1335 150.609 14.5183C152.331 15.0157 153.363 15.773 153.707 16.7902C154.07 17.8134 153.743 19.0023 152.725 20.3569L139.41 19.8266L140.112 18.3432L150.856 18.6929L149.899 18.7817C150.149 18.273 150.191 17.7795 150.026 17.3009C149.877 16.8082 149.342 16.4286 148.42 16.1622C147.682 15.949 146.872 15.8836 145.989 15.966C145.144 16.0402 144.298 16.2457 143.454 16.5826C142.646 16.9113 141.914 17.365 141.259 17.9437C140.587 18.5365 140.169 19.1091 140.006 19.6614C139.879 20.2055 139.979 20.6934 140.306 21.1251C140.653 21.5627 141.216 21.894 141.995 22.119C142.548 22.2789 143.151 22.3593 143.803 22.3602C144.475 22.3671 145.157 22.3298 145.848 22.2484L145.469 24.2749C144.457 24.3759 143.447 24.4027 142.44 24.3552C141.469 24.2996 140.604 24.1623 139.846 23.9432Z" fill="#FFF4ED"/>
<rect width="249" height="69" rx="10" transform="matrix(0.960714 0.27754 -0.749838 0.661622 -185.261 -37)" fill="#4F4F4F" fill-opacity="0.25"/>
<rect width="249" height="69" rx="10" transform="matrix(0.960714 0.27754 -0.749838 0.661622 252.695 15)" fill="#4F4F4F" fill-opacity="0.25"/>
<path d="M310.707 67.9776C310.203 68.0381 309.495 68.0866 308.584 68.1229C307.708 68.1511 306.742 68.1155 305.685 68.0162C304.648 67.9228 303.615 67.718 302.586 67.4019C300.86 66.8846 299.532 66.2199 298.602 65.408C297.693 64.6019 297.156 63.7069 296.993 62.7229C296.845 61.7248 297.025 60.69 297.532 59.6186C298.075 58.539 298.939 57.477 300.123 56.4325C301.434 55.2751 302.901 54.2935 304.521 53.4877C306.158 52.6677 307.876 52.0399 309.676 51.6043C311.496 51.1745 313.296 50.9545 315.076 50.9441C316.876 50.9397 318.576 51.1684 320.175 51.6302C321.548 52.0269 322.644 52.5122 323.463 53.086C324.281 53.6597 324.878 54.2255 325.252 54.7834L321.562 56.5275C321.287 56.0735 320.853 55.5922 320.26 55.0836C319.703 54.5667 318.892 54.1543 317.826 53.8465C316.781 53.5445 315.619 53.4055 314.34 53.4296C313.098 53.4454 311.822 53.6109 310.513 53.9259C309.24 54.2327 308.007 54.6727 306.813 55.2459C305.636 55.805 304.591 56.4868 303.679 57.2913C302.751 58.11 302.08 58.9184 301.665 59.7166C301.25 60.5148 301.093 61.2656 301.193 61.9691C301.314 62.6786 301.696 63.3136 302.34 63.8741C302.983 64.4347 303.909 64.8897 305.119 65.239C306.266 65.5706 307.407 65.7407 308.539 65.7494C309.693 65.7641 310.722 65.6961 311.627 65.5454L310.707 67.9776ZM317.637 65.511C318.645 64.6218 319.856 63.9132 321.271 63.3851C322.701 62.8428 324.192 62.524 325.742 62.4284C327.292 62.3329 328.764 62.4865 330.158 62.8891C331.572 63.2976 332.58 63.8605 333.182 64.5777C333.783 65.2949 333.963 66.0963 333.721 66.982C333.516 67.8594 332.909 68.7427 331.902 69.6319C330.894 70.5212 329.685 71.2398 328.275 71.788C326.885 72.342 325.417 72.6769 323.872 72.7924C322.342 72.8938 320.86 72.7373 319.425 72.3229C318.052 71.9262 317.038 71.3804 316.384 70.6855C315.75 69.9965 315.515 69.2074 315.68 68.3181C315.881 67.4206 316.533 66.4849 317.637 65.511ZM320.81 66.4559C320.186 67.0063 319.793 67.5577 319.629 68.11C319.482 68.6483 319.553 69.1373 319.844 69.5772C320.15 70.0029 320.672 70.3224 321.41 70.5356C322.168 70.7546 322.989 70.823 323.871 70.7406C324.769 70.6442 325.63 70.4245 326.454 70.0817C327.314 69.7307 328.056 69.2799 328.68 68.7295C329.304 68.179 329.69 67.6347 329.837 67.0965C330.005 66.5642 329.944 66.0781 329.654 65.6382C329.363 65.1983 328.839 64.8688 328.08 64.6498C327.322 64.4307 326.494 64.3694 325.596 64.4659C324.697 64.5623 323.818 64.7861 322.958 65.1371C322.134 65.4799 321.418 65.9195 320.81 66.4559ZM335.528 76.9749C334.319 76.6256 333.449 76.1212 332.917 75.4619C332.402 74.7884 332.276 74.0118 332.538 73.1321C332.801 72.2524 333.476 71.3326 334.563 70.3728C335.683 69.3848 336.932 68.6308 338.31 68.1109C339.705 67.5769 341.112 67.2715 342.532 67.1946C343.989 67.1096 345.352 67.2506 346.623 67.6177C347.607 67.9019 348.379 68.3124 348.941 68.8493C349.539 69.378 349.803 69.9604 349.735 70.5965L348.803 71.3109L359.577 61.8047L362.713 62.7106L344.069 79.1612L340.902 78.2464L343.278 76.1504L342.968 76.8197C341.773 77.1302 340.522 77.3216 339.216 77.3939C337.926 77.4521 336.697 77.3124 335.528 76.9749ZM338.6 75.4172C339.317 75.6244 340.048 75.7233 340.794 75.7137C341.539 75.7042 342.282 75.6005 343.024 75.4024C343.781 75.1903 344.482 74.8962 345.125 74.5201L347.141 72.7417C347.445 72.305 347.561 71.8793 347.487 71.4645C347.449 71.0415 347.24 70.6624 346.858 70.3272C346.476 69.992 345.947 69.7268 345.27 69.5314C344.512 69.3123 343.671 69.238 342.748 69.3086C341.861 69.3709 340.975 69.5646 340.09 69.8896C339.225 70.2206 338.465 70.6754 337.809 71.2541C337.185 71.8046 336.801 72.359 336.658 72.9172C336.536 73.4814 336.64 73.9893 336.972 74.441C337.319 74.8786 337.862 75.204 338.6 75.4172ZM358.969 71.6901L362.135 72.6049L352.081 81.4759L348.915 80.5611L358.969 71.6901ZM362.384 68.461C362.767 68.1223 363.282 67.8962 363.927 67.7829C364.573 67.6696 365.121 67.678 365.572 67.8083C366.043 67.9445 366.335 68.1788 366.448 68.5112C366.561 68.8436 366.426 69.1792 366.042 69.5179C365.658 69.8567 365.154 70.0857 364.529 70.2049C363.92 70.3101 363.38 70.2945 362.908 70.1584C362.458 70.0281 362.157 69.8009 362.008 69.4767C361.874 69.1383 362 68.7998 362.384 68.461ZM369.783 74.8142L367.756 76.9267L367.945 76.6159C369.095 76.1051 370.337 75.7894 371.671 75.6688C373.021 75.5341 374.311 75.6444 375.54 75.9997C376.749 76.349 377.464 76.8831 377.682 77.6022C377.922 78.3271 377.604 79.0877 376.729 79.884L369.29 86.4473L366.124 85.5326L372.698 79.7315C373.19 79.2739 373.411 78.8506 373.362 78.4618C373.329 78.0588 372.931 77.7378 372.168 77.4986C371.471 77.2973 370.668 77.262 369.758 77.3926C368.864 77.5091 367.974 77.767 367.086 78.1663C366.198 78.5656 365.386 79.0898 364.65 79.7391L360.067 83.783L356.901 82.8682L366.955 73.9972L369.783 74.8142ZM375.445 94.071C374.441 93.7808 373.658 93.4516 373.096 93.0832C372.534 92.7148 372.116 92.3035 371.841 91.8496C371.572 91.4156 371.346 90.9664 371.165 90.5019L374.744 89.5405C374.916 90.1333 375.203 90.6474 375.608 91.0828C375.996 91.5322 376.641 91.8872 377.543 92.1477C378.445 92.4082 379.333 92.5244 380.209 92.4962C381.089 92.4881 381.911 92.3509 382.675 92.0846C383.439 91.8182 384.109 91.431 384.685 90.9229L387.331 88.624L387.067 89.1096C386.062 89.5877 384.857 89.8952 383.45 90.0321C382.06 90.155 380.678 90.0181 379.305 89.6214C378.136 89.2839 377.282 88.7654 376.742 88.066C376.222 87.3724 376.065 86.587 376.27 85.7095C376.475 84.8321 377.082 83.9488 378.09 83.0596C379.146 82.128 380.381 81.3982 381.796 80.87C383.247 80.3338 384.717 80.009 386.205 79.8957C387.71 79.7683 389.046 79.8733 390.215 80.2108C391.362 80.5424 392.211 80.9937 392.761 81.5647C393.327 82.1217 393.579 82.6911 393.518 83.273L392.926 83.5796L395.04 82.1106L397.96 82.9543L387.859 91.8677C386.931 92.6863 385.781 93.3285 384.41 93.7943C383.043 94.28 381.591 94.5536 380.052 94.615C378.497 94.6904 376.962 94.5091 375.445 94.071ZM381.359 83.9197C380.735 84.4702 380.352 85.0245 380.209 85.5828C380.066 86.141 380.16 86.646 380.492 87.0977C380.859 87.5412 381.443 87.8785 382.242 88.1094C382.96 88.3166 383.701 88.4184 384.467 88.4148C385.249 88.3971 386.002 88.2963 386.728 88.1124C387.49 87.9203 388.195 87.6462 388.843 87.2902L390.931 85.4482C391.21 84.9856 391.305 84.554 391.215 84.1533C391.141 83.7384 390.913 83.3634 390.531 83.0283C390.149 82.6931 389.61 82.4249 388.913 82.2236C388.114 81.9927 387.242 81.9095 386.298 81.9741C385.391 82.0305 384.505 82.2242 383.64 82.5552C382.775 82.8862 382.015 83.341 381.359 83.9197Z" fill="#FFF4ED"/>
<rect width="249" height="69" rx="10" transform="matrix(0.960714 0.27754 -0.749838 0.661622 -119.261 48)" fill="#4F4F4F" fill-opacity="0.25"/>
<path d="M-102.84 90.5085L-84.8434 74.6295L-84.8127 74.6384L-86.0711 89.6476L-87.2453 89.0274L-62.5549 81.0685L-62.4934 81.0862L-80.4895 96.9651L-83.7482 96.0237L-71.5349 85.2472L-72.6394 86.4739L-89.9725 92.1178L-90.034 92.1001L-89.3328 81.6513L-87.5797 80.7526L-99.673 91.4232L-102.84 90.5085ZM-70.9072 93.7192C-69.8994 92.8299 -68.6882 92.1213 -67.2735 91.5932C-65.8428 91.051 -64.3524 90.7321 -62.8023 90.6366C-61.2521 90.541 -59.7802 90.6946 -58.3865 91.0972C-56.9724 91.5058 -55.9644 92.0686 -55.3625 92.7858C-54.7607 93.503 -54.5807 94.3045 -54.8227 95.1901C-55.0281 96.0675 -55.6348 96.9508 -56.6425 97.8401C-57.6503 98.7293 -58.8593 99.448 -60.2695 99.9961C-61.6592 100.55 -63.1268 100.885 -64.6725 101.001C-66.2021 101.102 -67.6843 100.945 -69.119 100.531C-70.4922 100.134 -71.5059 99.5885 -72.1603 98.8936C-72.7941 98.2046 -73.0288 97.4155 -72.8643 96.5262C-72.6633 95.6288 -72.011 94.6931 -70.9072 93.7192ZM-67.734 94.664C-68.3578 95.2144 -68.7515 95.7658 -68.915 96.3182C-69.0624 96.8564 -68.991 97.3454 -68.7005 97.7853C-68.3941 98.2111 -67.872 98.5305 -67.1342 98.7437C-66.3758 98.9627 -65.5555 99.0311 -64.6732 98.9487C-63.7749 98.8523 -62.9139 98.6326 -62.09 98.2898C-61.2297 97.9388 -60.4877 97.4881 -59.8638 96.9376C-59.2399 96.3871 -58.8543 95.8428 -58.7068 95.3046C-58.5388 94.7723 -58.6 94.2862 -58.8905 93.8463C-59.1809 93.4064 -59.7053 93.077 -60.4636 92.8579C-61.2219 92.6388 -62.0502 92.5775 -62.9485 92.674C-63.8468 92.7705 -64.7261 92.9942 -65.5864 93.3452C-66.4102 93.688 -67.1261 94.1276 -67.734 94.664ZM-54.3212 105.003C-55.5099 104.659 -56.2035 104.131 -56.4019 103.418C-56.6004 102.705 -56.2802 101.954 -55.4414 101.166L-47.979 94.5816L-44.8125 95.4964L-51.387 101.297C-51.8579 101.761 -52.0974 102.188 -52.1054 102.579C-52.0769 102.962 -51.6915 103.27 -50.9492 103.504C-50.2523 103.705 -49.4775 103.741 -48.6247 103.613C-47.7354 103.477 -46.8571 103.206 -45.9898 102.8C-45.086 102.387 -44.2662 101.856 -43.5303 101.206L-38.9713 97.1838L-35.8048 98.0986L-45.8586 106.97L-48.7177 106.144L-46.6362 104.019L-46.8971 104.393C-47.6114 104.711 -48.3985 104.962 -49.2583 105.144C-50.1021 105.313 -50.9582 105.384 -51.8265 105.358C-52.7108 105.346 -53.5424 105.228 -54.3212 105.003ZM-28.128 100.316L-30.1548 102.429L-29.9658 102.118C-28.8156 101.607 -27.5736 101.291 -26.2399 101.171C-24.8902 101.036 -23.6005 101.147 -22.3708 101.502C-21.1616 101.851 -20.4475 102.385 -20.2286 103.104C-19.9891 103.829 -20.3071 104.59 -21.1824 105.386L-28.6208 111.949L-31.7873 111.035L-25.2127 105.234C-24.7213 104.776 -24.5001 104.353 -24.5491 103.964C-24.5821 103.561 -24.98 103.24 -25.7428 103.001C-26.4396 102.799 -27.243 102.764 -28.1528 102.895C-29.0466 103.011 -29.9374 103.269 -30.8252 103.668C-31.713 104.068 -32.5248 104.592 -33.2606 105.241L-37.8436 109.285L-41.0101 108.37L-30.9563 99.4993L-28.128 100.316ZM-8.07875 100.937L-4.91223 101.852L-9.35127 105.769L-5.90807 106.764L-7.85165 108.478L-11.2949 107.484L-19.3811 114.619L-22.5476 113.704L-14.4614 106.569L-16.7363 105.912L-14.7928 104.197L-12.5178 104.854L-8.07875 100.937ZM-7.37891 118.367C-8.58813 118.018 -9.49267 117.532 -10.0925 116.909C-10.6764 116.272 -10.8633 115.524 -10.6534 114.667C-10.4434 113.809 -9.76254 112.873 -8.61079 111.856C-7.47504 110.854 -6.20207 110.079 -4.79188 109.531C-3.3612 108.989 -1.93802 108.669 -0.522343 108.572C0.929827 108.467 2.24003 108.583 3.40825 108.921C4.63797 109.276 5.43428 109.75 5.79719 110.342C6.19659 110.926 6.3498 111.523 6.25681 112.133L5.65769 112.409L7.95669 110.741L10.8773 111.585L0.823435 120.456L-2.34308 119.541L0.176377 117.318L-0.0853216 117.945C-0.295275 118.034 -0.653445 118.146 -1.15983 118.281C-1.65022 118.401 -2.24884 118.509 -2.95568 118.605C-3.64202 118.706 -4.37035 118.749 -5.14068 118.733C-5.87451 118.708 -6.62059 118.586 -7.37891 118.367ZM-4.50255 116.837C-3.82621 117.033 -3.12562 117.123 -2.40078 117.107C-1.67595 117.092 -0.953111 116.982 -0.232272 116.778C0.488566 116.574 1.16067 116.281 1.78403 115.899L3.87158 114.057C4.15552 113.615 4.26275 113.196 4.19327 112.801C4.13979 112.392 3.93234 112.023 3.57093 111.694C3.23001 111.371 2.73163 111.114 2.07578 110.925C1.33795 110.712 0.517642 110.643 -0.385153 110.72C-1.27195 110.782 -2.14775 110.979 -3.01256 111.31C-3.87737 111.641 -4.6377 112.096 -5.29356 112.674C-5.91743 113.225 -6.30085 113.779 -6.44382 114.337C-6.5663 114.901 -6.46183 115.409 -6.13041 115.861C-5.783 116.299 -5.24038 116.624 -4.50255 116.837ZM15.7284 112.986L18.8949 113.901L8.84108 122.772L5.67456 121.857L15.7284 112.986ZM19.1432 109.757C19.5271 109.418 20.0417 109.192 20.6871 109.079C21.3324 108.965 21.8805 108.974 22.3314 109.104C22.8028 109.24 23.095 109.475 23.208 109.807C23.3209 110.139 23.1855 110.475 22.8016 110.814C22.4176 111.153 21.9132 111.382 21.2884 111.501C20.6795 111.606 20.1394 111.59 19.668 111.454C19.2171 111.324 18.9169 111.097 18.7675 110.773C18.634 110.434 18.7592 110.096 19.1432 109.757ZM26.5427 116.11L24.5159 118.223L24.7048 117.912C25.8551 117.401 27.097 117.085 28.4307 116.965C29.7804 116.83 31.0701 116.94 32.2998 117.296C33.5091 117.645 34.2231 118.179 34.4421 118.898C34.6815 119.623 34.3636 120.384 33.4883 121.18L26.0499 127.743L22.8834 126.828L29.4579 121.027C29.9493 120.57 30.1705 120.146 30.1215 119.758C30.0886 119.355 29.6907 119.034 28.9278 118.794C28.231 118.593 27.4277 118.558 26.5179 118.688C25.6241 118.805 24.7333 119.063 23.8455 119.462C22.9577 119.861 22.1459 120.386 21.41 121.035L16.827 125.079L13.6605 124.164L23.7143 115.293L26.5427 116.11ZM34.428 130.416C33.4852 130.144 32.7011 129.768 32.0758 129.287C31.4664 128.793 31.1308 128.237 31.0688 127.619L33.8132 126.782C33.9666 127.295 34.2161 127.723 34.5615 128.066C34.9434 128.401 35.3905 128.643 35.9029 128.791C36.3128 128.909 36.7137 128.988 37.1056 129.026C37.5135 129.05 37.908 129.014 38.2889 128.918C38.6698 128.822 39.0042 128.647 39.2922 128.393C39.6281 128.097 39.7486 127.822 39.6536 127.57C39.5586 127.318 39.3497 127.07 39.0267 126.827C38.7038 126.584 38.3421 126.339 37.9417 126.092C37.1274 125.538 36.6915 124.962 36.6341 124.365C36.5926 123.754 36.9158 123.144 37.6036 122.537C38.1315 122.072 38.7914 121.681 39.5832 121.367C40.4115 121.044 41.326 120.849 42.3268 120.782C43.3276 120.715 44.3404 120.83 45.3651 121.126C46.3079 121.398 47.05 121.716 47.5913 122.078C48.1487 122.427 48.5349 122.866 48.7498 123.397L46.0324 124.354C45.9514 123.993 45.7267 123.676 45.3583 123.401C45.0264 123.117 44.6635 122.909 44.2696 122.777C43.9007 122.67 43.5145 122.615 43.1111 122.611C42.7237 122.593 42.3498 122.634 41.9894 122.736C41.6449 122.824 41.3608 122.967 41.1368 123.165C40.7964 123.441 40.6657 123.712 40.7446 123.979C40.8601 124.237 41.0895 124.491 41.433 124.74C41.7924 124.975 42.1335 125.214 42.4565 125.457C42.9479 125.768 43.3115 126.107 43.5475 126.475C43.7994 126.829 43.8929 127.202 43.8279 127.596C43.7629 127.989 43.4585 128.426 42.9146 128.906C42.3227 129.428 41.5784 129.868 40.6816 130.228C39.8008 130.573 38.8212 130.777 37.743 130.84C36.6807 130.889 35.5757 130.748 34.428 130.416Z" fill="#FFF4ED"/>
<rect width="249" height="69" rx="10" transform="matrix(0.960714 0.27754 -0.749838 0.661622 131.696 117)" fill="#4F4F4F" fill-opacity="0.25"/>
<path d="M159.84 142.492L174.72 146.79L172.248 148.971L166.377 147.274L151.428 160.465L148.138 159.514L163.087 146.324L157.369 144.672L159.84 142.492ZM163.81 164.323C162.314 163.89 161.257 163.323 160.639 162.62C160.037 161.902 159.849 161.108 160.075 160.237C160.317 159.351 160.958 158.449 161.997 157.532C162.989 156.657 164.203 155.958 165.638 155.436C167.11 154.906 168.629 154.586 170.195 154.476C171.781 154.372 173.241 154.513 174.573 154.898C176.295 155.395 177.327 156.152 177.67 157.17C178.034 158.193 177.707 159.382 176.689 160.736L163.374 160.206L164.076 158.723L174.82 159.072L173.863 159.161C174.113 158.652 174.155 158.159 173.99 157.68C173.841 157.188 173.306 156.808 172.383 156.542C171.646 156.328 170.835 156.263 169.953 156.345C169.107 156.42 168.262 156.625 167.418 156.962C166.61 157.291 165.878 157.744 165.223 158.323C164.551 158.916 164.133 159.488 163.97 160.041C163.843 160.585 163.943 161.073 164.269 161.505C164.617 161.942 165.18 162.273 165.959 162.498C166.512 162.658 167.115 162.739 167.767 162.74C168.439 162.747 169.121 162.709 169.811 162.628L169.433 164.654C168.42 164.755 167.411 164.782 166.403 164.735C165.433 164.679 164.568 164.542 163.81 164.323ZM185.686 169.265C184.744 169.424 183.759 169.477 182.732 169.424C181.724 169.376 180.811 169.234 179.991 168.997C178.577 168.589 177.543 168.037 176.888 167.342C176.254 166.653 176.032 165.877 176.222 165.014C176.411 164.15 177.05 163.239 178.138 162.279C179.209 161.333 180.455 160.606 181.874 160.098C183.309 159.576 184.757 159.283 186.219 159.218C187.696 159.138 189.018 159.268 190.187 159.605C191.252 159.913 192.083 160.284 192.679 160.719C193.275 161.153 193.67 161.632 193.864 162.157L190.689 163.123C190.564 162.824 190.324 162.521 189.967 162.211C189.63 161.908 189.124 161.659 188.448 161.463C187.73 161.256 186.931 161.194 186.048 161.276C185.182 161.344 184.327 161.547 183.482 161.884C182.654 162.207 181.928 162.643 181.304 163.194C180.712 163.716 180.335 164.253 180.171 164.806C180.044 165.35 180.154 165.841 180.502 166.278C180.849 166.716 181.433 167.053 182.253 167.29C182.785 167.444 183.333 167.536 183.896 167.568C184.475 167.585 185.051 167.545 185.623 167.448L185.686 169.265ZM188.376 171.138L207.02 154.688L210.094 155.576L199.225 165.167L199.602 164.798C200.688 164.344 201.888 164.053 203.201 163.927C204.514 163.8 205.786 163.915 207.015 164.27C208.224 164.619 208.939 165.153 209.158 165.872C209.397 166.597 209.079 167.358 208.204 168.154L200.765 174.718L197.599 173.803L204.173 168.002C204.665 167.544 204.886 167.121 204.837 166.732C204.804 166.329 204.406 166.008 203.643 165.769C202.946 165.568 202.143 165.532 201.233 165.663C200.34 165.779 199.441 166.044 198.537 166.458C197.649 166.857 196.845 167.374 196.125 168.009L191.542 172.053L188.376 171.138ZM218.491 168.063L216.464 170.175L216.653 169.865C217.803 169.354 219.045 169.038 220.379 168.917C221.729 168.783 223.018 168.893 224.248 169.248C225.457 169.598 226.171 170.132 226.39 170.851C226.63 171.576 226.312 172.336 225.437 173.133L217.998 179.696L214.832 178.781L221.406 172.98C221.898 172.523 222.119 172.099 222.07 171.71C222.037 171.307 221.639 170.986 220.876 170.747C220.179 170.546 219.376 170.511 218.466 170.641C217.572 170.758 216.682 171.016 215.794 171.415C214.906 171.814 214.094 172.338 213.358 172.988L208.775 177.032L205.609 176.117L215.663 167.246L218.491 168.063ZM226.87 176.245C227.877 175.355 229.089 174.647 230.503 174.119C231.934 173.576 233.424 173.258 234.975 173.162C236.525 173.067 237.997 173.22 239.39 173.623C240.805 174.031 241.813 174.594 242.414 175.311C243.016 176.029 243.196 176.83 242.954 177.716C242.749 178.593 242.142 179.476 241.134 180.366C240.127 181.255 238.918 181.973 237.507 182.522C236.118 183.076 234.65 183.411 233.104 183.526C231.575 183.627 230.093 183.471 228.658 183.057C227.285 182.66 226.271 182.114 225.617 181.419C224.983 180.73 224.748 179.941 224.913 179.052C225.114 178.154 225.766 177.219 226.87 176.245ZM230.043 177.19C229.419 177.74 229.025 178.291 228.862 178.844C228.714 179.382 228.786 179.871 229.076 180.311C229.383 180.737 229.905 181.056 230.643 181.269C231.401 181.488 232.221 181.557 233.104 181.474C234.002 181.378 234.863 181.158 235.687 180.815C236.547 180.464 237.289 180.014 237.913 179.463C238.537 178.913 238.923 178.368 239.07 177.83C239.238 177.298 239.177 176.812 238.886 176.372C238.596 175.932 238.072 175.602 237.313 175.383C236.555 175.164 235.727 175.103 234.828 175.2C233.93 175.296 233.051 175.52 232.19 175.871C231.367 176.214 230.651 176.653 230.043 177.19ZM258.388 169.528L261.555 170.442L242.911 186.893L239.744 185.978L258.388 169.528ZM251.758 183.435C252.766 182.545 253.977 181.837 255.392 181.309C256.823 180.766 258.313 180.448 259.863 180.352C261.413 180.257 262.885 180.41 264.279 180.813C265.693 181.221 266.701 181.784 267.303 182.501C267.905 183.219 268.085 184.02 267.843 184.906C267.637 185.783 267.031 186.666 266.023 187.556C265.015 188.445 263.806 189.164 262.396 189.712C261.006 190.266 259.539 190.601 257.993 190.716C256.463 190.818 254.981 190.661 253.546 190.247C252.173 189.85 251.16 189.304 250.505 188.609C249.871 187.92 249.637 187.131 249.801 186.242C250.002 185.344 250.654 184.409 251.758 183.435ZM254.931 184.38C254.308 184.93 253.914 185.481 253.75 186.034C253.603 186.572 253.674 187.061 253.965 187.501C254.271 187.927 254.793 188.246 255.531 188.459C256.29 188.678 257.11 188.747 257.992 188.664C258.891 188.568 259.752 188.348 260.575 188.005C261.436 187.654 262.178 187.204 262.802 186.653C263.426 186.103 263.811 185.558 263.959 185.02C264.127 184.488 264.065 184.002 263.775 183.562C263.485 183.122 262.96 182.793 262.202 182.573C261.444 182.354 260.615 182.293 259.717 182.39C258.819 182.486 257.939 182.71 257.079 183.061C256.255 183.404 255.539 183.843 254.931 184.38ZM265.944 199.393C264.94 199.102 264.157 198.773 263.595 198.405C263.033 198.036 262.615 197.625 262.34 197.171C262.07 196.737 261.845 196.288 261.664 195.824L265.243 194.862C265.414 195.455 265.702 195.969 266.107 196.404C266.495 196.854 267.14 197.209 268.042 197.469C268.944 197.73 269.832 197.846 270.708 197.818C271.587 197.81 272.41 197.673 273.174 197.406C273.938 197.14 274.608 196.753 275.184 196.245L277.83 193.946L277.566 194.431C276.561 194.909 275.356 195.217 273.949 195.354C272.559 195.477 271.177 195.34 269.803 194.943C268.635 194.606 267.781 194.087 267.241 193.388C266.721 192.694 266.563 191.909 266.769 191.031C266.974 190.154 267.581 189.27 268.589 188.381C269.645 187.45 270.88 186.72 272.294 186.192C273.746 185.655 275.216 185.331 276.704 185.217C278.209 185.09 279.545 185.195 280.714 185.532C281.861 185.864 282.71 186.315 283.26 186.886C283.826 187.443 284.078 188.013 284.017 188.595L283.425 188.901L285.539 187.432L288.459 188.276L278.357 197.189C277.43 198.008 276.28 198.65 274.909 199.116C273.542 199.602 272.09 199.875 270.551 199.937C268.996 200.012 267.461 199.831 265.944 199.393ZM271.858 189.241C271.234 189.792 270.851 190.346 270.708 190.904C270.565 191.463 270.659 191.968 270.99 192.419C271.358 192.863 271.942 193.2 272.741 193.431C273.459 193.638 274.2 193.74 274.966 193.736C275.748 193.719 276.501 193.618 277.227 193.434C277.989 193.242 278.694 192.968 279.342 192.612L281.43 190.77C281.709 190.307 281.804 189.876 281.714 189.475C281.64 189.06 281.412 188.685 281.03 188.35C280.648 188.015 280.109 187.747 279.412 187.545C278.613 187.314 277.741 187.231 276.797 187.296C275.89 187.352 275.004 187.546 274.139 187.877C273.274 188.208 272.514 188.663 271.858 189.241ZM279.5 203.112L302.892 192.445L305.782 193.28L282.605 204.009L279.5 203.112ZM287.509 199.861L291.394 189.124L294.96 190.154L291.186 199.462L287.509 199.861Z" fill="#FFF4ED"/>
<rect width="249" height="69" rx="10" transform="matrix(0.960714 0.27754 -0.749838 0.661622 316.653 101)" fill="#4F4F4F" fill-opacity="0.25"/>
<path d="M376.119 135.54L389.492 139.403L387.021 141.584L376.937 138.671L371.706 143.286L380.529 145.835L378.082 147.995L369.259 145.446L361.988 151.861L358.699 150.911L376.119 135.54ZM385.789 146.961L388.955 147.876L378.901 156.747L375.735 155.832L385.789 146.961ZM389.203 143.732C389.587 143.393 390.102 143.167 390.747 143.054C391.393 142.941 391.941 142.949 392.392 143.079C392.863 143.215 393.155 143.45 393.268 143.782C393.381 144.115 393.246 144.45 392.862 144.789C392.478 145.128 391.974 145.357 391.349 145.476C390.74 145.581 390.2 145.566 389.728 145.429C389.277 145.299 388.977 145.072 388.828 144.748C388.694 144.409 388.82 144.071 389.203 143.732ZM399.419 145.728L402.586 146.643L398.147 150.559L401.59 151.554L399.646 153.269L396.203 152.274L388.117 159.409L384.95 158.494L393.037 151.359L390.762 150.702L392.705 148.987L394.98 149.645L399.419 145.728ZM407.861 153.338L405.834 155.45L406.023 155.139C407.174 154.628 408.416 154.313 409.749 154.192C411.099 154.058 412.389 154.168 413.618 154.523C414.828 154.872 415.542 155.407 415.761 156.126C416 156.85 415.682 157.611 414.807 158.407L407.369 164.971L404.202 164.056L410.777 158.255C411.268 157.797 411.489 157.374 411.44 156.985C411.407 156.582 411.009 156.261 410.246 156.022C409.55 155.821 408.746 155.785 407.837 155.916C406.943 156.033 406.052 156.29 405.164 156.69C404.276 157.089 403.465 157.613 402.729 158.263L398.146 162.306L394.979 161.392L405.033 152.521L407.861 153.338ZM418.028 168.331C416.532 167.899 415.475 167.331 414.857 166.628C414.255 165.911 414.068 165.117 414.294 164.245C414.535 163.36 415.176 162.458 416.216 161.541C417.208 160.665 418.421 159.967 419.857 159.445C421.328 158.914 422.847 158.594 424.413 158.485C426 158.381 427.459 158.522 428.792 158.906C430.513 159.404 431.546 160.161 431.889 161.178C432.253 162.201 431.926 163.39 430.907 164.745L417.593 164.215L418.295 162.731L429.039 163.081L428.081 163.17C428.331 162.661 428.374 162.168 428.209 161.689C428.06 161.196 427.524 160.817 426.602 160.55C425.864 160.337 425.054 160.272 424.172 160.354C423.326 160.428 422.481 160.634 421.637 160.971C420.829 161.299 420.097 161.753 419.441 162.332C418.769 162.925 418.352 163.497 418.188 164.049C418.061 164.594 418.161 165.081 418.488 165.513C418.835 165.951 419.399 166.282 420.177 166.507C420.731 166.667 421.333 166.747 421.985 166.748C422.658 166.755 423.339 166.718 424.03 166.636L423.651 168.663C422.639 168.764 421.629 168.791 420.622 168.743C419.651 168.688 418.787 168.55 418.028 168.331ZM431.959 172.327C431.016 172.055 430.232 171.679 429.606 171.198C428.997 170.704 428.661 170.148 428.599 169.53L431.344 168.693C431.497 169.206 431.747 169.634 432.092 169.977C432.474 170.312 432.921 170.554 433.434 170.702C433.844 170.82 434.244 170.899 434.636 170.937C435.044 170.961 435.439 170.925 435.82 170.829C436.2 170.733 436.535 170.558 436.823 170.304C437.159 170.008 437.279 169.733 437.184 169.481C437.089 169.229 436.88 168.981 436.557 168.738C436.235 168.495 435.873 168.25 435.472 168.003C434.658 167.449 434.222 166.874 434.165 166.276C434.123 165.665 434.446 165.055 435.134 164.448C435.662 163.983 436.322 163.592 437.114 163.278C437.942 162.955 438.857 162.76 439.858 162.693C440.858 162.627 441.871 162.741 442.896 163.037C443.839 163.309 444.581 163.627 445.122 163.989C445.679 164.338 446.066 164.777 446.281 165.308L443.563 166.265C443.482 165.904 443.257 165.587 442.889 165.312C442.557 165.028 442.194 164.82 441.8 164.688C441.431 164.581 441.045 164.526 440.642 164.522C440.254 164.504 439.88 164.545 439.52 164.647C439.176 164.735 438.891 164.878 438.667 165.076C438.327 165.352 438.196 165.623 438.275 165.89C438.391 166.148 438.62 166.402 438.964 166.651C439.323 166.886 439.664 167.125 439.987 167.368C440.479 167.679 440.842 168.018 441.078 168.386C441.33 168.74 441.424 169.113 441.359 169.507C441.294 169.9 440.989 170.337 440.445 170.817C439.853 171.339 439.109 171.779 438.212 172.139C437.331 172.484 436.352 172.688 435.274 172.751C434.211 172.8 433.106 172.659 431.959 172.327ZM444.718 176.014C443.775 175.741 442.991 175.365 442.366 174.884C441.757 174.39 441.421 173.834 441.359 173.216L444.103 172.379C444.257 172.892 444.506 173.32 444.852 173.663C445.234 173.998 445.681 174.24 446.193 174.388C446.603 174.506 447.004 174.585 447.396 174.623C447.804 174.647 448.198 174.611 448.579 174.515C448.96 174.419 449.294 174.244 449.582 173.99C449.918 173.694 450.039 173.419 449.944 173.167C449.849 172.915 449.64 172.667 449.317 172.424C448.994 172.181 448.632 171.936 448.232 171.689C447.418 171.135 446.982 170.56 446.924 169.962C446.883 169.351 447.206 168.741 447.894 168.134C448.422 167.669 449.082 167.279 449.873 166.964C450.702 166.641 451.616 166.446 452.617 166.379C453.618 166.313 454.631 166.427 455.655 166.723C456.598 166.996 457.34 167.313 457.882 167.675C458.439 168.024 458.825 168.463 459.04 168.994L456.323 169.951C456.242 169.591 456.017 169.273 455.649 168.998C455.317 168.714 454.954 168.507 454.56 168.374C454.191 168.267 453.805 168.212 453.401 168.208C453.014 168.19 452.64 168.232 452.28 168.334C451.935 168.421 451.651 168.564 451.427 168.762C451.087 169.038 450.956 169.309 451.035 169.576C451.15 169.834 451.38 170.088 451.723 170.337C452.083 170.572 452.424 170.811 452.747 171.054C453.238 171.365 453.602 171.704 453.838 172.072C454.09 172.426 454.183 172.799 454.118 173.193C454.053 173.586 453.749 174.023 453.205 174.503C452.613 175.025 451.869 175.466 450.972 175.825C450.091 176.17 449.111 176.374 448.033 176.437C446.971 176.486 445.866 176.345 444.718 176.014Z" fill="#FFF4ED"/>
<rect width="249" height="69" rx="10" transform="matrix(0.960714 0.27754 -0.749838 0.661622 190.653 204)" fill="#4F4F4F" fill-opacity="0.25"/>
<path d="M262.367 245.985C261.908 245.478 261.34 244.995 260.662 244.537C259.984 244.079 259.225 243.728 258.385 243.485C257.237 243.154 256.117 243.074 255.025 243.245C253.949 243.403 253.059 243.792 252.355 244.413C251.859 244.851 251.653 245.297 251.736 245.752C251.819 246.207 252.083 246.658 252.528 247.105C252.973 247.552 253.476 247.997 254.035 248.44C254.52 248.804 254.954 249.202 255.338 249.631C255.758 250.052 256.043 250.509 256.192 251.002C256.361 251.5 256.312 252.048 256.043 252.645C255.811 253.234 255.287 253.888 254.472 254.608C253.544 255.427 252.407 256.082 251.061 256.574C249.735 257.071 248.295 257.358 246.74 257.433C245.222 257.5 243.684 257.309 242.126 256.859C241.184 256.587 240.341 256.25 239.599 255.848C238.894 255.438 238.278 254.998 237.75 254.527C237.259 254.048 236.864 253.568 236.565 253.089L240.032 251.758C240.252 252.14 240.552 252.535 240.931 252.945C241.327 253.34 241.79 253.699 242.323 254.021C242.876 254.35 243.46 254.603 244.074 254.78C244.751 254.976 245.505 255.09 246.337 255.125C247.184 255.145 248.016 255.047 248.83 254.833C249.66 254.605 250.395 254.208 251.035 253.643C251.579 253.164 251.84 252.705 251.819 252.268C251.834 251.823 251.659 251.388 251.296 250.965C250.953 250.547 250.527 250.143 250.018 249.752C249.529 249.367 249.054 248.958 248.592 248.525C248.131 248.092 247.769 247.632 247.506 247.144C247.259 246.641 247.205 246.101 247.343 245.523C247.518 244.936 247.997 244.297 248.781 243.606C249.709 242.787 250.794 242.154 252.035 241.707C253.312 241.252 254.653 240.993 256.058 240.93C257.462 240.867 258.844 241.004 260.203 241.341C261.7 241.773 262.857 242.276 263.676 242.85C264.495 243.424 265.134 244.011 265.595 244.613L262.367 245.985ZM261.324 262.461C260.382 262.189 259.64 261.787 259.099 261.256C258.574 260.711 258.335 260.118 258.383 259.476L259.311 258.873L252.161 265.182L249.025 264.276L264.07 251.001L266.806 251.792L264.789 254.076L265.146 253.364C266.358 253.039 267.616 252.841 268.922 252.769C270.249 252.702 271.486 252.835 272.634 253.166C273.843 253.516 274.706 254.027 275.221 254.701C275.736 255.374 275.863 256.151 275.6 257.03C275.338 257.91 274.655 258.837 273.551 259.811C272.463 260.771 271.212 261.515 269.797 262.043C268.419 262.563 266.992 262.862 265.514 262.941C264.053 263.006 262.657 262.846 261.324 262.461ZM262.653 260.569C263.432 260.794 264.293 260.874 265.237 260.809C266.201 260.751 267.126 260.559 268.011 260.234C268.933 259.901 269.706 259.459 270.33 258.908C270.986 258.33 271.367 257.765 271.473 257.215C271.616 256.657 271.514 256.159 271.167 255.721C270.84 255.29 270.297 254.964 269.539 254.745C268.821 254.538 268.082 254.446 267.321 254.47C266.575 254.479 265.832 254.583 265.091 254.781C264.349 254.979 263.649 255.273 262.989 255.663L261.141 257.294C260.801 257.739 260.631 258.177 260.632 258.608C260.633 259.039 260.806 259.426 261.151 259.77C261.497 260.113 261.997 260.379 262.653 260.569ZM276.28 260.487C277.287 259.597 278.499 258.889 279.913 258.361C281.344 257.818 282.834 257.5 284.385 257.404C285.935 257.309 287.407 257.462 288.8 257.865C290.214 258.273 291.222 258.836 291.824 259.553C292.426 260.27 292.606 261.072 292.364 261.958C292.159 262.835 291.552 263.718 290.544 264.608C289.537 265.497 288.328 266.215 286.917 266.764C285.528 267.318 284.06 267.652 282.514 267.768C280.985 267.869 279.503 267.713 278.068 267.298C276.695 266.902 275.681 266.356 275.027 265.661C274.393 264.972 274.158 264.183 274.323 263.294C274.524 262.396 275.176 261.461 276.28 260.487ZM279.453 261.431C278.829 261.982 278.435 262.533 278.272 263.086C278.124 263.624 278.196 264.113 278.486 264.553C278.793 264.979 279.315 265.298 280.053 265.511C280.811 265.73 281.631 265.799 282.514 265.716C283.412 265.62 284.273 265.4 285.097 265.057C285.957 264.706 286.699 264.256 287.323 263.705C287.947 263.155 288.333 262.61 288.48 262.072C288.648 261.54 288.587 261.054 288.296 260.614C288.006 260.174 287.482 259.844 286.723 259.625C285.965 259.406 285.137 259.345 284.238 259.441C283.34 259.538 282.461 259.762 281.6 260.113C280.777 260.455 280.061 260.895 279.453 261.431ZM302.036 262.166L299.464 264.796L299.694 264.412C300.651 263.977 301.663 263.66 302.73 263.463C303.797 263.265 304.781 263.165 305.681 263.163C306.618 263.152 307.322 263.215 307.793 263.352L305.192 265.467C304.256 265.14 303.252 265.018 302.178 265.102C301.125 265.191 300.113 265.423 299.143 265.799C298.174 266.175 297.369 266.645 296.729 267.209L292.29 271.126L289.154 270.22L299.208 261.349L302.036 262.166ZM316.621 261.209L319.788 262.123L315.349 266.04L318.792 267.035L316.848 268.75L313.405 267.755L305.319 274.89L302.153 273.975L310.239 266.84L307.964 266.183L309.907 264.468L312.182 265.125L316.621 261.209ZM315.716 278.146C314.773 277.874 313.989 277.498 313.364 277.017C312.754 276.523 312.419 275.967 312.357 275.349L315.101 274.512C315.255 275.025 315.504 275.453 315.849 275.796C316.231 276.131 316.678 276.373 317.191 276.521C317.601 276.639 318.002 276.718 318.394 276.756C318.801 276.78 319.196 276.744 319.577 276.648C319.958 276.552 320.292 276.377 320.58 276.123C320.916 275.827 321.036 275.552 320.941 275.3C320.846 275.048 320.638 274.8 320.315 274.557C319.992 274.314 319.63 274.069 319.23 273.822C318.415 273.268 317.979 272.692 317.922 272.095C317.88 271.484 318.204 270.874 318.891 270.267C319.419 269.802 320.079 269.411 320.871 269.097C321.699 268.774 322.614 268.579 323.615 268.512C324.615 268.445 325.628 268.56 326.653 268.856C327.596 269.128 328.338 269.446 328.879 269.808C329.437 270.157 329.823 270.596 330.038 271.127L327.32 272.084C327.239 271.723 327.015 271.406 326.646 271.131C326.314 270.847 325.951 270.639 325.557 270.507C325.189 270.4 324.802 270.345 324.399 270.341C324.012 270.323 323.638 270.364 323.277 270.466C322.933 270.554 322.649 270.697 322.425 270.895C322.084 271.171 321.954 271.442 322.032 271.709C322.148 271.967 322.377 272.221 322.721 272.47C323.08 272.705 323.421 272.944 323.744 273.187C324.236 273.497 324.599 273.837 324.835 274.205C325.087 274.558 325.181 274.932 325.116 275.326C325.051 275.719 324.746 276.156 324.202 276.635C323.611 277.158 322.866 277.598 321.969 277.958C321.089 278.303 320.109 278.507 319.031 278.57C317.969 278.619 316.864 278.478 315.716 278.146Z" fill="#FFF4ED"/>
<g filter="url(#filter0_d_1501_1133)">
<rect width="249" height="69" rx="10" transform="matrix(0.960714 0.27754 -0.749838 0.661622 72.6963 11)" fill="#FF462E"/>
<path d="M132.914 64.6147C132.41 64.6752 131.702 64.7236 130.791 64.76C129.915 64.7882 128.949 64.7526 127.892 64.6533C126.855 64.5598 125.822 64.3551 124.793 64.039C123.067 63.5216 121.739 62.857 120.809 62.045C119.9 61.239 119.363 60.344 119.2 59.36C119.052 58.3619 119.232 57.3271 119.739 56.2557C120.282 55.1761 121.146 54.1141 122.33 53.0696C123.641 51.9122 125.108 50.9306 126.728 50.1247C128.365 49.3048 130.083 48.677 131.883 48.2413C133.703 47.8116 135.503 47.5916 137.283 47.5812C139.083 47.5768 140.783 47.8055 142.382 48.2673C143.755 48.664 144.851 49.1492 145.67 49.723C146.488 50.2968 147.085 50.8626 147.46 51.4205L143.769 53.1646C143.494 52.7106 143.06 52.2293 142.467 51.7206C141.91 51.2038 141.099 50.7914 140.033 50.4835C138.988 50.1816 137.826 50.0426 136.547 50.0667C135.305 50.0825 134.029 50.248 132.72 50.563C131.447 50.8698 130.214 51.3098 129.02 51.883C127.843 52.4421 126.798 53.1239 125.886 53.9284C124.958 54.7471 124.287 55.5555 123.872 56.3537C123.457 57.1519 123.3 57.9027 123.4 58.6062C123.521 59.3157 123.904 59.9507 124.547 60.5112C125.19 61.0718 126.116 61.5268 127.326 61.8761C128.473 62.2076 129.614 62.3778 130.746 62.3865C131.9 62.4012 132.929 62.3332 133.834 62.1825L132.914 64.6147ZM148.698 58.9447L146.126 61.5741L146.356 61.191C147.313 60.7553 148.324 60.4386 149.392 60.2411C150.459 60.0435 151.443 59.9437 152.343 59.9414C153.28 59.931 153.984 59.9939 154.455 60.1301L151.854 62.2452C150.918 61.9187 149.913 61.797 148.84 61.8803C147.786 61.9695 146.775 62.2019 145.805 62.5775C144.835 62.953 144.03 63.4231 143.391 63.9877L138.952 67.9045L135.816 66.9986L145.87 58.1276L148.698 58.9447ZM143.838 74.9649L167.23 64.2984L170.12 65.1333L146.943 75.8619L143.838 74.9649ZM151.847 71.7143L155.732 60.9768L159.298 62.0071L155.524 71.3149L151.847 71.7143ZM170.493 77.2974C169.55 77.025 168.808 76.6234 168.267 76.0924C167.742 75.5473 167.504 74.9538 167.551 74.3117L168.479 73.7087L161.329 80.0179L158.193 79.112L173.238 65.8372L175.974 66.6277L173.957 68.9115L174.315 68.1999C175.526 67.8753 176.784 67.6768 178.091 67.6045C179.417 67.5381 180.655 67.6707 181.802 68.0023C183.012 68.3516 183.874 68.863 184.389 69.5365C184.905 70.21 185.031 70.9866 184.769 71.8663C184.506 72.746 183.823 73.6728 182.719 74.6467C181.632 75.6065 180.38 76.3505 178.966 76.8786C177.587 77.3985 176.16 77.698 174.683 77.7771C173.221 77.8422 171.825 77.6822 170.493 77.2974ZM171.821 75.4048C172.6 75.6298 173.461 75.71 174.405 75.6454C175.369 75.5868 176.294 75.3949 177.18 75.0698C178.101 74.7366 178.874 74.2947 179.498 73.7443C180.154 73.1656 180.535 72.6012 180.642 72.0511C180.785 71.4929 180.682 70.995 180.335 70.5574C180.008 70.1257 179.465 69.8003 178.707 69.5812C177.99 69.374 177.25 69.2822 176.489 69.3058C175.744 69.3153 175 69.4191 174.259 69.6171C173.518 69.8152 172.817 70.1093 172.157 70.4994L170.31 72.1297C169.969 72.5745 169.799 73.0126 169.8 73.4438C169.801 73.875 169.974 74.2623 170.319 74.6056C170.665 74.949 171.165 75.2154 171.821 75.4048ZM197.118 67.7617L200.285 68.6765L195.846 72.5933L199.289 73.588L197.345 75.3029L193.902 74.3082L185.816 81.4431L182.649 80.5283L190.736 73.3934L188.461 72.7362L190.404 71.0213L192.679 71.6785L197.118 67.7617ZM196.706 78.575C197.714 77.6858 198.925 76.9771 200.34 76.449C201.771 75.9068 203.261 75.5879 204.811 75.4924C206.361 75.3969 207.833 75.5504 209.227 75.9531C210.641 76.3616 211.649 76.9245 212.251 77.6417C212.853 78.3589 213.033 79.1603 212.791 80.0459C212.585 80.9234 211.979 81.8067 210.971 82.6959C209.963 83.5851 208.754 84.3038 207.344 84.8519C205.954 85.406 204.487 85.7408 202.941 85.8564C201.411 85.9578 199.929 85.8013 198.494 85.3868C197.121 84.9901 196.108 84.4443 195.453 83.7494C194.819 83.0605 194.585 82.2713 194.749 81.3821C194.95 80.4846 195.602 79.5489 196.706 78.575ZM199.879 79.5198C199.256 80.0703 198.862 80.6217 198.698 81.174C198.551 81.7122 198.622 82.2013 198.913 82.6411C199.219 83.0669 199.741 83.3864 200.479 83.5995C201.238 83.8186 202.058 83.8869 202.94 83.8046C203.839 83.7081 204.7 83.4885 205.523 83.1457C206.384 82.7946 207.126 82.3439 207.75 81.7934C208.374 81.243 208.759 80.6986 208.907 80.1604C209.075 79.6281 209.013 79.142 208.723 78.7022C208.433 78.2623 207.908 77.9328 207.15 77.7137C206.392 77.4947 205.563 77.4334 204.665 77.5298C203.767 77.6263 202.887 77.85 202.027 78.2011C201.203 78.5439 200.487 78.9835 199.879 79.5198Z" fill="white"/>
</g>
<rect width="249" height="69" rx="10" transform="matrix(0.960714 0.27754 -0.749838 0.661622 72.6963 11)" fill="#FF462E"/>
<path d="M132.914 64.6147C132.41 64.6752 131.702 64.7236 130.791 64.76C129.915 64.7882 128.949 64.7526 127.892 64.6533C126.855 64.5598 125.822 64.3551 124.793 64.039C123.067 63.5216 121.739 62.857 120.809 62.045C119.9 61.239 119.363 60.344 119.2 59.36C119.052 58.3619 119.232 57.3271 119.739 56.2557C120.282 55.1761 121.146 54.1141 122.33 53.0696C123.641 51.9122 125.108 50.9306 126.728 50.1247C128.365 49.3048 130.083 48.677 131.883 48.2413C133.703 47.8116 135.503 47.5916 137.283 47.5812C139.083 47.5768 140.783 47.8055 142.382 48.2673C143.755 48.664 144.851 49.1492 145.67 49.723C146.488 50.2968 147.085 50.8626 147.46 51.4205L143.769 53.1646C143.494 52.7106 143.06 52.2293 142.467 51.7206C141.91 51.2038 141.099 50.7914 140.033 50.4835C138.988 50.1816 137.826 50.0426 136.547 50.0667C135.305 50.0825 134.029 50.248 132.72 50.563C131.447 50.8698 130.214 51.3098 129.02 51.883C127.843 52.4421 126.798 53.1239 125.886 53.9284C124.958 54.7471 124.287 55.5555 123.872 56.3537C123.457 57.1519 123.3 57.9027 123.4 58.6062C123.521 59.3157 123.904 59.9507 124.547 60.5112C125.19 61.0718 126.116 61.5268 127.326 61.8761C128.473 62.2076 129.614 62.3778 130.746 62.3865C131.9 62.4012 132.929 62.3332 133.834 62.1825L132.914 64.6147ZM148.698 58.9447L146.126 61.5741L146.356 61.191C147.313 60.7553 148.324 60.4386 149.392 60.2411C150.459 60.0435 151.443 59.9437 152.343 59.9414C153.28 59.931 153.984 59.9939 154.455 60.1301L151.854 62.2452C150.918 61.9187 149.913 61.797 148.84 61.8803C147.786 61.9695 146.775 62.2019 145.805 62.5775C144.835 62.953 144.03 63.4231 143.391 63.9877L138.952 67.9045L135.816 66.9986L145.87 58.1276L148.698 58.9447ZM143.838 74.9649L167.23 64.2984L170.12 65.1333L146.943 75.8619L143.838 74.9649ZM151.847 71.7143L155.732 60.9768L159.298 62.0071L155.524 71.3149L151.847 71.7143ZM170.493 77.2974C169.55 77.025 168.808 76.6234 168.267 76.0924C167.742 75.5473 167.504 74.9538 167.551 74.3117L168.479 73.7087L161.329 80.0179L158.193 79.112L173.238 65.8372L175.974 66.6277L173.957 68.9115L174.315 68.1999C175.526 67.8753 176.784 67.6768 178.091 67.6045C179.417 67.5381 180.655 67.6707 181.802 68.0023C183.012 68.3516 183.874 68.863 184.389 69.5365C184.905 70.21 185.031 70.9866 184.769 71.8663C184.506 72.746 183.823 73.6728 182.719 74.6467C181.632 75.6065 180.38 76.3505 178.966 76.8786C177.587 77.3985 176.16 77.698 174.683 77.7771C173.221 77.8422 171.825 77.6822 170.493 77.2974ZM171.821 75.4048C172.6 75.6298 173.461 75.71 174.405 75.6454C175.369 75.5868 176.294 75.3949 177.18 75.0698C178.101 74.7366 178.874 74.2947 179.498 73.7443C180.154 73.1656 180.535 72.6012 180.642 72.0511C180.785 71.4929 180.682 70.995 180.335 70.5574C180.008 70.1257 179.465 69.8003 178.707 69.5812C177.99 69.374 177.25 69.2822 176.489 69.3058C175.744 69.3153 175 69.4191 174.259 69.6171C173.518 69.8152 172.817 70.1093 172.157 70.4994L170.31 72.1297C169.969 72.5745 169.799 73.0126 169.8 73.4438C169.801 73.875 169.974 74.2623 170.319 74.6056C170.665 74.949 171.165 75.2154 171.821 75.4048ZM197.118 67.7617L200.285 68.6765L195.846 72.5933L199.289 73.588L197.345 75.3029L193.902 74.3082L185.816 81.4431L182.649 80.5283L190.736 73.3934L188.461 72.7362L190.404 71.0213L192.679 71.6785L197.118 67.7617ZM196.706 78.575C197.714 77.6858 198.925 76.9771 200.34 76.449C201.771 75.9068 203.261 75.5879 204.811 75.4924C206.361 75.3969 207.833 75.5504 209.227 75.9531C210.641 76.3616 211.649 76.9245 212.251 77.6417C212.853 78.3589 213.033 79.1603 212.791 80.0459C212.585 80.9234 211.979 81.8067 210.971 82.6959C209.963 83.5851 208.754 84.3038 207.344 84.8519C205.954 85.406 204.487 85.7408 202.941 85.8564C201.411 85.9578 199.929 85.8013 198.494 85.3868C197.121 84.9901 196.108 84.4443 195.453 83.7494C194.819 83.0605 194.585 82.2713 194.749 81.3821C194.95 80.4846 195.602 79.5489 196.706 78.575ZM199.879 79.5198C199.256 80.0703 198.862 80.6217 198.698 81.174C198.551 81.7122 198.622 82.2013 198.913 82.6411C199.219 83.0669 199.741 83.3864 200.479 83.5995C201.238 83.8186 202.058 83.8869 202.94 83.8046C203.839 83.7081 204.7 83.4885 205.523 83.1457C206.384 82.7946 207.126 82.3439 207.75 81.7934C208.374 81.243 208.759 80.6986 208.907 80.1604C209.075 79.6281 209.013 79.142 208.723 78.7022C208.433 78.2623 207.908 77.9328 207.15 77.7137C206.392 77.4947 205.563 77.4334 204.665 77.5298C203.767 77.6263 202.887 77.85 202.027 78.2011C201.203 78.5439 200.487 78.9835 199.879 79.5198Z" fill="white"/>
<rect width="249" height="69" rx="10" transform="matrix(0.960714 0.27754 -0.749838 0.661622 567.61 170)" fill="#4F4F4F" fill-opacity="0.25"/>
<path d="M602.873 197.548C604.533 198.027 605.723 198.634 606.443 199.366C607.2 200.091 607.478 200.902 607.277 201.799C607.097 202.703 606.423 203.67 605.255 204.7C604.567 205.307 603.754 205.868 602.816 206.384C601.877 206.9 600.831 207.319 599.677 207.641C598.559 207.955 597.351 208.122 596.051 208.14C594.768 208.144 593.44 207.947 592.067 207.551L588.808 206.609L582.593 212.093L579.304 211.142L596.724 195.772L602.873 197.548ZM594.538 205.37C595.358 205.607 596.149 205.713 596.91 205.69C597.687 205.652 598.398 205.529 599.041 205.322C599.705 205.12 600.274 204.882 600.749 204.607C601.26 204.324 601.66 204.055 601.948 203.801C602.268 203.519 602.532 203.201 602.741 202.849C602.986 202.489 603.106 202.131 603.103 201.774C603.115 201.403 602.951 201.055 602.61 200.732C602.285 200.395 601.723 200.111 600.924 199.88L597.542 198.903L591.279 204.429L594.538 205.37ZM610.003 208.236L607.431 210.865L607.661 210.482C608.617 210.046 609.629 209.73 610.696 209.532C611.764 209.334 612.747 209.235 613.648 209.232C614.584 209.222 615.288 209.285 615.76 209.421L613.159 211.536C612.223 211.21 611.218 211.088 610.144 211.171C609.091 211.26 608.08 211.493 607.11 211.868C606.14 212.244 605.335 212.714 604.695 213.279L600.256 217.195L597.121 216.289L607.174 207.418L610.003 208.236ZM612.377 214.683C613.385 213.794 614.596 213.085 616.011 212.557C617.441 212.015 618.932 211.696 620.482 211.6C622.032 211.505 623.504 211.658 624.898 212.061C626.312 212.469 627.32 213.032 627.922 213.749C628.524 214.467 628.704 215.268 628.462 216.154C628.256 217.031 627.65 217.914 626.642 218.804C625.634 219.693 624.425 220.412 623.015 220.96C621.625 221.514 620.157 221.849 618.612 221.964C617.082 222.066 615.6 221.909 614.165 221.495C612.792 221.098 611.778 220.552 611.124 219.857C610.49 219.168 610.255 218.379 610.42 217.49C610.621 216.592 611.273 215.657 612.377 214.683ZM615.55 215.628C614.926 216.178 614.533 216.729 614.369 217.282C614.222 217.82 614.293 218.309 614.584 218.749C614.89 219.175 615.412 219.494 616.15 219.707C616.908 219.926 617.729 219.995 618.611 219.912C619.509 219.816 620.37 219.596 621.194 219.253C622.055 218.902 622.797 218.452 623.42 217.901C624.044 217.351 624.43 216.806 624.577 216.268C624.745 215.736 624.684 215.25 624.394 214.81C624.103 214.37 623.579 214.041 622.821 213.821C622.062 213.602 621.234 213.541 620.336 213.638C619.437 213.734 618.558 213.958 617.698 214.309C616.874 214.652 616.158 215.091 615.55 215.628ZM630.269 226.147C629.059 225.797 628.189 225.293 627.658 224.634C627.142 223.96 627.016 223.183 627.278 222.304C627.541 221.424 628.216 220.504 629.304 219.545C630.423 218.556 631.672 217.803 633.051 217.283C634.445 216.749 635.852 216.443 637.272 216.366C638.729 216.281 640.092 216.422 641.363 216.789C642.347 217.074 643.119 217.484 643.681 218.021C644.279 218.55 644.544 219.132 644.476 219.768L643.544 220.483L654.317 210.976L657.453 211.882L638.809 228.333L635.643 227.418L638.018 225.322L637.708 225.991C636.513 226.302 635.262 226.493 633.956 226.566C632.666 226.624 631.437 226.484 630.269 226.147ZM633.34 224.589C634.057 224.796 634.789 224.895 635.534 224.885C636.279 224.876 637.023 224.772 637.764 224.574C638.521 224.362 639.222 224.068 639.866 223.692L641.881 221.913C642.186 221.477 642.301 221.051 642.227 220.636C642.189 220.213 641.98 219.834 641.598 219.499C641.216 219.164 640.687 218.898 640.01 218.703C639.252 218.484 638.411 218.41 637.488 218.48C636.601 218.543 635.715 218.736 634.83 219.061C633.965 219.392 633.205 219.847 632.549 220.426C631.925 220.976 631.542 221.531 631.399 222.089C631.276 222.653 631.381 223.161 631.712 223.613C632.059 224.05 632.602 224.376 633.34 224.589ZM647.367 231.283C646.178 230.939 645.484 230.411 645.286 229.698C645.088 228.985 645.408 228.234 646.247 227.446L653.709 220.862L656.875 221.777L650.301 227.578C649.83 228.041 649.591 228.468 649.583 228.86C649.611 229.243 649.996 229.551 650.739 229.784C651.436 229.985 652.21 230.022 653.063 229.893C653.953 229.757 654.831 229.486 655.698 229.081C656.602 228.667 657.422 228.136 658.158 227.487L662.717 223.464L665.883 224.379L655.829 233.25L652.97 232.424L655.052 230.299L654.791 230.673C654.076 230.992 653.289 231.242 652.43 231.425C651.586 231.593 650.73 231.664 649.861 231.638C648.977 231.626 648.146 231.508 647.367 231.283ZM672.158 236.871C671.217 237.03 670.232 237.083 669.204 237.029C668.197 236.982 667.283 236.84 666.463 236.603C665.049 236.194 664.015 235.643 663.361 234.948C662.727 234.259 662.505 233.483 662.694 232.619C662.884 231.756 663.522 230.844 664.61 229.885C665.682 228.939 666.927 228.212 668.346 227.704C669.782 227.182 671.23 226.888 672.691 226.823C674.168 226.744 675.491 226.873 676.659 227.211C677.725 227.519 678.556 227.89 679.151 228.324C679.747 228.759 680.142 229.238 680.337 229.763L677.161 230.728C677.037 230.43 676.796 230.126 676.439 229.817C676.103 229.514 675.596 229.265 674.92 229.069C674.203 228.862 673.403 228.799 672.521 228.882C671.654 228.95 670.799 229.153 669.955 229.49C669.126 229.812 668.4 230.249 667.776 230.799C667.185 231.322 666.807 231.859 666.643 232.411C666.516 232.955 666.627 233.446 666.974 233.884C667.322 234.321 667.905 234.659 668.725 234.896C669.258 235.049 669.806 235.142 670.369 235.174C670.947 235.191 671.523 235.151 672.095 235.054L672.158 236.871ZM690.547 226.333L693.713 227.248L689.274 231.164L692.718 232.159L690.774 233.874L687.331 232.879L679.245 240.014L676.078 239.099L684.164 231.965L681.889 231.307L683.833 229.592L686.108 230.25L690.547 226.333ZM696.161 233.126L699.327 234.04L689.273 242.911L686.107 241.997L696.161 233.126ZM699.575 229.897C699.959 229.558 700.474 229.332 701.119 229.218C701.765 229.105 702.313 229.113 702.764 229.244C703.235 229.38 703.527 229.614 703.64 229.947C703.753 230.279 703.618 230.615 703.234 230.953C702.85 231.292 702.345 231.521 701.721 231.64C701.112 231.746 700.572 231.73 700.1 231.594C699.649 231.464 699.349 231.236 699.2 230.912C699.066 230.574 699.191 230.235 699.575 229.897ZM699.209 246.091L702.24 234.882L705.991 235.966L702.951 244.193L701.086 243.57L713.093 238.017L716.628 239.038L699.332 246.126L699.209 246.091ZM725.223 236.35L728.389 237.265L723.95 241.182L727.393 242.177L725.45 243.891L722.007 242.897L713.92 250.032L710.754 249.117L718.84 241.982L716.565 241.325L718.509 239.61L720.784 240.267L725.223 236.35ZM717.036 256.58L740.428 245.914L743.318 246.749L720.141 257.477L717.036 256.58ZM725.045 253.33L728.93 242.592L732.496 243.623L728.722 252.931L725.045 253.33Z" fill="#FFF4ED"/>
<g filter="url(#filter1_d_1501_1133)">
<rect width="249" height="69" rx="10" transform="matrix(0.960714 0.27754 -0.749838 0.661622 -35.3037 111)" fill="#FF462E"/>
<path d="M23.6962 166.511L19.828 149.796L20.5411 150.283L8.15604 161.319L4.83581 160.36L22.8079 144.502L22.9616 144.547L26.5906 161.221L25.99 160.851L38.5498 149.696L41.8085 150.638L23.7884 166.538L23.6962 166.511ZM35.118 169.389C33.9088 169.04 33.0042 168.554 32.4044 167.931C31.8205 167.294 31.6336 166.547 31.8435 165.689C32.0535 164.832 32.7344 163.895 33.8861 162.879C35.0219 161.877 36.2948 161.102 37.705 160.553C39.1357 160.011 40.5589 159.692 41.9746 159.595C43.4267 159.49 44.7369 159.606 45.9052 159.943C47.1349 160.299 47.9312 160.772 48.2941 161.364C48.6935 161.948 48.8467 162.545 48.7537 163.155L48.1546 163.432L50.4536 161.763L53.3742 162.607L43.3203 171.478L40.1538 170.563L42.6733 168.34L42.4116 168.967C42.2016 169.056 41.8435 169.168 41.3371 169.303C40.8467 169.424 40.2481 169.532 39.5412 169.627C38.8549 169.729 38.1266 169.771 37.3562 169.755C36.6224 169.73 35.8763 169.608 35.118 169.389ZM37.9944 167.86C38.6707 168.055 39.3713 168.145 40.0961 168.13C40.821 168.114 41.5438 168.004 42.2646 167.801C42.9855 167.597 43.6576 167.304 44.2809 166.922L46.3685 165.08C46.6524 164.637 46.7597 164.218 46.6902 163.824C46.6367 163.415 46.4292 163.046 46.0678 162.716C45.7269 162.393 45.2285 162.137 44.5727 161.947C43.8349 161.734 43.0145 161.666 42.1118 161.742C41.225 161.804 40.3492 162.001 39.4843 162.332C38.6195 162.663 37.8592 163.118 37.2033 163.697C36.5795 164.247 36.1961 164.801 36.0531 165.36C35.9306 165.924 36.0351 166.432 36.3665 166.884C36.7139 167.321 37.2565 167.647 37.9944 167.86ZM63.8701 160.468L67.0366 161.383L62.5975 165.3L66.0407 166.294L64.0971 168.009L60.6539 167.014L52.5677 174.149L49.4012 173.235L57.4874 166.1L55.2125 165.443L57.156 163.728L59.431 164.385L63.8701 160.468ZM63.1415 177.682C61.9527 177.338 61.2592 176.81 61.0607 176.097C60.8623 175.384 61.1825 174.633 62.0213 173.845L69.4837 167.261L72.6502 168.176L66.0756 173.977C65.6047 174.44 65.3653 174.867 65.3572 175.259C65.3857 175.642 65.7711 175.95 66.5135 176.183C67.2103 176.384 67.9851 176.421 68.8379 176.292C69.7272 176.156 70.6055 175.885 71.4728 175.48C72.3766 175.066 73.1965 174.535 73.9323 173.886L78.4913 169.863L81.6578 170.778L71.604 179.649L68.7449 178.823L70.8265 176.698L70.5655 177.072C69.8512 177.391 69.0641 177.641 68.2043 177.824C67.3605 177.992 66.5044 178.063 65.6361 178.037C64.7518 178.025 63.9203 177.907 63.1415 177.682ZM89.3347 172.996L86.7627 175.625L86.9929 175.242C87.9492 174.806 88.961 174.489 90.0282 174.292C91.0955 174.094 92.0793 173.995 92.9796 173.992C93.9164 173.982 94.6204 174.045 95.0918 174.181L92.4906 176.296C91.5549 175.97 90.5501 175.848 89.4763 175.931C88.4231 176.02 87.4116 176.253 86.4418 176.628C85.472 177.004 84.6672 177.474 84.0273 178.039L79.5883 181.955L76.4525 181.049L86.5063 172.178L89.3347 172.996ZM93.4972 186.255C92.0011 185.822 90.9441 185.255 90.3262 184.552C89.7244 183.834 89.5364 183.04 89.7624 182.168C90.0044 181.283 90.6452 180.381 91.685 179.464C92.6768 178.589 93.8903 177.89 95.3254 177.368C96.7971 176.838 98.316 176.518 99.8822 176.408C101.469 176.304 102.928 176.445 104.26 176.83C105.982 177.327 107.015 178.084 107.358 179.102C107.722 180.125 107.395 181.314 106.376 182.668L93.0616 182.138L93.7635 180.655L104.508 181.004L103.55 181.093C103.8 180.584 103.843 180.091 103.678 179.612C103.529 179.12 102.993 178.74 102.071 178.474C101.333 178.26 100.523 178.195 99.6407 178.277C98.7949 178.351 97.9498 178.557 97.1055 178.894C96.2977 179.223 95.5659 179.676 94.91 180.255C94.2381 180.848 93.8205 181.42 93.657 181.973C93.53 182.517 93.63 183.005 93.9569 183.436C94.3043 183.874 94.8675 184.205 95.6463 184.43C96.1996 184.59 96.8023 184.671 97.4541 184.672C98.1265 184.678 98.808 184.641 99.4989 184.56L99.1202 186.586C98.1079 186.687 97.0982 186.714 96.0909 186.667C95.1201 186.611 94.2556 186.474 93.4972 186.255Z" fill="white"/>
</g>
<rect width="249" height="69" rx="10" transform="matrix(0.960714 0.27754 -0.749838 0.661622 -35.3037 111)" fill="#FF462E"/>
<path d="M23.6962 166.511L19.828 149.796L20.5411 150.283L8.15604 161.319L4.83581 160.36L22.8079 144.502L22.9616 144.547L26.5906 161.221L25.99 160.851L38.5498 149.696L41.8085 150.638L23.7884 166.538L23.6962 166.511ZM35.118 169.389C33.9088 169.04 33.0042 168.554 32.4044 167.931C31.8205 167.294 31.6336 166.547 31.8435 165.689C32.0535 164.832 32.7344 163.895 33.8861 162.879C35.0219 161.877 36.2948 161.102 37.705 160.553C39.1357 160.011 40.5589 159.692 41.9746 159.595C43.4267 159.49 44.7369 159.606 45.9052 159.943C47.1349 160.299 47.9312 160.772 48.2941 161.364C48.6935 161.948 48.8467 162.545 48.7537 163.155L48.1546 163.432L50.4536 161.763L53.3742 162.607L43.3203 171.478L40.1538 170.563L42.6733 168.34L42.4116 168.967C42.2016 169.056 41.8435 169.168 41.3371 169.303C40.8467 169.424 40.2481 169.532 39.5412 169.627C38.8549 169.729 38.1266 169.771 37.3562 169.755C36.6224 169.73 35.8763 169.608 35.118 169.389ZM37.9944 167.86C38.6707 168.055 39.3713 168.145 40.0961 168.13C40.821 168.114 41.5438 168.004 42.2646 167.801C42.9855 167.597 43.6576 167.304 44.2809 166.922L46.3685 165.08C46.6524 164.637 46.7597 164.218 46.6902 163.824C46.6367 163.415 46.4292 163.046 46.0678 162.716C45.7269 162.393 45.2285 162.137 44.5727 161.947C43.8349 161.734 43.0145 161.666 42.1118 161.742C41.225 161.804 40.3492 162.001 39.4843 162.332C38.6195 162.663 37.8592 163.118 37.2033 163.697C36.5795 164.247 36.1961 164.801 36.0531 165.36C35.9306 165.924 36.0351 166.432 36.3665 166.884C36.7139 167.321 37.2565 167.647 37.9944 167.86ZM63.8701 160.468L67.0366 161.383L62.5975 165.3L66.0407 166.294L64.0971 168.009L60.6539 167.014L52.5677 174.149L49.4012 173.235L57.4874 166.1L55.2125 165.443L57.156 163.728L59.431 164.385L63.8701 160.468ZM63.1415 177.682C61.9527 177.338 61.2592 176.81 61.0607 176.097C60.8623 175.384 61.1825 174.633 62.0213 173.845L69.4837 167.261L72.6502 168.176L66.0756 173.977C65.6047 174.44 65.3653 174.867 65.3572 175.259C65.3857 175.642 65.7711 175.95 66.5135 176.183C67.2103 176.384 67.9851 176.421 68.8379 176.292C69.7272 176.156 70.6055 175.885 71.4728 175.48C72.3766 175.066 73.1965 174.535 73.9323 173.886L78.4913 169.863L81.6578 170.778L71.604 179.649L68.7449 178.823L70.8265 176.698L70.5655 177.072C69.8512 177.391 69.0641 177.641 68.2043 177.824C67.3605 177.992 66.5044 178.063 65.6361 178.037C64.7518 178.025 63.9203 177.907 63.1415 177.682ZM89.3347 172.996L86.7627 175.625L86.9929 175.242C87.9492 174.806 88.961 174.489 90.0282 174.292C91.0955 174.094 92.0793 173.995 92.9796 173.992C93.9164 173.982 94.6204 174.045 95.0918 174.181L92.4906 176.296C91.5549 175.97 90.5501 175.848 89.4763 175.931C88.4231 176.02 87.4116 176.253 86.4418 176.628C85.472 177.004 84.6672 177.474 84.0273 178.039L79.5883 181.955L76.4525 181.049L86.5063 172.178L89.3347 172.996ZM93.4972 186.255C92.0011 185.822 90.9441 185.255 90.3262 184.552C89.7244 183.834 89.5364 183.04 89.7624 182.168C90.0044 181.283 90.6452 180.381 91.685 179.464C92.6768 178.589 93.8903 177.89 95.3254 177.368C96.7971 176.838 98.316 176.518 99.8822 176.408C101.469 176.304 102.928 176.445 104.26 176.83C105.982 177.327 107.015 178.084 107.358 179.102C107.722 180.125 107.395 181.314 106.376 182.668L93.0616 182.138L93.7635 180.655L104.508 181.004L103.55 181.093C103.8 180.584 103.843 180.091 103.678 179.612C103.529 179.12 102.993 178.74 102.071 178.474C101.333 178.26 100.523 178.195 99.6407 178.277C98.7949 178.351 97.9498 178.557 97.1055 178.894C96.2977 179.223 95.5659 179.676 94.91 180.255C94.2381 180.848 93.8205 181.42 93.657 181.973C93.53 182.517 93.63 183.005 93.9569 183.436C94.3043 183.874 94.8675 184.205 95.6463 184.43C96.1996 184.59 96.8023 184.671 97.4541 184.672C98.1265 184.678 98.808 184.641 99.4989 184.56L99.1202 186.586C98.1079 186.687 97.0982 186.714 96.0909 186.667C95.1201 186.611 94.2556 186.474 93.4972 186.255Z" fill="white"/>
<g filter="url(#filter2_d_1501_1133)">
<rect width="249" height="69" rx="10" transform="matrix(0.960714 0.27754 -0.749838 0.661622 503.652 66)" fill="#FF462E"/>
<path d="M567.921 105.834C567.462 105.327 566.894 104.844 566.216 104.386C565.538 103.928 564.779 103.578 563.939 103.335C562.791 103.003 561.671 102.923 560.579 103.095C559.502 103.253 558.612 103.642 557.909 104.263C557.413 104.7 557.206 105.147 557.289 105.602C557.372 106.056 557.636 106.507 558.082 106.955C558.527 107.402 559.03 107.847 559.589 108.289C560.073 108.654 560.507 109.051 560.891 109.481C561.312 109.902 561.596 110.359 561.745 110.851C561.915 111.35 561.865 111.898 561.597 112.495C561.365 113.084 560.841 113.738 560.025 114.458C559.097 115.276 557.96 115.932 556.614 116.423C555.288 116.921 553.848 117.207 552.294 117.283C550.776 117.35 549.238 117.159 547.68 116.709C546.737 116.436 545.895 116.099 545.153 115.698C544.448 115.288 543.831 114.848 543.304 114.377C542.813 113.898 542.418 113.418 542.119 112.938L545.586 111.607C545.806 111.989 546.105 112.385 546.485 112.794C546.88 113.19 547.344 113.548 547.876 113.871C548.429 114.199 549.013 114.452 549.628 114.63C550.304 114.825 551.058 114.94 551.89 114.974C552.738 114.994 553.569 114.897 554.383 114.683C555.214 114.454 555.949 114.058 556.589 113.493C557.133 113.013 557.394 112.555 557.372 112.118C557.387 111.672 557.213 111.238 556.85 110.814C556.507 110.397 556.081 109.993 555.571 109.602C555.082 109.217 554.607 108.808 554.146 108.375C553.684 107.942 553.322 107.481 553.059 106.993C552.812 106.491 552.758 105.951 552.897 105.372C553.072 104.786 553.551 104.147 554.335 103.455C555.263 102.637 556.347 102.004 557.588 101.557C558.866 101.101 560.207 100.842 561.611 100.78C563.015 100.717 564.397 100.854 565.757 101.191C567.253 101.623 568.411 102.126 569.229 102.7C570.048 103.273 570.688 103.861 571.149 104.463L567.921 105.834ZM570.882 122.091C569.94 122.25 568.955 122.302 567.928 122.249C566.92 122.202 566.007 122.059 565.187 121.823C563.773 121.414 562.739 120.862 562.084 120.167C561.451 119.478 561.228 118.702 561.418 117.839C561.607 116.976 562.246 116.064 563.334 115.104C564.405 114.159 565.651 113.432 567.07 112.924C568.505 112.402 569.953 112.108 571.415 112.043C572.892 111.964 574.214 112.093 575.383 112.43C576.448 112.738 577.279 113.11 577.875 113.544C578.471 113.978 578.866 114.458 579.061 114.982L575.885 115.948C575.761 115.65 575.52 115.346 575.163 115.037C574.827 114.734 574.32 114.484 573.644 114.289C572.926 114.082 572.127 114.019 571.244 114.102C570.378 114.17 569.523 114.372 568.678 114.709C567.85 115.032 567.124 115.469 566.5 116.019C565.908 116.541 565.531 117.079 565.367 117.631C565.24 118.175 565.35 118.666 565.698 119.104C566.045 119.541 566.629 119.878 567.449 120.115C567.982 120.269 568.529 120.362 569.092 120.393C569.671 120.411 570.247 120.371 570.819 120.274L570.882 122.091ZM583.626 115.093L586.792 116.008L576.739 124.879L573.572 123.964L583.626 115.093ZM587.041 111.864C587.425 111.525 587.939 111.299 588.584 111.186C589.23 111.072 589.778 111.081 590.229 111.211C590.7 111.347 590.992 111.582 591.105 111.914C591.218 112.246 591.083 112.582 590.699 112.921C590.315 113.259 589.811 113.488 589.186 113.608C588.577 113.713 588.037 113.697 587.565 113.561C587.115 113.431 586.814 113.204 586.665 112.879C586.531 112.541 586.657 112.203 587.041 111.864ZM587.374 128.232C585.878 127.8 584.821 127.232 584.203 126.529C583.601 125.812 583.414 125.018 583.639 124.146C583.881 123.261 584.522 122.359 585.562 121.442C586.554 120.566 587.767 119.868 589.203 119.346C590.674 118.815 592.193 118.495 593.759 118.386C595.346 118.282 596.805 118.422 598.138 118.807C599.859 119.305 600.892 120.062 601.235 121.079C601.599 122.102 601.272 123.291 600.253 124.646L586.939 124.116L587.641 122.632L598.385 122.982L597.427 123.071C597.677 122.562 597.72 122.068 597.555 121.59C597.406 121.097 596.87 120.718 595.948 120.451C595.21 120.238 594.4 120.173 593.518 120.255C592.672 120.329 591.827 120.535 590.983 120.872C590.175 121.2 589.443 121.654 588.787 122.233C588.115 122.826 587.698 123.398 587.534 123.95C587.407 124.495 587.507 124.982 587.834 125.414C588.181 125.852 588.745 126.183 589.523 126.408C590.077 126.568 590.679 126.648 591.331 126.649C592.004 126.656 592.685 126.619 593.376 126.537L592.997 128.564C591.985 128.665 590.975 128.692 589.968 128.644C588.997 128.589 588.133 128.451 587.374 128.232ZM610.652 122.9L608.625 125.013L608.814 124.702C609.965 124.191 611.207 123.876 612.54 123.755C613.89 123.62 615.18 123.731 616.409 124.086C617.619 124.435 618.333 124.969 618.552 125.688C618.791 126.413 618.473 127.174 617.598 127.97L610.159 134.534L606.993 133.619L613.567 127.818C614.059 127.36 614.28 126.937 614.231 126.548C614.198 126.145 613.8 125.824 613.037 125.585C612.34 125.384 611.537 125.348 610.627 125.479C609.734 125.595 608.843 125.853 607.955 126.253C607.067 126.652 606.255 127.176 605.52 127.825L600.937 131.869L597.77 130.954L607.824 122.083L610.652 122.9ZM626.483 138.153C625.542 138.312 624.557 138.365 623.529 138.312C622.522 138.264 621.608 138.122 620.788 137.885C619.374 137.477 618.34 136.925 617.686 136.23C617.052 135.541 616.83 134.765 617.019 133.902C617.209 133.038 617.847 132.127 618.935 131.167C620.007 130.221 621.252 129.494 622.671 128.986C624.107 128.464 625.555 128.171 627.016 128.106C628.493 128.026 629.816 128.156 630.984 128.493C632.05 128.801 632.881 129.172 633.476 129.607C634.072 130.041 634.467 130.52 634.662 131.045L631.486 132.011C631.362 131.712 631.121 131.409 630.764 131.099C630.428 130.796 629.921 130.547 629.245 130.351C628.528 130.144 627.728 130.082 626.846 130.164C625.979 130.232 625.124 130.435 624.28 130.772C623.451 131.095 622.725 131.531 622.101 132.082C621.51 132.604 621.132 133.141 620.968 133.694C620.841 134.238 620.952 134.729 621.299 135.166C621.647 135.604 622.23 135.941 623.05 136.178C623.583 136.332 624.131 136.424 624.694 136.456C625.272 136.473 625.848 136.433 626.42 136.337L626.483 138.153ZM634.99 141.988C633.494 141.556 632.437 140.988 631.819 140.285C631.217 139.568 631.029 138.773 631.255 137.902C631.497 137.016 632.138 136.115 633.177 135.197C634.169 134.322 635.383 133.623 636.818 133.101C638.29 132.571 639.809 132.251 641.375 132.141C642.961 132.037 644.421 132.178 645.753 132.563C647.475 133.06 648.507 133.818 648.85 134.835C649.214 135.858 648.887 137.047 647.869 138.401L634.554 137.871L635.256 136.388L646 136.738L645.043 136.826C645.293 136.318 645.335 135.824 645.17 135.345C645.021 134.853 644.486 134.473 643.563 134.207C642.826 133.994 642.015 133.928 641.133 134.011C640.287 134.085 639.442 134.29 638.598 134.627C637.79 134.956 637.058 135.41 636.402 135.988C635.731 136.581 635.313 137.154 635.15 137.706C635.023 138.25 635.122 138.738 635.449 139.17C635.797 139.607 636.36 139.939 637.139 140.164C637.692 140.323 638.295 140.404 638.947 140.405C639.619 140.412 640.301 140.374 640.991 140.293L640.613 142.319C639.6 142.42 638.591 142.447 637.583 142.4C636.613 142.344 635.748 142.207 634.99 141.988Z" fill="white"/>
</g>
<rect width="249" height="69" rx="10" transform="matrix(0.960714 0.27754 -0.749838 0.661622 503.652 66)" fill="#FF462E"/>
<path d="M567.921 105.834C567.462 105.327 566.894 104.844 566.216 104.386C565.538 103.928 564.779 103.578 563.939 103.335C562.791 103.003 561.671 102.923 560.579 103.095C559.502 103.253 558.612 103.642 557.909 104.263C557.413 104.7 557.206 105.147 557.289 105.602C557.372 106.056 557.636 106.507 558.082 106.955C558.527 107.402 559.03 107.847 559.589 108.289C560.073 108.654 560.507 109.051 560.891 109.481C561.312 109.902 561.596 110.359 561.745 110.851C561.915 111.35 561.865 111.898 561.597 112.495C561.365 113.084 560.841 113.738 560.025 114.458C559.097 115.276 557.96 115.932 556.614 116.423C555.288 116.921 553.848 117.207 552.294 117.283C550.776 117.35 549.238 117.159 547.68 116.709C546.737 116.436 545.895 116.099 545.153 115.698C544.448 115.288 543.831 114.848 543.304 114.377C542.813 113.898 542.418 113.418 542.119 112.938L545.586 111.607C545.806 111.989 546.105 112.385 546.485 112.794C546.88 113.19 547.344 113.548 547.876 113.871C548.429 114.199 549.013 114.452 549.628 114.63C550.304 114.825 551.058 114.94 551.89 114.974C552.738 114.994 553.569 114.897 554.383 114.683C555.214 114.454 555.949 114.058 556.589 113.493C557.133 113.013 557.394 112.555 557.372 112.118C557.387 111.672 557.213 111.238 556.85 110.814C556.507 110.397 556.081 109.993 555.571 109.602C555.082 109.217 554.607 108.808 554.146 108.375C553.684 107.942 553.322 107.481 553.059 106.993C552.812 106.491 552.758 105.951 552.897 105.372C553.072 104.786 553.551 104.147 554.335 103.455C555.263 102.637 556.347 102.004 557.588 101.557C558.866 101.101 560.207 100.842 561.611 100.78C563.015 100.717 564.397 100.854 565.757 101.191C567.253 101.623 568.411 102.126 569.229 102.7C570.048 103.273 570.688 103.861 571.149 104.463L567.921 105.834ZM570.882 122.091C569.94 122.25 568.955 122.302 567.928 122.249C566.92 122.202 566.007 122.059 565.187 121.823C563.773 121.414 562.739 120.862 562.084 120.167C561.451 119.478 561.228 118.702 561.418 117.839C561.607 116.976 562.246 116.064 563.334 115.104C564.405 114.159 565.651 113.432 567.07 112.924C568.505 112.402 569.953 112.108 571.415 112.043C572.892 111.964 574.214 112.093 575.383 112.43C576.448 112.738 577.279 113.11 577.875 113.544C578.471 113.978 578.866 114.458 579.061 114.982L575.885 115.948C575.761 115.65 575.52 115.346 575.163 115.037C574.827 114.734 574.32 114.484 573.644 114.289C572.926 114.082 572.127 114.019 571.244 114.102C570.378 114.17 569.523 114.372 568.678 114.709C567.85 115.032 567.124 115.469 566.5 116.019C565.908 116.541 565.531 117.079 565.367 117.631C565.24 118.175 565.35 118.666 565.698 119.104C566.045 119.541 566.629 119.878 567.449 120.115C567.982 120.269 568.529 120.362 569.092 120.393C569.671 120.411 570.247 120.371 570.819 120.274L570.882 122.091ZM583.626 115.093L586.792 116.008L576.739 124.879L573.572 123.964L583.626 115.093ZM587.041 111.864C587.425 111.525 587.939 111.299 588.584 111.186C589.23 111.072 589.778 111.081 590.229 111.211C590.7 111.347 590.992 111.582 591.105 111.914C591.218 112.246 591.083 112.582 590.699 112.921C590.315 113.259 589.811 113.488 589.186 113.608C588.577 113.713 588.037 113.697 587.565 113.561C587.115 113.431 586.814 113.204 586.665 112.879C586.531 112.541 586.657 112.203 587.041 111.864ZM587.374 128.232C585.878 127.8 584.821 127.232 584.203 126.529C583.601 125.812 583.414 125.018 583.639 124.146C583.881 123.261 584.522 122.359 585.562 121.442C586.554 120.566 587.767 119.868 589.203 119.346C590.674 118.815 592.193 118.495 593.759 118.386C595.346 118.282 596.805 118.422 598.138 118.807C599.859 119.305 600.892 120.062 601.235 121.079C601.599 122.102 601.272 123.291 600.253 124.646L586.939 124.116L587.641 122.632L598.385 122.982L597.427 123.071C597.677 122.562 597.72 122.068 597.555 121.59C597.406 121.097 596.87 120.718 595.948 120.451C595.21 120.238 594.4 120.173 593.518 120.255C592.672 120.329 591.827 120.535 590.983 120.872C590.175 121.2 589.443 121.654 588.787 122.233C588.115 122.826 587.698 123.398 587.534 123.95C587.407 124.495 587.507 124.982 587.834 125.414C588.181 125.852 588.745 126.183 589.523 126.408C590.077 126.568 590.679 126.648 591.331 126.649C592.004 126.656 592.685 126.619 593.376 126.537L592.997 128.564C591.985 128.665 590.975 128.692 589.968 128.644C588.997 128.589 588.133 128.451 587.374 128.232ZM610.652 122.9L608.625 125.013L608.814 124.702C609.965 124.191 611.207 123.876 612.54 123.755C613.89 123.62 615.18 123.731 616.409 124.086C617.619 124.435 618.333 124.969 618.552 125.688C618.791 126.413 618.473 127.174 617.598 127.97L610.159 134.534L606.993 133.619L613.567 127.818C614.059 127.36 614.28 126.937 614.231 126.548C614.198 126.145 613.8 125.824 613.037 125.585C612.34 125.384 611.537 125.348 610.627 125.479C609.734 125.595 608.843 125.853 607.955 126.253C607.067 126.652 606.255 127.176 605.52 127.825L600.937 131.869L597.77 130.954L607.824 122.083L610.652 122.9ZM626.483 138.153C625.542 138.312 624.557 138.365 623.529 138.312C622.522 138.264 621.608 138.122 620.788 137.885C619.374 137.477 618.34 136.925 617.686 136.23C617.052 135.541 616.83 134.765 617.019 133.902C617.209 133.038 617.847 132.127 618.935 131.167C620.007 130.221 621.252 129.494 622.671 128.986C624.107 128.464 625.555 128.171 627.016 128.106C628.493 128.026 629.816 128.156 630.984 128.493C632.05 128.801 632.881 129.172 633.476 129.607C634.072 130.041 634.467 130.52 634.662 131.045L631.486 132.011C631.362 131.712 631.121 131.409 630.764 131.099C630.428 130.796 629.921 130.547 629.245 130.351C628.528 130.144 627.728 130.082 626.846 130.164C625.979 130.232 625.124 130.435 624.28 130.772C623.451 131.095 622.725 131.531 622.101 132.082C621.51 132.604 621.132 133.141 620.968 133.694C620.841 134.238 620.952 134.729 621.299 135.166C621.647 135.604 622.23 135.941 623.05 136.178C623.583 136.332 624.131 136.424 624.694 136.456C625.272 136.473 625.848 136.433 626.42 136.337L626.483 138.153ZM634.99 141.988C633.494 141.556 632.437 140.988 631.819 140.285C631.217 139.568 631.029 138.773 631.255 137.902C631.497 137.016 632.138 136.115 633.177 135.197C634.169 134.322 635.383 133.623 636.818 133.101C638.29 132.571 639.809 132.251 641.375 132.141C642.961 132.037 644.421 132.178 645.753 132.563C647.475 133.06 648.507 133.818 648.85 134.835C649.214 135.858 648.887 137.047 647.869 138.401L634.554 137.871L635.256 136.388L646 136.738L645.043 136.826C645.293 136.318 645.335 135.824 645.17 135.345C645.021 134.853 644.486 134.473 643.563 134.207C642.826 133.994 642.015 133.928 641.133 134.011C640.287 134.085 639.442 134.29 638.598 134.627C637.79 134.956 637.058 135.41 636.402 135.988C635.731 136.581 635.313 137.154 635.15 137.706C635.023 138.25 635.122 138.738 635.449 139.17C635.797 139.607 636.36 139.939 637.139 140.164C637.692 140.323 638.295 140.404 638.947 140.405C639.619 140.412 640.301 140.374 640.991 140.293L640.613 142.319C639.6 142.42 638.591 142.447 637.583 142.4C636.613 142.344 635.748 142.207 634.99 141.988Z" fill="white"/>
<rect width="249" height="69" rx="10" transform="matrix(0.960714 0.27754 -0.749838 0.661622 633.61 255)" fill="#4F4F4F" fill-opacity="0.25"/>
<path d="M690.088 292.583C689.629 292.076 689.061 291.593 688.383 291.135C687.705 290.677 686.946 290.327 686.106 290.084C684.958 289.752 683.838 289.672 682.746 289.844C681.67 290.002 680.78 290.391 680.076 291.012C679.58 291.449 679.374 291.896 679.457 292.35C679.54 292.805 679.804 293.256 680.249 293.704C680.695 294.151 681.197 294.596 681.756 295.038C682.241 295.403 682.675 295.8 683.059 296.23C683.479 296.651 683.764 297.108 683.913 297.6C684.082 298.099 684.033 298.647 683.764 299.244C683.532 299.833 683.008 300.487 682.193 301.207C681.265 302.025 680.128 302.68 678.782 303.172C677.456 303.67 676.016 303.956 674.461 304.032C672.943 304.099 671.405 303.908 669.847 303.458C668.905 303.185 668.062 302.848 667.32 302.447C666.615 302.037 665.999 301.596 665.471 301.126C664.981 300.647 664.585 300.167 664.286 299.687L667.753 298.356C667.973 298.738 668.273 299.134 668.652 299.543C669.048 299.939 669.511 300.297 670.044 300.62C670.597 300.948 671.181 301.201 671.795 301.379C672.472 301.574 673.226 301.689 674.058 301.723C674.905 301.743 675.737 301.646 676.551 301.432C677.381 301.203 678.116 300.807 678.756 300.242C679.3 299.762 679.561 299.304 679.54 298.866C679.555 298.421 679.381 297.987 679.017 297.563C678.674 297.146 678.248 296.742 677.739 296.351C677.25 295.966 676.775 295.557 676.313 295.124C675.852 294.691 675.49 294.23 675.227 293.742C674.98 293.24 674.926 292.7 675.064 292.121C675.239 291.535 675.718 290.896 676.502 290.204C677.43 289.386 678.515 288.753 679.756 288.306C681.034 287.85 682.374 287.591 683.779 287.529C685.183 287.466 686.565 287.603 687.924 287.939C689.421 288.372 690.578 288.875 691.397 289.448C692.216 290.022 692.856 290.61 693.316 291.211L690.088 292.583ZM689.045 309.06C688.103 308.788 687.361 308.386 686.82 307.855C686.295 307.31 686.056 306.716 686.104 306.074L687.032 305.471L679.882 311.781L676.746 310.875L691.791 297.6L694.527 298.39L692.51 300.674L692.867 299.963C694.079 299.638 695.337 299.439 696.644 299.367C697.97 299.301 699.207 299.433 700.355 299.765C701.564 300.114 702.427 300.626 702.942 301.299C703.457 301.973 703.584 302.749 703.321 303.629C703.059 304.509 702.376 305.435 701.272 306.409C700.184 307.369 698.933 308.113 697.518 308.641C696.14 309.161 694.713 309.461 693.235 309.54C691.774 309.605 690.378 309.445 689.045 309.06ZM690.374 307.167C691.153 307.392 692.014 307.473 692.958 307.408C693.922 307.349 694.847 307.158 695.732 306.832C696.654 306.499 697.427 306.057 698.051 305.507C698.707 304.928 699.088 304.364 699.194 303.814C699.337 303.256 699.235 302.758 698.888 302.32C698.561 301.888 698.018 301.563 697.26 301.344C696.543 301.137 695.803 301.045 695.042 301.068C694.297 301.078 693.553 301.182 692.812 301.38C692.071 301.578 691.37 301.872 690.71 302.262L688.862 303.892C688.522 304.337 688.352 304.775 688.353 305.206C688.354 305.638 688.527 306.025 688.872 306.368C689.218 306.712 689.718 306.978 690.374 307.167ZM710.026 303.065L713.193 303.979L703.139 312.85L699.973 311.936L710.026 303.065ZM713.441 299.836C713.825 299.497 714.34 299.271 714.985 299.157C715.63 299.044 716.179 299.053 716.629 299.183C717.101 299.319 717.393 299.553 717.506 299.886C717.619 300.218 717.483 300.554 717.1 300.893C716.716 301.231 716.211 301.46 715.586 301.58C714.977 301.685 714.437 301.669 713.966 301.533C713.515 301.403 713.215 301.175 713.065 300.851C712.932 300.513 713.057 300.174 713.441 299.836ZM720.841 306.189L718.269 308.818L718.499 308.435C719.455 307.999 720.467 307.683 721.534 307.485C722.601 307.288 723.585 307.188 724.486 307.186C725.422 307.175 726.126 307.238 726.598 307.374L723.997 309.489C723.061 309.163 722.056 309.041 720.982 309.124C719.929 309.214 718.918 309.446 717.948 309.822C716.978 310.197 716.173 310.667 715.533 311.232L711.094 315.149L707.958 314.243L718.012 305.372L720.841 306.189ZM729.781 308.772L732.948 309.686L722.894 318.557L719.727 317.643L729.781 308.772ZM733.196 305.543C733.58 305.204 734.094 304.978 734.74 304.864C735.385 304.751 735.933 304.76 736.384 304.89C736.855 305.026 737.148 305.26 737.261 305.593C737.374 305.925 737.238 306.261 736.854 306.599C736.47 306.938 735.966 307.167 735.341 307.286C734.732 307.392 734.192 307.376 733.721 307.24C733.27 307.11 732.97 306.882 732.82 306.558C732.687 306.22 732.812 305.881 733.196 305.543ZM743.412 307.538L746.578 308.453L742.139 312.37L745.582 313.365L743.639 315.079L740.196 314.085L732.109 321.22L728.943 320.305L737.029 313.17L734.754 312.513L736.698 310.798L738.973 311.455L743.412 307.538ZM742.683 324.752C741.494 324.409 740.801 323.88 740.602 323.167C740.404 322.454 740.724 321.704 741.563 320.916L749.025 314.331L752.192 315.246L745.617 321.047C745.146 321.51 744.907 321.938 744.899 322.329C744.927 322.712 745.313 323.02 746.055 323.253C746.752 323.454 747.527 323.491 748.38 323.363C749.269 323.226 750.147 322.955 751.015 322.55C751.918 322.137 752.738 321.605 753.474 320.956L758.033 316.933L761.2 317.848L751.146 326.719L748.287 325.893L750.368 323.768L750.107 324.143C749.393 324.461 748.606 324.711 747.746 324.894C746.902 325.062 746.046 325.133 745.178 325.107C744.294 325.096 743.462 324.977 742.683 324.752ZM761.134 329.886C759.925 329.536 759.02 329.05 758.421 328.427C757.837 327.79 757.65 327.043 757.86 326.186C758.07 325.328 758.751 324.391 759.902 323.375C761.038 322.373 762.311 321.598 763.721 321.05C765.152 320.507 766.575 320.188 767.991 320.091C769.443 319.986 770.753 320.102 771.921 320.44C773.151 320.795 773.947 321.268 774.31 321.86C774.71 322.444 774.863 323.041 774.77 323.651L774.171 323.928L776.47 322.259L779.39 323.103L769.337 331.974L766.17 331.059L768.69 328.836L768.428 329.463C768.218 329.553 767.86 329.665 767.353 329.799C766.863 329.92 766.264 330.028 765.557 330.124C764.871 330.225 764.143 330.268 763.372 330.251C762.639 330.227 761.893 330.105 761.134 329.886ZM764.011 328.356C764.687 328.551 765.388 328.641 766.112 328.626C766.837 328.61 767.56 328.501 768.281 328.297C769.002 328.093 769.674 327.8 770.297 327.418L772.385 325.576C772.669 325.133 772.776 324.715 772.706 324.32C772.653 323.911 772.445 323.542 772.084 323.213C771.743 322.889 771.245 322.633 770.589 322.444C769.851 322.23 769.031 322.162 768.128 322.238C767.241 322.301 766.365 322.497 765.501 322.828C764.636 323.159 763.875 323.614 763.22 324.193C762.596 324.743 762.212 325.298 762.069 325.856C761.947 326.42 762.051 326.928 762.383 327.38C762.73 327.817 763.273 328.143 764.011 328.356ZM792.832 316.925L795.998 317.84L777.354 334.29L774.188 333.376L792.832 316.925Z" fill="#FFF4ED"/>
<rect width="249" height="69" rx="10" transform="matrix(0.960714 0.27754 -0.749838 0.661622 441.61 273)" fill="#4F4F4F" fill-opacity="0.25"/>
<g filter="url(#filter3_d_1501_1133)">
<rect width="249" height="69" rx="10" transform="matrix(0.960714 0.27754 -0.749838 0.661622 389.653 165)" fill="#FF462E"/>
<path d="M439.399 217.136L457.395 201.257L457.426 201.266L456.168 216.275L454.993 215.654L479.684 207.696L479.745 207.713L461.749 223.592L458.491 222.651L470.704 211.874L469.599 213.101L452.266 218.745L452.205 218.727L452.906 208.278L454.659 207.38L442.566 218.05L439.399 217.136ZM471.015 226.747C469.826 226.403 469.133 225.875 468.934 225.162C468.736 224.449 469.056 223.698 469.895 222.91L477.357 216.326L480.524 217.241L473.949 223.042C473.478 223.505 473.239 223.932 473.231 224.324C473.259 224.707 473.645 225.015 474.387 225.248C475.084 225.449 475.859 225.486 476.712 225.357C477.601 225.221 478.479 224.95 479.346 224.545C480.25 224.131 481.07 223.6 481.806 222.951L486.365 218.928L489.531 219.843L479.478 228.714L476.619 227.888L478.7 225.763L478.439 226.137C477.725 226.456 476.938 226.706 476.078 226.889C475.234 227.057 474.378 227.128 473.51 227.102C472.625 227.09 471.794 226.972 471.015 226.747ZM487.861 231.389C486.918 231.116 486.134 230.74 485.509 230.259C484.899 229.765 484.564 229.209 484.502 228.591L487.246 227.754C487.399 228.267 487.649 228.695 487.994 229.038C488.376 229.373 488.823 229.615 489.336 229.763C489.746 229.881 490.147 229.96 490.538 229.998C490.946 230.022 491.341 229.986 491.722 229.89C492.103 229.794 492.437 229.619 492.725 229.365C493.061 229.069 493.181 228.794 493.086 228.542C492.991 228.29 492.782 228.042 492.46 227.799C492.137 227.556 491.775 227.311 491.375 227.064C490.56 226.51 490.124 225.935 490.067 225.337C490.025 224.726 490.349 224.116 491.036 223.509C491.564 223.044 492.224 222.653 493.016 222.339C493.844 222.016 494.759 221.821 495.76 221.754C496.76 221.688 497.773 221.802 498.798 222.098C499.741 222.371 500.483 222.688 501.024 223.05C501.582 223.399 501.968 223.838 502.183 224.369L499.465 225.326C499.384 224.966 499.16 224.648 498.791 224.373C498.459 224.089 498.096 223.881 497.702 223.749C497.333 223.642 496.947 223.587 496.544 223.583C496.157 223.565 495.783 223.607 495.422 223.709C495.078 223.796 494.794 223.939 494.57 224.137C494.229 224.413 494.098 224.684 494.177 224.951C494.293 225.209 494.522 225.463 494.866 225.712C495.225 225.947 495.566 226.186 495.889 226.429C496.381 226.74 496.744 227.079 496.98 227.447C497.232 227.801 497.326 228.174 497.261 228.568C497.196 228.961 496.891 229.398 496.347 229.878C495.756 230.4 495.011 230.841 494.114 231.2C493.234 231.545 492.254 231.749 491.176 231.812C490.114 231.861 489.009 231.72 487.861 231.389ZM507.139 224.93L510.306 225.844L500.252 234.715L497.086 233.801L507.139 224.93ZM510.554 221.7C510.938 221.362 511.453 221.136 512.098 221.022C512.743 220.909 513.292 220.917 513.742 221.048C514.214 221.184 514.506 221.418 514.619 221.751C514.732 222.083 514.597 222.419 514.213 222.757C513.829 223.096 513.324 223.325 512.699 223.444C512.091 223.549 511.55 223.534 511.079 223.398C510.628 223.268 510.328 223.04 510.179 222.716C510.045 222.378 510.17 222.039 510.554 221.7ZM516.552 238.328C515.61 238.487 514.626 238.54 513.598 238.486C512.591 238.439 511.677 238.297 510.857 238.06C509.443 237.651 508.409 237.1 507.754 236.405C507.121 235.716 506.898 234.94 507.088 234.076C507.277 233.213 507.916 232.302 509.004 231.342C510.075 230.396 511.321 229.669 512.74 229.161C514.175 228.639 515.623 228.345 517.085 228.28C518.562 228.201 519.885 228.33 521.053 228.668C522.119 228.976 522.949 229.347 523.545 229.781C524.141 230.216 524.536 230.695 524.731 231.22L521.555 232.185C521.431 231.887 521.19 231.583 520.833 231.274C520.497 230.971 519.99 230.722 519.314 230.526C518.597 230.319 517.797 230.257 516.914 230.339C516.048 230.407 515.193 230.61 514.349 230.947C513.52 231.269 512.794 231.706 512.17 232.257C511.578 232.779 511.201 233.316 511.037 233.868C510.91 234.412 511.02 234.903 511.368 235.341C511.715 235.779 512.299 236.116 513.119 236.353C513.652 236.507 514.199 236.599 514.762 236.631C515.341 236.648 515.917 236.608 516.489 236.511L516.552 238.328Z" fill="white"/>
</g>
<rect width="249" height="69" rx="10" transform="matrix(0.960714 0.27754 -0.749838 0.661622 389.653 165)" fill="#FF462E"/>
<path d="M439.399 217.136L457.395 201.257L457.426 201.266L456.168 216.275L454.993 215.654L479.684 207.696L479.745 207.713L461.749 223.592L458.491 222.651L470.704 211.874L469.599 213.101L452.266 218.745L452.205 218.727L452.906 208.278L454.659 207.38L442.566 218.05L439.399 217.136ZM471.015 226.747C469.826 226.403 469.133 225.875 468.934 225.162C468.736 224.449 469.056 223.698 469.895 222.91L477.357 216.326L480.524 217.241L473.949 223.042C473.478 223.505 473.239 223.932 473.231 224.324C473.259 224.707 473.645 225.015 474.387 225.248C475.084 225.449 475.859 225.486 476.712 225.357C477.601 225.221 478.479 224.95 479.346 224.545C480.25 224.131 481.07 223.6 481.806 222.951L486.365 218.928L489.531 219.843L479.478 228.714L476.619 227.888L478.7 225.763L478.439 226.137C477.725 226.456 476.938 226.706 476.078 226.889C475.234 227.057 474.378 227.128 473.51 227.102C472.625 227.09 471.794 226.972 471.015 226.747ZM487.861 231.389C486.918 231.116 486.134 230.74 485.509 230.259C484.899 229.765 484.564 229.209 484.502 228.591L487.246 227.754C487.399 228.267 487.649 228.695 487.994 229.038C488.376 229.373 488.823 229.615 489.336 229.763C489.746 229.881 490.147 229.96 490.538 229.998C490.946 230.022 491.341 229.986 491.722 229.89C492.103 229.794 492.437 229.619 492.725 229.365C493.061 229.069 493.181 228.794 493.086 228.542C492.991 228.29 492.782 228.042 492.46 227.799C492.137 227.556 491.775 227.311 491.375 227.064C490.56 226.51 490.124 225.935 490.067 225.337C490.025 224.726 490.349 224.116 491.036 223.509C491.564 223.044 492.224 222.653 493.016 222.339C493.844 222.016 494.759 221.821 495.76 221.754C496.76 221.688 497.773 221.802 498.798 222.098C499.741 222.371 500.483 222.688 501.024 223.05C501.582 223.399 501.968 223.838 502.183 224.369L499.465 225.326C499.384 224.966 499.16 224.648 498.791 224.373C498.459 224.089 498.096 223.881 497.702 223.749C497.333 223.642 496.947 223.587 496.544 223.583C496.157 223.565 495.783 223.607 495.422 223.709C495.078 223.796 494.794 223.939 494.57 224.137C494.229 224.413 494.098 224.684 494.177 224.951C494.293 225.209 494.522 225.463 494.866 225.712C495.225 225.947 495.566 226.186 495.889 226.429C496.381 226.74 496.744 227.079 496.98 227.447C497.232 227.801 497.326 228.174 497.261 228.568C497.196 228.961 496.891 229.398 496.347 229.878C495.756 230.4 495.011 230.841 494.114 231.2C493.234 231.545 492.254 231.749 491.176 231.812C490.114 231.861 489.009 231.72 487.861 231.389ZM507.139 224.93L510.306 225.844L500.252 234.715L497.086 233.801L507.139 224.93ZM510.554 221.7C510.938 221.362 511.453 221.136 512.098 221.022C512.743 220.909 513.292 220.917 513.742 221.048C514.214 221.184 514.506 221.418 514.619 221.751C514.732 222.083 514.597 222.419 514.213 222.757C513.829 223.096 513.324 223.325 512.699 223.444C512.091 223.549 511.55 223.534 511.079 223.398C510.628 223.268 510.328 223.04 510.179 222.716C510.045 222.378 510.17 222.039 510.554 221.7ZM516.552 238.328C515.61 238.487 514.626 238.54 513.598 238.486C512.591 238.439 511.677 238.297 510.857 238.06C509.443 237.651 508.409 237.1 507.754 236.405C507.121 235.716 506.898 234.94 507.088 234.076C507.277 233.213 507.916 232.302 509.004 231.342C510.075 230.396 511.321 229.669 512.74 229.161C514.175 228.639 515.623 228.345 517.085 228.28C518.562 228.201 519.885 228.33 521.053 228.668C522.119 228.976 522.949 229.347 523.545 229.781C524.141 230.216 524.536 230.695 524.731 231.22L521.555 232.185C521.431 231.887 521.19 231.583 520.833 231.274C520.497 230.971 519.99 230.722 519.314 230.526C518.597 230.319 517.797 230.257 516.914 230.339C516.048 230.407 515.193 230.61 514.349 230.947C513.52 231.269 512.794 231.706 512.17 232.257C511.578 232.779 511.201 233.316 511.037 233.868C510.91 234.412 511.02 234.903 511.368 235.341C511.715 235.779 512.299 236.116 513.119 236.353C513.652 236.507 514.199 236.599 514.762 236.631C515.341 236.648 515.917 236.608 516.489 236.511L516.552 238.328Z" fill="white"/>
</g>
<defs>
<filter id="filter0_d_1501_1133" x="21.875" y="13.2148" width="289.121" height="118.329" filterUnits="userSpaceOnUse" color-interpolation-filters="sRGB">
<feFlood flood-opacity="0" result="BackgroundImageFix"/>
<feColorMatrix in="SourceAlpha" type="matrix" values="0 0 0 0 0 0 0 0 0 0 0 0 0 0 0 0 0 0 127 0" result="hardAlpha"/>
<feOffset dy="4"/>
<feGaussianBlur stdDeviation="2"/>
<feComposite in2="hardAlpha" operator="out"/>
<feColorMatrix type="matrix" values="0 0 0 0 0 0 0 0 0 0 0 0 0 0 0 0 0 0 0.25 0"/>
<feBlend mode="normal" in2="BackgroundImageFix" result="effect1_dropShadow_1501_1133"/>
<feBlend mode="normal" in="SourceGraphic" in2="effect1_dropShadow_1501_1133" result="shape"/>
</filter>
<filter id="filter1_d_1501_1133" x="-86.125" y="113.215" width="289.121" height="118.329" filterUnits="userSpaceOnUse" color-interpolation-filters="sRGB">
<feFlood flood-opacity="0" result="BackgroundImageFix"/>
<feColorMatrix in="SourceAlpha" type="matrix" values="0 0 0 0 0 0 0 0 0 0 0 0 0 0 0 0 0 0 127 0" result="hardAlpha"/>
<feOffset dy="4"/>
<feGaussianBlur stdDeviation="2"/>
<feComposite in2="hardAlpha" operator="out"/>
<feColorMatrix type="matrix" values="0 0 0 0 0 0 0 0 0 0 0 0 0 0 0 0 0 0 0.25 0"/>
<feBlend mode="normal" in2="BackgroundImageFix" result="effect1_dropShadow_1501_1133"/>
<feBlend mode="normal" in="SourceGraphic" in2="effect1_dropShadow_1501_1133" result="shape"/>
</filter>
<filter id="filter2_d_1501_1133" x="452.831" y="68.2148" width="289.121" height="118.329" filterUnits="userSpaceOnUse" color-interpolation-filters="sRGB">
<feFlood flood-opacity="0" result="BackgroundImageFix"/>
<feColorMatrix in="SourceAlpha" type="matrix" values="0 0 0 0 0 0 0 0 0 0 0 0 0 0 0 0 0 0 127 0" result="hardAlpha"/>
<feOffset dy="4"/>
<feGaussianBlur stdDeviation="2"/>
<feComposite in2="hardAlpha" operator="out"/>
<feColorMatrix type="matrix" values="0 0 0 0 0 0 0 0 0 0 0 0 0 0 0 0 0 0 0.25 0"/>
<feBlend mode="normal" in2="BackgroundImageFix" result="effect1_dropShadow_1501_1133"/>
<feBlend mode="normal" in="SourceGraphic" in2="effect1_dropShadow_1501_1133" result="shape"/>
</filter>
<filter id="filter3_d_1501_1133" x="338.832" y="167.215" width="289.121" height="118.329" filterUnits="userSpaceOnUse" color-interpolation-filters="sRGB">
<feFlood flood-opacity="0" result="BackgroundImageFix"/>
<feColorMatrix in="SourceAlpha" type="matrix" values="0 0 0 0 0 0 0 0 0 0 0 0 0 0 0 0 0 0 127 0" result="hardAlpha"/>
<feOffset dy="4"/>
<feGaussianBlur stdDeviation="2"/>
<feComposite in2="hardAlpha" operator="out"/>
<feColorMatrix type="matrix" values="0 0 0 0 0 0 0 0 0 0 0 0 0 0 0 0 0 0 0.25 0"/>
<feBlend mode="normal" in2="BackgroundImageFix" result="effect1_dropShadow_1501_1133"/>
<feBlend mode="normal" in="SourceGraphic" in2="effect1_dropShadow_1501_1133" result="shape"/>
</filter>
<clipPath id="clip0_1501_1133">
<rect width="685" height="286" fill="white"/>
</clipPath>
</defs>
</svg>
