<svg width="685" height="193" viewBox="0 0 685 193" fill="none" xmlns="http://www.w3.org/2000/svg">
<g clip-path="url(#clip0_1425_978)">
<rect x="601.768" y="136.034" width="172" height="41" rx="11" transform="rotate(2 601.768 136.034)" stroke="#101010" stroke-opacity="0.25" stroke-width="2"/>
<rect x="417.804" y="135" width="174" height="43" rx="12" transform="rotate(2 417.804 135)" fill="#FF462E"/>
<rect x="-130.232" y="136.034" width="172" height="41" rx="11" transform="rotate(2 -130.232 136.034)" stroke="#101010" stroke-opacity="0.25" stroke-width="2"/>
<rect x="52.7682" y="136.034" width="172" height="41" rx="11" transform="rotate(2 52.7682 136.034)" stroke="#101010" stroke-opacity="0.25" stroke-width="2"/>
<rect x="235.768" y="136.034" width="172" height="41" rx="11" transform="rotate(2 235.768 136.034)" stroke="#101010" stroke-opacity="0.25" stroke-width="2"/>
<path d="M653.512 149.346L662.206 149.65L662.134 151.708L655.578 151.48L655.426 155.837L661.163 156.037L661.092 158.076L655.355 157.876L655.144 163.932L653.005 163.857L653.512 149.346ZM664.374 155.869L666.432 155.941L666.14 164.316L664.081 164.244L664.374 155.869ZM664.358 152.867C664.37 152.547 664.505 152.285 664.766 152.081C665.027 151.876 665.304 151.779 665.597 151.789C665.903 151.8 666.173 151.916 666.405 152.138C666.637 152.359 666.748 152.63 666.737 152.95C666.726 153.27 666.597 153.532 666.349 153.737C666.102 153.928 665.826 154.019 665.519 154.008C665.226 153.998 664.956 153.888 664.71 153.68C664.465 153.457 664.347 153.187 664.358 152.867ZM671.405 156.115L671.518 158.04L671.447 157.777C671.747 157.187 672.197 156.723 672.796 156.383C673.395 156.031 674.095 155.868 674.894 155.896C675.681 155.924 676.319 156.18 676.809 156.664C677.312 157.148 677.558 157.764 677.545 158.51L677.328 164.707L675.27 164.635L675.461 159.158C675.462 158.731 675.348 158.38 675.117 158.105C674.887 157.817 674.519 157.658 674.013 157.627C673.56 157.611 673.142 157.736 672.76 158.003C672.377 158.257 672.071 158.613 671.842 159.072C671.612 159.531 671.487 160.067 671.465 160.68L671.332 164.497L669.273 164.425L669.566 156.05L671.405 156.115ZM683.968 165.139C683.182 165.111 682.475 164.926 681.846 164.584C681.218 164.229 680.729 163.718 680.379 163.052C680.029 162.386 679.87 161.573 679.904 160.614C679.937 159.668 680.158 158.862 680.569 158.196C680.992 157.53 681.53 157.029 682.182 156.691C682.848 156.341 683.561 156.179 684.32 156.205C685.12 156.233 685.767 156.429 686.261 156.794C686.769 157.145 687.162 157.552 687.439 158.015L687.288 158.33L687.546 156.678L689.445 156.745L689.152 165.12L687.093 165.048L687.167 162.949L687.369 163.456C687.312 163.561 687.193 163.71 687.013 163.904C686.833 164.085 686.593 164.276 686.293 164.479C686.005 164.683 685.666 164.851 685.274 164.984C684.897 165.104 684.461 165.156 683.968 165.139ZM684.587 163.479C685.026 163.495 685.422 163.428 685.774 163.281C686.126 163.133 686.427 162.916 686.677 162.632C686.928 162.347 687.106 162.006 687.213 161.61L687.274 159.871C687.181 159.494 687.012 159.168 686.768 158.893C686.525 158.604 686.226 158.373 685.872 158.201C685.531 158.029 685.147 157.935 684.721 157.92C684.241 157.904 683.797 158.008 683.389 158.234C682.981 158.447 682.65 158.755 682.396 159.16C682.142 159.565 682.005 160.04 681.986 160.587C681.968 161.106 682.071 161.584 682.296 162.018C682.534 162.454 682.856 162.805 683.26 163.073C683.665 163.327 684.107 163.462 684.587 163.479ZM694.437 156.919L694.55 158.844L694.479 158.581C694.78 157.992 695.23 157.527 695.829 157.188C696.428 156.835 697.128 156.673 697.927 156.701C698.713 156.728 699.352 156.984 699.842 157.468C700.345 157.952 700.59 158.568 700.578 159.315L700.361 165.511L698.302 165.439L698.494 159.962C698.495 159.536 698.381 159.185 698.15 158.91C697.92 158.622 697.552 158.462 697.046 158.431C696.593 158.415 696.175 158.541 695.792 158.807C695.41 159.061 695.104 159.417 694.875 159.876C694.645 160.335 694.52 160.871 694.498 161.484L694.365 165.302L692.306 165.23L692.599 156.855L694.437 156.919ZM710.393 165.081C710.009 165.374 709.548 165.598 709.009 165.753C708.483 165.908 707.954 165.976 707.421 165.958C706.501 165.925 705.695 165.717 705.001 165.333C704.321 164.949 703.799 164.424 703.435 163.757C703.072 163.091 702.906 162.304 702.937 161.398C702.968 160.506 703.202 159.74 703.638 159.101C704.074 158.45 704.638 157.962 705.33 157.64C706.022 157.304 706.748 157.149 707.507 157.175C708.2 157.199 708.81 157.314 709.337 157.519C709.863 157.724 710.314 158 710.688 158.347L709.622 159.651C709.402 159.456 709.122 159.28 708.78 159.121C708.452 158.963 708.068 158.876 707.629 158.861C707.162 158.844 706.732 158.949 706.337 159.176C705.943 159.389 705.625 159.698 705.384 160.103C705.143 160.495 705.014 160.951 704.996 161.47C704.979 161.963 705.076 162.427 705.288 162.861C705.513 163.283 705.828 163.621 706.233 163.875C706.638 164.129 707.106 164.266 707.639 164.284C707.986 164.296 708.307 164.261 708.604 164.178C708.901 164.081 709.166 163.944 709.399 163.765L710.393 165.081ZM716.654 166.28C715.681 166.246 714.855 166.03 714.175 165.633C713.496 165.222 712.981 164.678 712.631 163.998C712.282 163.306 712.122 162.526 712.152 161.66C712.181 160.834 712.414 160.095 712.85 159.443C713.3 158.778 713.886 158.259 714.606 157.883C715.339 157.509 716.139 157.337 717.005 157.367C718.125 157.406 719.039 157.765 719.749 158.443C720.473 159.122 720.941 160.053 721.153 161.234L714.255 163.355L713.817 162.138L719.342 160.37L718.913 160.615C718.768 160.197 718.527 159.828 718.191 159.51C717.856 159.178 717.388 159.001 716.789 158.98C716.309 158.964 715.872 159.068 715.477 159.295C715.096 159.508 714.785 159.818 714.544 160.223C714.317 160.615 714.194 161.084 714.175 161.631C714.155 162.19 714.251 162.687 714.463 163.122C714.688 163.543 714.997 163.881 715.388 164.135C715.793 164.389 716.248 164.525 716.755 164.542C717.114 164.555 717.457 164.5 717.781 164.378C718.119 164.257 718.438 164.101 718.738 163.911L719.624 165.463C719.175 165.728 718.687 165.937 718.161 166.093C717.65 166.235 717.147 166.297 716.654 166.28Z" fill="#2B2B2B"/>
<path d="M486.468 149.903L485.961 164.414L483.823 164.34L484.041 158.084L476.686 157.827L476.467 164.083L474.328 164.008L474.835 149.497L476.974 149.572L476.757 155.788L484.112 156.045L484.329 149.829L486.468 149.903ZM492.248 164.974C491.475 164.947 490.851 164.692 490.374 164.208C489.897 163.725 489.658 163.116 489.657 162.382L489.874 156.166L491.933 156.238L491.742 161.715C491.754 162.142 491.861 162.499 492.065 162.786C492.282 163.061 492.637 163.213 493.129 163.244C493.582 163.26 493.987 163.14 494.342 162.886C494.712 162.619 495.005 162.255 495.221 161.796C495.451 161.324 495.577 160.781 495.598 160.168L495.731 156.371L497.789 156.442L497.497 164.817L495.638 164.752L495.546 162.808L495.615 163.131C495.428 163.498 495.17 163.829 494.84 164.124C494.51 164.406 494.122 164.619 493.677 164.764C493.231 164.922 492.755 164.992 492.248 164.974ZM502.781 156.617L502.898 158.422L502.823 158.279C503.164 157.664 503.621 157.193 504.193 156.866C504.765 156.526 505.418 156.369 506.15 156.394C506.604 156.41 507.007 156.497 507.362 156.657C507.73 156.816 508.029 157.033 508.26 157.308C508.49 157.583 508.632 157.922 508.685 158.324L508.583 158.38C508.936 157.806 509.392 157.361 509.95 157.047C510.522 156.72 511.121 156.568 511.747 156.59C512.56 156.618 513.198 156.874 513.661 157.357C514.138 157.841 514.37 158.449 514.358 159.182L514.141 165.399L512.102 165.327L512.292 159.891C512.293 159.477 512.205 159.127 512.029 158.841C511.865 158.555 511.557 158.391 511.105 158.348C510.626 158.332 510.194 158.463 509.811 158.743C509.441 159.024 509.148 159.394 508.931 159.853C508.715 160.313 508.591 160.809 508.559 161.341L508.425 165.199L506.366 165.127L506.556 159.69C506.557 159.277 506.469 158.927 506.292 158.641C506.115 158.354 505.794 158.19 505.329 158.147C504.849 158.13 504.424 158.262 504.054 158.542C503.684 158.823 503.391 159.2 503.174 159.672C502.971 160.132 502.861 160.622 502.843 161.142L502.708 164.999L500.649 164.927L500.942 156.553L502.781 156.617ZM516.729 161.206C516.758 160.367 516.985 159.621 517.408 158.969C517.831 158.303 518.403 157.789 519.122 157.428C519.842 157.066 520.655 156.901 521.561 156.932C522.481 156.964 523.28 157.186 523.96 157.596C524.639 158.007 525.153 158.559 525.503 159.251C525.866 159.931 526.033 160.691 526.003 161.53C525.974 162.37 525.754 163.122 525.344 163.789C524.947 164.455 524.396 164.976 523.689 165.352C522.982 165.714 522.163 165.879 521.23 165.846C520.337 165.815 519.544 165.607 518.85 165.223C518.17 164.839 517.635 164.306 517.245 163.626C516.869 162.932 516.697 162.126 516.729 161.206ZM518.807 161.299C518.789 161.819 518.886 162.296 519.097 162.73C519.309 163.151 519.604 163.495 519.982 163.761C520.36 164.015 520.789 164.15 521.269 164.167C521.762 164.184 522.206 164.079 522.6 163.853C522.996 163.613 523.307 163.29 523.535 162.885C523.776 162.466 523.906 161.997 523.924 161.478C523.942 160.958 523.845 160.488 523.633 160.067C523.434 159.646 523.146 159.302 522.769 159.036C522.391 158.769 521.956 158.627 521.463 158.61C520.97 158.593 520.525 158.704 520.13 158.944C519.735 159.183 519.417 159.512 519.175 159.931C518.947 160.337 518.825 160.793 518.807 161.299ZM530.42 157.582L530.536 159.987L530.447 159.664C530.692 159.166 531.027 158.744 531.452 158.398C531.878 158.053 532.314 157.795 532.76 157.624C533.22 157.44 533.603 157.353 533.91 157.364L533.739 159.399C533.1 159.337 532.537 159.437 532.047 159.7C531.571 159.964 531.191 160.324 530.909 160.781C530.626 161.238 530.475 161.733 530.457 162.266L530.327 165.964L528.289 165.893L528.581 157.518L530.42 157.582Z" fill="#FFF4ED"/>
<path d="M119.568 164.901L108.782 153.417L109.395 153.639L109.092 164.035L106.933 163.959L107.456 148.988L107.556 148.992L118.201 160.49L117.706 160.333L118.033 149.818L120.152 149.892L119.628 164.903L119.568 164.901ZM126.771 164.852C125.984 164.825 125.277 164.64 124.649 164.298C124.021 163.942 123.531 163.432 123.181 162.766C122.831 162.1 122.672 161.287 122.706 160.328C122.739 159.381 122.961 158.575 123.371 157.909C123.794 157.244 124.332 156.742 124.984 156.405C125.65 156.054 126.363 155.892 127.123 155.919C127.922 155.947 128.569 156.143 129.063 156.507C129.571 156.858 129.964 157.266 130.241 157.729L130.09 158.044L130.348 156.392L132.247 156.458L131.954 164.833L129.896 164.761L129.969 162.662L130.171 163.17C130.114 163.275 129.996 163.424 129.815 163.618C129.636 163.798 129.396 163.99 129.095 164.193C128.808 164.396 128.468 164.565 128.077 164.698C127.699 164.818 127.264 164.869 126.771 164.852ZM127.389 163.193C127.829 163.208 128.224 163.142 128.576 162.994C128.929 162.846 129.23 162.63 129.48 162.345C129.73 162.06 129.908 161.72 130.016 161.323L130.076 159.584C129.983 159.207 129.814 158.881 129.57 158.606C129.327 158.317 129.028 158.087 128.674 157.914C128.333 157.742 127.949 157.649 127.523 157.634C127.043 157.617 126.599 157.722 126.191 157.948C125.783 158.16 125.453 158.469 125.198 158.874C124.944 159.278 124.807 159.754 124.788 160.3C124.77 160.82 124.873 161.297 125.098 161.732C125.337 162.167 125.658 162.519 126.062 162.786C126.467 163.04 126.909 163.176 127.389 163.193ZM136.329 152.918L138.388 152.99L138.258 156.688L140.497 156.766L140.44 158.385L138.202 158.307L137.967 165.043L135.908 164.971L136.143 158.235L134.664 158.184L134.721 156.565L136.2 156.616L136.329 152.918ZM145.095 165.632C144.322 165.605 143.697 165.35 143.22 164.866C142.743 164.383 142.505 163.774 142.504 163.04L142.721 156.824L144.779 156.896L144.588 162.372C144.6 162.8 144.707 163.157 144.911 163.444C145.128 163.719 145.483 163.871 145.976 163.902C146.429 163.918 146.833 163.798 147.189 163.544C147.558 163.277 147.851 162.913 148.067 162.454C148.297 161.982 148.423 161.439 148.444 160.826L148.577 157.028L150.636 157.1L150.343 165.475L148.484 165.41L148.392 163.466L148.461 163.788C148.275 164.156 148.016 164.487 147.686 164.782C147.356 165.064 146.968 165.277 146.523 165.422C146.077 165.58 145.601 165.65 145.095 165.632ZM155.627 157.275L155.743 159.68L155.654 159.357C155.899 158.858 156.233 158.436 156.659 158.091C157.085 157.746 157.521 157.487 157.967 157.316C158.427 157.132 158.81 157.046 159.117 157.056L158.946 159.092C158.307 159.029 157.743 159.13 157.254 159.393C156.778 159.656 156.398 160.017 156.116 160.474C155.833 160.931 155.682 161.426 155.663 161.959L155.534 165.656L153.496 165.585L153.788 157.21L155.627 157.275ZM164.726 166.178C163.754 166.144 162.927 165.928 162.248 165.531C161.568 165.12 161.053 164.575 160.704 163.896C160.354 163.203 160.195 162.424 160.225 161.558C160.254 160.731 160.486 159.992 160.923 159.341C161.373 158.676 161.958 158.156 162.678 157.781C163.412 157.406 164.212 157.234 165.078 157.264C166.197 157.303 167.112 157.662 167.822 158.341C168.545 159.02 169.013 159.95 169.225 161.132L162.327 163.252L161.889 162.036L167.414 160.268L166.986 160.513C166.84 160.094 166.599 159.726 166.264 159.407C165.928 159.075 165.461 158.899 164.861 158.878C164.382 158.861 163.944 158.966 163.55 159.192C163.169 159.406 162.858 159.715 162.617 160.12C162.389 160.513 162.266 160.982 162.247 161.528C162.228 162.088 162.324 162.585 162.535 163.019C162.761 163.441 163.069 163.778 163.461 164.032C163.865 164.286 164.321 164.422 164.827 164.44C165.187 164.453 165.529 164.398 165.854 164.276C166.191 164.154 166.51 163.999 166.81 163.809L167.697 165.361C167.247 165.625 166.76 165.835 166.234 165.99C165.722 166.132 165.219 166.195 164.726 166.178Z" fill="#2B2B2B"/>
<path d="M300.921 163.225C300.702 163.364 300.376 163.533 299.943 163.731C299.522 163.916 299.023 164.072 298.445 164.199C297.88 164.326 297.259 164.371 296.579 164.334C295.447 164.281 294.435 164.046 293.542 163.627C292.663 163.21 291.922 162.657 291.319 161.969C290.716 161.267 290.257 160.478 289.941 159.599C289.638 158.708 289.504 157.77 289.539 156.784C289.577 155.691 289.785 154.698 290.163 153.804C290.542 152.896 291.063 152.114 291.726 151.457C292.403 150.8 293.18 150.3 294.06 149.957C294.952 149.615 295.918 149.462 296.957 149.498C297.85 149.529 298.652 149.677 299.363 149.942C300.075 150.207 300.671 150.508 301.153 150.845L300.244 152.815C299.867 152.535 299.396 152.265 298.831 152.005C298.28 151.732 297.658 151.584 296.965 151.56C296.286 151.536 295.635 151.653 295.012 151.912C294.403 152.157 293.857 152.518 293.373 152.995C292.903 153.459 292.524 154.013 292.235 154.656C291.946 155.287 291.788 155.982 291.761 156.741C291.734 157.514 291.83 158.231 292.047 158.892C292.264 159.554 292.584 160.132 293.007 160.627C293.443 161.122 293.97 161.514 294.587 161.803C295.204 162.091 295.905 162.249 296.691 162.277C297.438 162.303 298.094 162.212 298.662 162.005C299.243 161.799 299.718 161.555 300.088 161.274L300.921 163.225ZM303.057 160.117C303.086 159.278 303.312 158.532 303.735 157.88C304.159 157.214 304.73 156.7 305.45 156.339C306.17 155.977 306.983 155.812 307.889 155.843C308.808 155.876 309.608 156.097 310.287 156.508C310.967 156.918 311.481 157.47 311.83 158.162C312.194 158.842 312.36 159.602 312.331 160.441C312.302 161.281 312.082 162.034 311.672 162.7C311.275 163.366 310.723 163.887 310.016 164.263C309.31 164.625 308.49 164.79 307.558 164.757C306.665 164.726 305.872 164.518 305.178 164.134C304.498 163.75 303.962 163.218 303.573 162.537C303.197 161.843 303.025 161.037 303.057 160.117ZM305.135 160.21C305.117 160.73 305.213 161.207 305.425 161.641C305.637 162.062 305.932 162.406 306.31 162.672C306.688 162.926 307.117 163.061 307.596 163.078C308.089 163.095 308.533 162.99 308.928 162.764C309.323 162.524 309.635 162.202 309.862 161.796C310.104 161.377 310.234 160.908 310.252 160.389C310.27 159.869 310.173 159.399 309.961 158.978C309.762 158.557 309.474 158.213 309.096 157.947C308.719 157.68 308.283 157.538 307.79 157.521C307.297 157.504 306.853 157.615 306.458 157.855C306.063 158.094 305.744 158.423 305.503 158.842C305.275 159.248 305.152 159.704 305.135 160.21ZM318.027 165.123C317.241 165.095 316.541 164.891 315.927 164.509C315.314 164.114 314.84 163.571 314.503 162.879C314.167 162.186 314.015 161.387 314.047 160.481C314.079 159.548 314.3 158.762 314.71 158.123C315.119 157.47 315.657 156.982 316.322 156.658C317 156.322 317.753 156.168 318.579 156.197C319.219 156.219 319.82 156.373 320.384 156.66C320.962 156.934 321.402 157.309 321.706 157.787L321.621 158.484L321.935 149.51L323.973 149.581L323.431 165.111L321.372 165.04L321.441 163.061L321.642 163.608C321.213 164.06 320.693 164.435 320.082 164.734C319.472 165.02 318.787 165.149 318.027 165.123ZM318.728 163.406C319.194 163.423 319.61 163.357 319.975 163.21C320.341 163.062 320.655 162.847 320.918 162.562C321.182 162.265 321.375 161.918 321.495 161.522L321.554 159.843C321.473 159.466 321.305 159.134 321.048 158.844C320.805 158.542 320.5 158.305 320.133 158.132C319.765 157.959 319.361 157.865 318.922 157.85C318.429 157.832 317.971 157.937 317.55 158.162C317.142 158.375 316.805 158.683 316.537 159.087C316.283 159.492 316.146 159.967 316.127 160.514C316.109 161.033 316.212 161.511 316.437 161.945C316.676 162.381 316.997 162.732 317.401 163C317.806 163.254 318.248 163.39 318.728 163.406ZM326.874 156.847L328.933 156.918L328.64 165.293L326.582 165.221L326.874 156.847ZM326.859 153.844C326.87 153.524 327.006 153.262 327.267 153.058C327.527 152.854 327.804 152.757 328.097 152.767C328.404 152.777 328.673 152.894 328.906 153.115C329.138 153.337 329.249 153.607 329.238 153.927C329.226 154.247 329.097 154.509 328.85 154.714C328.603 154.906 328.326 154.996 328.02 154.985C327.727 154.975 327.457 154.866 327.211 154.657C326.965 154.435 326.848 154.164 326.859 153.844ZM333.905 157.092L334.018 159.017L333.947 158.755C334.248 158.165 334.698 157.7 335.297 157.361C335.896 157.008 336.595 156.846 337.395 156.874C338.181 156.901 338.819 157.157 339.309 157.641C339.813 158.126 340.058 158.741 340.045 159.488L339.829 165.684L337.77 165.612L337.961 160.136C337.963 159.709 337.849 159.358 337.618 159.083C337.388 158.795 337.02 158.635 336.514 158.604C336.061 158.588 335.643 158.714 335.26 158.981C334.878 159.234 334.572 159.59 334.342 160.049C334.113 160.508 333.987 161.044 333.966 161.657L333.833 165.475L331.774 165.403L332.066 157.028L333.905 157.092ZM346.93 170.095C346.277 170.072 345.714 169.979 345.239 169.815C344.764 169.652 344.339 169.43 343.961 169.15C343.597 168.884 343.247 168.598 342.911 168.293L344.18 166.917C344.579 167.318 344.995 167.639 345.427 167.881C345.858 168.136 346.367 168.274 346.953 168.294C347.539 168.315 348.043 168.232 348.463 168.047C348.896 167.875 349.231 167.62 349.47 167.282C349.709 166.943 349.836 166.534 349.853 166.054L349.949 163.876L350.075 164.281C349.83 164.819 349.393 165.271 348.767 165.636C348.141 165.988 347.382 166.148 346.489 166.117C345.729 166.09 345.03 165.872 344.39 165.463C343.764 165.054 343.27 164.51 342.906 163.83C342.543 163.151 342.376 162.391 342.406 161.551C342.436 160.672 342.663 159.906 343.086 159.254C343.523 158.589 344.081 158.075 344.761 157.711C345.441 157.335 346.161 157.16 346.921 157.186C347.667 157.212 348.328 157.382 348.904 157.696C349.481 157.996 349.908 158.365 350.186 158.801L350.055 159.137L350.326 157.666L352.225 157.732L351.931 166.147C351.904 166.92 351.673 167.605 351.239 168.204C350.817 168.816 350.24 169.29 349.508 169.624C348.776 169.972 347.916 170.129 346.93 170.095ZM344.487 161.564C344.468 162.084 344.572 162.561 344.797 162.996C345.022 163.431 345.336 163.782 345.741 164.049C346.159 164.304 346.627 164.441 347.147 164.459C347.614 164.475 348.036 164.41 348.415 164.263C348.794 164.103 349.115 163.887 349.378 163.616C349.655 163.332 349.86 162.999 349.993 162.617L350.054 160.878C349.947 160.487 349.766 160.154 349.508 159.878C349.252 159.589 348.94 159.358 348.572 159.185C348.205 159.012 347.794 158.918 347.341 158.902C346.821 158.884 346.344 158.987 345.909 159.212C345.488 159.424 345.151 159.733 344.897 160.138C344.642 160.542 344.506 161.018 344.487 161.564Z" fill="#2B2B2B"/>
<rect x="484.768" y="73.0343" width="172" height="41" rx="11" transform="rotate(2 484.768 73.0343)" stroke="#101010" stroke-opacity="0.25" stroke-width="2"/>
<rect x="667.768" y="73.0343" width="172" height="41" rx="11" transform="rotate(2 667.768 73.0343)" stroke="#101010" stroke-opacity="0.25" stroke-width="2"/>
<rect x="301.768" y="73.0343" width="172" height="41" rx="11" transform="rotate(2 301.768 73.0343)" stroke="#101010" stroke-opacity="0.25" stroke-width="2"/>
<rect x="118.768" y="73.0343" width="172" height="41" rx="11" transform="rotate(2 118.768 73.0343)" stroke="#101010" stroke-opacity="0.25" stroke-width="2"/>
<rect x="-65.1963" y="72" width="174" height="43" rx="12" transform="rotate(2 -65.1963 72)" fill="#FF462E"/>
<path d="M522.534 85.8397C523.613 85.8774 524.526 86.096 525.273 86.4956C526.033 86.8824 526.601 87.4226 526.977 88.1161C527.367 88.8101 527.544 89.6435 527.51 90.6162C527.49 91.1892 527.384 91.7525 527.191 92.3061C526.999 92.8597 526.701 93.363 526.298 93.8159C525.909 94.2559 525.397 94.6049 524.761 94.8629C524.125 95.1075 523.361 95.2142 522.468 95.1831L520.349 95.1091L520.169 100.286L518.03 100.211L518.537 85.7001L522.534 85.8397ZM522.54 93.1243C523.073 93.1429 523.522 93.0719 523.888 92.9112C524.254 92.7372 524.542 92.5138 524.752 92.241C524.975 91.9686 525.132 91.6872 525.222 91.3969C525.326 91.0936 525.382 90.8221 525.39 90.5822C525.4 90.3157 525.363 90.0343 525.28 89.7379C525.211 89.4286 525.08 89.1439 524.889 88.8837C524.699 88.6102 524.433 88.3875 524.092 88.2155C523.752 88.0302 523.322 87.9284 522.802 87.9103L520.603 87.8335L520.421 93.0503L522.54 93.1243ZM531.745 92.3051L531.861 94.7106L531.772 94.3873C532.016 93.8888 532.351 93.4669 532.777 93.1216C533.203 92.7762 533.639 92.5179 534.085 92.3467C534.545 92.1627 534.928 92.076 535.235 92.0867L535.064 94.122C534.425 94.0597 533.861 94.1601 533.372 94.4231C532.896 94.6867 532.516 95.047 532.234 95.5041C531.951 95.9611 531.8 96.4562 531.781 96.9892L531.652 100.687L529.614 100.616L529.906 92.2408L531.745 92.3051ZM536.344 96.5681C536.373 95.7287 536.599 94.9828 537.022 94.3305C537.446 93.6648 538.017 93.1511 538.737 92.7894C539.457 92.4276 540.27 92.2625 541.176 92.2942C542.095 92.3263 542.895 92.5477 543.574 92.9583C544.253 93.3689 544.768 93.9205 545.117 94.6131C545.48 95.2929 545.647 96.0525 545.618 96.892C545.589 97.7315 545.369 98.4843 544.959 99.1504C544.562 99.8169 544.01 100.338 543.303 100.714C542.597 101.076 541.777 101.241 540.844 101.208C539.952 101.177 539.158 100.969 538.465 100.585C537.784 100.201 537.249 99.6683 536.859 98.9876C536.483 98.2941 536.311 97.4876 536.344 96.5681ZM538.422 96.6607C538.403 97.1804 538.5 97.6574 538.712 98.0917C538.924 98.5127 539.219 98.8566 539.596 99.1232C539.974 99.3766 540.403 99.5116 540.883 99.5284C541.376 99.5456 541.82 99.441 542.215 99.2147C542.61 98.975 542.922 98.6523 543.149 98.2467C543.391 97.8282 543.52 97.3591 543.539 96.8394C543.557 96.3197 543.46 95.8494 543.248 95.4284C543.049 95.0079 542.761 94.6643 542.383 94.3976C542.005 94.1309 541.57 93.989 541.077 93.9718C540.584 93.9545 540.14 94.0658 539.745 94.3055C539.349 94.5451 539.031 94.8742 538.79 95.2927C538.562 95.6984 538.439 96.1544 538.422 96.6607ZM551.314 101.574C550.528 101.546 549.828 101.342 549.214 100.96C548.601 100.565 548.126 100.021 547.79 99.3293C547.454 98.6372 547.302 97.838 547.334 96.9319C547.366 95.9992 547.587 95.213 547.996 94.5736C548.406 93.9208 548.943 93.4326 549.608 93.109C550.287 92.7725 551.04 92.6186 551.866 92.6475C552.506 92.6698 553.107 92.8242 553.671 93.1108C554.248 93.3844 554.689 93.76 554.992 94.2376L554.908 94.935L555.221 85.9605L557.26 86.0317L556.718 101.562L554.659 101.49L554.728 99.5116L554.929 100.059C554.5 100.511 553.98 100.886 553.369 101.185C552.759 101.471 552.074 101.6 551.314 101.574ZM552.014 99.8571C552.481 99.8733 552.897 99.8078 553.262 99.6605C553.627 99.5131 553.942 99.2973 554.205 99.013C554.469 98.7154 554.661 98.3685 554.782 97.9725L554.841 96.2935C554.76 95.9171 554.592 95.5844 554.335 95.2953C554.092 94.9933 553.787 94.7558 553.419 94.5829C553.052 94.4099 552.648 94.3158 552.208 94.3004C551.715 94.2832 551.258 94.3873 550.837 94.6128C550.429 94.8253 550.091 95.1337 549.824 95.538C549.57 95.9427 549.433 96.4182 549.414 96.9645C549.396 97.4842 549.499 97.9614 549.724 98.3962C549.962 98.8315 550.284 99.1829 550.688 99.4505C551.093 99.7048 551.535 99.8403 552.014 99.8571ZM562.535 102.106C561.762 102.079 561.137 101.823 560.661 101.34C560.184 100.856 559.945 100.247 559.944 99.5136L560.161 93.2974L562.22 93.3693L562.029 98.8459C562.04 99.2733 562.148 99.6306 562.351 99.9178C562.569 100.192 562.923 100.345 563.416 100.375C563.869 100.391 564.273 100.272 564.629 100.017C564.999 99.7501 565.292 99.3868 565.508 98.9274C565.738 98.4551 565.863 97.9125 565.885 97.2996L566.017 93.5019L568.076 93.5738L567.784 101.949L565.925 101.884L565.833 99.9394L565.901 100.262C565.715 100.629 565.457 100.96 565.126 101.256C564.796 101.537 564.409 101.751 563.963 101.895C563.517 102.053 563.041 102.123 562.535 102.106ZM577.819 101.519C577.435 101.812 576.974 102.036 576.435 102.191C575.909 102.346 575.38 102.414 574.847 102.395C573.927 102.363 573.121 102.155 572.427 101.771C571.747 101.387 571.225 100.861 570.861 100.195C570.497 99.5286 570.331 98.7423 570.363 97.8362C570.394 96.9434 570.628 96.1777 571.064 95.5392C571.5 94.8874 572.064 94.4001 572.756 94.0774C573.448 93.7413 574.174 93.5866 574.933 93.6131C575.626 93.6373 576.236 93.752 576.762 93.9571C577.289 94.1623 577.739 94.4382 578.114 94.7848L577.048 96.0884C576.828 95.894 576.547 95.7174 576.206 95.5587C575.878 95.4005 575.494 95.3137 575.054 95.2984C574.588 95.2821 574.157 95.3871 573.763 95.6135C573.368 95.8265 573.051 96.1356 572.81 96.5408C572.569 96.9326 572.44 97.3884 572.422 97.9081C572.405 98.4011 572.502 98.8648 572.713 99.2991C572.939 99.7206 573.254 100.058 573.659 100.313C574.063 100.567 574.532 100.703 575.065 100.722C575.412 100.734 575.733 100.699 576.029 100.616C576.326 100.519 576.591 100.382 576.824 100.203L577.819 101.519ZM581.37 90.3557L583.428 90.4276L583.299 94.1254L585.538 94.2036L585.481 95.8226L583.243 95.7444L583.007 102.48L580.949 102.408L581.184 95.6725L579.705 95.6209L579.761 94.0018L581.24 94.0535L581.37 90.3557ZM587.761 94.2612L589.82 94.3331L589.528 102.708L587.469 102.636L587.761 94.2612ZM587.746 91.2588C587.757 90.939 587.893 90.6769 588.154 90.4726C588.414 90.2682 588.691 90.1712 588.984 90.1814C589.291 90.1921 589.56 90.3082 589.793 90.5298C590.025 90.7514 590.136 91.0221 590.125 91.3419C590.114 91.6617 589.984 91.924 589.737 92.1288C589.49 92.3203 589.214 92.4107 588.907 92.4C588.614 92.3898 588.344 92.2803 588.098 92.0716C587.852 91.8496 587.735 91.5786 587.746 91.2588ZM596.151 103.159L591.714 94.3992L594.153 94.4844L597.005 101.068L595.748 100.964L598.77 94.6456L601.069 94.7259L596.231 103.162L596.151 103.159ZM602.986 94.7929L605.045 94.8648L604.753 103.24L602.694 103.168L602.986 94.7929ZM602.971 91.7905C602.982 91.4707 603.118 91.2086 603.379 91.0043C603.64 90.7999 603.916 90.7028 604.21 90.7131C604.516 90.7238 604.786 90.8399 605.018 91.0615C605.25 91.2831 605.361 91.5538 605.35 91.8736C605.339 92.1934 605.209 92.4557 604.962 92.6605C604.715 92.852 604.439 92.9424 604.132 92.9317C603.839 92.9215 603.569 92.812 603.323 92.6033C603.077 92.3812 602.96 92.1103 602.971 91.7905ZM609.107 91.3243L611.165 91.3962L611.036 95.094L613.275 95.1722L613.218 96.7912L610.98 96.713L610.744 103.449L608.686 103.377L608.921 96.6411L607.442 96.5894L607.498 94.9704L608.977 95.0221L609.107 91.3243ZM615.765 107.647L621.735 95.4476L623.613 95.5132L617.784 107.717L615.765 107.647ZM618.022 103.763L614.259 95.1865L616.578 95.2675L619.637 102.779L618.022 103.763Z" fill="#2B2B2B"/>
<path d="M351.284 93.5525C351.319 92.5531 351.539 91.6135 351.943 90.7338C352.361 89.8545 352.922 89.0802 353.625 88.411C354.329 87.7419 355.134 87.2297 356.04 86.8744C356.947 86.5058 357.914 86.3394 358.94 86.3753C359.952 86.4106 360.898 86.6438 361.777 87.0747C362.656 87.4923 363.43 88.0597 364.099 88.7768C364.768 89.4939 365.28 90.3056 365.635 91.2119C365.99 92.1182 366.15 93.071 366.115 94.0704C366.08 95.0964 365.853 96.0491 365.435 96.9284C365.018 97.8077 364.451 98.575 363.734 99.2304C363.031 99.8863 362.219 100.392 361.3 100.746C360.394 101.088 359.434 101.242 358.422 101.206C357.396 101.17 356.443 100.95 355.563 100.546C354.683 100.142 353.915 99.5946 353.259 98.9047C352.603 98.2013 352.097 97.3965 351.742 96.4903C351.401 95.5711 351.248 94.5919 351.284 93.5525ZM353.483 93.6293C353.457 94.3755 353.566 95.0797 353.81 95.7419C354.067 96.3913 354.427 96.9709 354.89 97.4807C355.353 97.9772 355.892 98.3762 356.509 98.6779C357.139 98.9668 357.821 99.124 358.554 99.1496C359.273 99.1747 359.951 99.065 360.586 98.8203C361.222 98.5624 361.782 98.2017 362.265 97.7383C362.762 97.262 363.155 96.7087 363.444 96.0784C363.733 95.4347 363.891 94.7398 363.917 93.9936C363.943 93.2474 363.827 92.5496 363.57 91.9002C363.326 91.238 362.973 90.652 362.51 90.1422C362.061 89.6329 361.522 89.2271 360.892 88.925C360.275 88.6233 359.607 88.4598 358.888 88.4347C358.142 88.4087 357.45 88.5246 356.814 88.7826C356.178 89.0405 355.612 89.4076 355.115 89.8839C354.618 90.3602 354.225 90.9202 353.935 91.5638C353.66 92.2079 353.509 92.8964 353.483 93.6293ZM373.6 101.776C372.987 101.755 372.405 101.601 371.855 101.315C371.305 101.016 370.872 100.627 370.555 100.149L370.696 99.5336L370.488 105.49L368.45 105.419L368.887 92.8864L370.666 92.9485L370.875 94.9971L370.675 94.4097C371.105 93.9445 371.625 93.5624 372.236 93.2635C372.86 92.9651 373.546 92.8289 374.292 92.855C375.078 92.8825 375.778 93.0937 376.391 93.4886C377.004 93.8836 377.479 94.4272 377.815 95.1193C378.151 95.8115 378.303 96.6173 378.271 97.5367C378.239 98.4428 378.012 99.222 377.589 99.8743C377.18 100.514 376.629 101.002 375.937 101.338C375.245 101.66 374.466 101.807 373.6 101.776ZM373.257 100.143C373.763 100.161 374.234 100.057 374.668 99.8324C375.117 99.6079 375.474 99.2935 375.742 98.8893C376.023 98.4722 376.173 98.0038 376.191 97.4841C376.21 96.9378 376.101 96.4537 375.862 96.0317C375.637 95.5969 375.322 95.2524 374.917 94.9981C374.526 94.7443 374.084 94.6088 373.591 94.5916C373.124 94.5753 372.708 94.6475 372.342 94.8082C371.977 94.9555 371.663 95.1713 371.399 95.4556C371.136 95.74 370.944 96.0868 370.823 96.4961L370.769 98.0352C370.835 98.4244 370.983 98.7765 371.212 99.0913C371.441 99.4062 371.733 99.6565 372.087 99.8423C372.44 100.028 372.83 100.128 373.257 100.143ZM380.848 93.4442L382.907 93.5161L382.614 101.891L380.555 101.819L380.848 93.4442ZM380.833 90.4418C380.844 90.122 380.98 89.8599 381.24 89.6556C381.501 89.4512 381.778 89.3541 382.071 89.3644C382.377 89.3751 382.647 89.4912 382.879 89.7128C383.112 89.9344 383.222 90.2051 383.211 90.5249C383.2 90.8447 383.071 91.107 382.823 91.3118C382.577 91.5033 382.3 91.5937 381.993 91.583C381.7 91.5728 381.431 91.4633 381.184 91.2546C380.939 91.0325 380.821 90.7616 380.833 90.4418ZM387.879 93.6897L387.992 95.6148L387.921 95.3522C388.222 94.7623 388.671 94.2977 389.27 93.9584C389.87 93.6058 390.569 93.4434 391.369 93.4714C392.155 93.4988 392.793 93.7546 393.283 94.2386C393.786 94.7232 394.032 95.3388 394.019 96.0854L393.803 102.282L391.744 102.21L391.935 96.7331C391.937 96.3062 391.822 95.9554 391.592 95.6805C391.362 95.3923 390.994 95.2327 390.488 95.2017C390.035 95.1858 389.617 95.3113 389.234 95.5781C388.851 95.8316 388.545 96.1878 388.316 96.6467C388.086 97.1057 387.961 97.6416 387.94 98.2546L387.806 102.072L385.748 102L386.04 93.6255L387.879 93.6897ZM397.244 94.0167L399.303 94.0886L399.01 102.464L396.952 102.392L397.244 94.0167ZM397.229 91.0144C397.24 90.6946 397.376 90.4325 397.637 90.2281C397.897 90.0238 398.174 89.9267 398.467 89.9369C398.774 89.9476 399.043 90.0638 399.276 90.2854C399.508 90.5069 399.619 90.7776 399.607 91.0974C399.596 91.4172 399.467 91.6796 399.22 91.8844C398.973 92.0759 398.696 92.1663 398.39 92.1556C398.097 92.1453 397.827 92.0359 397.581 91.8271C397.335 91.6051 397.218 91.3342 397.229 91.0144ZM401.574 98.2704C401.603 97.4309 401.829 96.685 402.252 96.0327C402.676 95.3671 403.247 94.8534 403.967 94.4916C404.687 94.1299 405.5 93.9648 406.406 93.9965C407.325 94.0286 408.125 94.2499 408.804 94.6606C409.483 95.0712 409.998 95.6228 410.347 96.3154C410.71 96.9952 410.877 97.7548 410.848 98.5943C410.819 99.4338 410.599 100.187 410.189 100.853C409.792 101.519 409.24 102.04 408.533 102.416C407.827 102.778 407.007 102.943 406.074 102.91C405.182 102.879 404.388 102.671 403.695 102.287C403.014 101.903 402.479 101.371 402.089 100.69C401.713 99.9964 401.541 99.1899 401.574 98.2704ZM403.652 98.363C403.633 98.8827 403.73 99.3597 403.942 99.794C404.154 100.215 404.449 100.559 404.826 100.826C405.204 101.079 405.633 101.214 406.113 101.231C406.606 101.248 407.05 101.143 407.445 100.917C407.84 100.677 408.152 100.355 408.379 99.949C408.621 99.5305 408.75 99.0614 408.768 98.5417C408.787 98.022 408.69 97.5517 408.478 97.1307C408.279 96.7101 407.991 96.3665 407.613 96.0999C407.235 95.8332 406.8 95.6913 406.307 95.674C405.814 95.6568 405.37 95.7681 404.975 96.0077C404.579 96.2474 404.261 96.5765 404.02 96.995C403.792 97.4006 403.669 97.8566 403.652 98.363ZM415.265 94.646L415.377 96.5711L415.307 96.3085C415.607 95.7186 416.057 95.2541 416.656 94.9147C417.255 94.5621 417.955 94.3998 418.754 94.4277C419.54 94.4551 420.179 94.7109 420.669 95.195C421.172 95.6795 421.417 96.2951 421.405 97.0418L421.188 103.238L419.13 103.166L419.321 97.6894C419.322 97.2626 419.208 96.9117 418.977 96.6368C418.747 96.3486 418.379 96.189 417.873 96.158C417.42 96.1422 417.002 96.2677 416.619 96.5345C416.237 96.7879 415.931 97.1441 415.702 97.6031C415.472 98.062 415.347 98.598 415.325 99.2109L415.192 103.029L413.133 102.957L413.426 94.5818L415.265 94.646Z" fill="#2B2B2B"/>
<path d="M184.901 89.6125C184.404 89.3283 183.866 89.0827 183.286 88.8757C182.706 88.6687 182.143 88.5556 181.597 88.5366C180.851 88.5105 180.252 88.663 179.8 88.9941C179.348 89.3119 179.112 89.7639 179.092 90.3502C179.078 90.7633 179.212 91.1282 179.494 91.4449C179.776 91.7617 180.147 92.0414 180.605 92.2842C181.064 92.5271 181.549 92.7575 182.062 92.9755C182.496 93.1508 182.923 93.3591 183.341 93.6005C183.773 93.8291 184.157 94.1093 184.492 94.4412C184.841 94.7736 185.107 95.1831 185.29 95.6698C185.487 96.1436 185.574 96.7203 185.55 97.3999C185.523 98.1728 185.305 98.8656 184.897 99.4784C184.502 100.092 183.938 100.572 183.206 100.92C182.487 101.255 181.621 101.405 180.608 101.37C179.995 101.348 179.398 101.261 178.816 101.107C178.249 100.941 177.709 100.735 177.197 100.49C176.699 100.233 176.248 99.9569 175.845 99.6626L176.862 98.0371C177.174 98.2748 177.533 98.5075 177.939 98.7351C178.345 98.9494 178.766 99.1242 179.201 99.2595C179.65 99.3952 180.074 99.4701 180.474 99.484C180.914 99.4994 181.349 99.4412 181.781 99.3095C182.213 99.1645 182.574 98.937 182.865 98.627C183.157 98.3036 183.312 97.8754 183.331 97.3424C183.346 96.8894 183.233 96.5052 182.991 96.1899C182.762 95.8617 182.445 95.5771 182.04 95.3362C181.648 95.0957 181.222 94.8807 180.761 94.6912C180.314 94.5021 179.862 94.2928 179.403 94.0633C178.944 93.8339 178.519 93.5656 178.13 93.2584C177.741 92.938 177.427 92.5535 177.19 92.1049C176.966 91.6435 176.865 91.0863 176.888 90.4334C176.915 89.6605 177.118 88.9939 177.498 88.4334C177.891 87.8602 178.421 87.4184 179.085 87.108C179.75 86.7977 180.509 86.6374 181.363 86.6272C182.336 86.6612 183.178 86.8107 183.889 87.0757C184.6 87.3407 185.23 87.6495 185.778 88.0022L184.901 89.6125ZM193.12 101.847C192.507 101.825 191.925 101.672 191.375 101.386C190.825 101.086 190.392 100.698 190.075 100.22L190.216 99.6041L190.008 105.56L187.97 105.489L188.407 92.9569L190.186 93.0191L190.395 95.0676L190.195 94.4803C190.625 94.015 191.145 93.6329 191.756 93.334C192.38 93.0356 193.065 92.8995 193.812 92.9255C194.598 92.953 195.298 93.1642 195.911 93.5592C196.524 93.9541 196.999 94.4977 197.335 95.1899C197.671 95.882 197.823 96.6878 197.791 97.6072C197.759 98.5134 197.532 99.2926 197.109 99.9449C196.699 100.584 196.149 101.072 195.457 101.408C194.765 101.731 193.986 101.877 193.12 101.847ZM192.777 100.214C193.283 100.232 193.754 100.128 194.188 99.9029C194.637 99.6784 194.994 99.3641 195.262 98.9598C195.543 98.5427 195.693 98.0743 195.711 97.5546C195.73 97.0083 195.621 96.5242 195.382 96.1023C195.157 95.6675 194.842 95.3229 194.437 95.0687C194.046 94.8148 193.604 94.6793 193.111 94.6621C192.644 94.6458 192.228 94.718 191.862 94.8787C191.497 95.026 191.183 95.2418 190.919 95.5262C190.656 95.8105 190.464 96.1573 190.342 96.5667L190.289 98.1057C190.355 98.495 190.503 98.847 190.732 99.1618C190.961 99.4767 191.253 99.727 191.606 99.9128C191.96 100.099 192.35 100.199 192.777 100.214ZM199.505 97.5871C199.534 96.7476 199.761 96.0017 200.184 95.3494C200.607 94.6838 201.179 94.1701 201.898 93.8083C202.618 93.4465 203.431 93.2815 204.337 93.3131C205.257 93.3452 206.056 93.5666 206.736 93.9772C207.415 94.3878 207.929 94.9394 208.279 95.6321C208.642 96.3118 208.809 97.0714 208.779 97.9109C208.75 98.7504 208.53 99.5032 208.12 100.169C207.723 100.836 207.172 101.357 206.465 101.732C205.758 102.095 204.939 102.26 204.006 102.227C203.113 102.196 202.32 101.988 201.626 101.604C200.946 101.22 200.411 100.687 200.021 100.007C199.645 99.313 199.473 98.5065 199.505 97.5871ZM201.583 97.6796C201.565 98.1993 201.662 98.6763 201.873 99.1106C202.085 99.5316 202.38 99.8755 202.758 100.142C203.136 100.395 203.565 100.531 204.045 100.547C204.538 100.565 204.982 100.46 205.376 100.234C205.772 99.9939 206.083 99.6712 206.311 99.2656C206.552 98.8471 206.682 98.378 206.7 97.8583C206.718 97.3386 206.621 96.8683 206.409 96.4473C206.21 96.0268 205.922 95.6832 205.545 95.4165C205.167 95.1498 204.732 95.0079 204.239 94.9907C203.746 94.9735 203.301 95.0847 202.906 95.3244C202.511 95.5641 202.193 95.8932 201.951 96.3116C201.723 96.7173 201.601 97.1733 201.583 97.6796ZM213.196 93.9627L213.312 96.3682L213.223 96.0449C213.468 95.5464 213.803 95.1245 214.228 94.7792C214.654 94.4338 215.09 94.1755 215.536 94.0043C215.996 93.8203 216.379 93.7336 216.686 93.7443L216.515 95.7796C215.876 95.7173 215.313 95.8177 214.823 96.0807C214.347 96.3443 213.967 96.7046 213.685 97.1617C213.402 97.6187 213.251 98.1138 213.233 98.6468L213.103 102.345L211.065 102.273L211.357 93.8984L213.196 93.9627ZM219.937 90.5158L221.995 90.5877L221.866 94.2854L224.105 94.3636L224.048 95.9826L221.81 95.9045L221.575 102.64L219.516 102.568L219.751 95.8326L218.272 95.7809L218.328 94.1619L219.808 94.2136L219.937 90.5158ZM228.468 103.061C227.855 103.04 227.266 102.912 226.701 102.679C226.135 102.433 225.674 102.09 225.316 101.65L226.236 100.522C226.584 100.867 226.935 101.133 227.288 101.319C227.656 101.492 228.006 101.584 228.339 101.596C228.606 101.605 228.847 101.587 229.062 101.541C229.277 101.482 229.454 101.381 229.593 101.239C229.731 101.097 229.804 100.907 229.813 100.667C229.822 100.387 229.737 100.164 229.556 99.9973C229.375 99.8309 229.14 99.6892 228.85 99.5724C228.561 99.4556 228.251 99.3447 227.921 99.2398C227.223 98.9886 226.701 98.6502 226.356 98.2245C226.011 97.7856 225.848 97.2796 225.868 96.7066C225.884 96.2669 226.005 95.8575 226.232 95.4785C226.472 95.0867 226.823 94.7721 227.285 94.5347C227.747 94.2974 228.311 94.1903 228.977 94.2136C229.59 94.235 230.127 94.3271 230.589 94.49C231.05 94.6395 231.475 94.8878 231.863 95.2349L231.021 96.4462C230.789 96.198 230.509 96.0081 230.18 95.8766C229.865 95.7321 229.574 95.6486 229.308 95.626C229.068 95.6176 228.847 95.6499 228.644 95.7229C228.442 95.7825 228.279 95.8835 228.154 96.0259C228.029 96.155 227.963 96.3128 227.957 96.4994C227.934 96.7654 228.013 96.9883 228.194 97.168C228.388 97.3349 228.637 97.477 228.939 97.5943C229.243 97.6983 229.539 97.8087 229.828 97.9255C230.237 98.0599 230.598 98.2392 230.91 98.4636C231.223 98.6747 231.468 98.93 231.644 99.2297C231.82 99.5294 231.9 99.9057 231.885 100.359C231.867 100.852 231.731 101.314 231.476 101.745C231.221 102.163 230.843 102.497 230.34 102.746C229.839 102.982 229.214 103.087 228.468 103.061Z" fill="#2B2B2B"/>
<path d="M-8.86672 101.001L-8.35998 86.4903L-4.32244 86.6313C-2.88332 86.6815 -1.66508 86.9442 -0.667718 87.4193C0.329642 87.8944 1.12224 88.5024 1.71007 89.2434C2.31123 89.9848 2.73636 90.8002 2.98548 91.6894C3.24793 92.5791 3.36356 93.4704 3.33238 94.3631C3.29469 95.4425 3.06751 96.4085 2.65083 97.2611C2.23415 98.1138 1.68175 98.8416 0.993616 99.4446C0.305951 100.034 -0.476767 100.481 -1.35454 100.783C-2.23185 101.073 -3.15687 101.201 -4.12961 101.167L-8.86672 101.001ZM-6.65613 99.0174L-4.45747 99.0942C-3.67129 99.1216 -2.94777 99.0335 -2.28692 98.8298C-1.61275 98.6265 -1.02814 98.3134 -0.533072 97.8904C-0.0246835 97.4679 0.373931 96.9415 0.662771 96.3112C0.951611 95.6809 1.11046 94.9526 1.13931 94.1265C1.17048 93.2337 1.04423 92.4555 0.760553 91.7918C0.490665 91.1153 0.116649 90.5553 -0.361493 90.1116C-0.83917 89.6547 -1.381 89.3156 -1.98698 89.0943C-2.57917 88.8601 -3.1884 88.7321 -3.81469 88.7103L-6.29318 88.6237L-6.65613 99.0174ZM9.73168 101.851C8.75893 101.817 7.93262 101.601 7.25274 101.204C6.57333 100.794 6.0587 100.249 5.70886 99.5693C5.35948 98.8766 5.19992 98.0973 5.23017 97.2311C5.25902 96.405 5.49161 95.666 5.92796 95.0141C6.3781 94.3494 6.96327 93.8295 7.68346 93.4544C8.41699 93.0798 9.21682 92.9076 10.083 92.9379C11.2023 92.977 12.117 93.3358 12.8271 94.0143C13.5505 94.6933 14.0183 95.6235 14.2305 96.805L7.33231 98.9255L6.89448 97.7095L12.4196 95.9412L11.9907 96.1864C11.8453 95.7678 11.6047 95.3991 11.2689 95.0806C10.9336 94.7487 10.4661 94.5722 9.86651 94.5513C9.38681 94.5345 8.94955 94.6393 8.55474 94.8657C8.17373 95.0792 7.86274 95.3885 7.62179 95.7937C7.39462 96.186 7.2715 96.6553 7.25243 97.2017C7.23288 97.7613 7.32893 98.2583 7.54057 98.6926C7.766 99.1141 8.0744 99.4517 8.46578 99.7056C8.87049 99.9598 9.32602 100.096 9.83238 100.113C10.1922 100.126 10.5343 100.071 10.8587 99.9492C11.1965 99.8276 11.5155 99.672 11.8156 99.4823L12.702 101.034C12.2525 101.299 11.7649 101.508 11.2391 101.664C10.7272 101.806 10.2247 101.868 9.73168 101.851ZM18.7737 102.147C18.1608 102.125 17.5715 101.998 17.006 101.765C16.4409 101.518 15.9793 101.175 15.6211 100.736L16.541 99.6073C16.8892 99.953 17.2401 100.219 17.5938 100.405C17.9613 100.577 18.3117 100.67 18.6448 100.681C18.9113 100.691 19.1521 100.672 19.3672 100.627C19.5827 100.567 19.7596 100.467 19.898 100.325C20.0364 100.183 20.1097 99.9921 20.1181 99.7522C20.1279 99.4724 20.0423 99.2493 19.8613 99.0829C19.6804 98.9165 19.4452 98.7748 19.1557 98.658C18.8663 98.5411 18.5566 98.4303 18.2268 98.3254C17.5284 98.0742 17.0066 97.7358 16.6612 97.3101C16.3164 96.8711 16.1539 96.3652 16.1739 95.7922C16.1893 95.3524 16.3103 94.9431 16.537 94.5641C16.7775 94.1723 17.1287 93.8577 17.5906 93.6203C18.0525 93.3829 18.6166 93.2759 19.2828 93.2992C19.8958 93.3206 20.4329 93.4127 20.8942 93.5756C21.3559 93.7251 21.7808 93.9734 22.1689 94.3205L21.3262 95.5318C21.0947 95.2836 20.8145 95.0937 20.4855 94.9621C20.1704 94.8177 19.8798 94.7342 19.6137 94.7116C19.3739 94.7032 19.1526 94.7355 18.9499 94.8085C18.7477 94.8681 18.5841 94.9691 18.4591 95.1115C18.3345 95.2406 18.2689 95.3984 18.2624 95.5849C18.2398 95.851 18.3187 96.0739 18.4992 96.2536C18.6935 96.4205 18.9421 96.5626 19.2448 96.6799C19.548 96.7839 19.8444 96.8943 20.1338 97.0111C20.5427 97.1455 20.9033 97.3248 21.2157 97.5492C21.5285 97.7602 21.7731 98.0156 21.9494 98.3153C22.1257 98.6149 22.206 98.9913 22.1901 99.4444C22.1729 99.9374 22.0367 100.4 21.7815 100.831C21.5267 101.249 21.1482 101.583 20.6459 101.832C20.144 102.068 19.5199 102.173 18.7737 102.147ZM24.9297 93.7965L26.9884 93.8684L26.696 102.243L24.6372 102.171L24.9297 93.7965ZM24.9145 90.7942C24.9256 90.4744 25.0615 90.2123 25.3221 90.0079C25.5828 89.8036 25.8597 89.7065 26.1528 89.7167C26.4593 89.7274 26.7287 89.8436 26.9611 90.0652C27.1936 90.2867 27.3042 90.5574 27.293 90.8772C27.2818 91.197 27.1526 91.4594 26.9053 91.6642C26.6585 91.8557 26.3818 91.9461 26.0753 91.9354C25.7822 91.9251 25.5125 91.8157 25.2663 91.6069C25.0206 91.3849 24.9033 91.114 24.9145 90.7942ZM33.7817 106.653C33.1288 106.63 32.565 106.537 32.0904 106.374C31.6158 106.211 31.19 105.989 30.8128 105.709C30.4486 105.443 30.0983 105.157 29.7621 104.852L31.0309 103.475C31.4305 103.876 31.8462 104.198 32.278 104.439C32.7094 104.695 33.2182 104.833 33.8045 104.853C34.3909 104.873 34.894 104.791 35.3141 104.606C35.747 104.434 36.0828 104.179 36.3214 103.84C36.56 103.502 36.6877 103.093 36.7045 102.613L36.8006 100.435L36.9265 100.84C36.6809 101.378 36.2449 101.83 35.6184 102.195C34.9924 102.546 34.233 102.707 33.3403 102.675C32.5807 102.649 31.8812 102.431 31.2418 102.022C30.6157 101.613 30.121 101.069 29.7579 100.389C29.3947 99.7093 29.2278 98.9497 29.2571 98.1102C29.2878 97.2307 29.5147 96.4648 29.9377 95.8125C30.3745 95.1474 30.9328 94.6332 31.6125 94.2701C32.2928 93.8936 33.0126 93.7186 33.7722 93.7451C34.5184 93.7712 35.1795 93.941 35.7556 94.2546C36.3321 94.5549 36.7595 94.9234 37.0378 95.3601L36.906 95.6957L37.1775 94.2242L39.0764 94.2905L38.7825 102.705C38.7555 103.478 38.5248 104.164 38.0903 104.763C37.6687 105.375 37.0918 105.848 36.3597 106.183C35.6271 106.531 34.7678 106.688 33.7817 106.653ZM31.3379 98.1228C31.3198 98.6425 31.4232 99.1197 31.6481 99.5545C31.8731 99.9893 32.1877 100.34 32.5919 100.608C33.01 100.863 33.4788 100.999 33.9985 101.017C34.4649 101.034 34.8874 100.968 35.2661 100.822C35.6453 100.661 35.9663 100.446 36.2293 100.175C36.506 99.8909 36.7111 99.5579 36.8445 99.1756L36.9053 97.4367C36.7988 97.0461 36.617 96.7129 36.3598 96.437C36.1031 96.1479 35.791 95.9169 35.4234 95.7439C35.0559 95.571 34.6456 95.4766 34.1926 95.4608C33.6729 95.4427 33.1956 95.5461 32.7609 95.771C32.3399 95.9831 32.0022 96.2915 31.748 96.6963C31.4937 97.101 31.357 97.5765 31.3379 98.1228ZM44.0627 94.4647L44.1756 96.3898L44.1047 96.1272C44.4055 95.5373 44.8553 95.0727 45.4542 94.7334C46.0535 94.3808 46.7529 94.2184 47.5525 94.2463C48.3386 94.2738 48.9768 94.5295 49.4668 95.0136C49.9702 95.4981 50.2156 96.1137 50.2028 96.8604L49.9865 103.057L47.9277 102.985L48.119 97.5081C48.1205 97.0812 48.006 96.7303 47.7755 96.4555C47.5454 96.1673 47.1774 96.0077 46.6715 95.9766C46.2185 95.9608 45.8005 96.0863 45.4176 96.3531C45.0352 96.6066 44.7293 96.9628 44.4998 97.4217C44.2703 97.8807 44.1448 98.4166 44.1234 99.0296L43.9901 102.847L41.9314 102.775L42.2238 94.4005L44.0627 94.4647Z" fill="#FFF4ED"/>
<rect x="-152.535" y="10.0343" width="172" height="41" rx="11" transform="rotate(2 -152.535 10.0343)" stroke="#101010" stroke-opacity="0.25" stroke-width="2"/>
<rect x="30.4655" y="10.0343" width="172" height="41" rx="11" transform="rotate(2 30.4655 10.0343)" stroke="#101010" stroke-opacity="0.25" stroke-width="2"/>
<rect x="212.501" y="9" width="174" height="43" rx="12" transform="rotate(2 212.501 9)" fill="#FF462E"/>
<rect x="396.465" y="10.0343" width="172" height="41" rx="11" transform="rotate(2 396.465 10.0343)" stroke="#101010" stroke-opacity="0.25" stroke-width="2"/>
<rect x="579.465" y="10.0343" width="172" height="41" rx="11" transform="rotate(2 579.465 10.0343)" stroke="#101010" stroke-opacity="0.25" stroke-width="2"/>
<path d="M79.5862 23.2361L81.7249 23.3108L81.29 35.7632L88.5456 36.0166L88.4737 38.0753L79.0794 37.7473L79.5862 23.2361ZM91.4241 29.7932L93.4828 29.8651L93.1903 38.24L91.1316 38.1681L91.4241 29.7932ZM91.4088 26.7909C91.42 26.4711 91.5559 26.209 91.8165 26.0046C92.0771 25.8003 92.354 25.7032 92.6472 25.7134C92.9537 25.7242 93.2231 25.8403 93.4555 26.0619C93.6879 26.2835 93.7985 26.5541 93.7874 26.8739C93.7762 27.1938 93.647 27.4561 93.3997 27.6609C93.1528 27.8524 92.8762 27.9428 92.5697 27.9321C92.2766 27.9219 92.0069 27.8124 91.7607 27.6037C91.5149 27.3816 91.3977 27.1107 91.4088 26.7909ZM97.0233 38.3739L97.2523 31.8179L95.8331 31.7683L95.8966 29.9494L97.3158 29.999L97.4344 26.6011C97.4763 25.4018 97.7952 24.4857 98.3909 23.8528C98.9867 23.2198 99.8309 22.9225 100.924 22.9606C101.217 22.9709 101.542 23.0289 101.898 23.1347C102.255 23.2272 102.57 23.3717 102.844 23.568L101.932 25.0371C101.816 24.8996 101.68 24.8015 101.522 24.7426C101.377 24.6842 101.225 24.6522 101.065 24.6466C100.598 24.6303 100.226 24.7774 99.9488 25.0879C99.6711 25.3984 99.5188 25.9401 99.4918 26.7129L99.3745 30.0709L102.013 30.163L101.949 31.9819L99.311 31.8898L99.0821 38.4458L97.0233 38.3739ZM107.594 38.9431C106.621 38.9092 105.795 38.6935 105.115 38.2962C104.435 37.8856 103.921 37.3406 103.571 36.6613C103.221 35.9687 103.062 35.1894 103.092 34.3232C103.121 33.4971 103.354 32.7581 103.79 32.1062C104.24 31.4415 104.825 30.9216 105.545 30.5465C106.279 30.1719 107.079 29.9997 107.945 30.03C109.064 30.069 109.979 30.4279 110.689 31.1064C111.412 31.7854 111.88 32.7156 112.092 33.8971L105.194 36.0176L104.756 34.8016L110.282 33.0333L109.853 33.2785C109.707 32.8599 109.467 32.4912 109.131 32.1727C108.796 31.8408 108.328 31.6643 107.728 31.6434C107.249 31.6266 106.812 31.7314 106.417 31.9578C106.036 32.1713 105.725 32.4806 105.484 32.8858C105.257 33.2781 105.133 33.7474 105.114 34.2938C105.095 34.8534 105.191 35.3504 105.403 35.7847C105.628 36.2062 105.936 36.5438 106.328 36.7976C106.732 37.0519 107.188 37.1879 107.694 37.2056C108.054 37.2182 108.396 37.1634 108.721 37.0413C109.058 36.9197 109.377 36.7641 109.678 36.5744L110.564 38.1263C110.114 38.3908 109.627 38.6005 109.101 38.7556C108.589 38.8978 108.087 38.9603 107.594 38.9431ZM116.636 39.2389C116.023 39.2175 115.433 39.0902 114.868 38.8569C114.303 38.6104 113.841 38.2674 113.483 37.828L114.403 36.6994C114.751 37.0451 115.102 37.3108 115.456 37.4966C115.823 37.6696 116.174 37.7619 116.507 37.7735C116.773 37.7828 117.014 37.7645 117.229 37.7187C117.445 37.6595 117.622 37.5589 117.76 37.417C117.898 37.2751 117.972 37.0842 117.98 36.8443C117.99 36.5645 117.904 36.3414 117.723 36.175C117.542 36.0085 117.307 35.8669 117.018 35.7501C116.728 35.6332 116.419 35.5224 116.089 35.4175C115.39 35.1663 114.869 34.8278 114.523 34.4022C114.178 33.9632 114.016 33.4573 114.036 32.8843C114.051 32.4445 114.172 32.0352 114.399 31.6562C114.639 31.2643 114.991 30.9497 115.453 30.7124C115.914 30.475 116.479 30.368 117.145 30.3913C117.758 30.4127 118.295 30.5048 118.756 30.6677C119.218 30.8172 119.643 31.0655 120.031 31.4126L119.188 32.6239C118.957 32.3757 118.676 32.1858 118.347 32.0542C118.032 31.9098 117.742 31.8263 117.476 31.8037C117.236 31.7953 117.015 31.8276 116.812 31.9006C116.61 31.9602 116.446 32.0612 116.321 32.2036C116.196 32.3327 116.131 32.4905 116.124 32.677C116.102 32.9431 116.181 33.166 116.361 33.3457C116.556 33.5126 116.804 33.6547 117.107 33.772C117.41 33.876 117.706 33.9864 117.996 34.1032C118.405 34.2376 118.765 34.4169 119.078 34.6413C119.39 34.8523 119.635 35.1077 119.811 35.4074C119.988 35.707 120.068 36.0834 120.052 36.5365C120.035 37.0295 119.899 37.4917 119.643 37.923C119.389 38.3411 119.01 38.6747 118.508 38.924C118.006 39.16 117.382 39.2649 116.636 39.2389ZM123.72 27.2388L125.778 27.3107L125.649 31.0084L127.888 31.0866L127.831 32.7056L125.593 32.6274L125.357 39.3633L123.299 39.2914L123.534 32.5555L122.055 32.5039L122.111 30.8849L123.59 30.9365L123.72 27.2388ZM130.378 43.5611L136.348 31.362L138.226 31.4276L132.397 43.6316L130.378 43.5611ZM132.635 39.6775L128.872 31.101L131.191 31.1819L134.25 38.6933L132.635 39.6775ZM140.394 24.339L142.453 24.4109L141.911 39.9414L139.852 39.8695L140.394 24.339ZM148.975 40.3882C148.002 40.3542 147.176 40.1386 146.496 39.7413C145.816 39.3307 145.302 38.7857 144.952 38.1064C144.602 37.4138 144.443 36.6344 144.473 35.7683C144.502 34.9421 144.735 34.2031 145.171 33.5513C145.621 32.8866 146.206 32.3667 146.926 31.9916C147.66 31.617 148.46 31.4448 149.326 31.475C150.445 31.5141 151.36 31.8729 152.07 32.5514C152.793 33.2304 153.261 34.1607 153.474 35.3421L146.575 37.4627L146.137 36.2466L151.663 34.4784L151.234 34.7236C151.088 34.3049 150.848 33.9363 150.512 33.6177C150.177 33.2858 149.709 33.1094 149.11 33.0884C148.63 33.0717 148.193 33.1765 147.798 33.4029C147.417 33.6164 147.106 33.9257 146.865 34.3309C146.638 34.7232 146.515 35.1925 146.495 35.7388C146.476 36.2985 146.572 36.7955 146.784 37.2298C147.009 37.6513 147.317 37.9889 147.709 38.2427C148.113 38.497 148.569 38.633 149.075 38.6506C149.435 38.6632 149.777 38.6084 150.102 38.4864C150.44 38.3647 150.758 38.2091 151.059 38.0195L151.945 39.5714C151.495 39.8358 151.008 40.0456 150.482 40.2007C149.97 40.3429 149.468 40.4054 148.975 40.3882Z" fill="#2B2B2B"/>
<path d="M269.376 23.4917L278.071 23.7953L277.999 25.854L271.443 25.6251L271.291 29.9824L277.027 30.1828L276.956 32.2215L271.22 32.0212L271.008 38.0775L268.87 38.0028L269.376 23.4917ZM280.238 30.0147L282.297 30.0866L282.005 38.4615L279.946 38.3896L280.238 30.0147ZM280.223 27.0123C280.234 26.6925 280.37 26.4305 280.631 26.2261C280.891 26.0217 281.168 25.9247 281.461 25.9349C281.768 25.9456 282.037 26.0617 282.27 26.2833C282.502 26.5049 282.613 26.7756 282.602 27.0954C282.59 27.4152 282.461 27.6775 282.214 27.8824C281.967 28.0739 281.69 28.1643 281.384 28.1536C281.091 28.1433 280.821 28.0338 280.575 27.8251C280.329 27.6031 280.212 27.3321 280.223 27.0123ZM286.358 26.5462L288.417 26.6181L288.288 30.3158L290.527 30.394L290.47 32.013L288.231 31.9348L287.996 38.6707L285.937 38.5988L286.173 31.8629L284.694 31.8113L284.75 30.1923L286.229 30.2439L286.358 26.5462ZM294.589 30.5158L294.702 32.441L294.631 32.1783C294.932 31.5885 295.382 31.1239 295.981 30.7846C296.58 30.4319 297.279 30.2696 298.079 30.2975C298.865 30.325 299.503 30.5807 299.993 31.0648C300.497 31.5493 300.742 32.1649 300.729 32.9116L300.513 39.1078L298.454 39.0359L298.645 33.5593C298.647 33.1324 298.532 32.7815 298.302 32.5066C298.072 32.2184 297.704 32.0588 297.198 32.0278C296.745 32.012 296.327 32.1375 295.944 32.4043C295.562 32.6578 295.256 33.014 295.026 33.4729C294.797 33.9318 294.671 34.4678 294.65 35.0807L294.516 38.8984L292.458 38.8265L292.75 30.4516L294.589 30.5158ZM307.592 39.5552C306.62 39.5212 305.793 39.3056 305.113 38.9083C304.434 38.4976 303.919 37.9527 303.57 37.2734C303.22 36.5808 303.061 35.8014 303.091 34.9352C303.12 34.1091 303.352 33.3701 303.789 32.7183C304.239 32.0536 304.824 31.5337 305.544 31.1586C306.278 30.7839 307.078 30.6117 307.944 30.642C309.063 30.6811 309.978 31.0399 310.688 31.7184C311.411 32.3974 311.879 33.3276 312.091 34.5091L305.193 36.6296L304.755 35.4136L310.28 33.6454L309.851 33.8906C309.706 33.4719 309.465 33.1033 309.13 32.7847C308.794 32.4528 308.327 32.2764 307.727 32.2554C307.248 32.2387 306.81 32.3435 306.415 32.5698C306.034 32.7833 305.723 33.0927 305.483 33.4978C305.255 33.8902 305.132 34.3595 305.113 34.9058C305.094 35.4655 305.19 35.9625 305.401 36.3968C305.627 36.8182 305.935 37.1559 306.327 37.4097C306.731 37.664 307.187 37.7999 307.693 37.8176C308.053 37.8302 308.395 37.7754 308.719 37.6533C309.057 37.5317 309.376 37.3761 309.676 37.1864L310.563 38.7383C310.113 39.0028 309.626 39.2126 309.1 39.3677C308.588 39.5099 308.085 39.5724 307.592 39.5552ZM316.634 39.8509C316.022 39.8295 315.432 39.7022 314.867 39.469C314.302 39.2224 313.84 38.8795 313.482 38.44L314.402 37.3114C314.75 37.6571 315.101 37.9229 315.455 38.1087C315.822 38.2816 316.172 38.3739 316.506 38.3855C316.772 38.3948 317.013 38.3765 317.228 38.3307C317.443 38.2715 317.62 38.171 317.759 38.029C317.897 37.8871 317.971 37.6962 317.979 37.4564C317.989 37.1765 317.903 36.9534 317.722 36.787C317.541 36.6206 317.306 36.479 317.016 36.3621C316.727 36.2453 316.417 36.1344 316.088 36.0295C315.389 35.7783 314.867 35.4399 314.522 35.0142C314.177 34.5753 314.015 34.0693 314.035 33.4963C314.05 33.0566 314.171 32.6472 314.398 32.2682C314.638 31.8764 314.989 31.5618 315.451 31.3244C315.913 31.0871 316.477 30.98 317.144 31.0033C317.757 31.0247 318.294 31.1168 318.755 31.2797C319.217 31.4292 319.642 31.6775 320.03 32.0246L319.187 33.236C318.955 32.9877 318.675 32.7978 318.346 32.6663C318.031 32.5219 317.741 32.4383 317.474 32.4157C317.235 32.4073 317.013 32.4396 316.811 32.5126C316.609 32.5722 316.445 32.6732 316.32 32.8156C316.195 32.9447 316.13 33.1025 316.123 33.2891C316.101 33.5551 316.179 33.778 316.36 33.9577C316.554 34.1246 316.803 34.2667 317.106 34.384C317.409 34.488 317.705 34.5984 317.995 34.7152C318.403 34.8496 318.764 35.029 319.076 35.2533C319.389 35.4644 319.634 35.7197 319.81 36.0194C319.986 36.3191 320.067 36.6954 320.051 37.1485C320.034 37.6415 319.897 38.1037 319.642 38.5351C319.388 38.9531 319.009 39.2868 318.507 39.5361C318.005 39.772 317.381 39.877 316.634 39.8509ZM324.93 40.1406C324.317 40.1192 323.728 39.9919 323.162 39.7587C322.597 39.5121 322.136 39.1691 321.778 38.7297L322.697 37.6011C323.046 37.9468 323.397 38.2126 323.75 38.3984C324.118 38.5713 324.468 38.6636 324.801 38.6752C325.068 38.6845 325.309 38.6662 325.524 38.6204C325.739 38.5612 325.916 38.4607 326.054 38.3187C326.193 38.1768 326.266 37.9859 326.275 37.7461C326.284 37.4662 326.199 37.2431 326.018 37.0767C325.837 36.9103 325.602 36.7686 325.312 36.6518C325.023 36.535 324.713 36.4241 324.383 36.3192C323.685 36.068 323.163 35.7296 322.818 35.3039C322.473 34.865 322.31 34.359 322.33 33.786C322.346 33.3463 322.467 32.9369 322.693 32.5579C322.934 32.1661 323.285 31.8515 323.747 31.6141C324.209 31.3768 324.773 31.2697 325.439 31.293C326.052 31.3144 326.589 31.4065 327.051 31.5694C327.512 31.7189 327.937 31.9672 328.325 32.3143L327.483 33.5256C327.251 33.2774 326.971 33.0875 326.642 32.956C326.327 32.8115 326.036 32.728 325.77 32.7054C325.53 32.697 325.309 32.7293 325.106 32.8023C324.904 32.8619 324.741 32.9629 324.616 33.1053C324.491 33.2344 324.425 33.3922 324.419 33.5788C324.396 33.8448 324.475 34.0677 324.656 34.2474C324.85 34.4143 325.099 34.5564 325.401 34.6737C325.705 34.7777 326.001 34.8881 326.29 35.0049C326.699 35.1393 327.06 35.3187 327.372 35.543C327.685 35.7541 327.93 36.0094 328.106 36.3091C328.282 36.6088 328.362 36.9851 328.347 37.4382C328.329 37.9312 328.193 38.3934 327.938 38.8248C327.683 39.2428 327.305 39.5765 326.802 39.8257C326.3 40.0617 325.676 40.1667 324.93 40.1406Z" fill="#FFF4ED"/>
<path d="M457.759 26.4432C457.262 26.159 456.723 25.9134 456.143 25.7064C455.564 25.4993 455 25.3863 454.454 25.3672C453.708 25.3411 453.109 25.4937 452.657 25.8248C452.206 26.1425 451.97 26.5946 451.949 27.1809C451.935 27.594 452.069 27.9589 452.351 28.2756C452.634 28.5923 453.004 28.8721 453.463 29.1149C453.921 29.3577 454.407 29.5881 454.919 29.8061C455.354 29.9814 455.78 30.1897 456.198 30.4312C456.631 30.6597 457.015 30.94 457.35 31.2719C457.698 31.6042 457.964 32.0138 458.147 32.5004C458.344 32.9743 458.431 33.551 458.407 34.2306C458.38 35.0034 458.163 35.6963 457.754 36.309C457.359 36.9223 456.795 37.4029 456.063 37.7509C455.344 38.086 454.478 38.2359 453.466 38.2005C452.853 38.1791 452.255 38.0916 451.674 37.9378C451.106 37.7712 450.566 37.5656 450.054 37.3209C449.556 37.0634 449.106 36.7875 448.702 36.4932L449.72 34.8678C450.032 35.1055 450.39 35.3381 450.796 35.5657C451.202 35.7801 451.623 35.9548 452.058 36.0901C452.507 36.2259 452.932 36.3007 453.331 36.3147C453.771 36.33 454.207 36.2719 454.638 36.1402C455.07 35.9952 455.432 35.7677 455.723 35.4576C456.014 35.1343 456.169 34.7061 456.188 34.1731C456.204 33.72 456.09 33.3358 455.848 33.0205C455.619 32.6923 455.302 32.4078 454.897 32.1668C454.505 31.9263 454.079 31.7113 453.619 31.5218C453.172 31.3328 452.719 31.1235 452.26 30.894C451.801 30.6645 451.377 30.3962 450.987 30.0891C450.598 29.7686 450.285 29.3841 450.047 28.9356C449.823 28.4741 449.722 27.917 449.745 27.264C449.772 26.4912 449.975 25.8245 450.355 25.2641C450.749 24.6908 451.278 24.249 451.942 23.9387C452.607 23.6283 453.366 23.4681 454.221 23.4579C455.193 23.4919 456.035 23.6413 456.746 23.9063C457.458 24.1713 458.087 24.4801 458.635 24.8328L457.759 26.4432ZM467.85 37.7623C467.467 38.0557 467.005 38.2798 466.466 38.4344C465.94 38.5895 465.411 38.6577 464.878 38.6391C463.958 38.607 463.152 38.3987 462.458 38.0142C461.778 37.6303 461.256 37.1051 460.892 36.4386C460.529 35.7722 460.363 34.9859 460.394 34.0798C460.425 33.187 460.659 32.4214 461.095 31.7829C461.531 31.131 462.095 30.6438 462.787 30.321C463.479 29.985 464.205 29.8302 464.964 29.8567C465.657 29.8809 466.267 29.9956 466.794 30.2008C467.32 30.406 467.771 30.6819 468.145 31.0285L467.079 32.3321C466.859 32.1376 466.579 31.961 466.237 31.8024C465.909 31.6441 465.525 31.5574 465.086 31.542C464.619 31.5257 464.189 31.6308 463.794 31.8571C463.4 32.0701 463.082 32.3792 462.841 32.7844C462.6 33.1763 462.471 33.632 462.453 34.1517C462.436 34.6447 462.533 35.1084 462.745 35.5427C462.97 35.9642 463.285 36.3021 463.69 36.5563C464.095 36.8106 464.563 36.9471 465.096 36.9657C465.443 36.9778 465.764 36.9423 466.061 36.8593C466.358 36.7629 466.623 36.6254 466.856 36.4468L467.85 37.7623ZM470.473 30.2492L472.532 30.3211L472.239 38.696L470.18 38.6241L470.473 30.2492ZM470.458 27.2469C470.469 26.9271 470.605 26.665 470.865 26.4606C471.126 26.2563 471.403 26.1592 471.696 26.1694C472.002 26.1801 472.272 26.2963 472.504 26.5178C472.737 26.7394 472.847 27.0101 472.836 27.3299C472.825 27.6497 472.696 27.912 472.448 28.1169C472.202 28.3084 471.925 28.3988 471.619 28.3881C471.325 28.3778 471.056 28.2684 470.809 28.0596C470.564 27.8376 470.446 27.5667 470.458 27.2469ZM479.303 39.1428C478.33 39.1088 477.504 38.8932 476.824 38.4959C476.145 38.0853 475.63 37.5403 475.28 36.861C474.931 36.1684 474.771 35.389 474.802 34.5229C474.831 33.6967 475.063 32.9577 475.499 32.3059C475.95 31.6412 476.535 31.1213 477.255 30.7462C477.988 30.3716 478.788 30.1994 479.654 30.2296C480.774 30.2687 481.688 30.6275 482.399 31.3061C483.122 31.9851 483.59 32.9153 483.802 34.0967L476.904 36.2173L476.466 35.0013L481.991 33.233L481.562 33.4782C481.417 33.0595 481.176 32.6909 480.84 32.3723C480.505 32.0404 480.038 31.864 479.438 31.8431C478.958 31.8263 478.521 31.9311 478.126 32.1575C477.745 32.371 477.434 32.6803 477.193 33.0855C476.966 33.4778 476.843 33.9471 476.824 34.4935C476.804 35.0531 476.9 35.5501 477.112 35.9844C477.337 36.4059 477.646 36.7435 478.037 36.9973C478.442 37.2516 478.898 37.3876 479.404 37.4053C479.764 37.4178 480.106 37.3631 480.43 37.241C480.768 37.1194 481.087 36.9637 481.387 36.7741L482.273 38.326C481.824 38.5905 481.336 38.8002 480.811 38.9553C480.299 39.0975 479.796 39.16 479.303 39.1428ZM488.044 30.8628L488.157 32.7879L488.086 32.5253C488.387 31.9355 488.837 31.4709 489.436 31.1316C490.035 30.7789 490.735 30.6166 491.534 30.6445C492.32 30.6719 492.958 30.9277 493.448 31.4118C493.952 31.8963 494.197 32.5119 494.184 33.2586L493.968 39.4548L491.909 39.3829L492.101 33.9062C492.102 33.4794 491.988 33.1285 491.757 32.8536C491.527 32.5654 491.159 32.4058 490.653 32.3748C490.2 32.359 489.782 32.4845 489.399 32.7513C489.017 33.0047 488.711 33.361 488.481 33.8199C488.252 34.2788 488.126 34.8148 488.105 35.4277L487.972 39.2454L485.913 39.1735L486.205 30.7986L488.044 30.8628ZM504 39.0247C503.616 39.3181 503.155 39.5421 502.616 39.6968C502.09 39.8518 501.561 39.9201 501.028 39.9015C500.108 39.8693 499.302 39.6611 498.608 39.2766C497.928 38.8927 497.406 38.3674 497.042 37.701C496.678 37.0346 496.512 36.2483 496.544 35.3422C496.575 34.4494 496.809 33.6838 497.245 33.0453C497.681 32.3934 498.245 31.9061 498.937 31.5834C499.629 31.2474 500.355 31.0926 501.114 31.1191C501.807 31.1433 502.417 31.258 502.943 31.4632C503.47 31.6683 503.921 31.9442 504.295 32.2909L503.229 33.5944C503.009 33.4 502.729 33.2234 502.387 33.0647C502.059 32.9065 501.675 32.8197 501.236 32.8044C500.769 32.7881 500.339 32.8931 499.944 33.1195C499.549 33.3325 499.232 33.6416 498.991 34.0468C498.75 34.4386 498.621 34.8944 498.603 35.4141C498.586 35.9071 498.683 36.3708 498.895 36.8051C499.12 37.2266 499.435 37.5644 499.84 37.8187C500.244 38.073 500.713 38.2094 501.246 38.2281C501.593 38.2402 501.914 38.2047 502.211 38.1217C502.507 38.0253 502.772 37.8878 503.005 37.7091L504 39.0247ZM510.261 40.2239C509.288 40.1899 508.462 39.9743 507.782 39.577C507.103 39.1663 506.588 38.6214 506.238 37.9421C505.889 37.2495 505.729 36.4701 505.759 35.604C505.788 34.7778 506.021 34.0388 506.457 33.387C506.907 32.7223 507.492 32.2024 508.213 31.8273C508.946 31.4527 509.746 31.2805 510.612 31.3107C511.731 31.3498 512.646 31.7086 513.356 32.3871C514.08 33.0661 514.547 33.9964 514.76 35.1778L507.862 37.2984L507.424 36.0823L512.949 34.3141L512.52 34.5593C512.374 34.1406 512.134 33.772 511.798 33.4534C511.463 33.1215 510.995 32.9451 510.396 32.9241C509.916 32.9074 509.479 33.0122 509.084 33.2386C508.703 33.4521 508.392 33.7614 508.151 34.1666C507.924 34.5589 507.801 35.0282 507.782 35.5745C507.762 36.1342 507.858 36.6312 508.07 37.0655C508.295 37.4869 508.604 37.8246 508.995 38.0784C509.4 38.3327 509.855 38.4687 510.362 38.4863C510.721 38.4989 511.063 38.4441 511.388 38.3221C511.726 38.2004 512.045 38.0448 512.345 37.8552L513.231 39.407C512.782 39.6715 512.294 39.8813 511.768 40.0364C511.256 40.1786 510.754 40.2411 510.261 40.2239Z" fill="#2B2B2B"/>
<path d="M620.476 22.9538L622.615 23.0285L622.18 35.4809L629.435 35.7342L629.363 37.793L619.969 37.4649L620.476 22.9538ZM635.512 38.2078C634.726 38.1804 634.019 37.9956 633.39 37.6534C632.762 37.298 632.273 36.7873 631.923 36.1213C631.573 35.4553 631.414 34.6426 631.448 33.6832C631.481 32.7371 631.702 31.931 632.112 31.2649C632.536 30.5993 633.074 30.0978 633.726 29.7603C634.392 29.41 635.105 29.2481 635.864 29.2747C636.664 29.3026 637.311 29.4986 637.805 29.8628C638.313 30.214 638.706 30.6213 638.983 31.0846L638.832 31.3995L639.09 29.7475L640.988 29.8138L640.696 38.1887L638.637 38.1168L638.711 36.0181L638.913 36.5255C638.856 36.6302 638.737 36.7795 638.557 36.9733C638.377 37.1538 638.137 37.3456 637.837 37.5485C637.549 37.752 637.21 37.9202 636.818 38.0533C636.441 38.1735 636.005 38.225 635.512 38.2078ZM636.13 36.5484C636.57 36.5638 636.966 36.4975 637.318 36.3497C637.67 36.2019 637.971 35.9856 638.221 35.7008C638.471 35.4161 638.65 35.0754 638.757 34.6789L638.818 32.94C638.724 32.5632 638.556 32.2371 638.312 31.9617C638.068 31.6731 637.77 31.4425 637.415 31.27C637.075 31.098 636.691 31.0046 636.265 30.9897C635.785 30.9729 635.341 31.0775 634.933 31.3034C634.525 31.516 634.194 31.8246 633.94 32.2293C633.686 32.634 633.549 33.1095 633.53 33.6559C633.512 34.1756 633.615 34.6528 633.84 35.0876C634.078 35.5228 634.4 35.8742 634.804 36.1418C635.209 36.3961 635.651 36.5316 636.13 36.5484ZM645.981 29.9882L646.094 31.9133L646.023 31.6507C646.324 31.0608 646.774 30.5962 647.373 30.2569C647.972 29.9043 648.672 29.7419 649.471 29.7698C650.257 29.7973 650.895 30.0531 651.386 30.5371C651.889 31.0217 652.134 31.6373 652.122 32.3839L651.905 38.5802L649.846 38.5083L650.038 33.0316C650.039 32.6047 649.925 32.2539 649.694 31.979C649.464 31.6908 649.096 31.5312 648.59 31.5002C648.137 31.4843 647.719 31.6098 647.336 31.8766C646.954 32.1301 646.648 32.4863 646.418 32.9452C646.189 33.4042 646.064 33.9401 646.042 34.5531L645.909 38.3708L643.85 38.2989L644.143 29.924L645.981 29.9882ZM659.006 42.9907C658.354 42.9679 657.79 42.8748 657.315 42.7115C656.841 42.5482 656.415 42.3265 656.038 42.0465C655.673 41.7803 655.323 41.4946 654.987 41.1893L656.256 39.8127C656.655 40.2136 657.071 40.535 657.503 40.7769C657.934 41.0321 658.443 41.1699 659.029 41.1904C659.616 41.2109 660.119 41.1284 660.539 40.9429C660.972 40.7712 661.308 40.5161 661.546 40.1776C661.785 39.8391 661.913 39.4299 661.929 38.9502L662.025 36.7722L662.151 37.1769C661.906 37.7153 661.47 38.167 660.843 38.5321C660.217 38.8838 659.458 39.044 658.565 39.0128C657.805 38.9863 657.106 38.7684 656.467 38.3592C655.84 37.9504 655.346 37.4062 654.983 36.7264C654.619 36.0467 654.453 35.2871 654.482 34.4476C654.513 33.5681 654.739 32.8022 655.162 32.1499C655.599 31.4848 656.158 30.9706 656.837 30.6074C657.518 30.2309 658.237 30.056 658.997 30.0825C659.743 30.1085 660.404 30.2784 660.98 30.592C661.557 30.8923 661.984 31.2608 662.263 31.6974L662.131 32.033L662.402 30.5616L664.301 30.6279L664.007 39.0428C663.98 39.8157 663.75 40.5014 663.315 41.0999C662.893 41.7122 662.317 42.1857 661.584 42.5204C660.852 42.8683 659.993 43.0251 659.006 42.9907ZM656.563 34.4602C656.545 34.9799 656.648 35.4571 656.873 35.8919C657.098 36.3267 657.412 36.6779 657.817 36.9455C658.235 37.2002 658.704 37.3367 659.223 37.3548C659.69 37.3711 660.112 37.3058 660.491 37.1589C660.87 36.9987 661.191 36.7831 661.454 36.5122C661.731 36.2283 661.936 35.8953 662.069 35.513L662.13 33.7741C662.024 33.3835 661.842 33.0502 661.585 32.7744C661.328 32.4853 661.016 32.2543 660.648 32.0813C660.281 31.9084 659.87 31.814 659.417 31.7982C658.898 31.7801 658.42 31.8835 657.986 32.1084C657.565 32.3205 657.227 32.6289 656.973 33.0336C656.718 33.4383 656.582 33.9139 656.563 34.4602ZM669.823 39.5461C669.05 39.5191 668.425 39.2638 667.948 38.7802C667.471 38.2966 667.233 37.6879 667.232 36.9541L667.449 30.7378L669.507 30.8097L669.316 36.2864C669.328 36.7137 669.435 37.071 669.639 37.3583C669.856 37.6327 670.211 37.7852 670.704 37.8157C671.157 37.8316 671.561 37.7123 671.917 37.4579C672.286 37.1906 672.579 36.8273 672.795 36.3679C673.025 35.8956 673.151 35.353 673.172 34.74L673.305 30.9424L675.364 31.0142L675.071 39.3891L673.212 39.3242L673.12 37.3798L673.189 37.7024C673.003 38.0695 672.744 38.4007 672.414 38.696C672.084 38.978 671.696 39.1912 671.251 39.3358C670.805 39.4936 670.329 39.5637 669.823 39.5461ZM681.715 39.8212C680.928 39.7938 680.221 39.609 679.593 39.2669C678.965 38.9114 678.475 38.4007 678.125 37.7347C677.775 37.0687 677.616 36.2561 677.65 35.2966C677.683 34.3505 677.905 33.5445 678.315 32.8784C678.738 32.2127 679.276 31.7112 679.928 31.3738C680.594 31.0235 681.307 30.8616 682.066 30.8881C682.866 30.916 683.513 31.112 684.007 31.4762C684.515 31.8275 684.908 32.2347 685.185 32.698L685.034 33.013L685.292 31.3609L687.191 31.4273L686.898 39.8021L684.84 39.7303L684.913 37.6315L685.115 38.1389C685.058 38.2436 684.94 38.3929 684.759 38.5868C684.58 38.7673 684.34 38.959 684.039 39.162C683.752 39.3654 683.412 39.5337 683.021 39.6667C682.643 39.787 682.208 39.8385 681.715 39.8212ZM682.333 38.1618C682.773 38.1772 683.168 38.1109 683.52 37.9631C683.873 37.8153 684.174 37.599 684.424 37.3143C684.674 37.0295 684.852 36.6889 684.96 36.2924L685.02 34.5534C684.927 34.1766 684.758 33.8505 684.514 33.5752C684.271 33.2865 683.972 33.0559 683.618 32.8834C683.277 32.7114 682.893 32.618 682.467 32.6031C681.987 32.5864 681.543 32.6909 681.135 32.9168C680.727 33.1294 680.396 33.438 680.142 33.8427C679.888 34.2474 679.751 34.723 679.732 35.2693C679.714 35.789 679.817 36.2662 680.042 36.701C680.281 37.1362 680.602 37.4877 681.006 37.7553C681.411 38.0095 681.853 38.1451 682.333 38.1618ZM694.005 44.2128C693.352 44.19 692.788 44.097 692.313 43.9336C691.839 43.7703 691.413 43.5487 691.036 43.2687C690.672 43.0024 690.321 42.7167 689.985 42.4115L691.254 41.0349C691.653 41.4358 692.069 41.7571 692.501 41.999C692.932 42.2542 693.441 42.3921 694.028 42.4125C694.614 42.433 695.117 42.3505 695.537 42.1651C695.97 41.9934 696.306 41.7383 696.544 41.3998C696.783 41.0612 696.911 40.6521 696.927 40.1724L697.024 37.9944L697.149 38.3991C696.904 38.9375 696.468 39.3892 695.841 39.7542C695.215 40.1059 694.456 40.2662 693.563 40.235C692.804 40.2085 692.104 39.9906 691.465 39.5814C690.839 39.1726 690.344 38.6284 689.981 37.9486C689.618 37.2688 689.451 36.5092 689.48 35.6697C689.511 34.7903 689.738 34.0244 690.161 33.3721C690.597 32.7069 691.156 32.1928 691.836 31.8296C692.516 31.4531 693.236 31.2781 693.995 31.3046C694.741 31.3307 695.403 31.5005 695.979 31.8142C696.555 32.1145 696.983 32.483 697.261 32.9196L697.129 33.2552L697.401 31.7838L699.299 31.8501L699.006 40.265C698.979 41.0378 698.748 41.7235 698.313 42.3221C697.892 42.9344 697.315 43.4079 696.583 43.7425C695.85 44.0905 694.991 44.2473 694.005 44.2128ZM691.561 35.6824C691.543 36.202 691.646 36.6793 691.871 37.1141C692.096 37.5488 692.411 37.9 692.815 38.1676C693.233 38.4224 693.702 38.5588 694.221 38.577C694.688 38.5933 695.11 38.528 695.489 38.3811C695.868 38.2209 696.189 38.0053 696.452 37.7343C696.729 37.4505 696.934 37.1174 697.068 36.7352L697.128 34.9962C697.022 34.6056 696.84 34.2724 696.583 33.9966C696.326 33.7075 696.014 33.4764 695.646 33.3035C695.279 33.1306 694.869 33.0362 694.416 33.0204C693.896 33.0022 693.419 33.1056 692.984 33.3306C692.563 33.5427 692.225 33.8511 691.971 34.2558C691.717 34.6605 691.58 35.136 691.561 35.6824ZM706.085 40.6723C705.112 40.6383 704.286 40.4227 703.606 40.0254C702.927 39.6147 702.412 39.0698 702.062 38.3905C701.713 37.6979 701.553 36.9185 701.583 36.0524C701.612 35.2262 701.845 34.4872 702.281 33.8354C702.731 33.1707 703.317 32.6508 704.037 32.2757C704.77 31.9011 705.57 31.7289 706.436 31.7591C707.556 31.7982 708.47 32.157 709.18 32.8355C709.904 33.5145 710.372 34.4448 710.584 35.6262L703.686 37.7468L703.248 36.5307L708.773 34.7625L708.344 35.0077C708.199 34.589 707.958 34.2204 707.622 33.9018C707.287 33.5699 706.819 33.3935 706.22 33.3725C705.74 33.3558 705.303 33.4606 704.908 33.687C704.527 33.9005 704.216 34.2098 703.975 34.615C703.748 35.0073 703.625 35.4766 703.606 36.0229C703.586 36.5826 703.682 37.0796 703.894 37.5139C704.119 37.9353 704.428 38.273 704.819 38.5268C705.224 38.7811 705.679 38.9171 706.186 38.9347C706.545 38.9473 706.888 38.8925 707.212 38.7705C707.55 38.6488 707.869 38.4932 708.169 38.3036L709.055 39.8554C708.606 40.1199 708.118 40.3297 707.592 40.4848C707.08 40.627 706.578 40.6895 706.085 40.6723Z" fill="#2B2B2B"/>
<rect width="685" height="193" fill="url(#paint0_linear_1425_978)"/>
</g>
<defs>
<linearGradient id="paint0_linear_1425_978" x1="-94.9552" y1="96.5" x2="768.617" y2="96.5" gradientUnits="userSpaceOnUse">
<stop stop-color="#FFF4ED"/>
<stop offset="0.5" stop-color="#FFF4ED" stop-opacity="0"/>
<stop offset="1" stop-color="#FFF4ED"/>
</linearGradient>
<clipPath id="clip0_1425_978">
<rect width="685" height="193" fill="white"/>
</clipPath>
</defs>
</svg>
