<svg width="685" height="286" viewBox="0 0 685 286" fill="none" xmlns="http://www.w3.org/2000/svg">
<g clip-path="url(#clip0_1500_969)">
<rect width="249" height="69" rx="10" transform="matrix(0.960714 0.27754 -0.749838 0.661622 10.7383 -78)" fill="#4F4F4F" fill-opacity="0.25"/>
<path d="M58.9908 -46.6993L62.2803 -45.749L47.3316 -32.5589L58.4912 -29.335L56.0197 -27.1543L41.5706 -31.3285L58.9908 -46.6993ZM70.1617 -34.8443L73.3282 -33.9295L63.2743 -25.0585L60.1078 -25.9733L70.1617 -34.8443ZM73.5764 -38.0734C73.9603 -38.4121 74.475 -38.6381 75.1203 -38.7515C75.7657 -38.8648 76.3138 -38.8564 76.7647 -38.7261C77.2361 -38.5899 77.5283 -38.3556 77.6412 -38.0232C77.7542 -37.6908 77.6187 -37.3552 77.2348 -37.0165C76.8509 -36.6777 76.3465 -36.4487 75.7217 -36.3295C75.1128 -36.2243 74.5727 -36.2398 74.1013 -36.376C73.6504 -36.5063 73.3502 -36.7335 73.2007 -37.0577C73.0673 -37.3961 73.1925 -37.7346 73.5764 -38.0734ZM69.1698 -23.3554L77.0401 -30.2997L74.8573 -30.9303L77.0408 -32.857L79.2236 -32.2264L83.3027 -35.8256C84.7424 -37.0959 86.2948 -37.9496 87.9599 -38.3866C89.6251 -38.8236 91.2979 -38.7994 92.9785 -38.3139C93.4294 -38.1836 93.8756 -37.9892 94.317 -37.7305C94.7744 -37.4859 95.1063 -37.2027 95.3127 -36.8808L92.1912 -35.6748C92.1667 -35.8692 92.0635 -36.0302 91.8815 -36.1577C91.72 -36.2793 91.5163 -36.3756 91.2704 -36.4466C90.5531 -36.6539 89.7975 -36.6473 89.0037 -36.427C88.2098 -36.2066 87.349 -35.6871 86.4212 -34.8685L82.3901 -31.3116L86.4482 -30.1393L84.2646 -28.2126L80.2066 -29.385L72.3363 -22.4406L69.1698 -23.3554ZM85.1986 -18.4438C83.7024 -18.876 82.6454 -19.4437 82.0275 -20.1468C81.4257 -20.864 81.2377 -21.6583 81.4637 -22.5298C81.7057 -23.4155 82.3465 -24.317 83.3863 -25.2345C84.3781 -26.1096 85.5916 -26.8082 87.0268 -27.3304C88.4984 -27.8608 90.0173 -28.1808 91.5835 -28.2904C93.1701 -28.3941 94.6295 -28.2535 95.9617 -27.8687C97.6833 -27.3713 98.7158 -26.614 99.0592 -25.5968C99.4231 -24.5736 99.0959 -23.3847 98.0777 -22.0301L84.763 -22.5604L85.4648 -24.0438L96.2091 -23.6941L95.2516 -23.6054C95.5015 -24.114 95.544 -24.6075 95.3791 -25.0861C95.2301 -25.5788 94.6945 -25.9584 93.7722 -26.2248C93.0344 -26.438 92.2243 -26.5034 91.342 -26.421C90.4962 -26.3468 89.6511 -26.1413 88.8068 -25.8044C87.999 -25.4757 87.2672 -25.022 86.6113 -24.4433C85.9395 -23.8505 85.5218 -23.2779 85.3583 -22.7256C85.2313 -22.1815 85.3313 -21.6936 85.6582 -21.2619C86.0056 -20.8243 86.5688 -20.493 87.3476 -20.268C87.901 -20.1081 88.5036 -20.0277 89.1554 -20.0268C89.8278 -20.0199 90.5094 -20.0572 91.2002 -20.1386L90.8215 -18.1122C89.8092 -18.0111 88.7995 -17.9843 87.7922 -18.0318C86.8214 -18.0874 85.9569 -18.2247 85.1986 -18.4438ZM99.1289 -14.4476C98.1861 -14.7199 97.402 -15.0963 96.7767 -15.5768C96.1673 -16.0713 95.8317 -16.6273 95.7697 -17.2448L98.5141 -18.0819C98.6675 -17.5692 98.917 -17.1412 99.2624 -16.7978C99.6443 -16.4627 100.091 -16.2211 100.604 -16.0731C101.014 -15.9546 101.415 -15.8763 101.807 -15.838C102.214 -15.8139 102.609 -15.8498 102.99 -15.9459C103.371 -16.0419 103.705 -16.217 103.993 -16.471C104.329 -16.7674 104.449 -17.0418 104.354 -17.294C104.26 -17.5463 104.051 -17.794 103.728 -18.0372C103.405 -18.2804 103.043 -18.5254 102.643 -18.7722C101.828 -19.326 101.392 -19.9015 101.335 -20.499C101.293 -21.1105 101.617 -21.7197 102.305 -22.3266C102.832 -22.7924 103.492 -23.1826 104.284 -23.4972C105.112 -23.82 106.027 -24.0148 107.028 -24.0817C108.028 -24.1485 109.041 -24.034 110.066 -23.7379C111.009 -23.4656 111.751 -23.1481 112.292 -22.7856C112.85 -22.4373 113.236 -21.9978 113.451 -21.4673L110.733 -20.5099C110.652 -20.8706 110.428 -21.1884 110.059 -21.4635C109.727 -21.7467 109.364 -21.9546 108.97 -22.0871C108.602 -22.1937 108.215 -22.2491 107.812 -22.2532C107.425 -22.2714 107.051 -22.2296 106.69 -22.1276C106.346 -22.0397 106.062 -21.897 105.838 -21.6994C105.497 -21.423 105.367 -21.1516 105.446 -20.8853C105.561 -20.6271 105.79 -20.3734 106.134 -20.1243C106.493 -19.8894 106.834 -19.6503 107.157 -19.4071C107.649 -19.0965 108.012 -18.7573 108.248 -18.3893C108.5 -18.0355 108.594 -17.6619 108.529 -17.2685C108.464 -16.8751 108.159 -16.4384 107.615 -15.9585C107.024 -15.4363 106.279 -14.9956 105.382 -14.6364C104.502 -14.2913 103.522 -14.0871 102.444 -14.0239C101.382 -13.9748 100.277 -14.116 99.1289 -14.4476ZM124.052 -24.447L127.219 -23.5322L122.78 -19.6154L126.223 -18.6207L124.279 -16.9058L120.836 -17.9005L112.75 -10.7655L109.583 -11.6803L117.67 -18.8152L115.395 -19.4725L117.338 -21.1874L119.613 -20.5302L124.052 -24.447ZM115.865 -4.21675L139.258 -14.8832L142.147 -14.0484L118.97 -3.31974L115.865 -4.21675ZM123.875 -7.46737L127.76 -18.2048L131.326 -17.1746L127.551 -7.86669L123.875 -7.46737ZM153.688 -20.7757L156.854 -19.861L138.21 -3.41039L135.044 -4.32516L153.688 -20.7757ZM148.846 -0.0567863C147.35 -0.489008 146.293 -1.05667 145.675 -1.75976C145.073 -2.47697 144.885 -3.27133 145.111 -4.14284C145.353 -5.02847 145.994 -5.93001 147.034 -6.84746C148.025 -7.72256 149.239 -8.4212 150.674 -8.94339C152.146 -9.47377 153.665 -9.79377 155.231 -9.9034C156.817 -10.0071 158.277 -9.86654 159.609 -9.48169C161.331 -8.98434 162.363 -8.22703 162.707 -7.20977C163.07 -6.18659 162.743 -4.99771 161.725 -3.64312L148.41 -4.17335L149.112 -5.65682L159.856 -5.30708L158.899 -5.21835C159.149 -5.72695 159.191 -6.22054 159.026 -6.69912C158.877 -7.19181 158.342 -7.57138 157.42 -7.83782C156.682 -8.05097 155.872 -8.11636 154.989 -8.034C154.144 -7.95984 153.298 -7.75431 152.454 -7.41741C151.646 -7.08871 150.914 -6.635 150.259 -6.05631C149.587 -5.46349 149.169 -4.89093 149.006 -4.3386C148.879 -3.79448 148.979 -3.30657 149.306 -2.87488C149.653 -2.43727 150.216 -2.10597 150.995 -1.88098C151.548 -1.72112 152.151 -1.64071 152.803 -1.63975C153.475 -1.63288 154.157 -1.67017 154.848 -1.75163L154.469 0.274853C153.457 0.375872 152.447 0.402669 151.44 0.355246C150.469 0.299629 149.604 0.162285 148.846 -0.0567863Z" fill="#101010"/>
<rect width="249" height="69" rx="10" transform="matrix(0.960714 0.27754 -0.749838 0.661622 -176.261 -61)" fill="#4F4F4F" fill-opacity="0.25"/>
<rect width="249" height="69" rx="10" transform="matrix(0.960714 0.27754 -0.749838 0.661622 261.695 -9)" fill="#4F4F4F" fill-opacity="0.25"/>
<path d="M319.707 43.9776C319.203 44.0381 318.495 44.0866 317.584 44.1229C316.708 44.1511 315.742 44.1155 314.685 44.0162C313.648 43.9228 312.615 43.718 311.586 43.4019C309.86 42.8846 308.532 42.2199 307.602 41.408C306.693 40.6019 306.156 39.7069 305.993 38.7229C305.845 37.7248 306.025 36.69 306.532 35.6186C307.075 34.539 307.939 33.477 309.123 32.4325C310.434 31.2751 311.901 30.2935 313.521 29.4877C315.158 28.6677 316.876 28.0399 318.676 27.6043C320.496 27.1745 322.296 26.9545 324.076 26.9441C325.876 26.9397 327.576 27.1684 329.175 27.6302C330.548 28.0269 331.644 28.5122 332.463 29.086C333.281 29.6597 333.878 30.2255 334.252 30.7834L330.562 32.5275C330.287 32.0735 329.853 31.5922 329.26 31.0836C328.703 30.5667 327.892 30.1543 326.826 29.8465C325.781 29.5445 324.619 29.4055 323.34 29.4296C322.098 29.4454 320.822 29.6109 319.513 29.9259C318.24 30.2327 317.007 30.6727 315.813 31.2459C314.636 31.805 313.591 32.4868 312.679 33.2913C311.751 34.11 311.08 34.9184 310.665 35.7166C310.25 36.5148 310.093 37.2656 310.193 37.9691C310.314 38.6786 310.696 39.3136 311.34 39.8741C311.983 40.4347 312.909 40.8897 314.119 41.239C315.266 41.5706 316.407 41.7407 317.539 41.7494C318.693 41.7641 319.722 41.6961 320.627 41.5454L319.707 43.9776ZM326.637 41.511C327.645 40.6218 328.856 39.9132 330.271 39.3851C331.701 38.8428 333.192 38.524 334.742 38.4284C336.292 38.3329 337.764 38.4865 339.158 38.8891C340.572 39.2976 341.58 39.8605 342.182 40.5777C342.783 41.2949 342.963 42.0963 342.721 42.982C342.516 43.8594 341.909 44.7427 340.902 45.6319C339.894 46.5212 338.685 47.2398 337.275 47.788C335.885 48.342 334.417 48.6769 332.872 48.7924C331.342 48.8938 329.86 48.7373 328.425 48.3229C327.052 47.9262 326.038 47.3804 325.384 46.6855C324.75 45.9965 324.515 45.2074 324.68 44.3181C324.881 43.4206 325.533 42.4849 326.637 41.511ZM329.81 42.4559C329.186 43.0063 328.793 43.5577 328.629 44.11C328.482 44.6483 328.553 45.1373 328.844 45.5772C329.15 46.0029 329.672 46.3224 330.41 46.5356C331.168 46.7546 331.989 46.823 332.871 46.7406C333.769 46.6442 334.63 46.4245 335.454 46.0817C336.314 45.7307 337.056 45.2799 337.68 44.7295C338.304 44.179 338.69 43.6347 338.837 43.0965C339.005 42.5642 338.944 42.0781 338.654 41.6382C338.363 41.1983 337.839 40.8688 337.08 40.6498C336.322 40.4307 335.494 40.3694 334.596 40.4659C333.697 40.5623 332.818 40.7861 331.958 41.1371C331.134 41.4799 330.418 41.9195 329.81 42.4559ZM344.528 52.9749C343.319 52.6256 342.449 52.1212 341.917 51.4619C341.402 50.7884 341.276 50.0118 341.538 49.1321C341.801 48.2524 342.476 47.3326 343.563 46.3728C344.683 45.3848 345.932 44.6308 347.31 44.1109C348.705 43.5769 350.112 43.2715 351.532 43.1946C352.989 43.1096 354.352 43.2506 355.623 43.6177C356.607 43.9019 357.379 44.3124 357.941 44.8493C358.539 45.378 358.803 45.9604 358.735 46.5965L357.803 47.3109L368.577 37.8047L371.713 38.7106L353.069 55.1612L349.902 54.2464L352.278 52.1504L351.968 52.8197C350.773 53.1302 349.522 53.3216 348.216 53.3939C346.926 53.4521 345.697 53.3124 344.528 52.9749ZM347.6 51.4172C348.317 51.6244 349.048 51.7233 349.794 51.7137C350.539 51.7042 351.282 51.6005 352.024 51.4024C352.781 51.1903 353.482 50.8962 354.125 50.5201L356.141 48.7417C356.445 48.305 356.561 47.8793 356.487 47.4645C356.449 47.0415 356.24 46.6624 355.858 46.3272C355.476 45.992 354.947 45.7268 354.27 45.5314C353.512 45.3123 352.671 45.238 351.748 45.3086C350.861 45.3709 349.975 45.5646 349.09 45.8896C348.225 46.2206 347.465 46.6754 346.809 47.2541C346.185 47.8046 345.801 48.359 345.658 48.9172C345.536 49.4814 345.64 49.9893 345.972 50.441C346.319 50.8786 346.862 51.204 347.6 51.4172ZM367.969 47.6901L371.135 48.6049L361.081 57.4759L357.915 56.5611L367.969 47.6901ZM371.384 44.461C371.767 44.1223 372.282 43.8962 372.927 43.7829C373.573 43.6696 374.121 43.678 374.572 43.8083C375.043 43.9445 375.335 44.1788 375.448 44.5112C375.561 44.8436 375.426 45.1792 375.042 45.5179C374.658 45.8567 374.154 46.0857 373.529 46.2049C372.92 46.3101 372.38 46.2945 371.908 46.1584C371.458 46.0281 371.157 45.8009 371.008 45.4767C370.874 45.1383 371 44.7998 371.384 44.461ZM378.783 50.8142L376.756 52.9267L376.945 52.6159C378.095 52.1051 379.337 51.7894 380.671 51.6688C382.021 51.5341 383.311 51.6444 384.54 51.9997C385.749 52.349 386.464 52.8831 386.682 53.6022C386.922 54.3271 386.604 55.0877 385.729 55.884L378.29 62.4473L375.124 61.5326L381.698 55.7315C382.19 55.2739 382.411 54.8506 382.362 54.4618C382.329 54.0588 381.931 53.7378 381.168 53.4986C380.471 53.2973 379.668 53.262 378.758 53.3926C377.864 53.5091 376.974 53.767 376.086 54.1663C375.198 54.5656 374.386 55.0898 373.65 55.7391L369.067 59.783L365.901 58.8682L375.955 49.9972L378.783 50.8142ZM384.445 70.071C383.441 69.7808 382.658 69.4516 382.096 69.0832C381.534 68.7148 381.116 68.3035 380.841 67.8496C380.572 67.4156 380.346 66.9664 380.165 66.5019L383.744 65.5405C383.916 66.1333 384.203 66.6474 384.608 67.0828C384.996 67.5322 385.641 67.8872 386.543 68.1477C387.445 68.4082 388.333 68.5244 389.209 68.4962C390.089 68.4881 390.911 68.3509 391.675 68.0846C392.439 67.8182 393.109 67.431 393.685 66.9229L396.331 64.624L396.067 65.1096C395.062 65.5877 393.857 65.8952 392.45 66.0321C391.06 66.155 389.678 66.0181 388.305 65.6214C387.136 65.2839 386.282 64.7654 385.742 64.066C385.222 63.3724 385.065 62.587 385.27 61.7095C385.475 60.8321 386.082 59.9488 387.09 59.0596C388.146 58.128 389.381 57.3982 390.796 56.87C392.247 56.3338 393.717 56.009 395.205 55.8957C396.71 55.7683 398.046 55.8733 399.215 56.2108C400.362 56.5424 401.211 56.9937 401.761 57.5647C402.327 58.1217 402.579 58.6911 402.518 59.273L401.926 59.5796L404.04 58.1106L406.96 58.9543L396.859 67.8677C395.931 68.6863 394.781 69.3285 393.41 69.7943C392.043 70.28 390.591 70.5536 389.052 70.615C387.497 70.6904 385.962 70.5091 384.445 70.071ZM390.359 59.9197C389.735 60.4702 389.352 61.0245 389.209 61.5828C389.066 62.141 389.16 62.646 389.492 63.0977C389.859 63.5412 390.443 63.8785 391.242 64.1094C391.96 64.3166 392.701 64.4184 393.467 64.4148C394.249 64.3971 395.002 64.2963 395.728 64.1124C396.49 63.9203 397.195 63.6462 397.843 63.2902L399.931 61.4482C400.21 60.9856 400.305 60.554 400.215 60.1533C400.141 59.7384 399.913 59.3634 399.531 59.0283C399.149 58.6931 398.61 58.4249 397.913 58.2236C397.114 57.9927 396.242 57.9095 395.298 57.9741C394.391 58.0305 393.505 58.2242 392.64 58.5552C391.775 58.8862 391.015 59.341 390.359 59.9197Z" fill="#101010"/>
<rect width="249" height="69" rx="10" transform="matrix(0.960714 0.27754 -0.749838 0.661622 -110.261 24)" fill="#4F4F4F" fill-opacity="0.25"/>
<path d="M-93.8396 66.5085L-75.8434 50.6295L-75.8127 50.6384L-77.0711 65.6476L-78.2453 65.0274L-53.5549 57.0685L-53.4934 57.0862L-71.4895 72.9651L-74.7482 72.0237L-62.5349 61.2472L-63.6394 62.4739L-80.9725 68.1178L-81.034 68.1001L-80.3328 57.6513L-78.5797 56.7526L-90.673 67.4232L-93.8396 66.5085ZM-61.9072 69.7192C-60.8994 68.8299 -59.6882 68.1213 -58.2735 67.5932C-56.8428 67.051 -55.3524 66.7321 -53.8023 66.6366C-52.2521 66.541 -50.7802 66.6946 -49.3865 67.0972C-47.9724 67.5058 -46.9644 68.0686 -46.3625 68.7858C-45.7607 69.503 -45.5807 70.3045 -45.8227 71.1901C-46.0281 72.0675 -46.6348 72.9508 -47.6425 73.8401C-48.6503 74.7293 -49.8593 75.448 -51.2695 75.9961C-52.6592 76.5502 -54.1268 76.885 -55.6725 77.0005C-57.2021 77.102 -58.6843 76.9455 -60.119 76.531C-61.4922 76.1343 -62.5059 75.5885 -63.1603 74.8936C-63.7941 74.2046 -64.0288 73.4155 -63.8643 72.5262C-63.6633 71.6288 -63.011 70.6931 -61.9072 69.7192ZM-58.734 70.664C-59.3578 71.2144 -59.7515 71.7658 -59.915 72.3182C-60.0624 72.8564 -59.991 73.3454 -59.7005 73.7853C-59.3941 74.2111 -58.872 74.5305 -58.1342 74.7437C-57.3758 74.9627 -56.5555 75.0311 -55.6732 74.9487C-54.7749 74.8523 -53.9139 74.6326 -53.09 74.2898C-52.2297 73.9388 -51.4877 73.4881 -50.8638 72.9376C-50.2399 72.3871 -49.8543 71.8428 -49.7068 71.3046C-49.5388 70.7723 -49.6 70.2862 -49.8905 69.8463C-50.1809 69.4064 -50.7053 69.077 -51.4636 68.8579C-52.2219 68.6388 -53.0502 68.5775 -53.9485 68.674C-54.8468 68.7705 -55.7261 68.9942 -56.5864 69.3452C-57.4102 69.688 -58.1261 70.1276 -58.734 70.664ZM-45.3212 81.0026C-46.5099 80.6592 -47.2035 80.131 -47.4019 79.4179C-47.6004 78.7048 -47.2802 77.9542 -46.4414 77.1661L-38.979 70.5816L-35.8125 71.4964L-42.387 77.2975C-42.8579 77.761 -43.0974 78.1883 -43.1054 78.5795C-43.0769 78.9624 -42.6915 79.2705 -41.9492 79.5036C-41.2523 79.705 -40.4775 79.7414 -39.6247 79.6131C-38.7354 79.4765 -37.8571 79.2057 -36.9898 78.8005C-36.086 78.3871 -35.2662 77.8558 -34.5303 77.2065L-29.9713 73.1838L-26.8048 74.0986L-36.8586 82.9696L-39.7177 82.1437L-37.6362 80.0189L-37.8971 80.3932C-38.6114 80.7114 -39.3985 80.9618 -40.2583 81.1444C-41.1021 81.3128 -41.9582 81.384 -42.8265 81.358C-43.7108 81.3461 -44.5424 81.2276 -45.3212 81.0026ZM-19.128 76.3163L-21.1548 78.4288L-20.9658 78.118C-19.8156 77.6072 -18.5736 77.2915 -17.2399 77.1709C-15.8902 77.0362 -14.6005 77.1465 -13.3708 77.5018C-12.1616 77.8511 -11.4475 78.3853 -11.2286 79.1043C-10.9891 79.8292 -11.3071 80.5898 -12.1824 81.3862L-19.6208 87.9494L-22.7873 87.0347L-16.2127 81.2336C-15.7213 80.776 -15.5001 80.3528 -15.5491 79.9639C-15.5821 79.5609 -15.98 79.2399 -16.7428 79.0008C-17.4396 78.7994 -18.243 78.7641 -19.1528 78.8947C-20.0466 79.0112 -20.9374 79.2691 -21.8252 79.6684C-22.713 80.0677 -23.5248 80.592 -24.2606 81.2412L-28.8436 85.2851L-32.0101 84.3703L-21.9563 75.4993L-19.128 76.3163ZM0.921253 76.9373L4.08777 77.852L-0.351273 81.7688L3.09193 82.7635L1.14835 84.4785L-2.29485 83.4837L-10.3811 90.6187L-13.5476 89.7039L-5.46137 82.569L-7.73634 81.9118L-5.79276 80.1968L-3.51779 80.8541L0.921253 76.9373ZM1.62109 94.367C0.411869 94.0177 -0.492668 93.5315 -1.09252 92.9086C-1.67638 92.2715 -1.86333 91.5243 -1.65336 90.6669C-1.4434 89.8095 -0.762542 88.8727 0.389209 87.8564C1.52496 86.8543 2.79793 86.0791 4.20812 85.531C5.6388 84.9888 7.06198 84.6692 8.47766 84.5723C9.92983 84.4673 11.24 84.5835 12.4083 84.9209C13.638 85.2762 14.4343 85.7498 14.7972 86.3418C15.1966 86.9256 15.3498 87.5225 15.2568 88.1327L14.6577 88.4093L16.9567 86.7408L19.8773 87.5845L9.82344 96.4555L6.65692 95.5408L9.17638 93.3177L8.91468 93.9447C8.70472 94.0339 8.34655 94.1459 7.84017 94.2807C7.34978 94.4013 6.75116 94.5094 6.04432 94.605C5.35798 94.7065 4.62965 94.749 3.85932 94.7326C3.12549 94.7079 2.37941 94.5861 1.62109 94.367ZM4.49745 92.8373C5.17379 93.0326 5.87438 93.1226 6.59922 93.1072C7.32405 93.0917 8.04689 92.9821 8.76773 92.7781C9.48857 92.5742 10.1607 92.2812 10.784 91.8992L12.8716 90.0573C13.1555 89.6147 13.2628 89.196 13.1933 88.8012C13.1398 88.3923 12.9323 88.0232 12.5709 87.694C12.23 87.3707 11.7316 87.1143 11.0758 86.9248C10.338 86.7117 9.51764 86.6433 8.61485 86.7198C7.72805 86.7821 6.85225 86.9787 5.98744 87.3097C5.12263 87.6407 4.3623 88.0955 3.70644 88.6742C3.08257 89.2247 2.69915 89.779 2.55618 90.3373C2.4337 90.9014 2.53817 91.4094 2.86959 91.8611C3.217 92.2987 3.75962 92.6241 4.49745 92.8373ZM24.7284 88.986L27.8949 89.9007L17.8411 98.7718L14.6746 97.857L24.7284 88.986ZM28.1432 85.7569C28.5271 85.4181 29.0417 85.1921 29.6871 85.0788C30.3324 84.9654 30.8805 84.9739 31.3314 85.1041C31.8028 85.2403 32.095 85.4746 32.208 85.807C32.3209 86.1394 32.1855 86.475 31.8016 86.8138C31.4176 87.1525 30.9132 87.3815 30.2884 87.5008C29.6795 87.6059 29.1394 87.5904 28.668 87.4542C28.2171 87.324 27.9169 87.0967 27.7675 86.7725C27.634 86.4342 27.7592 86.0956 28.1432 85.7569ZM35.5427 92.1101L33.5159 94.2225L33.7048 93.9118C34.8551 93.4009 36.097 93.0852 37.4307 92.9647C38.7804 92.83 40.0701 92.9402 41.2998 93.2955C42.5091 93.6448 43.2231 94.179 43.4421 94.898C43.6815 95.6229 43.3636 96.3836 42.4883 97.1799L35.0499 103.743L31.8834 102.828L38.4579 97.0273C38.9493 96.5697 39.1705 96.1465 39.1215 95.7576C39.0886 95.3546 38.6907 95.0336 37.9278 94.7945C37.231 94.5932 36.4277 94.5578 35.5179 94.6885C34.6241 94.805 33.7333 95.0629 32.8455 95.4621C31.9577 95.8614 31.1459 96.3857 30.41 97.035L25.827 101.079L22.6605 100.164L32.7143 91.293L35.5427 92.1101ZM43.428 106.416C42.4852 106.144 41.7011 105.768 41.0758 105.287C40.4664 104.793 40.1308 104.237 40.0688 103.619L42.8132 102.782C42.9666 103.295 43.2161 103.723 43.5615 104.066C43.9434 104.401 44.3905 104.643 44.9029 104.791C45.3128 104.909 45.7137 104.988 46.1056 105.026C46.5135 105.05 46.908 105.014 47.2889 104.918C47.6698 104.822 48.0042 104.647 48.2922 104.393C48.6281 104.097 48.7486 103.822 48.6536 103.57C48.5586 103.318 48.3497 103.07 48.0267 102.827C47.7038 102.584 47.3421 102.339 46.9417 102.092C46.1274 101.538 45.6915 100.962 45.6341 100.365C45.5926 99.7536 45.9158 99.1443 46.6036 98.5374C47.1315 98.0716 47.7914 97.6814 48.5832 97.3668C49.4115 97.0441 50.326 96.8492 51.3268 96.7824C52.3276 96.7155 53.3404 96.8301 54.3651 97.1261C55.3079 97.3985 56.05 97.7159 56.5913 98.0784C57.1487 98.4268 57.5349 98.8662 57.7498 99.3967L55.0324 100.354C54.9514 99.9935 54.7267 99.6756 54.3583 99.4006C54.0264 99.1173 53.6635 98.9094 53.2696 98.7769C52.9007 98.6703 52.5145 98.615 52.1111 98.6108C51.7237 98.5926 51.3498 98.6345 50.9894 98.7364C50.6449 98.8243 50.3608 98.967 50.1368 99.1646C49.7964 99.441 49.6657 99.7124 49.7446 99.9788C49.8601 100.237 50.0895 100.491 50.433 100.74C50.7924 100.975 51.1335 101.214 51.4565 101.457C51.9479 101.768 52.3115 102.107 52.5475 102.475C52.7994 102.829 52.8929 103.202 52.8279 103.596C52.7629 103.989 52.4585 104.426 51.9146 104.906C51.3227 105.428 50.5784 105.868 49.6816 106.228C48.8008 106.573 47.8212 106.777 46.743 106.84C45.6807 106.889 44.5757 106.748 43.428 106.416Z" fill="#101010"/>
<rect width="249" height="69" rx="10" transform="matrix(0.960714 0.27754 -0.749838 0.661622 140.696 93)" fill="#4F4F4F" fill-opacity="0.25"/>
<path d="M168.84 118.492L183.72 122.79L181.248 124.971L175.377 123.274L160.428 136.465L157.138 135.514L172.087 122.324L166.369 120.672L168.84 118.492ZM172.81 140.323C171.314 139.89 170.257 139.323 169.639 138.62C169.037 137.902 168.849 137.108 169.075 136.237C169.317 135.351 169.958 134.449 170.997 133.532C171.989 132.657 173.203 131.958 174.638 131.436C176.11 130.906 177.629 130.586 179.195 130.476C180.781 130.372 182.241 130.513 183.573 130.898C185.295 131.395 186.327 132.152 186.67 133.17C187.034 134.193 186.707 135.382 185.689 136.736L172.374 136.206L173.076 134.723L183.82 135.072L182.863 135.161C183.113 134.652 183.155 134.159 182.99 133.68C182.841 133.188 182.306 132.808 181.383 132.542C180.646 132.328 179.835 132.263 178.953 132.345C178.107 132.42 177.262 132.625 176.418 132.962C175.61 133.291 174.878 133.744 174.223 134.323C173.551 134.916 173.133 135.488 172.97 136.041C172.843 136.585 172.943 137.073 173.269 137.505C173.617 137.942 174.18 138.273 174.959 138.498C175.512 138.658 176.115 138.739 176.767 138.74C177.439 138.747 178.121 138.709 178.811 138.628L178.433 140.654C177.42 140.755 176.411 140.782 175.403 140.735C174.433 140.679 173.568 140.542 172.81 140.323ZM194.686 145.265C193.744 145.424 192.759 145.477 191.732 145.424C190.724 145.376 189.811 145.234 188.991 144.997C187.577 144.589 186.543 144.037 185.888 143.342C185.254 142.653 185.032 141.877 185.222 141.014C185.411 140.15 186.05 139.239 187.138 138.279C188.209 137.333 189.455 136.606 190.874 136.098C192.309 135.576 193.757 135.283 195.219 135.218C196.696 135.138 198.018 135.268 199.187 135.605C200.252 135.913 201.083 136.284 201.679 136.719C202.275 137.153 202.67 137.632 202.864 138.157L199.689 139.123C199.564 138.824 199.324 138.521 198.967 138.211C198.63 137.908 198.124 137.659 197.448 137.463C196.73 137.256 195.931 137.194 195.048 137.276C194.182 137.344 193.327 137.547 192.482 137.884C191.654 138.207 190.928 138.643 190.304 139.194C189.712 139.716 189.335 140.253 189.171 140.806C189.044 141.35 189.154 141.841 189.502 142.278C189.849 142.716 190.433 143.053 191.253 143.29C191.785 143.444 192.333 143.536 192.896 143.568C193.475 143.585 194.051 143.545 194.623 143.448L194.686 145.265ZM197.376 147.138L216.02 130.688L219.094 131.576L208.225 141.167L208.602 140.798C209.688 140.344 210.888 140.053 212.201 139.927C213.514 139.8 214.786 139.915 216.015 140.27C217.224 140.619 217.939 141.153 218.158 141.872C218.397 142.597 218.079 143.358 217.204 144.154L209.765 150.718L206.599 149.803L213.173 144.002C213.665 143.544 213.886 143.121 213.837 142.732C213.804 142.329 213.406 142.008 212.643 141.769C211.946 141.568 211.143 141.532 210.233 141.663C209.34 141.779 208.441 142.044 207.537 142.458C206.649 142.857 205.845 143.374 205.125 144.009L200.542 148.053L197.376 147.138ZM227.491 144.063L225.464 146.175L225.653 145.865C226.803 145.354 228.045 145.038 229.379 144.917C230.729 144.783 232.018 144.893 233.248 145.248C234.457 145.598 235.171 146.132 235.39 146.851C235.63 147.576 235.312 148.336 234.437 149.133L226.998 155.696L223.832 154.781L230.406 148.98C230.898 148.523 231.119 148.099 231.07 147.71C231.037 147.307 230.639 146.986 229.876 146.747C229.179 146.546 228.376 146.511 227.466 146.641C226.572 146.758 225.682 147.016 224.794 147.415C223.906 147.814 223.094 148.338 222.358 148.988L217.775 153.032L214.609 152.117L224.663 143.246L227.491 144.063ZM235.87 152.245C236.877 151.355 238.089 150.647 239.503 150.119C240.934 149.576 242.424 149.258 243.975 149.162C245.525 149.067 246.997 149.22 248.39 149.623C249.805 150.031 250.813 150.594 251.414 151.311C252.016 152.029 252.196 152.83 251.954 153.716C251.749 154.593 251.142 155.476 250.134 156.366C249.127 157.255 247.918 157.973 246.507 158.522C245.118 159.076 243.65 159.411 242.104 159.526C240.575 159.627 239.093 159.471 237.658 159.057C236.285 158.66 235.271 158.114 234.617 157.419C233.983 156.73 233.748 155.941 233.913 155.052C234.114 154.154 234.766 153.219 235.87 152.245ZM239.043 153.19C238.419 153.74 238.025 154.291 237.862 154.844C237.714 155.382 237.786 155.871 238.076 156.311C238.383 156.737 238.905 157.056 239.643 157.269C240.401 157.488 241.221 157.557 242.104 157.474C243.002 157.378 243.863 157.158 244.687 156.815C245.547 156.464 246.289 156.014 246.913 155.463C247.537 154.913 247.923 154.368 248.07 153.83C248.238 153.298 248.177 152.812 247.886 152.372C247.596 151.932 247.072 151.602 246.313 151.383C245.555 151.164 244.727 151.103 243.828 151.2C242.93 151.296 242.051 151.52 241.19 151.871C240.367 152.214 239.651 152.653 239.043 153.19ZM267.388 145.528L270.555 146.442L251.911 162.893L248.744 161.978L267.388 145.528ZM260.758 159.435C261.766 158.545 262.977 157.837 264.392 157.309C265.823 156.766 267.313 156.448 268.863 156.352C270.413 156.257 271.885 156.41 273.279 156.813C274.693 157.221 275.701 157.784 276.303 158.501C276.905 159.219 277.085 160.02 276.843 160.906C276.637 161.783 276.031 162.666 275.023 163.556C274.015 164.445 272.806 165.164 271.396 165.712C270.006 166.266 268.539 166.601 266.993 166.716C265.463 166.818 263.981 166.661 262.546 166.247C261.173 165.85 260.16 165.304 259.505 164.609C258.871 163.92 258.637 163.131 258.801 162.242C259.002 161.344 259.654 160.409 260.758 159.435ZM263.931 160.38C263.308 160.93 262.914 161.481 262.75 162.034C262.603 162.572 262.674 163.061 262.965 163.501C263.271 163.927 263.793 164.246 264.531 164.459C265.29 164.678 266.11 164.747 266.992 164.664C267.891 164.568 268.752 164.348 269.575 164.005C270.436 163.654 271.178 163.204 271.802 162.653C272.426 162.103 272.811 161.558 272.959 161.02C273.127 160.488 273.065 160.002 272.775 159.562C272.485 159.122 271.96 158.793 271.202 158.573C270.444 158.354 269.615 158.293 268.717 158.39C267.819 158.486 266.939 158.71 266.079 159.061C265.255 159.404 264.539 159.843 263.931 160.38ZM274.944 175.393C273.94 175.102 273.157 174.773 272.595 174.405C272.033 174.036 271.615 173.625 271.34 173.171C271.07 172.737 270.845 172.288 270.664 171.824L274.243 170.862C274.414 171.455 274.702 171.969 275.107 172.404C275.495 172.854 276.14 173.209 277.042 173.469C277.944 173.73 278.832 173.846 279.708 173.818C280.587 173.81 281.41 173.673 282.174 173.406C282.938 173.14 283.608 172.753 284.184 172.245L286.83 169.946L286.566 170.431C285.561 170.909 284.356 171.217 282.949 171.354C281.559 171.477 280.177 171.34 278.803 170.943C277.635 170.606 276.781 170.087 276.241 169.388C275.721 168.694 275.563 167.909 275.769 167.031C275.974 166.154 276.581 165.27 277.589 164.381C278.645 163.45 279.88 162.72 281.294 162.192C282.746 161.655 284.216 161.331 285.704 161.217C287.209 161.09 288.545 161.195 289.714 161.532C290.861 161.864 291.71 162.315 292.26 162.886C292.826 163.443 293.078 164.013 293.017 164.595L292.425 164.901L294.539 163.432L297.459 164.276L287.357 173.189C286.43 174.008 285.28 174.65 283.909 175.116C282.542 175.602 281.09 175.875 279.551 175.937C277.996 176.012 276.461 175.831 274.944 175.393ZM280.858 165.241C280.234 165.792 279.851 166.346 279.708 166.904C279.565 167.463 279.659 167.968 279.99 168.419C280.358 168.863 280.942 169.2 281.741 169.431C282.459 169.638 283.2 169.74 283.966 169.736C284.748 169.719 285.501 169.618 286.227 169.434C286.989 169.242 287.694 168.968 288.342 168.612L290.43 166.77C290.709 166.307 290.804 165.876 290.714 165.475C290.64 165.06 290.412 164.685 290.03 164.35C289.648 164.015 289.109 163.747 288.412 163.545C287.613 163.314 286.741 163.231 285.797 163.296C284.89 163.352 284.004 163.546 283.139 163.877C282.274 164.208 281.514 164.663 280.858 165.241ZM288.5 179.112L311.892 168.445L314.782 169.28L291.605 180.009L288.5 179.112ZM296.509 175.861L300.394 165.124L303.96 166.154L300.186 175.462L296.509 175.861Z" fill="#101010"/>
<rect width="249" height="69" rx="10" transform="matrix(0.960714 0.27754 -0.749838 0.661622 325.653 77)" fill="#4F4F4F" fill-opacity="0.25"/>
<path d="M385.119 111.54L398.492 115.403L396.021 117.584L385.937 114.671L380.706 119.286L389.529 121.835L387.082 123.995L378.259 121.446L370.988 127.861L367.699 126.911L385.119 111.54ZM394.789 122.961L397.955 123.876L387.901 132.747L384.735 131.832L394.789 122.961ZM398.203 119.732C398.587 119.393 399.102 119.167 399.747 119.054C400.393 118.941 400.941 118.949 401.392 119.079C401.863 119.215 402.155 119.45 402.268 119.782C402.381 120.115 402.246 120.45 401.862 120.789C401.478 121.128 400.974 121.357 400.349 121.476C399.74 121.581 399.2 121.566 398.728 121.429C398.277 121.299 397.977 121.072 397.828 120.748C397.694 120.409 397.82 120.071 398.203 119.732ZM408.419 121.728L411.586 122.643L407.147 126.559L410.59 127.554L408.646 129.269L405.203 128.274L397.117 135.409L393.95 134.494L402.037 127.359L399.762 126.702L401.705 124.987L403.98 125.645L408.419 121.728ZM416.861 129.338L414.834 131.45L415.023 131.139C416.174 130.628 417.416 130.313 418.749 130.192C420.099 130.058 421.389 130.168 422.618 130.523C423.828 130.872 424.542 131.407 424.761 132.126C425 132.85 424.682 133.611 423.807 134.407L416.369 140.971L413.202 140.056L419.777 134.255C420.268 133.797 420.489 133.374 420.44 132.985C420.407 132.582 420.009 132.261 419.246 132.022C418.55 131.821 417.746 131.785 416.837 131.916C415.943 132.033 415.052 132.29 414.164 132.69C413.276 133.089 412.465 133.613 411.729 134.263L407.146 138.306L403.979 137.392L414.033 128.521L416.861 129.338ZM427.028 144.331C425.532 143.899 424.475 143.331 423.857 142.628C423.255 141.911 423.068 141.117 423.294 140.245C423.535 139.36 424.176 138.458 425.216 137.541C426.208 136.665 427.421 135.967 428.857 135.445C430.328 134.914 431.847 134.594 433.413 134.485C435 134.381 436.459 134.522 437.792 134.906C439.513 135.404 440.546 136.161 440.889 137.178C441.253 138.201 440.926 139.39 439.907 140.745L426.593 140.215L427.295 138.731L438.039 139.081L437.081 139.17C437.331 138.661 437.374 138.168 437.209 137.689C437.06 137.196 436.524 136.817 435.602 136.55C434.864 136.337 434.054 136.272 433.172 136.354C432.326 136.428 431.481 136.634 430.637 136.971C429.829 137.299 429.097 137.753 428.441 138.332C427.769 138.925 427.352 139.497 427.188 140.049C427.061 140.594 427.161 141.081 427.488 141.513C427.835 141.951 428.399 142.282 429.177 142.507C429.731 142.667 430.333 142.747 430.985 142.748C431.658 142.755 432.339 142.718 433.03 142.636L432.651 144.663C431.639 144.764 430.629 144.791 429.622 144.743C428.651 144.688 427.787 144.55 427.028 144.331ZM440.959 148.327C440.016 148.055 439.232 147.679 438.606 147.198C437.997 146.704 437.661 146.148 437.599 145.53L440.344 144.693C440.497 145.206 440.747 145.634 441.092 145.977C441.474 146.312 441.921 146.554 442.434 146.702C442.844 146.82 443.244 146.899 443.636 146.937C444.044 146.961 444.439 146.925 444.82 146.829C445.2 146.733 445.535 146.558 445.823 146.304C446.159 146.008 446.279 145.733 446.184 145.481C446.089 145.229 445.88 144.981 445.557 144.738C445.235 144.495 444.873 144.25 444.472 144.003C443.658 143.449 443.222 142.874 443.165 142.276C443.123 141.665 443.446 141.055 444.134 140.448C444.662 139.983 445.322 139.592 446.114 139.278C446.942 138.955 447.857 138.76 448.858 138.693C449.858 138.627 450.871 138.741 451.896 139.037C452.839 139.309 453.581 139.627 454.122 139.989C454.679 140.338 455.066 140.777 455.281 141.308L452.563 142.265C452.482 141.904 452.257 141.587 451.889 141.312C451.557 141.028 451.194 140.82 450.8 140.688C450.431 140.581 450.045 140.526 449.642 140.522C449.254 140.504 448.88 140.545 448.52 140.647C448.176 140.735 447.891 140.878 447.667 141.076C447.327 141.352 447.196 141.623 447.275 141.89C447.391 142.148 447.62 142.402 447.964 142.651C448.323 142.886 448.664 143.125 448.987 143.368C449.479 143.679 449.842 144.018 450.078 144.386C450.33 144.74 450.424 145.113 450.359 145.507C450.294 145.9 449.989 146.337 449.445 146.817C448.853 147.339 448.109 147.779 447.212 148.139C446.331 148.484 445.352 148.688 444.274 148.751C443.211 148.8 442.106 148.659 440.959 148.327ZM453.718 152.014C452.775 151.741 451.991 151.365 451.366 150.884C450.757 150.39 450.421 149.834 450.359 149.216L453.103 148.379C453.257 148.892 453.506 149.32 453.852 149.663C454.234 149.998 454.681 150.24 455.193 150.388C455.603 150.506 456.004 150.585 456.396 150.623C456.804 150.647 457.198 150.611 457.579 150.515C457.96 150.419 458.294 150.244 458.582 149.99C458.918 149.694 459.039 149.419 458.944 149.167C458.849 148.915 458.64 148.667 458.317 148.424C457.994 148.181 457.632 147.936 457.232 147.689C456.418 147.135 455.982 146.56 455.924 145.962C455.883 145.351 456.206 144.741 456.894 144.134C457.422 143.669 458.082 143.279 458.873 142.964C459.702 142.641 460.616 142.446 461.617 142.379C462.618 142.313 463.631 142.427 464.655 142.723C465.598 142.996 466.34 143.313 466.882 143.675C467.439 144.024 467.825 144.463 468.04 144.994L465.323 145.951C465.242 145.591 465.017 145.273 464.649 144.998C464.317 144.714 463.954 144.507 463.56 144.374C463.191 144.267 462.805 144.212 462.401 144.208C462.014 144.19 461.64 144.232 461.28 144.334C460.935 144.421 460.651 144.564 460.427 144.762C460.087 145.038 459.956 145.309 460.035 145.576C460.15 145.834 460.38 146.088 460.723 146.337C461.083 146.572 461.424 146.811 461.747 147.054C462.238 147.365 462.602 147.704 462.838 148.072C463.09 148.426 463.183 148.799 463.118 149.193C463.053 149.586 462.749 150.023 462.205 150.503C461.613 151.025 460.869 151.466 459.972 151.825C459.091 152.17 458.111 152.374 457.033 152.437C455.971 152.486 454.866 152.345 453.718 152.014Z" fill="#101010"/>
<rect width="249" height="69" rx="10" transform="matrix(0.960714 0.27754 -0.749838 0.661622 199.653 180)" fill="#4F4F4F" fill-opacity="0.25"/>
<path d="M271.367 221.985C270.908 221.478 270.34 220.995 269.662 220.537C268.984 220.079 268.225 219.728 267.385 219.485C266.237 219.154 265.117 219.074 264.025 219.245C262.949 219.403 262.059 219.792 261.355 220.413C260.859 220.851 260.653 221.297 260.736 221.752C260.819 222.207 261.083 222.658 261.528 223.105C261.973 223.552 262.476 223.997 263.035 224.44C263.52 224.804 263.954 225.202 264.338 225.631C264.758 226.052 265.043 226.509 265.192 227.002C265.361 227.5 265.312 228.048 265.043 228.645C264.811 229.234 264.287 229.888 263.472 230.608C262.544 231.427 261.407 232.082 260.061 232.574C258.735 233.071 257.295 233.358 255.74 233.433C254.222 233.5 252.684 233.309 251.126 232.859C250.184 232.587 249.341 232.25 248.599 231.848C247.894 231.438 247.278 230.998 246.75 230.527C246.259 230.048 245.864 229.568 245.565 229.089L249.032 227.758C249.252 228.14 249.552 228.535 249.931 228.945C250.327 229.34 250.79 229.699 251.323 230.021C251.876 230.35 252.46 230.603 253.074 230.78C253.751 230.976 254.505 231.09 255.337 231.125C256.184 231.145 257.016 231.047 257.83 230.833C258.66 230.605 259.395 230.208 260.035 229.643C260.579 229.164 260.84 228.705 260.819 228.268C260.834 227.823 260.659 227.388 260.296 226.965C259.953 226.547 259.527 226.143 259.018 225.752C258.529 225.367 258.054 224.958 257.592 224.525C257.131 224.092 256.769 223.632 256.506 223.144C256.259 222.641 256.205 222.101 256.343 221.523C256.518 220.936 256.997 220.297 257.781 219.606C258.709 218.787 259.794 218.154 261.035 217.707C262.312 217.252 263.653 216.993 265.058 216.93C266.462 216.867 267.844 217.004 269.203 217.341C270.7 217.773 271.857 218.276 272.676 218.85C273.495 219.424 274.134 220.011 274.595 220.613L271.367 221.985ZM270.324 238.461C269.382 238.189 268.64 237.787 268.099 237.256C267.574 236.711 267.335 236.118 267.383 235.476L268.311 234.873L261.161 241.182L258.025 240.276L273.07 227.001L275.806 227.792L273.789 230.076L274.146 229.364C275.358 229.039 276.616 228.841 277.922 228.769C279.249 228.702 280.486 228.835 281.634 229.166C282.843 229.516 283.706 230.027 284.221 230.701C284.736 231.374 284.863 232.151 284.6 233.03C284.338 233.91 283.655 234.837 282.551 235.811C281.463 236.771 280.212 237.515 278.797 238.043C277.419 238.563 275.992 238.862 274.514 238.941C273.053 239.006 271.657 238.846 270.324 238.461ZM271.653 236.569C272.432 236.794 273.293 236.874 274.237 236.809C275.201 236.751 276.126 236.559 277.011 236.234C277.933 235.901 278.706 235.459 279.33 234.908C279.986 234.33 280.367 233.765 280.473 233.215C280.616 232.657 280.514 232.159 280.167 231.721C279.84 231.29 279.297 230.964 278.539 230.745C277.821 230.538 277.082 230.446 276.321 230.47C275.575 230.479 274.832 230.583 274.091 230.781C273.349 230.979 272.649 231.273 271.989 231.663L270.141 233.294C269.801 233.739 269.631 234.177 269.632 234.608C269.633 235.039 269.806 235.426 270.151 235.77C270.497 236.113 270.997 236.379 271.653 236.569ZM285.28 236.487C286.287 235.597 287.499 234.889 288.913 234.361C290.344 233.818 291.834 233.5 293.385 233.404C294.935 233.309 296.407 233.462 297.8 233.865C299.214 234.273 300.222 234.836 300.824 235.553C301.426 236.27 301.606 237.072 301.364 237.958C301.159 238.835 300.552 239.718 299.544 240.608C298.537 241.497 297.328 242.215 295.917 242.764C294.528 243.318 293.06 243.652 291.514 243.768C289.985 243.869 288.503 243.713 287.068 243.298C285.695 242.902 284.681 242.356 284.027 241.661C283.393 240.972 283.158 240.183 283.323 239.294C283.524 238.396 284.176 237.461 285.28 236.487ZM288.453 237.431C287.829 237.982 287.435 238.533 287.272 239.086C287.124 239.624 287.196 240.113 287.486 240.553C287.793 240.979 288.315 241.298 289.053 241.511C289.811 241.73 290.631 241.799 291.514 241.716C292.412 241.62 293.273 241.4 294.097 241.057C294.957 240.706 295.699 240.256 296.323 239.705C296.947 239.155 297.333 238.61 297.48 238.072C297.648 237.54 297.587 237.054 297.296 236.614C297.006 236.174 296.482 235.844 295.723 235.625C294.965 235.406 294.137 235.345 293.238 235.441C292.34 235.538 291.461 235.762 290.6 236.113C289.777 236.455 289.061 236.895 288.453 237.431ZM311.036 238.166L308.464 240.796L308.694 240.412C309.651 239.977 310.663 239.66 311.73 239.463C312.797 239.265 313.781 239.165 314.681 239.163C315.618 239.152 316.322 239.215 316.793 239.352L314.192 241.467C313.256 241.14 312.252 241.018 311.178 241.102C310.125 241.191 309.113 241.423 308.143 241.799C307.174 242.175 306.369 242.645 305.729 243.209L301.29 247.126L298.154 246.22L308.208 237.349L311.036 238.166ZM325.621 237.209L328.788 238.123L324.349 242.04L327.792 243.035L325.848 244.75L322.405 243.755L314.319 250.89L311.153 249.975L319.239 242.84L316.964 242.183L318.907 240.468L321.182 241.125L325.621 237.209ZM324.716 254.146C323.773 253.874 322.989 253.498 322.364 253.017C321.754 252.523 321.419 251.967 321.357 251.349L324.101 250.512C324.255 251.025 324.504 251.453 324.849 251.796C325.231 252.131 325.678 252.373 326.191 252.521C326.601 252.639 327.002 252.718 327.394 252.756C327.801 252.78 328.196 252.744 328.577 252.648C328.958 252.552 329.292 252.377 329.58 252.123C329.916 251.827 330.036 251.552 329.941 251.3C329.846 251.048 329.638 250.8 329.315 250.557C328.992 250.314 328.63 250.069 328.23 249.822C327.415 249.268 326.979 248.692 326.922 248.095C326.88 247.484 327.204 246.874 327.891 246.267C328.419 245.802 329.079 245.411 329.871 245.097C330.699 244.774 331.614 244.579 332.615 244.512C333.615 244.445 334.628 244.56 335.653 244.856C336.596 245.128 337.338 245.446 337.879 245.808C338.437 246.157 338.823 246.596 339.038 247.127L336.32 248.084C336.239 247.723 336.015 247.406 335.646 247.131C335.314 246.847 334.951 246.639 334.557 246.507C334.189 246.4 333.802 246.345 333.399 246.341C333.012 246.323 332.638 246.364 332.277 246.466C331.933 246.554 331.649 246.697 331.425 246.895C331.084 247.171 330.954 247.442 331.032 247.709C331.148 247.967 331.377 248.221 331.721 248.47C332.08 248.705 332.421 248.944 332.744 249.187C333.236 249.497 333.599 249.837 333.835 250.205C334.087 250.558 334.181 250.932 334.116 251.326C334.051 251.719 333.746 252.156 333.202 252.635C332.611 253.158 331.866 253.598 330.969 253.958C330.089 254.303 329.109 254.507 328.031 254.57C326.969 254.619 325.864 254.478 324.716 254.146Z" fill="#101010"/>
<rect width="249" height="69" rx="10" transform="matrix(0.960714 0.27754 -0.749838 0.661622 81.6963 -13)" fill="#FF462E"/>
<path d="M141.914 40.6147C141.41 40.6752 140.702 40.7236 139.791 40.76C138.915 40.7882 137.949 40.7526 136.892 40.6533C135.855 40.5598 134.822 40.3551 133.793 40.039C132.067 39.5216 130.739 38.857 129.809 38.045C128.9 37.239 128.363 36.344 128.2 35.36C128.052 34.3619 128.232 33.3271 128.739 32.2557C129.282 31.1761 130.146 30.1141 131.33 29.0696C132.641 27.9122 134.108 26.9306 135.728 26.1247C137.365 25.3048 139.083 24.677 140.883 24.2413C142.703 23.8116 144.503 23.5916 146.283 23.5812C148.083 23.5768 149.783 23.8055 151.382 24.2673C152.755 24.664 153.851 25.1492 154.67 25.723C155.488 26.2968 156.085 26.8626 156.46 27.4205L152.769 29.1646C152.494 28.7106 152.06 28.2293 151.467 27.7206C150.91 27.2038 150.099 26.7914 149.033 26.4835C147.988 26.1816 146.826 26.0426 145.547 26.0667C144.305 26.0825 143.029 26.248 141.72 26.563C140.447 26.8698 139.214 27.3098 138.02 27.883C136.843 28.4421 135.798 29.1239 134.886 29.9284C133.958 30.7471 133.287 31.5555 132.872 32.3537C132.457 33.1519 132.3 33.9027 132.4 34.6062C132.521 35.3157 132.904 35.9507 133.547 36.5112C134.19 37.0718 135.116 37.5268 136.326 37.8761C137.473 38.2076 138.614 38.3778 139.746 38.3865C140.9 38.4012 141.929 38.3332 142.834 38.1825L141.914 40.6147ZM157.698 34.9447L155.126 37.5741L155.356 37.191C156.313 36.7553 157.324 36.4386 158.392 36.2411C159.459 36.0435 160.443 35.9437 161.343 35.9414C162.28 35.931 162.984 35.9939 163.455 36.1301L160.854 38.2452C159.918 37.9187 158.913 37.797 157.84 37.8803C156.786 37.9695 155.775 38.2019 154.805 38.5775C153.835 38.953 153.03 39.4231 152.391 39.9877L147.952 43.9045L144.816 42.9986L154.87 34.1276L157.698 34.9447ZM152.838 50.9649L176.23 40.2984L179.12 41.1333L155.943 51.8619L152.838 50.9649ZM160.847 47.7143L164.732 36.9768L168.298 38.0071L164.524 47.3149L160.847 47.7143ZM179.493 53.2974C178.55 53.025 177.808 52.6234 177.267 52.0924C176.742 51.5473 176.504 50.9538 176.551 50.3117L177.479 49.7087L170.329 56.0179L167.193 55.112L182.238 41.8372L184.974 42.6277L182.957 44.9115L183.315 44.1999C184.526 43.8753 185.784 43.6768 187.091 43.6045C188.417 43.5381 189.655 43.6707 190.802 44.0023C192.012 44.3516 192.874 44.863 193.389 45.5365C193.905 46.21 194.031 46.9866 193.769 47.8663C193.506 48.746 192.823 49.6728 191.719 50.6467C190.632 51.6065 189.38 52.3505 187.966 52.8786C186.587 53.3985 185.16 53.698 183.683 53.7771C182.221 53.8422 180.825 53.6822 179.493 53.2974ZM180.821 51.4048C181.6 51.6298 182.461 51.71 183.405 51.6454C184.369 51.5868 185.294 51.3949 186.18 51.0698C187.101 50.7366 187.874 50.2947 188.498 49.7443C189.154 49.1656 189.535 48.6012 189.642 48.0511C189.785 47.4929 189.682 46.995 189.335 46.5574C189.008 46.1257 188.465 45.8003 187.707 45.5812C186.99 45.374 186.25 45.2822 185.489 45.3058C184.744 45.3153 184 45.4191 183.259 45.6171C182.518 45.8152 181.817 46.1093 181.157 46.4994L179.31 48.1297C178.969 48.5745 178.799 49.0126 178.8 49.4438C178.801 49.875 178.974 50.2623 179.319 50.6056C179.665 50.949 180.165 51.2154 180.821 51.4048ZM206.118 43.7617L209.285 44.6765L204.846 48.5933L208.289 49.588L206.345 51.3029L202.902 50.3082L194.816 57.4431L191.649 56.5283L199.736 49.3934L197.461 48.7362L199.404 47.0213L201.679 47.6785L206.118 43.7617ZM205.706 54.575C206.714 53.6858 207.925 52.9771 209.34 52.449C210.771 51.9068 212.261 51.5879 213.811 51.4924C215.361 51.3969 216.833 51.5504 218.227 51.9531C219.641 52.3616 220.649 52.9245 221.251 53.6417C221.853 54.3589 222.033 55.1603 221.791 56.0459C221.585 56.9234 220.979 57.8067 219.971 58.6959C218.963 59.5851 217.754 60.3038 216.344 60.8519C214.954 61.406 213.487 61.7408 211.941 61.8564C210.411 61.9578 208.929 61.8013 207.494 61.3868C206.121 60.9901 205.108 60.4443 204.453 59.7494C203.819 59.0605 203.585 58.2713 203.749 57.3821C203.95 56.4846 204.602 55.5489 205.706 54.575ZM208.879 55.5198C208.256 56.0703 207.862 56.6217 207.698 57.174C207.551 57.7122 207.622 58.2013 207.913 58.6411C208.219 59.0669 208.741 59.3864 209.479 59.5995C210.238 59.8186 211.058 59.8869 211.94 59.8046C212.839 59.7081 213.7 59.4885 214.523 59.1457C215.384 58.7946 216.126 58.3439 216.75 57.7934C217.374 57.243 217.759 56.6986 217.907 56.1604C218.075 55.6281 218.013 55.142 217.723 54.7022C217.433 54.2623 216.908 53.9328 216.15 53.7137C215.392 53.4947 214.563 53.4334 213.665 53.5298C212.767 53.6263 211.887 53.85 211.027 54.2011C210.203 54.5439 209.487 54.9835 208.879 55.5198Z" fill="white"/>
<rect width="249" height="69" rx="10" transform="matrix(0.960714 0.27754 -0.749838 0.661622 576.61 146)" fill="#4F4F4F" fill-opacity="0.25"/>
<path d="M611.873 173.548C613.533 174.027 614.723 174.634 615.443 175.366C616.2 176.091 616.478 176.902 616.277 177.799C616.097 178.703 615.423 179.67 614.255 180.7C613.567 181.307 612.754 181.868 611.816 182.384C610.877 182.9 609.831 183.319 608.677 183.641C607.559 183.955 606.351 184.122 605.051 184.14C603.768 184.144 602.44 183.947 601.067 183.551L597.808 182.609L591.593 188.093L588.304 187.142L605.724 171.772L611.873 173.548ZM603.538 181.37C604.358 181.607 605.149 181.713 605.91 181.69C606.687 181.652 607.398 181.529 608.041 181.322C608.705 181.12 609.274 180.882 609.749 180.607C610.26 180.324 610.66 180.055 610.948 179.801C611.268 179.519 611.532 179.201 611.741 178.849C611.986 178.489 612.106 178.131 612.103 177.774C612.115 177.403 611.951 177.055 611.61 176.732C611.285 176.395 610.723 176.111 609.924 175.88L606.542 174.903L600.279 180.429L603.538 181.37ZM619.003 184.236L616.431 186.865L616.661 186.482C617.617 186.046 618.629 185.73 619.696 185.532C620.764 185.334 621.747 185.235 622.648 185.232C623.584 185.222 624.288 185.285 624.76 185.421L622.159 187.536C621.223 187.21 620.218 187.088 619.144 187.171C618.091 187.26 617.08 187.493 616.11 187.868C615.14 188.244 614.335 188.714 613.695 189.279L609.256 193.195L606.121 192.289L616.174 183.418L619.003 184.236ZM621.377 190.683C622.385 189.794 623.596 189.085 625.011 188.557C626.441 188.015 627.932 187.696 629.482 187.6C631.032 187.505 632.504 187.658 633.898 188.061C635.312 188.469 636.32 189.032 636.922 189.749C637.524 190.467 637.704 191.268 637.462 192.154C637.256 193.031 636.65 193.914 635.642 194.804C634.634 195.693 633.425 196.412 632.015 196.96C630.625 197.514 629.157 197.849 627.612 197.964C626.082 198.066 624.6 197.909 623.165 197.495C621.792 197.098 620.778 196.552 620.124 195.857C619.49 195.168 619.255 194.379 619.42 193.49C619.621 192.592 620.273 191.657 621.377 190.683ZM624.55 191.628C623.926 192.178 623.533 192.729 623.369 193.282C623.222 193.82 623.293 194.309 623.584 194.749C623.89 195.175 624.412 195.494 625.15 195.707C625.908 195.926 626.729 195.995 627.611 195.912C628.509 195.816 629.37 195.596 630.194 195.253C631.055 194.902 631.797 194.452 632.42 193.901C633.044 193.351 633.43 192.806 633.577 192.268C633.745 191.736 633.684 191.25 633.394 190.81C633.103 190.37 632.579 190.041 631.821 189.821C631.062 189.602 630.234 189.541 629.336 189.638C628.437 189.734 627.558 189.958 626.698 190.309C625.874 190.652 625.158 191.091 624.55 191.628ZM639.269 202.147C638.059 201.797 637.189 201.293 636.658 200.634C636.142 199.96 636.016 199.183 636.278 198.304C636.541 197.424 637.216 196.504 638.304 195.545C639.423 194.556 640.672 193.803 642.051 193.283C643.445 192.749 644.852 192.443 646.272 192.366C647.729 192.281 649.092 192.422 650.363 192.789C651.347 193.074 652.119 193.484 652.681 194.021C653.279 194.55 653.544 195.132 653.476 195.768L652.544 196.483L663.317 186.976L666.453 187.882L647.809 204.333L644.643 203.418L647.018 201.322L646.708 201.991C645.513 202.302 644.262 202.493 642.956 202.566C641.666 202.624 640.437 202.484 639.269 202.147ZM642.34 200.589C643.057 200.796 643.789 200.895 644.534 200.885C645.279 200.876 646.023 200.772 646.764 200.574C647.521 200.362 648.222 200.068 648.866 199.692L650.881 197.913C651.186 197.477 651.301 197.051 651.227 196.636C651.189 196.213 650.98 195.834 650.598 195.499C650.216 195.164 649.687 194.898 649.01 194.703C648.252 194.484 647.411 194.41 646.488 194.48C645.601 194.543 644.715 194.736 643.83 195.061C642.965 195.392 642.205 195.847 641.549 196.426C640.925 196.976 640.542 197.531 640.399 198.089C640.276 198.653 640.381 199.161 640.712 199.613C641.059 200.05 641.602 200.376 642.34 200.589ZM656.367 207.283C655.178 206.939 654.484 206.411 654.286 205.698C654.088 204.985 654.408 204.234 655.247 203.446L662.709 196.862L665.875 197.777L659.301 203.578C658.83 204.041 658.591 204.468 658.583 204.86C658.611 205.243 658.996 205.551 659.739 205.784C660.436 205.985 661.21 206.022 662.063 205.893C662.953 205.757 663.831 205.486 664.698 205.081C665.602 204.667 666.422 204.136 667.158 203.487L671.717 199.464L674.883 200.379L664.829 209.25L661.97 208.424L664.052 206.299L663.791 206.673C663.076 206.992 662.289 207.242 661.43 207.425C660.586 207.593 659.73 207.664 658.861 207.638C657.977 207.626 657.146 207.508 656.367 207.283ZM681.158 212.871C680.217 213.03 679.232 213.083 678.204 213.029C677.197 212.982 676.283 212.84 675.463 212.603C674.049 212.194 673.015 211.643 672.361 210.948C671.727 210.259 671.505 209.483 671.694 208.619C671.884 207.756 672.522 206.844 673.61 205.885C674.682 204.939 675.927 204.212 677.346 203.704C678.782 203.182 680.23 202.888 681.691 202.823C683.168 202.744 684.491 202.873 685.659 203.211C686.725 203.519 687.556 203.89 688.151 204.324C688.747 204.759 689.142 205.238 689.337 205.763L686.161 206.728C686.037 206.43 685.796 206.126 685.439 205.817C685.103 205.514 684.596 205.265 683.92 205.069C683.203 204.862 682.403 204.799 681.521 204.882C680.654 204.95 679.799 205.153 678.955 205.49C678.126 205.812 677.4 206.249 676.776 206.799C676.185 207.322 675.807 207.859 675.643 208.411C675.516 208.955 675.627 209.446 675.974 209.884C676.322 210.321 676.905 210.659 677.725 210.896C678.258 211.049 678.806 211.142 679.369 211.174C679.947 211.191 680.523 211.151 681.095 211.054L681.158 212.871ZM699.547 202.333L702.713 203.248L698.274 207.164L701.718 208.159L699.774 209.874L696.331 208.879L688.245 216.014L685.078 215.099L693.164 207.965L690.889 207.307L692.833 205.592L695.108 206.25L699.547 202.333ZM705.161 209.126L708.327 210.04L698.273 218.911L695.107 217.997L705.161 209.126ZM708.575 205.897C708.959 205.558 709.474 205.332 710.119 205.218C710.765 205.105 711.313 205.113 711.764 205.244C712.235 205.38 712.527 205.614 712.64 205.947C712.753 206.279 712.618 206.615 712.234 206.953C711.85 207.292 711.345 207.521 710.721 207.64C710.112 207.746 709.572 207.73 709.1 207.594C708.649 207.464 708.349 207.236 708.2 206.912C708.066 206.574 708.191 206.235 708.575 205.897ZM708.209 222.091L711.24 210.882L714.991 211.966L711.951 220.193L710.086 219.57L722.093 214.017L725.628 215.038L708.332 222.126L708.209 222.091ZM734.223 212.35L737.389 213.265L732.95 217.182L736.393 218.177L734.45 219.891L731.007 218.897L722.92 226.032L719.754 225.117L727.84 217.982L725.565 217.325L727.509 215.61L729.784 216.267L734.223 212.35ZM726.036 232.58L749.428 221.914L752.318 222.749L729.141 233.477L726.036 232.58ZM734.045 229.33L737.93 218.592L741.496 219.623L737.722 228.931L734.045 229.33Z" fill="#101010"/>
<rect width="249" height="69" rx="10" transform="matrix(0.960714 0.27754 -0.749838 0.661622 -26.3037 87)" fill="#FF462E"/>
<path d="M32.6962 142.511L28.828 125.796L29.5411 126.283L17.156 137.319L13.8358 136.36L31.8079 120.502L31.9616 120.547L35.5906 137.221L34.99 136.851L47.5498 125.696L50.8085 126.638L32.7884 142.538L32.6962 142.511ZM44.118 145.389C42.9088 145.04 42.0042 144.554 41.4044 143.931C40.8205 143.294 40.6336 142.547 40.8435 141.689C41.0535 140.832 41.7344 139.895 42.8861 138.879C44.0219 137.877 45.2948 137.102 46.705 136.553C48.1357 136.011 49.5589 135.692 50.9746 135.595C52.4267 135.49 53.7369 135.606 54.9052 135.943C56.1349 136.299 56.9312 136.772 57.2941 137.364C57.6935 137.948 57.8467 138.545 57.7537 139.155L57.1546 139.432L59.4536 137.763L62.3742 138.607L52.3203 147.478L49.1538 146.563L51.6733 144.34L51.4116 144.967C51.2016 145.056 50.8435 145.168 50.3371 145.303C49.8467 145.424 49.2481 145.532 48.5412 145.627C47.8549 145.729 47.1266 145.771 46.3562 145.755C45.6224 145.73 44.8763 145.608 44.118 145.389ZM46.9944 143.86C47.6707 144.055 48.3713 144.145 49.0961 144.13C49.821 144.114 50.5438 144.004 51.2646 143.801C51.9855 143.597 52.6576 143.304 53.2809 142.922L55.3685 141.08C55.6524 140.637 55.7597 140.218 55.6902 139.824C55.6367 139.415 55.4292 139.046 55.0678 138.716C54.7269 138.393 54.2285 138.137 53.5727 137.947C52.8349 137.734 52.0145 137.666 51.1118 137.742C50.225 137.804 49.3492 138.001 48.4843 138.332C47.6195 138.663 46.8592 139.118 46.2033 139.697C45.5795 140.247 45.1961 140.801 45.0531 141.36C44.9306 141.924 45.0351 142.432 45.3665 142.884C45.7139 143.321 46.2565 143.647 46.9944 143.86ZM72.8701 136.468L76.0366 137.383L71.5975 141.3L75.0407 142.294L73.0971 144.009L69.6539 143.014L61.5677 150.149L58.4012 149.235L66.4874 142.1L64.2125 141.443L66.156 139.728L68.431 140.385L72.8701 136.468ZM72.1415 153.682C70.9527 153.338 70.2592 152.81 70.0607 152.097C69.8623 151.384 70.1825 150.633 71.0213 149.845L78.4837 143.261L81.6502 144.176L75.0756 149.977C74.6047 150.44 74.3653 150.867 74.3572 151.259C74.3857 151.642 74.7711 151.95 75.5135 152.183C76.2103 152.384 76.9851 152.421 77.8379 152.292C78.7272 152.156 79.6055 151.885 80.4728 151.48C81.3766 151.066 82.1965 150.535 82.9323 149.886L87.4913 145.863L90.6578 146.778L80.604 155.649L77.7449 154.823L79.8265 152.698L79.5655 153.072C78.8512 153.391 78.0641 153.641 77.2043 153.824C76.3605 153.992 75.5044 154.063 74.6361 154.037C73.7518 154.025 72.9203 153.907 72.1415 153.682ZM98.3347 148.996L95.7627 151.625L95.9929 151.242C96.9492 150.806 97.961 150.489 99.0282 150.292C100.095 150.094 101.079 149.995 101.98 149.992C102.916 149.982 103.62 150.045 104.092 150.181L101.491 152.296C100.555 151.97 99.5501 151.848 98.4763 151.931C97.4231 152.02 96.4116 152.253 95.4418 152.628C94.472 153.004 93.6672 153.474 93.0273 154.039L88.5883 157.955L85.4525 157.049L95.5063 148.178L98.3347 148.996ZM102.497 162.255C101.001 161.822 99.9441 161.255 99.3262 160.552C98.7244 159.834 98.5364 159.04 98.7624 158.168C99.0044 157.283 99.6452 156.381 100.685 155.464C101.677 154.589 102.89 153.89 104.325 153.368C105.797 152.838 107.316 152.518 108.882 152.408C110.469 152.304 111.928 152.445 113.26 152.83C114.982 153.327 116.015 154.084 116.358 155.102C116.722 156.125 116.395 157.314 115.376 158.668L102.062 158.138L102.764 156.655L113.508 157.004L112.55 157.093C112.8 156.584 112.843 156.091 112.678 155.612C112.529 155.12 111.993 154.74 111.071 154.474C110.333 154.26 109.523 154.195 108.641 154.277C107.795 154.351 106.95 154.557 106.106 154.894C105.298 155.223 104.566 155.676 103.91 156.255C103.238 156.848 102.82 157.42 102.657 157.973C102.53 158.517 102.63 159.005 102.957 159.436C103.304 159.874 103.867 160.205 104.646 160.43C105.2 160.59 105.802 160.671 106.454 160.672C107.126 160.678 107.808 160.641 108.499 160.56L108.12 162.586C107.108 162.687 106.098 162.714 105.091 162.667C104.12 162.611 103.256 162.474 102.497 162.255Z" fill="white"/>
<rect width="249" height="69" rx="10" transform="matrix(0.960714 0.27754 -0.749838 0.661622 501.695 42)" fill="#FF462E"/>
<path d="M565.964 81.8345C565.505 81.3272 564.937 80.8445 564.259 80.3864C563.581 79.9282 562.822 79.5778 561.982 79.3351C560.834 79.0035 559.714 78.9235 558.622 79.0951C557.545 79.2526 556.655 79.6418 555.952 80.2629C555.456 80.7004 555.249 81.1466 555.332 81.6015C555.415 82.0564 555.679 82.5075 556.125 82.9546C556.57 83.4018 557.072 83.8467 557.632 84.2894C558.116 84.6541 558.55 85.0512 558.934 85.4806C559.355 85.9018 559.639 86.3588 559.788 86.8515C559.958 87.3501 559.908 87.8979 559.64 88.4948C559.408 89.0836 558.884 89.7379 558.068 90.4577C557.14 91.2764 556.003 91.9315 554.657 92.4232C553.331 92.9208 551.891 93.2073 550.337 93.2828C548.818 93.3501 547.281 93.1588 545.723 92.7088C544.78 92.4364 543.938 92.0994 543.196 91.6978C542.491 91.2879 541.874 90.8475 541.347 90.3767C540.856 89.8976 540.461 89.4181 540.162 88.9382L543.629 87.6072C543.849 87.9892 544.148 88.385 544.528 88.7943C544.923 89.1896 545.387 89.5484 545.919 89.8709C546.472 90.1992 547.056 90.4522 547.671 90.6298C548.347 90.8252 549.101 90.94 549.933 90.9742C550.781 90.9943 551.612 90.8971 552.426 90.6827C553.257 90.4542 553.992 90.0576 554.632 89.4931C555.176 89.0132 555.437 88.5546 555.415 88.1175C555.43 87.6722 555.256 87.2378 554.893 86.8143C554.55 86.3967 554.124 85.9926 553.614 85.6018C553.125 85.217 552.65 84.8081 552.189 84.3751C551.727 83.942 551.365 83.4814 551.102 82.9932C550.855 82.491 550.801 81.9507 550.94 81.3724C551.115 80.786 551.594 80.1469 552.378 79.4553C553.306 78.6367 554.39 78.0038 555.631 77.5567C556.909 77.1015 558.25 76.8425 559.654 76.7797C561.058 76.717 562.44 76.8539 563.8 77.1905C565.296 77.6227 566.454 78.1257 567.272 78.6995C568.091 79.2733 568.731 79.861 569.192 80.4625L565.964 81.8345ZM568.925 98.0907C567.983 98.2496 566.998 98.3023 565.971 98.249C564.963 98.2016 564.05 98.0594 563.23 97.8226C561.816 97.4141 560.782 96.8624 560.127 96.1675C559.493 95.4785 559.271 94.7023 559.461 93.839C559.65 92.9757 560.289 92.0641 561.377 91.1043C562.448 90.1587 563.694 89.4318 565.113 88.9237C566.548 88.4015 567.996 88.1079 569.458 88.0429C570.935 87.9638 572.257 88.093 573.426 88.4305C574.491 88.7383 575.322 89.1095 575.918 89.5439C576.514 89.9784 576.909 90.4579 577.104 90.9825L573.928 91.948C573.804 91.6498 573.563 91.346 573.206 91.0368C572.869 90.7335 572.363 90.4842 571.687 90.2888C570.969 90.0816 570.17 90.0192 569.287 90.1015C568.421 90.1698 567.566 90.3723 566.721 90.7092C565.893 91.032 565.167 91.4686 564.543 92.0191C563.951 92.5414 563.574 93.0786 563.41 93.631C563.283 94.1751 563.393 94.6659 563.741 95.1036C564.088 95.5412 564.672 95.8784 565.492 96.1152C566.024 96.2692 566.572 96.3619 567.135 96.3933C567.714 96.4107 568.29 96.3709 568.862 96.2739L568.925 98.0907ZM581.669 91.0929L584.835 92.0076L574.781 100.879L571.615 99.9639L581.669 91.0929ZM585.084 87.8638C585.467 87.525 585.982 87.299 586.627 87.1856C587.273 87.0723 587.821 87.0808 588.272 87.211C588.743 87.3472 589.035 87.5815 589.148 87.9139C589.261 88.2463 589.126 88.5819 588.742 88.9207C588.358 89.2594 587.854 89.4884 587.229 89.6077C586.62 89.7128 586.08 89.6973 585.608 89.5611C585.158 89.4309 584.857 89.2036 584.708 88.8794C584.574 88.5411 584.7 88.2025 585.084 87.8638ZM585.417 104.232C583.921 103.8 582.864 103.232 582.246 102.529C581.644 101.812 581.456 101.018 581.682 100.146C581.924 99.2606 582.565 98.359 583.605 97.4416C584.597 96.5665 585.81 95.8678 587.246 95.3457C588.717 94.8153 590.236 94.4953 591.802 94.3856C593.389 94.2819 594.848 94.4225 596.18 94.8073C597.902 95.3047 598.935 96.062 599.278 97.0793C599.642 98.1025 599.315 99.2913 598.296 100.646L584.982 100.116L585.684 98.6322L596.428 98.982L595.47 99.0707C595.72 98.5621 595.763 98.0685 595.598 97.5899C595.449 97.0972 594.913 96.7177 593.991 96.4512C593.253 96.2381 592.443 96.1727 591.561 96.255C590.715 96.3292 589.87 96.5347 589.026 96.8716C588.218 97.2003 587.486 97.654 586.83 98.2327C586.158 98.8255 585.741 99.3981 585.577 99.9504C585.45 100.495 585.55 100.982 585.877 101.414C586.224 101.852 586.788 102.183 587.566 102.408C588.12 102.568 588.722 102.648 589.374 102.649C590.047 102.656 590.728 102.619 591.419 102.537L591.04 104.564C590.028 104.665 589.018 104.692 588.011 104.644C587.04 104.589 586.176 104.451 585.417 104.232ZM608.695 98.9005L606.668 101.013L606.857 100.702C608.008 100.191 609.249 99.8756 610.583 99.755C611.933 99.6203 613.223 99.7306 614.452 100.086C615.662 100.435 616.376 100.969 616.595 101.688C616.834 102.413 616.516 103.174 615.641 103.97L608.202 110.534L605.036 109.619L611.61 103.818C612.102 103.36 612.323 102.937 612.274 102.548C612.241 102.145 611.843 101.824 611.08 101.585C610.383 101.384 609.58 101.348 608.67 101.479C607.777 101.595 606.886 101.853 605.998 102.253C605.11 102.652 604.298 103.176 603.562 103.825L598.979 107.869L595.813 106.954L605.867 98.0834L608.695 98.9005ZM624.526 114.153C623.585 114.312 622.6 114.365 621.572 114.312C620.565 114.264 619.651 114.122 618.831 113.885C617.417 113.477 616.383 112.925 615.729 112.23C615.095 111.541 614.873 110.765 615.062 109.902C615.252 109.038 615.89 108.127 616.978 107.167C618.05 106.221 619.295 105.494 620.714 104.986C622.15 104.464 623.598 104.171 625.059 104.106C626.536 104.026 627.859 104.156 629.027 104.493C630.093 104.801 630.924 105.172 631.519 105.607C632.115 106.041 632.51 106.52 632.705 107.045L629.529 108.011C629.405 107.712 629.164 107.409 628.807 107.099C628.471 106.796 627.964 106.547 627.288 106.351C626.571 106.144 625.771 106.082 624.889 106.164C624.022 106.232 623.167 106.435 622.323 106.772C621.494 107.095 620.768 107.531 620.144 108.082C619.553 108.604 619.175 109.141 619.011 109.694C618.884 110.238 618.995 110.729 619.342 111.166C619.69 111.604 620.273 111.941 621.093 112.178C621.626 112.332 622.174 112.424 622.737 112.456C623.315 112.473 623.891 112.433 624.463 112.337L624.526 114.153ZM633.033 117.988C631.537 117.556 630.48 116.988 629.862 116.285C629.26 115.568 629.072 114.773 629.298 113.902C629.54 113.016 630.181 112.115 631.22 111.197C632.212 110.322 633.426 109.623 634.861 109.101C636.333 108.571 637.851 108.251 639.418 108.141C641.004 108.037 642.464 108.178 643.796 108.563C645.517 109.06 646.55 109.818 646.893 110.835C647.257 111.858 646.93 113.047 645.912 114.401L632.597 113.871L633.299 112.388L644.043 112.738L643.086 112.826C643.336 112.318 643.378 111.824 643.213 111.345C643.064 110.853 642.529 110.473 641.606 110.207C640.869 109.994 640.058 109.928 639.176 110.011C638.33 110.085 637.485 110.29 636.641 110.627C635.833 110.956 635.101 111.41 634.445 111.988C633.774 112.581 633.356 113.154 633.192 113.706C633.065 114.25 633.165 114.738 633.492 115.17C633.84 115.607 634.403 115.939 635.182 116.164C635.735 116.323 636.338 116.404 636.99 116.405C637.662 116.412 638.344 116.374 639.034 116.293L638.656 118.319C637.643 118.42 636.634 118.447 635.626 118.4C634.656 118.344 633.791 118.207 633.033 117.988Z" fill="white"/>
<rect width="249" height="69" rx="10" transform="matrix(0.960714 0.27754 -0.749838 0.661622 642.61 231)" fill="#4F4F4F" fill-opacity="0.25"/>
<path d="M699.088 268.583C698.629 268.076 698.061 267.593 697.383 267.135C696.705 266.677 695.946 266.327 695.106 266.084C693.958 265.752 692.838 265.672 691.746 265.844C690.67 266.002 689.78 266.391 689.076 267.012C688.58 267.449 688.374 267.896 688.457 268.35C688.54 268.805 688.804 269.256 689.249 269.704C689.695 270.151 690.197 270.596 690.756 271.038C691.241 271.403 691.675 271.8 692.059 272.23C692.479 272.651 692.764 273.108 692.913 273.6C693.082 274.099 693.033 274.647 692.764 275.244C692.532 275.833 692.008 276.487 691.193 277.207C690.265 278.025 689.128 278.68 687.782 279.172C686.456 279.67 685.016 279.956 683.461 280.032C681.943 280.099 680.405 279.908 678.847 279.458C677.905 279.185 677.062 278.848 676.32 278.447C675.615 278.037 674.999 277.596 674.471 277.126C673.981 276.647 673.585 276.167 673.286 275.687L676.753 274.356C676.973 274.738 677.273 275.134 677.652 275.543C678.048 275.939 678.511 276.297 679.044 276.62C679.597 276.948 680.181 277.201 680.795 277.379C681.472 277.574 682.226 277.689 683.058 277.723C683.905 277.743 684.737 277.646 685.551 277.432C686.381 277.203 687.116 276.807 687.756 276.242C688.3 275.762 688.561 275.304 688.54 274.866C688.555 274.421 688.381 273.987 688.017 273.563C687.674 273.146 687.248 272.742 686.739 272.351C686.25 271.966 685.775 271.557 685.313 271.124C684.852 270.691 684.49 270.23 684.227 269.742C683.98 269.24 683.926 268.7 684.064 268.121C684.239 267.535 684.718 266.896 685.502 266.204C686.43 265.386 687.515 264.753 688.756 264.306C690.034 263.85 691.374 263.591 692.779 263.529C694.183 263.466 695.565 263.603 696.924 263.939C698.421 264.372 699.578 264.875 700.397 265.448C701.216 266.022 701.856 266.61 702.316 267.211L699.088 268.583ZM698.045 285.06C697.103 284.788 696.361 284.386 695.82 283.855C695.295 283.31 695.056 282.716 695.104 282.074L696.032 281.471L688.882 287.781L685.746 286.875L700.791 273.6L703.527 274.39L701.51 276.674L701.867 275.963C703.079 275.638 704.337 275.439 705.644 275.367C706.97 275.301 708.207 275.433 709.355 275.765C710.564 276.114 711.427 276.626 711.942 277.299C712.457 277.973 712.584 278.749 712.321 279.629C712.059 280.509 711.376 281.435 710.272 282.409C709.184 283.369 707.933 284.113 706.518 284.641C705.14 285.161 703.713 285.461 702.235 285.54C700.774 285.605 699.378 285.445 698.045 285.06ZM699.374 283.167C700.153 283.392 701.014 283.473 701.958 283.408C702.922 283.349 703.847 283.158 704.732 282.832C705.654 282.499 706.427 282.057 707.051 281.507C707.707 280.928 708.088 280.364 708.194 279.814C708.337 279.256 708.235 278.758 707.888 278.32C707.561 277.888 707.018 277.563 706.26 277.344C705.543 277.137 704.803 277.045 704.042 277.068C703.297 277.078 702.553 277.182 701.812 277.38C701.071 277.578 700.37 277.872 699.71 278.262L697.862 279.892C697.522 280.337 697.352 280.775 697.353 281.206C697.354 281.638 697.527 282.025 697.872 282.368C698.218 282.712 698.718 282.978 699.374 283.167ZM719.026 279.065L722.193 279.979L712.139 288.85L708.973 287.936L719.026 279.065ZM722.441 275.836C722.825 275.497 723.34 275.271 723.985 275.157C724.63 275.044 725.179 275.053 725.629 275.183C726.101 275.319 726.393 275.553 726.506 275.886C726.619 276.218 726.483 276.554 726.1 276.893C725.716 277.231 725.211 277.46 724.586 277.58C723.977 277.685 723.437 277.669 722.966 277.533C722.515 277.403 722.215 277.175 722.065 276.851C721.932 276.513 722.057 276.174 722.441 275.836ZM729.841 282.189L727.269 284.818L727.499 284.435C728.455 283.999 729.467 283.683 730.534 283.485C731.601 283.288 732.585 283.188 733.486 283.186C734.422 283.175 735.126 283.238 735.598 283.374L732.997 285.489C732.061 285.163 731.056 285.041 729.982 285.124C728.929 285.214 727.918 285.446 726.948 285.822C725.978 286.197 725.173 286.667 724.533 287.232L720.094 291.149L716.958 290.243L727.012 281.372L729.841 282.189ZM738.781 284.772L741.948 285.686L731.894 294.557L728.727 293.643L738.781 284.772ZM742.196 281.543C742.58 281.204 743.094 280.978 743.74 280.864C744.385 280.751 744.933 280.76 745.384 280.89C745.855 281.026 746.148 281.26 746.261 281.593C746.374 281.925 746.238 282.261 745.854 282.599C745.47 282.938 744.966 283.167 744.341 283.286C743.732 283.392 743.192 283.376 742.721 283.24C742.27 283.11 741.97 282.882 741.82 282.558C741.687 282.22 741.812 281.881 742.196 281.543ZM752.412 283.538L755.578 284.453L751.139 288.37L754.582 289.365L752.639 291.079L749.196 290.085L741.109 297.22L737.943 296.305L746.029 289.17L743.754 288.513L745.698 286.798L747.973 287.455L752.412 283.538ZM751.683 300.752C750.494 300.409 749.801 299.88 749.602 299.167C749.404 298.454 749.724 297.704 750.563 296.916L758.025 290.331L761.192 291.246L754.617 297.047C754.146 297.51 753.907 297.938 753.899 298.329C753.927 298.712 754.313 299.02 755.055 299.253C755.752 299.454 756.527 299.491 757.38 299.363C758.269 299.226 759.147 298.955 760.015 298.55C760.918 298.137 761.738 297.605 762.474 296.956L767.033 292.933L770.2 293.848L760.146 302.719L757.287 301.893L759.368 299.768L759.107 300.143C758.393 300.461 757.606 300.711 756.746 300.894C755.902 301.062 755.046 301.133 754.178 301.107C753.294 301.096 752.462 300.977 751.683 300.752ZM770.134 305.886C768.925 305.536 768.02 305.05 767.421 304.427C766.837 303.79 766.65 303.043 766.86 302.186C767.07 301.328 767.751 300.391 768.902 299.375C770.038 298.373 771.311 297.598 772.721 297.05C774.152 296.507 775.575 296.188 776.991 296.091C778.443 295.986 779.753 296.102 780.921 296.44C782.151 296.795 782.947 297.268 783.31 297.86C783.71 298.444 783.863 299.041 783.77 299.651L783.171 299.928L785.47 298.259L788.39 299.103L778.337 307.974L775.17 307.059L777.69 304.836L777.428 305.463C777.218 305.553 776.86 305.665 776.353 305.799C775.863 305.92 775.264 306.028 774.557 306.124C773.871 306.225 773.143 306.268 772.372 306.251C771.639 306.227 770.893 306.105 770.134 305.886ZM773.011 304.356C773.687 304.551 774.388 304.641 775.112 304.626C775.837 304.61 776.56 304.501 777.281 304.297C778.002 304.093 778.674 303.8 779.297 303.418L781.385 301.576C781.669 301.133 781.776 300.715 781.706 300.32C781.653 299.911 781.445 299.542 781.084 299.213C780.743 298.889 780.245 298.633 779.589 298.444C778.851 298.23 778.031 298.162 777.128 298.238C776.241 298.301 775.365 298.497 774.501 298.828C773.636 299.159 772.875 299.614 772.22 300.193C771.596 300.743 771.212 301.298 771.069 301.856C770.947 302.42 771.051 302.928 771.383 303.38C771.73 303.817 772.273 304.143 773.011 304.356ZM801.832 292.925L804.998 293.84L786.354 310.29L783.188 309.376L801.832 292.925Z" fill="#101010"/>
<rect width="249" height="69" rx="10" transform="matrix(0.960714 0.27754 -0.749838 0.661622 450.61 249)" fill="#4F4F4F" fill-opacity="0.25"/>
<path d="M528.899 288.978L511.479 304.349L508.19 303.399L515.7 296.772L504.387 293.504L496.876 300.13L493.587 299.18L511.007 283.809L514.296 284.76L506.834 291.344L518.147 294.612L525.61 288.028L528.899 288.978ZM522.864 307.919C521.368 307.487 520.311 306.919 519.693 306.216C519.091 305.499 518.903 304.705 519.129 303.833C519.371 302.947 520.012 302.046 521.052 301.128C522.043 300.253 523.257 299.555 524.692 299.033C526.164 298.502 527.683 298.182 529.249 298.073C530.836 297.969 532.295 298.109 533.627 298.494C535.349 298.992 536.381 299.749 536.725 300.766C537.089 301.789 536.761 302.978 535.743 304.333L522.428 303.803L523.13 302.319L533.875 302.669L532.917 302.758C533.167 302.249 533.209 301.755 533.044 301.277C532.896 300.784 532.36 300.405 531.438 300.138C530.7 299.925 529.89 299.86 529.007 299.942C528.162 300.016 527.317 300.222 526.472 300.558C525.664 300.887 524.933 301.341 524.277 301.92C523.605 302.512 523.187 303.085 523.024 303.637C522.897 304.181 522.997 304.669 523.324 305.101C523.671 305.539 524.234 305.87 525.013 306.095C525.566 306.255 526.169 306.335 526.821 306.336C527.493 306.343 528.175 306.306 528.866 306.224L528.487 308.251C527.475 308.352 526.465 308.379 525.458 308.331C524.487 308.276 523.622 308.138 522.864 307.919ZM538.4 312.407C537.19 312.058 536.286 311.572 535.686 310.949C535.102 310.312 534.915 309.564 535.125 308.707C535.335 307.85 536.016 306.913 537.168 305.897C538.304 304.894 539.577 304.119 540.987 303.571C542.417 303.029 543.841 302.709 545.256 302.613C546.708 302.507 548.019 302.624 549.187 302.961C550.417 303.316 551.213 303.79 551.576 304.382C551.975 304.966 552.128 305.563 552.035 306.173L551.436 306.449L553.735 304.781L556.656 305.625L546.602 314.496L543.435 313.581L545.955 311.358L545.693 311.985C545.483 312.074 545.125 312.186 544.619 312.321C544.128 312.442 543.53 312.55 542.823 312.645C542.137 312.747 541.408 312.789 540.638 312.773C539.904 312.748 539.158 312.626 538.4 312.407ZM541.276 310.877C541.952 311.073 542.653 311.163 543.378 311.147C544.103 311.132 544.825 311.022 545.546 310.818C546.267 310.614 546.939 310.321 547.563 309.939L549.65 308.097C549.934 307.655 550.041 307.236 549.972 306.841C549.918 306.433 549.711 306.063 549.35 305.734C549.009 305.411 548.51 305.154 547.854 304.965C547.117 304.752 546.296 304.684 545.393 304.76C544.507 304.822 543.631 305.019 542.766 305.35C541.901 305.681 541.141 306.136 540.485 306.714C539.861 307.265 539.478 307.819 539.335 308.377C539.212 308.942 539.317 309.45 539.648 309.901C539.996 310.339 540.538 310.664 541.276 310.877ZM570.097 299.447L573.264 300.361L554.62 316.812L551.453 315.897L570.097 299.447ZM575.138 305.793L578.304 306.708L573.865 310.624L577.308 311.619L575.365 313.334L571.922 312.339L563.835 319.474L560.669 318.559L568.755 311.425L566.48 310.767L568.424 309.052L570.699 309.71L575.138 305.793ZM570.697 321.457L589.341 305.006L592.416 305.894L581.546 315.485L581.923 315.116C583.009 314.662 584.209 314.371 585.522 314.245C586.836 314.118 588.107 314.233 589.337 314.588C590.546 314.937 591.26 315.472 591.479 316.191C591.718 316.916 591.401 317.676 590.525 318.473L583.087 325.036L579.92 324.121L586.495 318.32C586.986 317.862 587.207 317.439 587.158 317.05C587.126 316.647 586.728 316.326 585.965 316.087C585.268 315.886 584.465 315.85 583.555 315.981C582.661 316.098 581.762 316.363 580.858 316.776C579.971 317.175 579.167 317.692 578.447 318.328L573.864 322.371L570.697 321.457Z" fill="#101010"/>
<rect width="249" height="69" rx="10" transform="matrix(0.960714 0.27754 -0.749838 0.661622 398.653 141)" fill="#FF462E"/>
<path d="M448.399 193.136L466.395 177.257L466.426 177.266L465.168 192.275L463.993 191.654L488.684 183.696L488.745 183.713L470.749 199.592L467.491 198.651L479.704 187.874L478.599 189.101L461.266 194.745L461.205 194.727L461.906 184.278L463.659 183.38L451.566 194.05L448.399 193.136ZM480.015 202.747C478.826 202.403 478.133 201.875 477.934 201.162C477.736 200.449 478.056 199.698 478.895 198.91L486.357 192.326L489.524 193.241L482.949 199.042C482.478 199.505 482.239 199.932 482.231 200.324C482.259 200.707 482.645 201.015 483.387 201.248C484.084 201.449 484.859 201.486 485.712 201.357C486.601 201.221 487.479 200.95 488.346 200.545C489.25 200.131 490.07 199.6 490.806 198.951L495.365 194.928L498.531 195.843L488.478 204.714L485.619 203.888L487.7 201.763L487.439 202.137C486.725 202.456 485.938 202.706 485.078 202.889C484.234 203.057 483.378 203.128 482.51 203.102C481.625 203.09 480.794 202.972 480.015 202.747ZM496.861 207.389C495.918 207.116 495.134 206.74 494.509 206.259C493.899 205.765 493.564 205.209 493.502 204.591L496.246 203.754C496.399 204.267 496.649 204.695 496.994 205.038C497.376 205.373 497.823 205.615 498.336 205.763C498.746 205.881 499.147 205.96 499.538 205.998C499.946 206.022 500.341 205.986 500.722 205.89C501.103 205.794 501.437 205.619 501.725 205.365C502.061 205.069 502.181 204.794 502.086 204.542C501.991 204.29 501.782 204.042 501.46 203.799C501.137 203.556 500.775 203.311 500.375 203.064C499.56 202.51 499.124 201.935 499.067 201.337C499.025 200.726 499.349 200.116 500.036 199.509C500.564 199.044 501.224 198.653 502.016 198.339C502.844 198.016 503.759 197.821 504.76 197.754C505.76 197.688 506.773 197.802 507.798 198.098C508.741 198.371 509.483 198.688 510.024 199.05C510.582 199.399 510.968 199.838 511.183 200.369L508.465 201.326C508.384 200.966 508.16 200.648 507.791 200.373C507.459 200.089 507.096 199.881 506.702 199.749C506.333 199.642 505.947 199.587 505.544 199.583C505.157 199.565 504.783 199.607 504.422 199.709C504.078 199.796 503.794 199.939 503.57 200.137C503.229 200.413 503.098 200.684 503.177 200.951C503.293 201.209 503.522 201.463 503.866 201.712C504.225 201.947 504.566 202.186 504.889 202.429C505.381 202.74 505.744 203.079 505.98 203.447C506.232 203.801 506.326 204.174 506.261 204.568C506.196 204.961 505.891 205.398 505.347 205.878C504.756 206.4 504.011 206.841 503.114 207.2C502.234 207.545 501.254 207.749 500.176 207.812C499.114 207.861 498.009 207.72 496.861 207.389ZM516.139 200.93L519.306 201.844L509.252 210.715L506.086 209.801L516.139 200.93ZM519.554 197.7C519.938 197.362 520.453 197.136 521.098 197.022C521.743 196.909 522.292 196.917 522.742 197.048C523.214 197.184 523.506 197.418 523.619 197.751C523.732 198.083 523.597 198.419 523.213 198.757C522.829 199.096 522.324 199.325 521.699 199.444C521.091 199.549 520.55 199.534 520.079 199.398C519.628 199.268 519.328 199.04 519.179 198.716C519.045 198.378 519.17 198.039 519.554 197.7ZM525.552 214.328C524.61 214.487 523.626 214.54 522.598 214.486C521.591 214.439 520.677 214.297 519.857 214.06C518.443 213.651 517.409 213.1 516.754 212.405C516.121 211.716 515.898 210.94 516.088 210.076C516.277 209.213 516.916 208.302 518.004 207.342C519.075 206.396 520.321 205.669 521.74 205.161C523.175 204.639 524.623 204.345 526.085 204.28C527.562 204.201 528.885 204.33 530.053 204.668C531.119 204.976 531.949 205.347 532.545 205.781C533.141 206.216 533.536 206.695 533.731 207.22L530.555 208.185C530.431 207.887 530.19 207.583 529.833 207.274C529.497 206.971 528.99 206.722 528.314 206.526C527.597 206.319 526.797 206.257 525.914 206.339C525.048 206.407 524.193 206.61 523.349 206.947C522.52 207.269 521.794 207.706 521.17 208.257C520.578 208.779 520.201 209.316 520.037 209.868C519.91 210.412 520.02 210.903 520.368 211.341C520.715 211.779 521.299 212.116 522.119 212.353C522.652 212.507 523.199 212.599 523.762 212.631C524.341 212.648 524.917 212.608 525.489 212.511L525.552 214.328Z" fill="white"/>
</g>
<defs>
<clipPath id="clip0_1500_969">
<rect width="685" height="286" fill="white"/>
</clipPath>
</defs>
</svg>
