<svg width="160" height="40" viewBox="0 0 160 40" fill="none" xmlns="http://www.w3.org/2000/svg">
<path d="M49.6378 18.8099C48.737 18.6966 48.5937 19.2216 48.5881 19.9954C48.5816 20.954 47.9153 21.1541 47.1187 21.1446C46.2514 21.1331 45.8056 20.6967 45.7703 19.8191C45.7628 19.6228 45.7749 19.4198 45.814 19.2283C46.015 18.2573 44.4088 17.5931 45.3301 16.543C46.23 15.5167 47.0005 17.007 47.9879 16.7555C49.7514 16.3066 49.9263 17.4587 49.5913 18.8662C49.5895 18.8681 49.636 18.8109 49.636 18.8109L49.6378 18.8099Z" fill="#FF462E"/>
<path d="M40.2215 18.9599C39.4946 17.2097 41.1859 17.6443 41.6498 16.9678C41.9015 16.6006 42.4115 16.8982 42.37 17.2311C42.2616 18.0992 42.8574 19.1129 42.3021 19.7809C41.1567 21.1585 41.02 18.7971 40.1677 18.8978C40.1696 18.8988 40.2224 18.9609 40.2224 18.9609L40.2215 18.9599Z" fill="#FF462E"/>
<path d="M51.0408 26.2612C52.1215 24.7347 51.7474 23.2081 50.8761 21.7978C50.2752 20.8245 49.8706 19.8463 49.8126 18.7206L49.7618 18.7818C50.5701 17.4717 50.7805 16.1166 49.6073 14.9578C48.2937 13.6598 46.0854 13.7059 44.1924 14.9047C44.8186 13.0344 46.4067 11.9608 48.6648 12.1673C50.4948 12.3347 52.2141 12.8459 52.1571 15.2415C52.15 15.5372 52.394 16.0524 52.6156 16.1085C56.2564 17.0417 56.5208 20.146 56.9956 22.9505C57.3311 24.9271 57.1176 26.9899 57.2253 29.0106C57.2904 30.2265 56.6855 30.6836 55.5864 30.5994C52.7092 30.3798 49.8218 31.3692 46.9059 30.1333C45.7621 29.6481 44.1324 30.2556 42.7273 30.4029C42.039 30.4751 41.3456 30.7417 40.6675 30.0621C44.473 29.4427 41.2165 27.011 42.0512 25.3842C42.4487 27.5973 43.7633 28.0825 45.6645 27.452C45.8628 27.3859 46.1139 27.2936 46.2857 27.3568C48.1554 28.0484 49.8258 27.9893 51.0916 26.2171C52.1632 26.7794 53.1087 26.8175 53.2074 25.3471C53.3202 23.6662 53.2338 21.9722 53.2338 19.6809C52.1093 21.6785 52.1947 23.2923 52.0483 24.8489C51.9833 25.5365 52.1602 26.3294 51.0418 26.2612H51.0408Z" fill="#FF462E"/>
<path d="M39.8908 19.053C39.8072 19.8569 40.0317 20.6134 40.525 21.2007C41.558 22.4307 41.4784 24.0112 40.6237 24.8514C39.183 26.2677 39.4015 27.8241 39.3924 29.449C39.3874 30.3153 39.4266 31.2108 38.432 31.5604C37.5067 31.8848 36.656 31.6208 35.8848 31.0033C33.522 29.1105 32.5796 26.4783 32.3138 23.6345C31.3745 13.5821 38.442 7.37873 48.8268 8.56137C59.4875 9.77625 63.8699 20.1954 60.4811 28.8939C60.164 29.7079 59.6959 30.3365 58.971 30.7465C58.53 30.5702 58.6528 30.3072 58.7807 30.0635C62.2732 23.3665 60.6704 16.447 54.5231 11.6983C49.5487 7.85521 41.5036 8.42336 36.4869 12.9716C32.1971 16.861 31.8407 25.5535 35.8305 29.6877C36.3953 30.273 37.0255 31.098 37.9618 30.7263C38.8316 30.3808 38.6253 29.4258 38.6242 28.6713C38.6222 27.3124 38.587 26.1529 37.5571 24.8625C36.2543 23.2305 35.9312 20.9801 37.3094 18.9573C37.541 18.6168 37.7927 18.359 37.8541 17.8835C38.1632 15.492 38.7602 15.0991 41.265 15.4839C38.6756 17.3466 38.6031 17.547 39.9471 19.1135L39.8908 19.056V19.053Z" fill="#FF462E"/>
<path d="M6.80004 13.5349L4.88003 30.575H0L3.84002 1.1748L15.3201 20.1749L26.8402 1.1748L30.6802 30.575H25.8002L23.8402 13.5349L15.3201 27.975L6.80004 13.5349Z" fill="#101010"/>
<path d="M76.2056 19.9997C76.2056 18.6397 75.9256 17.613 75.3656 16.9197C74.8055 16.2263 73.9389 15.8797 72.7655 15.8797C71.9655 15.8797 71.2589 16.053 70.6455 16.3997C70.0322 16.7197 69.5522 17.1997 69.2055 17.8397C68.8588 18.453 68.6855 19.173 68.6855 19.9997V31.1998H64.3655V12.7997H68.6855V15.6397C69.2722 14.5463 70.0188 13.733 70.9255 13.1997C71.8589 12.6663 72.9655 12.3997 74.2455 12.3997C76.3256 12.3997 77.9122 13.0397 79.0056 14.3197C80.0989 15.573 80.6456 17.3064 80.6456 19.5197V31.1998H76.2056V19.9997Z" fill="#101010"/>
<path d="M86.0806 0H90.3206V31.2002H86.0806V0ZM97.0806 12.8001H102.361L94.4406 20.4001L103.161 31.2002H97.9206L89.1206 20.4001L97.0806 12.8001Z" fill="#101010"/>
<path d="M114.241 31.5998C112.374 31.5998 110.721 31.1998 109.281 30.3998C107.868 29.5998 106.774 28.4798 106.001 27.0398C105.228 25.5997 104.841 23.9197 104.841 21.9997C104.841 20.053 105.228 18.3597 106.001 16.9197C106.801 15.4797 107.921 14.373 109.361 13.5997C110.801 12.7997 112.494 12.3997 114.441 12.3997C116.388 12.3997 118.041 12.773 119.401 13.5197C120.761 14.2663 121.801 15.3463 122.521 16.7597C123.268 18.1464 123.641 19.8264 123.641 21.7997C123.641 22.0131 123.628 22.2397 123.601 22.4797C123.601 22.7197 123.588 22.8931 123.561 22.9997H107.401V20.0397H119.881L118.561 21.8797C118.641 21.7197 118.721 21.5064 118.801 21.2397C118.908 20.9464 118.961 20.7064 118.961 20.5197C118.961 19.533 118.761 18.6797 118.361 17.9597C117.988 17.2397 117.454 16.6797 116.761 16.2797C116.094 15.8797 115.308 15.6797 114.401 15.6797C113.308 15.6797 112.374 15.9197 111.601 16.3997C110.828 16.8797 110.241 17.573 109.841 18.4797C109.441 19.3864 109.228 20.5064 109.201 21.8397C109.201 23.1731 109.401 24.3064 109.801 25.2397C110.201 26.1464 110.788 26.8398 111.561 27.3198C112.361 27.7998 113.321 28.0398 114.441 28.0398C115.614 28.0398 116.641 27.7998 117.521 27.3198C118.401 26.8398 119.134 26.1064 119.721 25.1197L123.441 26.6397C122.481 28.2931 121.241 29.5331 119.721 30.3598C118.201 31.1864 116.374 31.5998 114.241 31.5998Z" fill="#101010"/>
<path d="M144.084 12.7998L132.084 40H127.484L132.284 29.0399L124.884 12.7998H129.844L135.724 27.3599L133.684 27.2399L139.444 12.7998H144.084Z" fill="#101010"/>
<path d="M147.706 25.1597C148.292 25.7997 148.879 26.3597 149.466 26.8398C150.079 27.2931 150.692 27.6398 151.306 27.8798C151.919 28.0931 152.533 28.1998 153.146 28.1998C153.919 28.1998 154.519 28.0264 154.946 27.6798C155.399 27.3331 155.626 26.8531 155.626 26.2397C155.626 25.7064 155.453 25.2531 155.106 24.8797C154.759 24.4797 154.279 24.1464 153.666 23.8797C153.053 23.5864 152.333 23.2931 151.506 22.9997C150.679 22.6797 149.852 22.3064 149.026 21.8797C148.226 21.4264 147.559 20.8397 147.026 20.1197C146.519 19.3997 146.266 18.493 146.266 17.3997C146.266 16.2797 146.546 15.3463 147.106 14.5997C147.692 13.853 148.466 13.3063 149.426 12.9597C150.412 12.5863 151.466 12.3997 152.586 12.3997C153.599 12.3997 154.546 12.5463 155.426 12.8397C156.333 13.133 157.146 13.5197 157.866 13.9997C158.586 14.4797 159.199 15.0263 159.706 15.6397L157.306 18.1997C156.693 17.4797 155.959 16.893 155.106 16.4397C154.253 15.9863 153.373 15.7597 152.466 15.7597C151.853 15.7597 151.346 15.893 150.946 16.1597C150.546 16.4264 150.346 16.813 150.346 17.3197C150.346 17.7464 150.519 18.133 150.866 18.4797C151.239 18.7997 151.719 19.093 152.306 19.3597C152.919 19.6264 153.599 19.9064 154.346 20.1997C155.359 20.5997 156.293 21.0397 157.146 21.5197C157.999 21.9997 158.679 22.5864 159.186 23.2797C159.719 23.9731 159.986 24.8797 159.986 25.9997C159.986 27.7331 159.386 29.1331 158.186 30.1998C157.013 31.2398 155.413 31.7598 153.386 31.7598C152.133 31.7598 150.972 31.5731 149.906 31.1998C148.866 30.7998 147.946 30.2931 147.146 29.6798C146.372 29.0398 145.719 28.3731 145.186 27.6798L147.706 25.1597Z" fill="#101010"/>
</svg>
