<svg width="151" height="120" viewBox="0 0 151 120" fill="none" xmlns="http://www.w3.org/2000/svg">
<path d="M96.8969 92.1418C102.395 84.2344 100.492 76.3269 96.0589 69.0217C93.002 63.9803 90.9433 58.9128 90.6485 53.0822L90.3898 53.3989C94.502 46.6129 95.5727 39.5933 89.6036 33.5913C82.9207 26.8676 71.686 27.1064 62.0547 33.3161C65.241 23.6278 73.3205 18.0671 84.8087 19.1367C94.1192 20.0037 102.866 22.6517 102.576 35.0606C102.54 36.5923 103.782 39.261 104.909 39.5517C123.432 44.3855 124.777 60.4652 127.192 74.9926C128.899 85.2312 127.813 95.9164 128.361 106.384C128.692 112.682 125.615 115.049 120.023 114.613C105.385 113.476 90.695 118.6 75.8602 112.199C70.0411 109.686 61.7496 112.832 54.6011 113.595C51.0993 113.969 47.5717 115.35 44.1216 111.83C63.4823 108.621 46.9148 96.0255 51.1614 87.5988C53.1839 99.0628 59.8719 101.576 69.5446 98.31C70.5532 97.9673 71.8308 97.4896 72.705 97.8167C82.2172 101.399 90.7157 101.093 97.1555 91.9134C102.607 94.8261 107.418 95.0234 107.92 87.4067C108.494 78.6997 108.054 69.9251 108.054 58.0561C102.333 68.4039 102.768 76.763 102.023 84.8263C101.692 88.388 102.592 92.4949 96.9021 92.1418H96.8969Z" fill="#F2F2F3"/>
<path d="M39.358 54.8167C38.9287 58.9599 40.0822 62.8591 42.6167 65.8861C47.9238 72.2255 47.5151 80.3718 43.1236 84.702C35.7218 92.002 36.8442 100.024 36.7976 108.398C36.7718 112.864 36.9735 117.479 31.8631 119.281C27.1095 120.953 22.7387 119.592 18.7765 116.41C6.63663 106.654 1.79516 93.0871 0.429608 78.43C-4.39636 26.6187 31.9148 -5.35381 85.2694 0.741636C140.041 7.00323 162.557 60.7044 145.147 105.538C143.517 109.733 141.112 112.973 137.388 115.086C135.122 114.177 135.753 112.822 136.41 111.566C154.354 77.0489 146.119 41.3849 114.536 16.9096C88.9781 -2.89798 47.6444 0.030327 21.8697 23.4724C-0.170414 43.5188 -2.00148 88.3208 18.4972 109.629C21.399 112.646 24.637 116.898 29.4475 114.982C33.9165 113.201 32.8562 108.279 32.851 104.39C32.8407 97.3861 32.6596 91.4101 27.3681 84.7591C20.6749 76.348 19.0145 64.749 26.0957 54.3234C27.2854 52.5685 28.5785 51.2393 28.894 48.7887C30.482 36.4628 33.5493 34.4379 46.4185 36.4213C33.1148 46.0214 32.7424 47.0546 39.6477 55.1282L39.358 54.8322V54.8167Z" fill="#F2F2F3"/>
<path d="M90.6489 53.0826C85.6419 52.4648 84.8454 55.3256 84.8143 59.5415C84.7781 64.7647 81.0746 65.855 76.6469 65.8031C71.8261 65.7408 69.3485 63.3628 69.1519 58.581C69.1105 57.5114 69.1778 56.4055 69.395 55.3619C70.5123 50.0712 61.5845 46.4524 66.7053 40.7308C71.7071 35.1389 75.99 43.2593 81.478 41.8886C91.28 39.4431 92.2524 45.7203 90.3903 53.3889C90.38 53.3993 90.6386 53.0878 90.6386 53.0878L90.6489 53.0826Z" fill="#F2F2F3"/>
<path d="M39.6427 55.1172C35.6547 46.6282 44.9342 48.7362 47.4791 45.4548C48.8602 43.6739 51.6585 45.1173 51.4309 46.732C50.8361 50.9428 54.1051 55.8596 51.0585 59.0995C44.7739 65.7816 44.0239 54.328 39.3479 54.816C39.3582 54.8212 39.6479 55.1224 39.6479 55.1224L39.6427 55.1172Z" fill="#F2F2F3"/>
</svg>
