<svg width="319" height="80" viewBox="0 0 319 80" fill="none" xmlns="http://www.w3.org/2000/svg">
<path d="M98.9738 38.2078C97.1777 37.9802 96.8919 39.0341 96.8808 40.5872C96.8678 42.5114 95.5392 42.913 93.9509 42.8939C92.2215 42.871 91.3327 41.9949 91.2622 40.2333C91.2474 39.8393 91.2715 39.4319 91.3494 39.0475C91.7502 37.0984 88.5476 35.7653 90.3846 33.6575C92.1789 31.5975 93.7152 34.589 95.684 34.084C99.2002 33.1831 99.5491 35.4956 98.8811 38.3206C98.8774 38.3245 98.9701 38.2097 98.9701 38.2097L98.9738 38.2078Z" fill="#101010"/>
<path d="M80.1992 38.5087C78.7499 34.9958 82.1222 35.8681 83.0471 34.5102C83.549 33.7732 84.5659 34.3705 84.4832 35.0388C84.2671 36.7813 85.4551 38.816 84.3479 40.1567C82.0639 42.9219 81.7914 38.1821 80.092 38.3841C80.0958 38.3863 80.2011 38.5109 80.2011 38.5109L80.1992 38.5087Z" fill="#101010"/>
<path d="M101.772 53.1646C103.927 50.1005 103.181 47.0364 101.444 44.2056C100.245 42.252 99.4387 40.2884 99.3231 38.029L99.2217 38.1517C100.833 35.5222 101.253 32.8021 98.9136 30.4763C96.2945 27.8709 91.8914 27.9634 88.1167 30.3697C89.3655 26.6154 92.532 24.4607 97.0344 24.8751C100.683 25.2111 104.111 26.2372 103.998 31.0457C103.984 31.6392 104.47 32.6733 104.912 32.786C112.172 34.6591 112.699 40.89 113.645 46.5193C114.314 50.4868 113.889 54.6273 114.103 58.6833C114.233 61.1238 113.027 62.0412 110.836 61.8722C105.099 61.4316 99.3414 63.4173 93.5273 60.9367C91.2467 59.9629 87.9971 61.1821 85.1955 61.4779C83.8231 61.6227 82.4405 62.1579 81.0884 60.7938C88.6762 59.5505 82.1831 54.6695 83.8474 51.4042C84.64 55.8465 87.2612 56.8203 91.0521 55.5548C91.4474 55.422 91.9481 55.2369 92.2907 55.3637C96.0188 56.7519 99.3495 56.6332 101.873 53.0761C104.01 54.2048 105.895 54.2812 106.092 51.3298C106.317 47.9558 106.145 44.5557 106.145 39.9564C103.903 43.9662 104.073 47.2054 103.781 50.3299C103.651 51.71 104.004 53.3014 101.774 53.1646H101.772Z" fill="#101010"/>
<path d="M79.5392 38.6951C79.3726 40.3086 79.8202 41.8271 80.8038 43.006C82.8635 45.4748 82.7049 48.6473 81.0006 50.3336C78.128 53.1766 78.5636 56.3005 78.5455 59.562C78.5355 61.3009 78.6138 63.0985 76.6304 63.8001C74.7856 64.4512 73.0893 63.9214 71.5517 62.6819C66.8403 58.8826 64.9613 53.5992 64.4314 47.8911C62.5585 27.7136 76.6505 15.2622 97.357 17.6361C118.613 20.0746 127.352 40.988 120.595 58.4479C119.962 60.0817 119.029 61.3434 117.584 62.1663C116.704 61.8125 116.949 61.2847 117.204 60.7954C124.168 47.3532 120.972 33.4642 108.715 23.9325C98.7963 16.2186 82.7551 17.359 72.7521 26.4883C64.1985 34.2952 63.4879 51.743 71.4433 60.0412C72.5694 61.216 73.8261 62.872 75.693 62.1259C77.4274 61.4323 77.0159 59.5155 77.0138 58.001C77.0098 55.2734 76.9396 52.9461 74.886 50.3559C72.2884 47.0803 71.644 42.5631 74.3922 38.503C74.8539 37.8196 75.3557 37.3019 75.4782 36.3475C76.0945 31.5473 77.2848 30.7588 82.2793 31.5312C77.1162 35.2698 76.9717 35.6722 79.6516 38.8164L79.5392 38.7011V38.6951Z" fill="#101010"/>
<path d="M13.5588 26.988L9.73041 60.9646H0L7.65672 2.3429L30.5471 40.2277L53.5173 2.3429L61.174 60.9646H51.4436L47.5355 26.988L30.5471 55.7804L13.5588 26.988Z" fill="#101010"/>
<path d="M151.948 39.8787C151.948 37.167 151.39 35.1199 150.273 33.7374C149.157 32.3549 147.428 31.6637 145.089 31.6637C143.494 31.6637 142.085 32.0093 140.862 32.7005C139.639 33.3386 138.682 34.2957 137.99 35.5718C137.299 36.7948 136.954 38.2304 136.954 39.8787V62.2108H128.34V25.5224H136.954V31.1851C138.123 29.0051 139.612 27.3834 141.42 26.3199C143.281 25.2565 145.488 24.7248 148.04 24.7248C152.187 24.7248 155.351 26.0009 157.531 28.5532C159.711 31.0522 160.801 34.5084 160.801 38.9216V62.2108H151.948V39.8787Z" fill="#101010"/>
<path d="M171.638 0H180.092V62.2108H171.638V0ZM193.571 25.5224H204.099L188.307 40.6763L205.695 62.2108H195.246L177.7 40.6763L193.571 25.5224Z" fill="#101010"/>
<path d="M227.787 63.0084C224.065 63.0084 220.769 62.2108 217.898 60.6157C215.079 59.0205 212.899 56.7873 211.357 53.916C209.815 51.0448 209.044 47.6949 209.044 43.8666C209.044 39.9851 209.815 36.6087 211.357 33.7374C212.953 30.8661 215.186 28.6595 218.057 27.1175C220.928 25.5224 224.305 24.7248 228.186 24.7248C232.068 24.7248 235.364 25.4692 238.076 26.958C240.788 28.4468 242.862 30.6003 244.297 33.4184C245.786 36.1833 246.53 39.5331 246.53 43.4678C246.53 43.8932 246.504 44.3451 246.451 44.8237C246.451 45.3022 246.424 45.6478 246.371 45.8605H214.149V39.9585H239.033L236.401 43.6273C236.561 43.3083 236.72 42.8829 236.88 42.3512C237.092 41.7663 237.199 41.2878 237.199 40.9156C237.199 38.9482 236.8 37.2467 236.002 35.8111C235.258 34.3754 234.195 33.2588 232.812 32.4613C231.483 31.6637 229.914 31.2649 228.106 31.2649C225.926 31.2649 224.065 31.7435 222.523 32.7005C220.981 33.6576 219.812 35.0401 219.014 36.8479C218.217 38.6558 217.791 40.889 217.738 43.5476C217.738 46.2061 218.137 48.4659 218.934 50.3269C219.732 52.1348 220.902 53.5172 222.444 54.4743C224.039 55.4314 225.953 55.91 228.186 55.91C230.526 55.91 232.573 55.4314 234.328 54.4743C236.082 53.5172 237.544 52.055 238.714 50.0877L246.132 53.1185C244.217 56.4151 241.745 58.8876 238.714 60.5359C235.683 62.1842 232.041 63.0084 227.787 63.0084Z" fill="#101010"/>
<path d="M287.291 25.5223L263.364 79.7574H254.192L263.763 57.9039L249.008 25.5223H258.898L270.622 54.5541L266.554 54.3148L278.04 25.5223H287.291Z" fill="#101010"/>
<path d="M294.514 50.1674C295.684 51.4435 296.854 52.5602 298.024 53.5172C299.247 54.4212 300.47 55.1124 301.693 55.5909C302.916 56.0163 304.139 56.229 305.361 56.229C306.903 56.229 308.1 55.8834 308.951 55.1922C309.854 54.5009 310.306 53.5438 310.306 52.3209C310.306 51.2574 309.961 50.3535 309.27 49.6091C308.578 48.8116 307.621 48.1469 306.398 47.6152C305.175 47.0303 303.74 46.4454 302.091 45.8605C300.443 45.2225 298.795 44.4781 297.146 43.6273C295.551 42.7234 294.222 41.5536 293.159 40.118C292.148 38.6824 291.643 36.8745 291.643 34.6945C291.643 32.4613 292.201 30.6003 293.318 29.1115C294.488 27.6226 296.03 26.5326 297.944 25.8414C299.911 25.097 302.012 24.7248 304.245 24.7248C306.265 24.7248 308.153 25.0172 309.908 25.6021C311.715 26.187 313.337 26.958 314.773 27.9151C316.208 28.8722 317.431 29.9622 318.442 31.1851L313.656 36.2896C312.433 34.854 310.971 33.6842 309.27 32.7803C307.568 31.8764 305.813 31.4244 304.006 31.4244C302.783 31.4244 301.772 31.6903 300.975 32.222C300.177 32.7537 299.778 33.5247 299.778 34.535C299.778 35.3857 300.124 36.1567 300.815 36.8479C301.56 37.486 302.517 38.0709 303.687 38.6026C304.91 39.1343 306.265 39.6926 307.754 40.2775C309.775 41.0751 311.636 41.9524 313.337 42.9095C315.039 43.8666 316.395 45.0364 317.405 46.4188C318.468 47.8013 319 49.6091 319 51.8423C319 55.2985 317.804 58.09 315.411 60.2169C313.071 62.2906 309.881 63.3274 305.84 63.3274C303.341 63.3274 301.028 62.9552 298.901 62.2108C296.827 61.4132 294.993 60.403 293.398 59.18C291.856 57.9039 290.553 56.5746 289.49 55.1922L294.514 50.1674Z" fill="#101010"/>
</svg>
