<svg width="300" height="300" viewBox="0 0 300 300" fill="none" xmlns="http://www.w3.org/2000/svg">
<circle cx="150" cy="150" r="124" stroke="#4F4F4F" stroke-opacity="0.25" stroke-width="2" stroke-dasharray="4 8"/>
<circle cx="150" cy="150" r="149" stroke="#4F4F4F" stroke-opacity="0.25" stroke-width="2" stroke-dasharray="4 8"/>
<circle cx="150" cy="150" r="99" stroke="#4F4F4F" stroke-opacity="0.25" stroke-width="2" stroke-dasharray="4 8"/>
<circle cx="150" cy="150" r="74" stroke="#4F4F4F" stroke-opacity="0.25" stroke-width="2" stroke-dasharray="4 8"/>
<circle cx="150" cy="150" r="49" stroke="#4F4F4F" stroke-opacity="0.25" stroke-width="2" stroke-dasharray="4 8"/>
<g clip-path="url(#clip0_163_8540)">
<path d="M245.186 135.061L248.514 136.983C246.528 141.384 246.319 146.382 247.931 150.933C246.8 151.145 245.651 151.251 244.5 151.25C241.843 151.254 239.216 150.692 236.794 149.6L245.186 135.061V135.061ZM251.781 138.871L259.719 143.454C257.651 146.324 254.816 148.553 251.539 149.885C250.291 146.515 250.296 142.808 251.554 139.441L251.781 138.871V138.871ZM238.612 131.266L241.941 133.186L233.548 147.718C230.444 145.482 228.095 142.352 226.817 138.746C231.347 137.909 235.41 135.43 238.226 131.784L238.612 131.266V131.266ZM263.074 129.905C263.192 130.754 263.252 131.621 263.252 132.5C263.256 135.157 262.694 137.784 261.602 140.206L253.659 135.622C255.896 132.67 259.146 130.652 262.783 129.958L263.074 129.905V129.905ZM227.402 124.796L235.343 129.38C233.044 132.413 229.679 134.457 225.928 135.099C225.809 134.238 225.75 133.369 225.75 132.5C225.75 129.753 226.341 127.145 227.4 124.794L227.402 124.796ZM255.454 117.281C258.558 119.517 260.906 122.647 262.185 126.253C257.654 127.091 253.591 129.571 250.774 133.218L250.389 133.736L247.061 131.814L255.454 117.283V117.281ZM244.5 113.75C247.247 113.75 249.855 114.341 252.206 115.4L243.814 129.939L240.486 128.019C242.473 123.617 242.682 118.617 241.069 114.065C242.2 113.854 243.349 113.749 244.5 113.75V113.75ZM237.463 115.119C238.709 118.49 238.703 122.196 237.444 125.563L237.219 126.131L229.281 121.546C231.269 118.788 233.967 116.62 237.088 115.273L237.463 115.117V115.119Z" fill="#FF462E"/>
</g>
<g clip-path="url(#clip1_163_8540)">
<path d="M29.5 230.25C19.1444 230.25 10.75 221.856 10.75 211.5C10.75 201.144 19.1444 192.75 29.5 192.75C39.8556 192.75 48.25 201.144 48.25 211.5C48.25 221.856 39.8556 230.25 29.5 230.25ZM22.9375 215.25V219H27.625V222.75H31.375V219H33.25C34.4932 219 35.6855 218.506 36.5646 217.627C37.4436 216.748 37.9375 215.556 37.9375 214.312C37.9375 213.069 37.4436 211.877 36.5646 210.998C35.6855 210.119 34.4932 209.625 33.25 209.625H25.75C25.5014 209.625 25.2629 209.526 25.0871 209.35C24.9113 209.175 24.8125 208.936 24.8125 208.688C24.8125 208.439 24.9113 208.2 25.0871 208.025C25.2629 207.849 25.5014 207.75 25.75 207.75H36.0625V204H31.375V200.25H27.625V204H25.75C24.5068 204 23.3145 204.494 22.4354 205.373C21.5564 206.252 21.0625 207.444 21.0625 208.688C21.0625 209.931 21.5564 211.123 22.4354 212.002C23.3145 212.881 24.5068 213.375 25.75 213.375H33.25C33.4986 213.375 33.7371 213.474 33.9129 213.65C34.0887 213.825 34.1875 214.064 34.1875 214.312C34.1875 214.561 34.0887 214.8 33.9129 214.975C33.7371 215.151 33.4986 215.25 33.25 215.25H22.9375Z" fill="#FF462E"/>
</g>
<g clip-path="url(#clip2_163_8540)">
<path d="M33 107.625V111.375H29.25V118.875C29.25 123.019 32.6062 126.375 36.75 126.375C40.8938 126.375 44.25 123.019 44.25 118.875V111.375H40.5V107.625H46.125C47.16 107.625 48 108.465 48 109.5V118.875C48 124.449 43.9463 129.075 38.625 129.969V132.938C38.625 136.562 41.5631 139.5 45.1875 139.5C47.9944 139.5 50.3906 137.737 51.3281 135.257C49.365 134.381 48 132.413 48 130.125C48 127.018 50.5181 124.5 53.625 124.5C56.7319 124.5 59.25 127.018 59.25 130.125C59.25 132.696 57.525 134.863 55.17 135.534C54.0187 139.973 49.9856 143.25 45.1875 143.25C39.4912 143.25 34.875 138.634 34.875 132.938V129.969C29.5537 129.077 25.5 124.449 25.5 118.875V109.5C25.5 108.465 26.34 107.625 27.375 107.625H33Z" fill="#FF462E"/>
</g>
<g clip-path="url(#clip3_163_8540)">
<path d="M68.5 22.5H74.125C75.1196 22.5 76.0734 22.8951 76.7766 23.5984C77.4799 24.3016 77.875 25.2554 77.875 26.25V35.625C77.875 36.6196 77.4799 37.5734 76.7766 38.2766C76.0734 38.9799 75.1196 39.375 74.125 39.375H68.5C67.5054 39.375 66.5516 38.9799 65.8483 38.2766C65.1451 37.5734 64.75 36.6196 64.75 35.625V22.5C64.75 12.1444 73.1444 3.75 83.5 3.75C93.8556 3.75 102.25 12.1444 102.25 22.5V35.625C102.25 36.6196 101.855 37.5734 101.152 38.2766C100.448 38.9799 99.4946 39.375 98.5 39.375H92.875C91.8804 39.375 90.9266 38.9799 90.2234 38.2766C89.5201 37.5734 89.125 36.6196 89.125 35.625V26.25C89.125 25.2554 89.5201 24.3016 90.2234 23.5984C90.9266 22.8951 91.8804 22.5 92.875 22.5H98.5C98.5 18.5218 96.9196 14.7064 94.1066 11.8934C91.2936 9.08035 87.4782 7.5 83.5 7.5C79.5218 7.5 75.7064 9.08035 72.8934 11.8934C70.0804 14.7064 68.5 18.5218 68.5 22.5V22.5Z" fill="#FF462E"/>
</g>
<path d="M136.486 241.816L136.479 244.212L145.846 247.365L152.662 245.114L153.839 248.672L148.149 250.553L153.911 266.528C151.858 268.655 148.973 269.974 145.785 269.966C142.596 269.957 139.719 268.622 137.678 266.484L143.522 250.54L136.469 248.166L136.4 273.69L143.9 273.711L143.89 277.461L125.14 277.41L125.15 273.66L132.65 273.68L132.719 248.156L125.648 250.492L131.41 266.468C129.358 268.594 126.473 269.914 123.285 269.905C120.096 269.896 117.219 268.561 115.178 266.424L121.022 250.48L115.346 248.57L116.542 245.015L123.346 247.302L132.729 244.202L132.736 241.805L136.486 241.816ZM145.825 255.159L143.147 262.459L148.462 262.473L145.825 255.159ZM123.325 255.098L120.647 262.398L125.962 262.412L123.325 255.098Z" fill="#FF462E"/>
<g clip-path="url(#clip4_163_8540)">
<path d="M284.375 207.625V211.375C284.375 229.426 274.301 237.625 261.875 237.625H258.309C258.706 231.977 260.465 228.559 265.055 224.498C267.313 222.501 267.121 221.348 266.009 222.01C258.352 226.566 254.549 232.724 254.381 242.556L254.375 243.25H250.625C250.625 240.694 250.842 238.375 251.274 236.252C250.842 233.826 250.625 230.534 250.625 226.375C250.625 216.019 259.019 207.625 269.375 207.625C273.125 207.625 276.875 209.5 284.375 207.625Z" fill="#FF462E"/>
</g>
<g clip-path="url(#clip5_163_8540)">
<path d="M227.5 8.75C237.854 8.75 246.25 16.2088 246.25 25.4169C246.249 28.1791 245.15 30.8278 243.197 32.7809C241.244 34.7339 238.595 35.8315 235.833 35.8325H232.146C230.417 35.8325 229.021 37.2294 229.021 38.9581C229.021 39.7494 229.334 40.4788 229.812 41.0206C230.312 41.5831 230.626 42.3125 230.626 43.1244C230.626 44.855 229.187 46.25 227.5 46.25C217.146 46.25 208.75 37.8537 208.75 27.5C208.75 17.1463 217.146 8.75 227.5 8.75ZM219.062 27.5C219.808 27.5 220.524 27.2037 221.051 26.6762C221.579 26.1488 221.875 25.4334 221.875 24.6875C221.875 23.9416 221.579 23.2262 221.051 22.6988C220.524 22.1713 219.808 21.875 219.062 21.875C218.317 21.875 217.601 22.1713 217.074 22.6988C216.546 23.2262 216.25 23.9416 216.25 24.6875C216.25 25.4334 216.546 26.1488 217.074 26.6762C217.601 27.2037 218.317 27.5 219.062 27.5V27.5ZM235.938 27.5C236.683 27.5 237.399 27.2037 237.926 26.6762C238.454 26.1488 238.75 25.4334 238.75 24.6875C238.75 23.9416 238.454 23.2262 237.926 22.6988C237.399 22.1713 236.683 21.875 235.938 21.875C235.192 21.875 234.476 22.1713 233.949 22.6988C233.421 23.2262 233.125 23.9416 233.125 24.6875C233.125 25.4334 233.421 26.1488 233.949 26.6762C234.476 27.2037 235.192 27.5 235.938 27.5ZM227.5 21.875C228.246 21.875 228.961 21.5787 229.489 21.0512C230.016 20.5238 230.312 19.8084 230.312 19.0625C230.312 18.3166 230.016 17.6012 229.489 17.0738C228.961 16.5463 228.246 16.25 227.5 16.25C226.754 16.25 226.039 16.5463 225.511 17.0738C224.984 17.6012 224.688 18.3166 224.688 19.0625C224.688 19.8084 224.984 20.5238 225.511 21.0512C226.039 21.5787 226.754 21.875 227.5 21.875Z" fill="#FF462E"/>
</g>
<g clip-path="url(#clip6_163_8540)">
<path d="M173.75 183.375L186.875 177.75L198.125 183.375L209.943 178.311C210.086 178.249 210.241 178.225 210.396 178.239C210.551 178.252 210.699 178.304 210.829 178.39C210.958 178.475 211.065 178.592 211.138 178.728C211.212 178.865 211.25 179.018 211.25 179.173V209.625L198.125 215.25L186.875 209.625L175.057 214.689C174.914 214.751 174.759 214.775 174.604 214.761C174.449 214.748 174.301 214.696 174.171 214.61C174.042 214.525 173.935 214.408 173.862 214.272C173.788 214.135 173.75 213.982 173.75 213.827V183.375ZM181.25 194.625V198.375H185V194.625H181.25ZM188.75 194.625V198.375H192.5V194.625H188.75ZM200 194.512L197.681 192.191L195.691 194.179L198.011 196.5L195.691 198.819L197.679 200.809L200 198.489L202.319 200.809L204.309 198.821L201.989 196.5L204.309 194.181L202.321 192.191L200 194.511V194.512Z" fill="#FF462E"/>
</g>
<g clip-path="url(#clip7_163_8540)">
<path d="M176 89.5L165.393 100.107L162.742 97.4556L170.698 89.5L162.742 81.5444L165.393 78.8931L176 89.5ZM136.303 89.5L144.258 97.4556L141.607 100.107L131 89.5L141.607 78.8931L144.256 81.5444L136.303 89.5ZM149.353 106.375H145.362L157.647 72.625H161.638L149.353 106.375Z" fill="#FF462E"/>
</g>
<defs>
<clipPath id="clip0_163_8540">
<rect width="45" height="45" fill="white" transform="translate(222 110)"/>
</clipPath>
<clipPath id="clip1_163_8540">
<rect width="45" height="45" fill="white" transform="translate(7 189)"/>
</clipPath>
<clipPath id="clip2_163_8540">
<rect width="45" height="45" fill="white" transform="translate(18 102)"/>
</clipPath>
<clipPath id="clip3_163_8540">
<rect width="45" height="45" fill="white" transform="translate(61)"/>
</clipPath>
<clipPath id="clip4_163_8540">
<rect width="45" height="45" fill="white" transform="translate(245 202)"/>
</clipPath>
<clipPath id="clip5_163_8540">
<rect width="45" height="45" fill="white" transform="translate(205 5)"/>
</clipPath>
<clipPath id="clip6_163_8540">
<rect width="45" height="45" fill="white" transform="translate(170 174)"/>
</clipPath>
<clipPath id="clip7_163_8540">
<rect width="45" height="45" fill="white" transform="translate(131 67)"/>
</clipPath>
</defs>
</svg>
