<svg width="668" height="387" viewBox="0 0 668 387" fill="none" xmlns="http://www.w3.org/2000/svg">
<g clip-path="url(#clip0_1504_1370)">
<rect x="401" y="120" width="458" height="328" rx="28" fill="#4F4F4F" fill-opacity="0.15"/>
<rect x="403" y="122" width="454" height="324" rx="26" stroke="#4F4F4F" stroke-opacity="0.15" stroke-width="4"/>
<path d="M45.8046 282.768C47.5326 282.768 49.0046 283.067 50.2206 283.664C51.458 284.24 52.3966 285.072 53.0366 286.16C53.698 287.248 54.0286 288.571 54.0286 290.128C54.0286 291.045 53.89 291.952 53.6126 292.848C53.3353 293.744 52.8873 294.565 52.2686 295.312C51.6713 296.037 50.8713 296.624 49.8686 297.072C48.866 297.499 47.65 297.712 46.2206 297.712H42.8286V306H39.4046V282.768H45.8046ZM46.2206 294.416C47.074 294.416 47.7886 294.277 48.3646 294C48.9406 293.701 49.3886 293.328 49.7086 292.88C50.05 292.432 50.2846 291.973 50.4126 291.504C50.562 291.013 50.6366 290.576 50.6366 290.192C50.6366 289.765 50.562 289.317 50.4126 288.848C50.2846 288.357 50.0606 287.909 49.7406 287.504C49.4206 287.077 48.9833 286.736 48.4286 286.48C47.874 286.203 47.1806 286.064 46.3486 286.064H42.8286V294.416H46.2206ZM62.2379 306.544C61.0005 306.544 59.9872 306.171 59.1979 305.424C58.4085 304.677 57.9925 303.717 57.9499 302.544V292.592H61.2459V301.36C61.2885 302.043 61.4805 302.608 61.8219 303.056C62.1845 303.483 62.7605 303.707 63.5499 303.728C64.2752 303.728 64.9152 303.515 65.4699 303.088C66.0459 302.64 66.4939 302.043 66.8139 301.296C67.1552 300.528 67.3259 299.653 67.3259 298.672V292.592H70.6219V306H67.6459L67.3899 302.896L67.5179 303.408C67.2405 304.005 66.8459 304.549 66.3339 305.04C65.8219 305.509 65.2139 305.872 64.5099 306.128C63.8059 306.405 63.0485 306.544 62.2379 306.544ZM83.9886 306.32C82.7726 306.32 81.706 306.075 80.7886 305.584C79.8926 305.072 79.1673 304.432 78.6126 303.664L78.9646 302.736V306H75.6686V281.136H78.9326V295.504L78.8686 294.32C79.3806 293.637 80.1273 293.083 81.1086 292.656C82.09 292.229 83.1886 292.016 84.4046 292.016C85.5993 292.016 86.6873 292.304 87.6686 292.88C88.6713 293.456 89.4606 294.277 90.0366 295.344C90.634 296.389 90.9326 297.637 90.9326 299.088C90.9326 300.581 90.6126 301.872 89.9726 302.96C89.3326 304.048 88.4793 304.88 87.4126 305.456C86.3673 306.032 85.226 306.32 83.9886 306.32ZM83.2846 303.536C84.0953 303.536 84.8206 303.344 85.4606 302.96C86.122 302.576 86.6446 302.043 87.0286 301.36C87.4126 300.677 87.6046 299.909 87.6046 299.056C87.6046 298.224 87.4126 297.477 87.0286 296.816C86.6446 296.155 86.122 295.632 85.4606 295.248C84.8206 294.843 84.0953 294.64 83.2846 294.64C82.5806 294.64 81.93 294.768 81.3326 295.024C80.7353 295.28 80.234 295.632 79.8286 296.08C79.4233 296.528 79.1353 297.051 78.9646 297.648V300.496C79.1353 301.093 79.4233 301.627 79.8286 302.096C80.234 302.544 80.7246 302.896 81.3006 303.152C81.898 303.408 82.5593 303.536 83.2846 303.536ZM94.8249 281.136H98.1209V306H94.8249V281.136ZM103.137 292.592H106.433V306H103.137V292.592ZM102.945 287.792C102.945 287.28 103.148 286.853 103.553 286.512C103.959 286.171 104.396 286 104.865 286C105.356 286 105.793 286.171 106.177 286.512C106.561 286.853 106.753 287.28 106.753 287.792C106.753 288.304 106.561 288.731 106.177 289.072C105.793 289.392 105.356 289.552 104.865 289.552C104.396 289.552 103.959 289.392 103.553 289.072C103.148 288.731 102.945 288.304 102.945 287.792ZM115.354 306.288C114.373 306.288 113.423 306.117 112.506 305.776C111.589 305.413 110.831 304.891 110.234 304.208L111.642 302.352C112.218 302.885 112.794 303.291 113.37 303.568C113.967 303.824 114.533 303.952 115.066 303.952C115.493 303.952 115.877 303.909 116.218 303.824C116.559 303.717 116.837 303.547 117.05 303.312C117.263 303.077 117.37 302.768 117.37 302.384C117.37 301.936 117.221 301.584 116.922 301.328C116.623 301.072 116.239 300.859 115.77 300.688C115.301 300.517 114.799 300.357 114.266 300.208C113.135 299.845 112.282 299.333 111.706 298.672C111.13 297.989 110.842 297.189 110.842 296.272C110.842 295.568 111.013 294.907 111.354 294.288C111.717 293.648 112.261 293.125 112.986 292.72C113.711 292.315 114.607 292.112 115.674 292.112C116.655 292.112 117.519 292.229 118.266 292.464C119.013 292.677 119.706 293.051 120.346 293.584L119.066 295.568C118.682 295.184 118.223 294.896 117.69 294.704C117.178 294.491 116.709 294.373 116.282 294.352C115.898 294.352 115.546 294.416 115.226 294.544C114.906 294.651 114.65 294.821 114.458 295.056C114.266 295.269 114.17 295.525 114.17 295.824C114.149 296.251 114.287 296.603 114.586 296.88C114.906 297.136 115.311 297.349 115.802 297.52C116.293 297.669 116.773 297.829 117.242 298C117.903 298.192 118.49 298.459 119.002 298.8C119.514 299.12 119.919 299.515 120.218 299.984C120.517 300.453 120.666 301.051 120.666 301.776C120.666 302.565 120.474 303.312 120.09 304.016C119.706 304.699 119.119 305.253 118.33 305.68C117.541 306.085 116.549 306.288 115.354 306.288ZM124.731 306V281.136H127.931V295.632L127.899 295.088C128.347 294.213 129.03 293.488 129.947 292.912C130.864 292.336 131.963 292.048 133.243 292.048C134.502 292.048 135.536 292.421 136.347 293.168C137.179 293.915 137.606 294.885 137.627 296.08V306H134.331V297.232C134.31 296.549 134.107 295.995 133.723 295.568C133.339 295.12 132.742 294.885 131.931 294.864C131.206 294.864 130.544 295.088 129.947 295.536C129.35 295.963 128.88 296.56 128.539 297.328C128.198 298.075 128.027 298.928 128.027 299.888V306H124.731ZM148.973 306.32C147.415 306.32 146.082 306.021 144.973 305.424C143.863 304.805 143.01 303.963 142.413 302.896C141.815 301.808 141.517 300.571 141.517 299.184C141.517 297.861 141.847 296.667 142.509 295.6C143.191 294.512 144.098 293.648 145.229 293.008C146.381 292.368 147.65 292.048 149.037 292.048C150.829 292.048 152.311 292.571 153.485 293.616C154.679 294.661 155.479 296.123 155.885 298L144.973 301.776L144.205 299.856L152.941 296.72L152.269 297.136C152.013 296.475 151.607 295.899 151.053 295.408C150.498 294.896 149.741 294.64 148.781 294.64C148.013 294.64 147.319 294.832 146.701 295.216C146.103 295.579 145.623 296.091 145.261 296.752C144.919 297.392 144.749 298.149 144.749 299.024C144.749 299.92 144.93 300.709 145.293 301.392C145.677 302.053 146.189 302.576 146.829 302.96C147.49 303.344 148.226 303.536 149.037 303.536C149.613 303.536 150.157 303.429 150.669 303.216C151.202 303.003 151.703 302.736 152.173 302.416L153.677 304.848C152.973 305.296 152.205 305.659 151.373 305.936C150.562 306.192 149.762 306.32 148.973 306.32ZM165.016 306.32C163.757 306.32 162.626 306.032 161.624 305.456C160.621 304.859 159.832 304.016 159.256 302.928C158.68 301.84 158.392 300.571 158.392 299.12C158.392 297.627 158.701 296.357 159.32 295.312C159.938 294.245 160.77 293.435 161.816 292.88C162.882 292.304 164.077 292.016 165.4 292.016C166.424 292.016 167.394 292.229 168.312 292.656C169.25 293.061 169.976 293.637 170.488 294.384L170.392 295.504V281.136H173.656V306H170.36V302.832L170.712 303.696C170.05 304.443 169.24 305.072 168.28 305.584C167.32 306.075 166.232 306.32 165.016 306.32ZM166.04 303.536C166.786 303.536 167.448 303.408 168.024 303.152C168.6 302.896 169.09 302.533 169.496 302.064C169.901 301.573 170.189 301.008 170.36 300.368V297.68C170.21 297.083 169.922 296.56 169.496 296.112C169.09 295.643 168.589 295.28 167.992 295.024C167.394 294.768 166.744 294.64 166.04 294.64C165.25 294.64 164.525 294.832 163.864 295.216C163.224 295.579 162.701 296.091 162.296 296.752C161.912 297.413 161.72 298.181 161.72 299.056C161.72 299.888 161.912 300.645 162.296 301.328C162.701 302.011 163.234 302.555 163.896 302.96C164.557 303.344 165.272 303.536 166.04 303.536ZM194.487 306.352L186.903 292.592H190.807L195.735 302.96L193.719 302.864L198.199 292.592H201.879L194.615 306.352H194.487ZM202.806 301.008V300.976L215.798 284.656H215.83V298.384H218.518V301.008H215.83V306H212.406V301.008H202.806ZM212.598 292.304L207.798 298.544L207.318 298.384H212.406V291.792L212.598 292.304ZM220.632 304.176C220.632 303.664 220.813 303.237 221.176 302.896C221.56 302.533 221.987 302.352 222.456 302.352C222.883 302.352 223.277 302.533 223.64 302.896C224.024 303.237 224.216 303.664 224.216 304.176C224.216 304.731 224.024 305.179 223.64 305.52C223.277 305.84 222.883 306 222.456 306C221.987 306 221.56 305.84 221.176 305.52C220.813 305.179 220.632 304.731 220.632 304.176ZM240.022 284.912L231.702 306H227.862L235.254 287.728L236.406 288.176H226.134V284.912H240.022ZM241.788 304.176C241.788 303.664 241.969 303.237 242.332 302.896C242.716 302.533 243.143 302.352 243.612 302.352C244.039 302.352 244.433 302.533 244.796 302.896C245.18 303.237 245.372 303.664 245.372 304.176C245.372 304.731 245.18 305.179 244.796 305.52C244.433 305.84 244.039 306 243.612 306C243.143 306 242.716 305.84 242.332 305.52C241.969 305.179 241.788 304.731 241.788 304.176ZM247.898 284.912H253.594V306H250.17V288.208H247.898V284.912Z" fill="#FF462E"/>
<path d="M37.7872 200.784C37.7872 201.52 37.9712 202.184 38.3392 202.776C38.7072 203.368 39.1952 203.84 39.8032 204.192C40.4112 204.544 41.0912 204.72 41.8432 204.72C42.6432 204.72 43.3552 204.544 43.9792 204.192C44.6032 203.84 45.0912 203.368 45.4432 202.776C45.8112 202.184 45.9952 201.52 45.9952 200.784V189.576H48.5152V200.856C48.5152 202.12 48.2192 203.232 47.6272 204.192C47.0352 205.136 46.2352 205.872 45.2272 206.4C44.2192 206.928 43.0912 207.192 41.8432 207.192C40.6272 207.192 39.5152 206.928 38.5072 206.4C37.4992 205.872 36.6992 205.136 36.1072 204.192C35.5312 203.232 35.2432 202.12 35.2432 200.856V189.576H37.7872V200.784ZM58.627 207.24C57.891 207.24 57.187 207.08 56.515 206.76C55.843 206.424 55.307 205.976 54.907 205.416L55.051 204.672V211.824H52.603V196.776H54.739L55.075 199.224L54.811 198.528C55.307 197.952 55.915 197.472 56.635 197.088C57.371 196.704 58.187 196.512 59.083 196.512C60.027 196.512 60.875 196.736 61.627 197.184C62.379 197.632 62.971 198.264 63.403 199.08C63.835 199.896 64.051 200.856 64.051 201.96C64.051 203.048 63.811 203.992 63.331 204.792C62.867 205.576 62.227 206.184 61.411 206.616C60.595 207.032 59.667 207.24 58.627 207.24ZM58.147 205.296C58.755 205.296 59.315 205.152 59.827 204.864C60.355 204.576 60.771 204.184 61.075 203.688C61.395 203.176 61.555 202.608 61.555 201.984C61.555 201.328 61.403 200.752 61.099 200.256C60.811 199.744 60.419 199.344 59.923 199.056C59.443 198.768 58.907 198.624 58.315 198.624C57.755 198.624 57.259 198.728 56.827 198.936C56.395 199.128 56.027 199.4 55.723 199.752C55.419 200.104 55.203 200.528 55.075 201.024V202.872C55.171 203.336 55.363 203.752 55.651 204.12C55.939 204.488 56.299 204.776 56.731 204.984C57.163 205.192 57.635 205.296 58.147 205.296ZM71.0742 207.24C70.1302 207.24 69.2822 207.024 68.5302 206.592C67.7782 206.144 67.1862 205.512 66.7542 204.696C66.3222 203.88 66.1062 202.928 66.1062 201.84C66.1062 200.72 66.3382 199.768 66.8022 198.984C67.2662 198.184 67.8902 197.576 68.6742 197.16C69.4742 196.728 70.3702 196.512 71.3622 196.512C72.1302 196.512 72.8582 196.672 73.5462 196.992C74.2502 197.296 74.7942 197.728 75.1782 198.288L75.1062 199.128V188.352H77.5542V207H75.0822V204.624L75.3462 205.272C74.8502 205.832 74.2422 206.304 73.5222 206.688C72.8022 207.056 71.9862 207.24 71.0742 207.24ZM71.8422 205.152C72.4022 205.152 72.8982 205.056 73.3302 204.864C73.7622 204.672 74.1302 204.4 74.4342 204.048C74.7382 203.68 74.9542 203.256 75.0822 202.776V200.76C74.9702 200.312 74.7542 199.92 74.4342 199.584C74.1302 199.232 73.7542 198.96 73.3062 198.768C72.8582 198.576 72.3702 198.48 71.8422 198.48C71.2502 198.48 70.7062 198.624 70.2102 198.912C69.7302 199.184 69.3382 199.568 69.0342 200.064C68.7462 200.56 68.6022 201.136 68.6022 201.792C68.6022 202.416 68.7462 202.984 69.0342 203.496C69.3382 204.008 69.7382 204.416 70.2342 204.72C70.7302 205.008 71.2662 205.152 71.8422 205.152ZM85.5374 207.24C84.5934 207.24 83.7374 207.048 82.9694 206.664C82.2014 206.264 81.5934 205.672 81.1454 204.888C80.6974 204.104 80.4734 203.136 80.4734 201.984C80.4734 200.848 80.7054 199.872 81.1694 199.056C81.6494 198.24 82.2734 197.616 83.0414 197.184C83.8254 196.736 84.6734 196.512 85.5854 196.512C86.5454 196.512 87.3294 196.72 87.9374 197.136C88.5614 197.536 89.0494 198.008 89.4014 198.552L89.2334 198.936L89.4734 196.944H91.7534V207H89.2814V204.48L89.5454 205.08C89.4814 205.208 89.3454 205.392 89.1374 205.632C88.9294 205.856 88.6494 206.096 88.2974 206.352C87.9614 206.608 87.5614 206.824 87.0974 207C86.6494 207.16 86.1294 207.24 85.5374 207.24ZM86.2094 205.224C86.7374 205.224 87.2094 205.128 87.6254 204.936C88.0414 204.744 88.3934 204.472 88.6814 204.12C88.9694 203.768 89.1694 203.352 89.2814 202.872V200.784C89.1534 200.336 88.9374 199.952 88.6334 199.632C88.3294 199.296 87.9614 199.032 87.5294 198.84C87.1134 198.648 86.6494 198.552 86.1374 198.552C85.5614 198.552 85.0334 198.696 84.5534 198.984C84.0734 199.256 83.6894 199.64 83.4014 200.136C83.1134 200.632 82.9694 201.208 82.9694 201.864C82.9694 202.488 83.1134 203.056 83.4014 203.568C83.7054 204.08 84.1054 204.488 84.6014 204.792C85.0974 205.08 85.6334 205.224 86.2094 205.224ZM96.5005 192.528H98.9725V196.968H101.661V198.912H98.9725V207H96.5005V198.912H94.7245V196.968H96.5005V192.528ZM109.058 207.24C107.89 207.24 106.89 207.016 106.058 206.568C105.226 206.104 104.586 205.472 104.138 204.672C103.69 203.856 103.466 202.928 103.466 201.888C103.466 200.896 103.714 200 104.21 199.2C104.722 198.384 105.402 197.736 106.25 197.256C107.114 196.776 108.066 196.536 109.106 196.536C110.45 196.536 111.562 196.928 112.442 197.712C113.338 198.496 113.938 199.592 114.242 201L106.058 203.832L105.482 202.392L112.034 200.04L111.53 200.352C111.338 199.856 111.034 199.424 110.618 199.056C110.202 198.672 109.634 198.48 108.914 198.48C108.338 198.48 107.818 198.624 107.354 198.912C106.906 199.184 106.546 199.568 106.274 200.064C106.018 200.544 105.89 201.112 105.89 201.768C105.89 202.44 106.026 203.032 106.298 203.544C106.586 204.04 106.97 204.432 107.45 204.72C107.946 205.008 108.498 205.152 109.106 205.152C109.538 205.152 109.946 205.072 110.33 204.912C110.73 204.752 111.106 204.552 111.458 204.312L112.586 206.136C112.058 206.472 111.482 206.744 110.858 206.952C110.25 207.144 109.65 207.24 109.058 207.24ZM121.09 207.24C120.146 207.24 119.298 207.024 118.546 206.592C117.794 206.144 117.202 205.512 116.77 204.696C116.338 203.88 116.122 202.928 116.122 201.84C116.122 200.72 116.354 199.768 116.818 198.984C117.282 198.184 117.906 197.576 118.69 197.16C119.49 196.728 120.386 196.512 121.378 196.512C122.146 196.512 122.874 196.672 123.562 196.992C124.266 197.296 124.81 197.728 125.194 198.288L125.122 199.128V188.352H127.57V207H125.098V204.624L125.362 205.272C124.866 205.832 124.258 206.304 123.538 206.688C122.818 207.056 122.002 207.24 121.09 207.24ZM121.858 205.152C122.418 205.152 122.914 205.056 123.346 204.864C123.778 204.672 124.146 204.4 124.45 204.048C124.754 203.68 124.97 203.256 125.098 202.776V200.76C124.986 200.312 124.77 199.92 124.45 199.584C124.146 199.232 123.77 198.96 123.322 198.768C122.874 198.576 122.386 198.48 121.858 198.48C121.266 198.48 120.722 198.624 120.226 198.912C119.746 199.184 119.354 199.568 119.05 200.064C118.762 200.56 118.618 201.136 118.618 201.792C118.618 202.416 118.762 202.984 119.05 203.496C119.354 204.008 119.754 204.416 120.25 204.72C120.746 205.008 121.282 205.152 121.858 205.152ZM143.194 207.264L137.506 196.944H140.434L144.13 204.72L142.618 204.648L145.978 196.944H148.738L143.29 207.264H143.194ZM159.729 191.184L155.625 198L154.137 197.28C154.345 197.168 154.561 197.088 154.785 197.04C155.025 196.992 155.265 196.968 155.505 196.968C156.097 196.952 156.673 197.024 157.233 197.184C157.793 197.328 158.297 197.592 158.745 197.976C159.193 198.344 159.545 198.832 159.801 199.44C160.073 200.048 160.209 200.816 160.209 201.744C160.209 202.864 159.953 203.832 159.441 204.648C158.929 205.464 158.249 206.096 157.401 206.544C156.553 206.976 155.617 207.192 154.593 207.192C153.841 207.192 153.065 207.04 152.265 206.736C151.481 206.416 150.841 205.992 150.345 205.464L151.665 203.352C151.953 203.704 152.361 204.024 152.889 204.312C153.417 204.584 153.969 204.72 154.545 204.72C155.089 204.72 155.585 204.6 156.033 204.36C156.497 204.104 156.865 203.744 157.137 203.28C157.425 202.8 157.569 202.232 157.569 201.576C157.569 200.712 157.313 200.032 156.801 199.536C156.305 199.024 155.609 198.768 154.713 198.768C154.249 198.768 153.865 198.8 153.561 198.864C153.257 198.928 152.985 199 152.745 199.08L152.649 199.008L156.201 193.32L156.969 193.632H151.353V191.184H159.729ZM162.45 205.632C162.45 205.248 162.586 204.928 162.858 204.672C163.146 204.4 163.466 204.264 163.818 204.264C164.138 204.264 164.434 204.4 164.706 204.672C164.994 204.928 165.138 205.248 165.138 205.632C165.138 206.048 164.994 206.384 164.706 206.64C164.434 206.88 164.138 207 163.818 207C163.466 207 163.146 206.88 162.858 206.64C162.586 206.384 162.45 206.048 162.45 205.632ZM165.722 203.256V203.232L175.466 190.992H175.49V201.288H177.506V203.256H175.49V207H172.922V203.256H165.722ZM173.066 196.728L169.466 201.408L169.106 201.288H172.922V196.344L173.066 196.728ZM179.091 205.632C179.091 205.248 179.227 204.928 179.499 204.672C179.787 204.4 180.107 204.264 180.459 204.264C180.779 204.264 181.075 204.4 181.347 204.672C181.635 204.928 181.779 205.248 181.779 205.632C181.779 206.048 181.635 206.384 181.347 206.64C181.075 206.88 180.779 207 180.459 207C180.107 207 179.787 206.88 179.499 206.64C179.227 206.384 179.091 206.048 179.091 205.632ZM188.282 207.192C187.418 207.192 186.586 207.032 185.786 206.712C184.986 206.392 184.346 206 183.866 205.536L185.21 203.52C185.53 203.888 185.954 204.184 186.482 204.408C187.026 204.632 187.554 204.744 188.066 204.744C188.626 204.744 189.114 204.624 189.53 204.384C189.962 204.144 190.298 203.808 190.538 203.376C190.794 202.944 190.922 202.448 190.922 201.888C190.922 201.28 190.81 200.744 190.586 200.28C190.362 199.8 190.026 199.424 189.578 199.152C189.13 198.88 188.586 198.744 187.946 198.744C187.402 198.744 186.89 198.824 186.41 198.984C185.946 199.128 185.442 199.352 184.898 199.656H184.874V191.184H192.506V193.632H187.106V197.376L186.77 196.848C187.042 196.768 187.33 196.704 187.634 196.656C187.938 196.608 188.242 196.584 188.546 196.584C189.634 196.584 190.546 196.824 191.282 197.304C192.034 197.784 192.602 198.416 192.986 199.2C193.37 199.984 193.562 200.848 193.562 201.792C193.562 202.8 193.33 203.712 192.866 204.528C192.418 205.344 191.794 205.992 190.994 206.472C190.194 206.952 189.29 207.192 188.282 207.192Z" fill="#4F4F4F" fill-opacity="0.75"/>
<path d="M39.0372 119.784C39.0372 120.52 39.2212 121.184 39.5892 121.776C39.9572 122.368 40.4452 122.84 41.0532 123.192C41.6612 123.544 42.3412 123.72 43.0932 123.72C43.8932 123.72 44.6052 123.544 45.2292 123.192C45.8532 122.84 46.3412 122.368 46.6932 121.776C47.0612 121.184 47.2452 120.52 47.2452 119.784V108.576H49.7652V119.856C49.7652 121.12 49.4692 122.232 48.8772 123.192C48.2852 124.136 47.4852 124.872 46.4772 125.4C45.4692 125.928 44.3412 126.192 43.0932 126.192C41.8772 126.192 40.7652 125.928 39.7572 125.4C38.7492 124.872 37.9492 124.136 37.3572 123.192C36.7812 122.232 36.4932 121.12 36.4932 119.856V108.576H39.0372V119.784ZM59.877 126.24C59.141 126.24 58.437 126.08 57.765 125.76C57.093 125.424 56.557 124.976 56.157 124.416L56.301 123.672V130.824H53.853V115.776H55.989L56.325 118.224L56.061 117.528C56.557 116.952 57.165 116.472 57.885 116.088C58.621 115.704 59.437 115.512 60.333 115.512C61.277 115.512 62.125 115.736 62.877 116.184C63.629 116.632 64.221 117.264 64.653 118.08C65.085 118.896 65.301 119.856 65.301 120.96C65.301 122.048 65.061 122.992 64.581 123.792C64.117 124.576 63.477 125.184 62.661 125.616C61.845 126.032 60.917 126.24 59.877 126.24ZM59.397 124.296C60.005 124.296 60.565 124.152 61.077 123.864C61.605 123.576 62.021 123.184 62.325 122.688C62.645 122.176 62.805 121.608 62.805 120.984C62.805 120.328 62.653 119.752 62.349 119.256C62.061 118.744 61.669 118.344 61.173 118.056C60.693 117.768 60.157 117.624 59.565 117.624C59.005 117.624 58.509 117.728 58.077 117.936C57.645 118.128 57.277 118.4 56.973 118.752C56.669 119.104 56.453 119.528 56.325 120.024V121.872C56.421 122.336 56.613 122.752 56.901 123.12C57.189 123.488 57.549 123.776 57.981 123.984C58.413 124.192 58.885 124.296 59.397 124.296ZM72.3242 126.24C71.3802 126.24 70.5322 126.024 69.7802 125.592C69.0282 125.144 68.4362 124.512 68.0042 123.696C67.5722 122.88 67.3562 121.928 67.3562 120.84C67.3562 119.72 67.5882 118.768 68.0522 117.984C68.5162 117.184 69.1402 116.576 69.9242 116.16C70.7242 115.728 71.6202 115.512 72.6122 115.512C73.3802 115.512 74.1082 115.672 74.7962 115.992C75.5002 116.296 76.0442 116.728 76.4282 117.288L76.3562 118.128V107.352H78.8042V126H76.3322V123.624L76.5962 124.272C76.1002 124.832 75.4922 125.304 74.7722 125.688C74.0522 126.056 73.2362 126.24 72.3242 126.24ZM73.0922 124.152C73.6522 124.152 74.1482 124.056 74.5802 123.864C75.0122 123.672 75.3802 123.4 75.6842 123.048C75.9882 122.68 76.2042 122.256 76.3322 121.776V119.76C76.2202 119.312 76.0042 118.92 75.6842 118.584C75.3802 118.232 75.0042 117.96 74.5562 117.768C74.1082 117.576 73.6202 117.48 73.0922 117.48C72.5002 117.48 71.9562 117.624 71.4602 117.912C70.9802 118.184 70.5882 118.568 70.2842 119.064C69.9962 119.56 69.8522 120.136 69.8522 120.792C69.8522 121.416 69.9962 121.984 70.2842 122.496C70.5882 123.008 70.9882 123.416 71.4842 123.72C71.9802 124.008 72.5162 124.152 73.0922 124.152ZM86.7874 126.24C85.8434 126.24 84.9874 126.048 84.2194 125.664C83.4514 125.264 82.8434 124.672 82.3954 123.888C81.9474 123.104 81.7234 122.136 81.7234 120.984C81.7234 119.848 81.9554 118.872 82.4194 118.056C82.8994 117.24 83.5234 116.616 84.2914 116.184C85.0754 115.736 85.9234 115.512 86.8354 115.512C87.7954 115.512 88.5794 115.72 89.1874 116.136C89.8114 116.536 90.2994 117.008 90.6514 117.552L90.4834 117.936L90.7234 115.944H93.0034V126H90.5314V123.48L90.7954 124.08C90.7314 124.208 90.5954 124.392 90.3874 124.632C90.1794 124.856 89.8994 125.096 89.5474 125.352C89.2114 125.608 88.8114 125.824 88.3474 126C87.8994 126.16 87.3794 126.24 86.7874 126.24ZM87.4594 124.224C87.9874 124.224 88.4594 124.128 88.8754 123.936C89.2914 123.744 89.6434 123.472 89.9314 123.12C90.2194 122.768 90.4194 122.352 90.5314 121.872V119.784C90.4034 119.336 90.1874 118.952 89.8834 118.632C89.5794 118.296 89.2114 118.032 88.7794 117.84C88.3634 117.648 87.8994 117.552 87.3874 117.552C86.8114 117.552 86.2834 117.696 85.8034 117.984C85.3234 118.256 84.9394 118.64 84.6514 119.136C84.3634 119.632 84.2194 120.208 84.2194 120.864C84.2194 121.488 84.3634 122.056 84.6514 122.568C84.9554 123.08 85.3554 123.488 85.8514 123.792C86.3474 124.08 86.8834 124.224 87.4594 124.224ZM97.7505 111.528H100.223V115.968H102.911V117.912H100.223V126H97.7505V117.912H95.9745V115.968H97.7505V111.528ZM110.308 126.24C109.14 126.24 108.14 126.016 107.308 125.568C106.476 125.104 105.836 124.472 105.388 123.672C104.94 122.856 104.716 121.928 104.716 120.888C104.716 119.896 104.964 119 105.46 118.2C105.972 117.384 106.652 116.736 107.5 116.256C108.364 115.776 109.316 115.536 110.356 115.536C111.7 115.536 112.812 115.928 113.692 116.712C114.588 117.496 115.188 118.592 115.492 120L107.308 122.832L106.732 121.392L113.284 119.04L112.78 119.352C112.588 118.856 112.284 118.424 111.868 118.056C111.452 117.672 110.884 117.48 110.164 117.48C109.588 117.48 109.068 117.624 108.604 117.912C108.156 118.184 107.796 118.568 107.524 119.064C107.268 119.544 107.14 120.112 107.14 120.768C107.14 121.44 107.276 122.032 107.548 122.544C107.836 123.04 108.22 123.432 108.7 123.72C109.196 124.008 109.748 124.152 110.356 124.152C110.788 124.152 111.196 124.072 111.58 123.912C111.98 123.752 112.356 123.552 112.708 123.312L113.836 125.136C113.308 125.472 112.732 125.744 112.108 125.952C111.5 126.144 110.9 126.24 110.308 126.24ZM122.34 126.24C121.396 126.24 120.548 126.024 119.796 125.592C119.044 125.144 118.452 124.512 118.02 123.696C117.588 122.88 117.372 121.928 117.372 120.84C117.372 119.72 117.604 118.768 118.068 117.984C118.532 117.184 119.156 116.576 119.94 116.16C120.74 115.728 121.636 115.512 122.628 115.512C123.396 115.512 124.124 115.672 124.812 115.992C125.516 116.296 126.06 116.728 126.444 117.288L126.372 118.128V107.352H128.82V126H126.348V123.624L126.612 124.272C126.116 124.832 125.508 125.304 124.788 125.688C124.068 126.056 123.252 126.24 122.34 126.24ZM123.108 124.152C123.668 124.152 124.164 124.056 124.596 123.864C125.028 123.672 125.396 123.4 125.7 123.048C126.004 122.68 126.22 122.256 126.348 121.776V119.76C126.236 119.312 126.02 118.92 125.7 118.584C125.396 118.232 125.02 117.96 124.572 117.768C124.124 117.576 123.636 117.48 123.108 117.48C122.516 117.48 121.972 117.624 121.476 117.912C120.996 118.184 120.604 118.568 120.3 119.064C120.012 119.56 119.868 120.136 119.868 120.792C119.868 121.416 120.012 121.984 120.3 122.496C120.604 123.008 121.004 123.416 121.5 123.72C121.996 124.008 122.532 124.152 123.108 124.152ZM144.444 126.264L138.756 115.944H141.684L145.38 123.72L143.868 123.648L147.228 115.944H149.988L144.54 126.264H144.444ZM151.691 126C152.683 124.992 153.643 124.016 154.571 123.072C155.499 122.128 156.331 121.208 157.067 120.312C157.819 119.416 158.403 118.552 158.819 117.72C159.251 116.888 159.467 116.08 159.467 115.296C159.467 114.816 159.387 114.4 159.227 114.048C159.083 113.68 158.875 113.384 158.603 113.16C158.331 112.92 158.027 112.744 157.691 112.632C157.355 112.504 156.995 112.44 156.611 112.44C156.115 112.44 155.691 112.52 155.339 112.68C154.987 112.84 154.699 113.048 154.475 113.304C154.267 113.544 154.107 113.808 153.995 114.096C153.883 114.384 153.827 114.672 153.827 114.96C153.827 115.488 153.907 115.96 154.067 116.376C154.243 116.792 154.475 117.152 154.763 117.456L153.203 118.896C152.803 118.656 152.459 118.312 152.171 117.864C151.899 117.4 151.691 116.912 151.547 116.4C151.403 115.888 151.331 115.432 151.331 115.032C151.331 114.152 151.547 113.336 151.979 112.584C152.427 111.816 153.075 111.192 153.923 110.712C154.787 110.232 155.827 109.992 157.043 109.992C158.067 109.992 158.955 110.224 159.707 110.688C160.475 111.152 161.067 111.776 161.483 112.56C161.915 113.328 162.131 114.168 162.131 115.08C162.131 115.864 161.979 116.632 161.675 117.384C161.371 118.136 160.963 118.88 160.451 119.616C159.955 120.336 159.395 121.056 158.771 121.776C158.163 122.48 157.555 123.192 156.947 123.912L155.795 123.528H162.587V126H151.691ZM164.38 124.632C164.38 124.248 164.516 123.928 164.788 123.672C165.076 123.4 165.396 123.264 165.748 123.264C166.068 123.264 166.364 123.4 166.636 123.672C166.924 123.928 167.068 124.248 167.068 124.632C167.068 125.048 166.924 125.384 166.636 125.64C166.364 125.88 166.068 126 165.748 126C165.396 126 165.076 125.88 164.788 125.64C164.516 125.384 164.38 125.048 164.38 124.632ZM168.963 110.184H173.235V126H170.667V112.656H168.963V110.184ZM176.404 124.632C176.404 124.248 176.54 123.928 176.812 123.672C177.1 123.4 177.42 123.264 177.772 123.264C178.092 123.264 178.388 123.4 178.66 123.672C178.948 123.928 179.092 124.248 179.092 124.632C179.092 125.048 178.948 125.384 178.66 125.64C178.388 125.88 178.092 126 177.772 126C177.42 126 177.1 125.88 176.812 125.64C176.54 125.384 176.404 125.048 176.404 124.632ZM187.226 126.072C186.266 126.072 185.378 125.896 184.562 125.544C183.762 125.176 183.066 124.648 182.474 123.96C181.882 123.272 181.418 122.432 181.082 121.44C180.746 120.432 180.578 119.296 180.578 118.032C180.578 116.656 180.738 115.464 181.058 114.456C181.378 113.448 181.826 112.616 182.402 111.96C182.994 111.288 183.698 110.8 184.514 110.496C185.33 110.176 186.234 110.016 187.226 110.016C188.202 110.016 189.09 110.192 189.89 110.544C190.706 110.896 191.41 111.416 192.002 112.104C192.594 112.792 193.05 113.64 193.37 114.648C193.706 115.64 193.874 116.768 193.874 118.032C193.874 119.328 193.706 120.48 193.37 121.488C193.05 122.48 192.586 123.32 191.978 124.008C191.386 124.68 190.69 125.192 189.89 125.544C189.09 125.896 188.202 126.072 187.226 126.072ZM187.202 123.6C188.114 123.6 188.866 123.368 189.458 122.904C190.05 122.424 190.49 121.76 190.778 120.912C191.066 120.048 191.21 119.064 191.21 117.96C191.21 116.888 191.066 115.944 190.778 115.128C190.49 114.296 190.05 113.648 189.458 113.184C188.866 112.704 188.114 112.472 187.202 112.488C186.322 112.472 185.586 112.704 184.994 113.184C184.402 113.648 183.962 114.296 183.674 115.128C183.386 115.96 183.242 116.928 183.242 118.032C183.242 119.104 183.386 120.064 183.674 120.912C183.962 121.76 184.402 122.424 184.994 122.904C185.586 123.368 186.322 123.6 187.202 123.6Z" fill="#4F4F4F" fill-opacity="0.75"/>
<path d="M41.1856 38.784C41.1856 39.52 41.3696 40.184 41.7376 40.776C42.1056 41.368 42.5936 41.84 43.2016 42.192C43.8096 42.544 44.4896 42.72 45.2416 42.72C46.0416 42.72 46.7536 42.544 47.3776 42.192C48.0016 41.84 48.4896 41.368 48.8416 40.776C49.2096 40.184 49.3936 39.52 49.3936 38.784V27.576H51.9136V38.856C51.9136 40.12 51.6176 41.232 51.0256 42.192C50.4336 43.136 49.6336 43.872 48.6256 44.4C47.6176 44.928 46.4896 45.192 45.2416 45.192C44.0256 45.192 42.9136 44.928 41.9056 44.4C40.8976 43.872 40.0976 43.136 39.5056 42.192C38.9296 41.232 38.6416 40.12 38.6416 38.856V27.576H41.1856V38.784ZM62.0255 45.24C61.2895 45.24 60.5855 45.08 59.9135 44.76C59.2415 44.424 58.7055 43.976 58.3055 43.416L58.4495 42.672V49.824H56.0015V34.776H58.1375L58.4735 37.224L58.2095 36.528C58.7055 35.952 59.3135 35.472 60.0335 35.088C60.7695 34.704 61.5855 34.512 62.4815 34.512C63.4255 34.512 64.2735 34.736 65.0255 35.184C65.7775 35.632 66.3695 36.264 66.8015 37.08C67.2335 37.896 67.4495 38.856 67.4495 39.96C67.4495 41.048 67.2095 41.992 66.7295 42.792C66.2655 43.576 65.6255 44.184 64.8095 44.616C63.9935 45.032 63.0655 45.24 62.0255 45.24ZM61.5455 43.296C62.1535 43.296 62.7135 43.152 63.2255 42.864C63.7535 42.576 64.1695 42.184 64.4735 41.688C64.7935 41.176 64.9535 40.608 64.9535 39.984C64.9535 39.328 64.8015 38.752 64.4975 38.256C64.2095 37.744 63.8175 37.344 63.3215 37.056C62.8415 36.768 62.3055 36.624 61.7135 36.624C61.1535 36.624 60.6575 36.728 60.2255 36.936C59.7935 37.128 59.4255 37.4 59.1215 37.752C58.8175 38.104 58.6015 38.528 58.4735 39.024V40.872C58.5695 41.336 58.7615 41.752 59.0495 42.12C59.3375 42.488 59.6975 42.776 60.1295 42.984C60.5615 43.192 61.0335 43.296 61.5455 43.296ZM74.4727 45.24C73.5287 45.24 72.6807 45.024 71.9287 44.592C71.1767 44.144 70.5847 43.512 70.1527 42.696C69.7207 41.88 69.5047 40.928 69.5047 39.84C69.5047 38.72 69.7367 37.768 70.2007 36.984C70.6647 36.184 71.2887 35.576 72.0727 35.16C72.8727 34.728 73.7687 34.512 74.7607 34.512C75.5287 34.512 76.2567 34.672 76.9447 34.992C77.6487 35.296 78.1927 35.728 78.5767 36.288L78.5047 37.128V26.352H80.9527V45H78.4807V42.624L78.7447 43.272C78.2487 43.832 77.6407 44.304 76.9207 44.688C76.2007 45.056 75.3847 45.24 74.4727 45.24ZM75.2407 43.152C75.8007 43.152 76.2967 43.056 76.7287 42.864C77.1607 42.672 77.5287 42.4 77.8327 42.048C78.1367 41.68 78.3527 41.256 78.4807 40.776V38.76C78.3687 38.312 78.1527 37.92 77.8327 37.584C77.5287 37.232 77.1527 36.96 76.7047 36.768C76.2567 36.576 75.7687 36.48 75.2407 36.48C74.6487 36.48 74.1047 36.624 73.6087 36.912C73.1287 37.184 72.7367 37.568 72.4327 38.064C72.1447 38.56 72.0007 39.136 72.0007 39.792C72.0007 40.416 72.1447 40.984 72.4327 41.496C72.7367 42.008 73.1367 42.416 73.6327 42.72C74.1287 43.008 74.6647 43.152 75.2407 43.152ZM88.9358 45.24C87.9918 45.24 87.1358 45.048 86.3678 44.664C85.5998 44.264 84.9918 43.672 84.5438 42.888C84.0958 42.104 83.8718 41.136 83.8718 39.984C83.8718 38.848 84.1038 37.872 84.5678 37.056C85.0478 36.24 85.6718 35.616 86.4398 35.184C87.2238 34.736 88.0718 34.512 88.9838 34.512C89.9438 34.512 90.7278 34.72 91.3358 35.136C91.9598 35.536 92.4478 36.008 92.7998 36.552L92.6318 36.936L92.8718 34.944H95.1518V45H92.6798V42.48L92.9438 43.08C92.8798 43.208 92.7438 43.392 92.5358 43.632C92.3278 43.856 92.0478 44.096 91.6958 44.352C91.3598 44.608 90.9598 44.824 90.4958 45C90.0478 45.16 89.5278 45.24 88.9358 45.24ZM89.6078 43.224C90.1358 43.224 90.6078 43.128 91.0238 42.936C91.4398 42.744 91.7918 42.472 92.0798 42.12C92.3678 41.768 92.5678 41.352 92.6798 40.872V38.784C92.5518 38.336 92.3358 37.952 92.0318 37.632C91.7278 37.296 91.3598 37.032 90.9278 36.84C90.5118 36.648 90.0478 36.552 89.5358 36.552C88.9598 36.552 88.4318 36.696 87.9518 36.984C87.4718 37.256 87.0878 37.64 86.7998 38.136C86.5118 38.632 86.3678 39.208 86.3678 39.864C86.3678 40.488 86.5118 41.056 86.7998 41.568C87.1038 42.08 87.5038 42.488 87.9998 42.792C88.4958 43.08 89.0318 43.224 89.6078 43.224ZM99.899 30.528H102.371V34.968H105.059V36.912H102.371V45H99.899V36.912H98.123V34.968H99.899V30.528ZM112.456 45.24C111.288 45.24 110.288 45.016 109.456 44.568C108.624 44.104 107.984 43.472 107.536 42.672C107.088 41.856 106.864 40.928 106.864 39.888C106.864 38.896 107.112 38 107.608 37.2C108.12 36.384 108.8 35.736 109.648 35.256C110.512 34.776 111.464 34.536 112.504 34.536C113.848 34.536 114.96 34.928 115.84 35.712C116.736 36.496 117.336 37.592 117.64 39L109.456 41.832L108.88 40.392L115.432 38.04L114.928 38.352C114.736 37.856 114.432 37.424 114.016 37.056C113.6 36.672 113.032 36.48 112.312 36.48C111.736 36.48 111.216 36.624 110.752 36.912C110.304 37.184 109.944 37.568 109.672 38.064C109.416 38.544 109.288 39.112 109.288 39.768C109.288 40.44 109.424 41.032 109.696 41.544C109.984 42.04 110.368 42.432 110.848 42.72C111.344 43.008 111.896 43.152 112.504 43.152C112.936 43.152 113.344 43.072 113.728 42.912C114.128 42.752 114.504 42.552 114.856 42.312L115.984 44.136C115.456 44.472 114.88 44.744 114.256 44.952C113.648 45.144 113.048 45.24 112.456 45.24ZM124.488 45.24C123.544 45.24 122.696 45.024 121.944 44.592C121.192 44.144 120.6 43.512 120.168 42.696C119.736 41.88 119.52 40.928 119.52 39.84C119.52 38.72 119.752 37.768 120.216 36.984C120.68 36.184 121.304 35.576 122.088 35.16C122.888 34.728 123.784 34.512 124.776 34.512C125.544 34.512 126.272 34.672 126.96 34.992C127.664 35.296 128.208 35.728 128.592 36.288L128.52 37.128V26.352H130.968V45H128.496V42.624L128.76 43.272C128.264 43.832 127.656 44.304 126.936 44.688C126.216 45.056 125.4 45.24 124.488 45.24ZM125.256 43.152C125.816 43.152 126.312 43.056 126.744 42.864C127.176 42.672 127.544 42.4 127.848 42.048C128.152 41.68 128.368 41.256 128.496 40.776V38.76C128.384 38.312 128.168 37.92 127.848 37.584C127.544 37.232 127.168 36.96 126.72 36.768C126.272 36.576 125.784 36.48 125.256 36.48C124.664 36.48 124.12 36.624 123.624 36.912C123.144 37.184 122.752 37.568 122.448 38.064C122.16 38.56 122.016 39.136 122.016 39.792C122.016 40.416 122.16 40.984 122.448 41.496C122.752 42.008 123.152 42.416 123.648 42.72C124.144 43.008 124.68 43.152 125.256 43.152ZM146.592 45.264L140.904 34.944H143.832L147.528 42.72L146.016 42.648L149.376 34.944H152.136L146.688 45.264H146.592ZM153.791 29.184H158.063V45H155.495V31.656H153.791V29.184ZM161.232 43.632C161.232 43.248 161.368 42.928 161.64 42.672C161.928 42.4 162.248 42.264 162.6 42.264C162.92 42.264 163.216 42.4 163.488 42.672C163.776 42.928 163.92 43.248 163.92 43.632C163.92 44.048 163.776 44.384 163.488 44.64C163.216 44.88 162.92 45 162.6 45C162.248 45 161.928 44.88 161.64 44.64C161.368 44.384 161.232 44.048 161.232 43.632ZM172.054 45.072C171.094 45.072 170.206 44.896 169.39 44.544C168.59 44.176 167.894 43.648 167.302 42.96C166.71 42.272 166.246 41.432 165.91 40.44C165.574 39.432 165.406 38.296 165.406 37.032C165.406 35.656 165.566 34.464 165.886 33.456C166.206 32.448 166.654 31.616 167.23 30.96C167.822 30.288 168.526 29.8 169.342 29.496C170.158 29.176 171.062 29.016 172.054 29.016C173.03 29.016 173.918 29.192 174.718 29.544C175.534 29.896 176.238 30.416 176.83 31.104C177.422 31.792 177.878 32.64 178.198 33.648C178.534 34.64 178.702 35.768 178.702 37.032C178.702 38.328 178.534 39.48 178.198 40.488C177.878 41.48 177.414 42.32 176.806 43.008C176.214 43.68 175.518 44.192 174.718 44.544C173.918 44.896 173.03 45.072 172.054 45.072ZM172.03 42.6C172.942 42.6 173.694 42.368 174.286 41.904C174.878 41.424 175.318 40.76 175.606 39.912C175.894 39.048 176.038 38.064 176.038 36.96C176.038 35.888 175.894 34.944 175.606 34.128C175.318 33.296 174.878 32.648 174.286 32.184C173.694 31.704 172.942 31.472 172.03 31.488C171.15 31.472 170.414 31.704 169.822 32.184C169.23 32.648 168.79 33.296 168.502 34.128C168.214 34.96 168.07 35.928 168.07 37.032C168.07 38.104 168.214 39.064 168.502 39.912C168.79 40.76 169.23 41.424 169.822 41.904C170.414 42.368 171.15 42.6 172.03 42.6ZM180.263 43.632C180.263 43.248 180.399 42.928 180.671 42.672C180.959 42.4 181.279 42.264 181.631 42.264C181.951 42.264 182.247 42.4 182.519 42.672C182.807 42.928 182.951 43.248 182.951 43.632C182.951 44.048 182.807 44.384 182.519 44.64C182.247 44.88 181.951 45 181.631 45C181.279 45 180.959 44.88 180.671 44.64C180.399 44.384 180.263 44.048 180.263 43.632ZM184.846 29.184H189.118V45H186.55V31.656H184.846V29.184Z" fill="#4F4F4F" fill-opacity="0.75"/>
<path d="M250.629 206.16C249.736 206.16 248.923 205.947 248.189 205.52C247.469 205.093 246.896 204.48 246.469 203.68C246.043 202.88 245.829 201.927 245.829 200.82C245.829 199.967 245.996 199.153 246.329 198.38C246.663 197.607 247.109 196.88 247.669 196.2C248.243 195.507 248.883 194.867 249.589 194.28C250.309 193.693 251.056 193.153 251.829 192.66L253.249 194.22C252.169 194.727 251.269 195.313 250.549 195.98C249.829 196.647 249.276 197.327 248.889 198.02C248.503 198.713 248.283 199.367 248.229 199.98L247.689 199.9C248.049 199.14 248.516 198.553 249.089 198.14C249.676 197.713 250.429 197.5 251.349 197.5C252.016 197.5 252.649 197.687 253.249 198.06C253.863 198.42 254.356 198.913 254.729 199.54C255.103 200.167 255.289 200.893 255.289 201.72C255.289 202.627 255.069 203.413 254.629 204.08C254.189 204.747 253.616 205.26 252.909 205.62C252.203 205.98 251.443 206.16 250.629 206.16ZM250.549 204.24C251.029 204.24 251.456 204.14 251.829 203.94C252.216 203.727 252.523 203.433 252.749 203.06C252.976 202.673 253.089 202.227 253.089 201.72C253.089 201.227 252.976 200.8 252.749 200.44C252.523 200.08 252.216 199.8 251.829 199.6C251.443 199.4 251.016 199.3 250.549 199.3C250.083 199.3 249.656 199.4 249.269 199.6C248.896 199.787 248.596 200.047 248.369 200.38C248.143 200.7 248.029 201.06 248.029 201.46V201.82C248.029 202.247 248.136 202.647 248.349 203.02C248.576 203.393 248.883 203.693 249.269 203.92C249.656 204.133 250.083 204.24 250.549 204.24ZM267.434 206.2C266.647 206.2 265.94 206.02 265.314 205.66C264.687 205.287 264.194 204.76 263.834 204.08C263.474 203.4 263.294 202.607 263.294 201.7C263.294 200.767 263.487 199.973 263.874 199.32C264.26 198.653 264.78 198.147 265.434 197.8C266.1 197.44 266.847 197.26 267.674 197.26C268.314 197.26 268.92 197.393 269.494 197.66C270.08 197.913 270.534 198.273 270.854 198.74L270.794 199.44V190.46H272.834V206H270.774V204.02L270.994 204.56C270.58 205.027 270.074 205.42 269.474 205.74C268.874 206.047 268.194 206.2 267.434 206.2ZM268.074 204.46C268.54 204.46 268.954 204.38 269.314 204.22C269.674 204.06 269.98 203.833 270.234 203.54C270.487 203.233 270.667 202.88 270.774 202.48V200.8C270.68 200.427 270.5 200.1 270.234 199.82C269.98 199.527 269.667 199.3 269.294 199.14C268.92 198.98 268.514 198.9 268.074 198.9C267.58 198.9 267.127 199.02 266.714 199.26C266.314 199.487 265.987 199.807 265.734 200.22C265.494 200.633 265.374 201.113 265.374 201.66C265.374 202.18 265.494 202.653 265.734 203.08C265.987 203.507 266.32 203.847 266.734 204.1C267.147 204.34 267.594 204.46 268.074 204.46ZM279.486 206.2C278.7 206.2 277.986 206.04 277.346 205.72C276.706 205.387 276.2 204.893 275.826 204.24C275.453 203.587 275.266 202.78 275.266 201.82C275.266 200.873 275.46 200.06 275.846 199.38C276.246 198.7 276.766 198.18 277.406 197.82C278.06 197.447 278.766 197.26 279.526 197.26C280.326 197.26 280.98 197.433 281.486 197.78C282.006 198.113 282.413 198.507 282.706 198.96L282.566 199.28L282.766 197.62H284.666V206H282.606V203.9L282.826 204.4C282.773 204.507 282.66 204.66 282.486 204.86C282.313 205.047 282.08 205.247 281.786 205.46C281.506 205.673 281.173 205.853 280.786 206C280.413 206.133 279.98 206.2 279.486 206.2ZM280.046 204.52C280.486 204.52 280.88 204.44 281.226 204.28C281.573 204.12 281.866 203.893 282.106 203.6C282.346 203.307 282.513 202.96 282.606 202.56V200.82C282.5 200.447 282.32 200.127 282.066 199.86C281.813 199.58 281.506 199.36 281.146 199.2C280.8 199.04 280.413 198.96 279.986 198.96C279.506 198.96 279.066 199.08 278.666 199.32C278.266 199.547 277.946 199.867 277.706 200.28C277.466 200.693 277.346 201.173 277.346 201.72C277.346 202.24 277.466 202.713 277.706 203.14C277.96 203.567 278.293 203.907 278.706 204.16C279.12 204.4 279.566 204.52 280.046 204.52ZM288.522 210.02L294.062 197.62H295.942L290.542 210.02H288.522ZM290.642 206.06L286.582 197.62H288.902L292.222 205.02L290.642 206.06ZM300.301 206.18C299.688 206.18 299.095 206.073 298.521 205.86C297.948 205.633 297.475 205.307 297.101 204.88L297.981 203.72C298.341 204.053 298.701 204.307 299.061 204.48C299.435 204.64 299.788 204.72 300.121 204.72C300.388 204.72 300.628 204.693 300.841 204.64C301.055 204.573 301.228 204.467 301.361 204.32C301.495 204.173 301.561 203.98 301.561 203.74C301.561 203.46 301.468 203.24 301.281 203.08C301.095 202.92 300.855 202.787 300.561 202.68C300.268 202.573 299.955 202.473 299.621 202.38C298.915 202.153 298.381 201.833 298.021 201.42C297.661 200.993 297.481 200.493 297.481 199.92C297.481 199.48 297.588 199.067 297.801 198.68C298.028 198.28 298.368 197.953 298.821 197.7C299.275 197.447 299.835 197.32 300.501 197.32C301.115 197.32 301.655 197.393 302.121 197.54C302.588 197.673 303.021 197.907 303.421 198.24L302.621 199.48C302.381 199.24 302.095 199.06 301.761 198.94C301.441 198.807 301.148 198.733 300.881 198.72C300.641 198.72 300.421 198.76 300.221 198.84C300.021 198.907 299.861 199.013 299.741 199.16C299.621 199.293 299.561 199.453 299.561 199.64C299.548 199.907 299.635 200.127 299.821 200.3C300.021 200.46 300.275 200.593 300.581 200.7C300.888 200.793 301.188 200.893 301.481 201C301.895 201.12 302.261 201.287 302.581 201.5C302.901 201.7 303.155 201.947 303.341 202.24C303.528 202.533 303.621 202.907 303.621 203.36C303.621 203.853 303.501 204.32 303.261 204.76C303.021 205.187 302.655 205.533 302.161 205.8C301.668 206.053 301.048 206.18 300.301 206.18ZM316.029 206.2C315.243 206.2 314.529 206.04 313.889 205.72C313.249 205.387 312.743 204.893 312.369 204.24C311.996 203.587 311.809 202.78 311.809 201.82C311.809 200.873 312.003 200.06 312.389 199.38C312.789 198.7 313.309 198.18 313.949 197.82C314.603 197.447 315.309 197.26 316.069 197.26C316.869 197.26 317.523 197.433 318.029 197.78C318.549 198.113 318.956 198.507 319.249 198.96L319.109 199.28L319.309 197.62H321.209V206H319.149V203.9L319.369 204.4C319.316 204.507 319.203 204.66 319.029 204.86C318.856 205.047 318.623 205.247 318.329 205.46C318.049 205.673 317.716 205.853 317.329 206C316.956 206.133 316.523 206.2 316.029 206.2ZM316.589 204.52C317.029 204.52 317.423 204.44 317.769 204.28C318.116 204.12 318.409 203.893 318.649 203.6C318.889 203.307 319.056 202.96 319.149 202.56V200.82C319.043 200.447 318.863 200.127 318.609 199.86C318.356 199.58 318.049 199.36 317.689 199.2C317.343 199.04 316.956 198.96 316.529 198.96C316.049 198.96 315.609 199.08 315.209 199.32C314.809 199.547 314.489 199.867 314.249 200.28C314.009 200.693 313.889 201.173 313.889 201.72C313.889 202.24 314.009 202.713 314.249 203.14C314.503 203.567 314.836 203.907 315.249 204.16C315.663 204.4 316.109 204.52 316.589 204.52ZM328.465 210.16C327.812 210.16 327.245 210.087 326.765 209.94C326.285 209.793 325.852 209.587 325.465 209.32C325.092 209.067 324.732 208.793 324.385 208.5L325.605 207.08C326.018 207.467 326.445 207.773 326.885 208C327.325 208.24 327.838 208.36 328.425 208.36C329.012 208.36 329.512 208.26 329.925 208.06C330.352 207.873 330.678 207.607 330.905 207.26C331.132 206.913 331.245 206.5 331.245 206.02L331.265 203.84L331.405 204.24C331.178 204.787 330.758 205.253 330.145 205.64C329.532 206.013 328.778 206.2 327.885 206.2C327.125 206.2 326.418 206.007 325.765 205.62C325.125 205.233 324.612 204.707 324.225 204.04C323.838 203.373 323.645 202.62 323.645 201.78C323.645 200.9 323.845 200.127 324.245 199.46C324.658 198.78 325.198 198.247 325.865 197.86C326.532 197.46 327.245 197.26 328.005 197.26C328.752 197.26 329.418 197.407 330.005 197.7C330.592 197.98 331.032 198.333 331.325 198.76L331.205 199.1L331.425 197.62H333.325V206.04C333.325 206.813 333.118 207.507 332.705 208.12C332.305 208.747 331.745 209.24 331.025 209.6C330.305 209.973 329.452 210.16 328.465 210.16ZM325.725 201.72C325.725 202.24 325.845 202.713 326.085 203.14C326.325 203.567 326.652 203.907 327.065 204.16C327.492 204.4 327.965 204.52 328.485 204.52C328.952 204.52 329.372 204.44 329.745 204.28C330.118 204.107 330.432 203.88 330.685 203.6C330.952 203.307 331.145 202.967 331.265 202.58V200.84C331.145 200.453 330.952 200.127 330.685 199.86C330.418 199.58 330.098 199.36 329.725 199.2C329.352 199.04 328.938 198.96 328.485 198.96C327.965 198.96 327.492 199.08 327.065 199.32C326.652 199.547 326.325 199.867 326.085 200.28C325.845 200.693 325.725 201.173 325.725 201.72ZM335.755 201.72C335.755 200.88 335.955 200.127 336.355 199.46C336.755 198.78 337.308 198.247 338.015 197.86C338.721 197.473 339.528 197.28 340.435 197.28C341.355 197.28 342.161 197.473 342.855 197.86C343.548 198.247 344.081 198.78 344.455 199.46C344.841 200.127 345.035 200.88 345.035 201.72C345.035 202.56 344.841 203.32 344.455 204C344.081 204.68 343.548 205.22 342.855 205.62C342.161 206.007 341.348 206.2 340.415 206.2C339.521 206.2 338.721 206.02 338.015 205.66C337.321 205.3 336.768 204.787 336.355 204.12C335.955 203.44 335.755 202.64 335.755 201.72ZM337.835 201.74C337.835 202.26 337.948 202.733 338.175 203.16C338.401 203.573 338.708 203.907 339.095 204.16C339.481 204.4 339.915 204.52 340.395 204.52C340.888 204.52 341.328 204.4 341.715 204.16C342.101 203.907 342.401 203.573 342.615 203.16C342.841 202.733 342.955 202.26 342.955 201.74C342.955 201.22 342.841 200.753 342.615 200.34C342.401 199.927 342.101 199.593 341.715 199.34C341.328 199.087 340.888 198.96 340.395 198.96C339.901 198.96 339.461 199.087 339.075 199.34C338.688 199.593 338.381 199.933 338.155 200.36C337.941 200.773 337.835 201.233 337.835 201.74Z" fill="#4F4F4F" fill-opacity="0.75"/>
<path d="M242.417 111.82H245.977V125H243.837V113.88H242.417V111.82ZM248.258 121.88V121.86L256.378 111.66H256.398V120.24H258.078V121.88H256.398V125H254.258V121.88H248.258ZM254.378 116.44L251.378 120.34L251.078 120.24H254.258V116.12L254.378 116.44ZM270.166 125.2C269.379 125.2 268.673 125.02 268.046 124.66C267.419 124.287 266.926 123.76 266.566 123.08C266.206 122.4 266.026 121.607 266.026 120.7C266.026 119.767 266.219 118.973 266.606 118.32C266.993 117.653 267.513 117.147 268.166 116.8C268.833 116.44 269.579 116.26 270.406 116.26C271.046 116.26 271.653 116.393 272.226 116.66C272.813 116.913 273.266 117.273 273.586 117.74L273.526 118.44V109.46H275.566V125H273.506V123.02L273.726 123.56C273.313 124.027 272.806 124.42 272.206 124.74C271.606 125.047 270.926 125.2 270.166 125.2ZM270.806 123.46C271.273 123.46 271.686 123.38 272.046 123.22C272.406 123.06 272.713 122.833 272.966 122.54C273.219 122.233 273.399 121.88 273.506 121.48V119.8C273.413 119.427 273.233 119.1 272.966 118.82C272.713 118.527 272.399 118.3 272.026 118.14C271.653 117.98 271.246 117.9 270.806 117.9C270.313 117.9 269.859 118.02 269.446 118.26C269.046 118.487 268.719 118.807 268.466 119.22C268.226 119.633 268.106 120.113 268.106 120.66C268.106 121.18 268.226 121.653 268.466 122.08C268.719 122.507 269.053 122.847 269.466 123.1C269.879 123.34 270.326 123.46 270.806 123.46ZM282.219 125.2C281.432 125.2 280.719 125.04 280.079 124.72C279.439 124.387 278.932 123.893 278.559 123.24C278.185 122.587 277.999 121.78 277.999 120.82C277.999 119.873 278.192 119.06 278.579 118.38C278.979 117.7 279.499 117.18 280.139 116.82C280.792 116.447 281.499 116.26 282.259 116.26C283.059 116.26 283.712 116.433 284.219 116.78C284.739 117.113 285.145 117.507 285.439 117.96L285.299 118.28L285.499 116.62H287.399V125H285.339V122.9L285.559 123.4C285.505 123.507 285.392 123.66 285.219 123.86C285.045 124.047 284.812 124.247 284.519 124.46C284.239 124.673 283.905 124.853 283.519 125C283.145 125.133 282.712 125.2 282.219 125.2ZM282.779 123.52C283.219 123.52 283.612 123.44 283.959 123.28C284.305 123.12 284.599 122.893 284.839 122.6C285.079 122.307 285.245 121.96 285.339 121.56V119.82C285.232 119.447 285.052 119.127 284.799 118.86C284.545 118.58 284.239 118.36 283.879 118.2C283.532 118.04 283.145 117.96 282.719 117.96C282.239 117.96 281.799 118.08 281.399 118.32C280.999 118.547 280.679 118.867 280.439 119.28C280.199 119.693 280.079 120.173 280.079 120.72C280.079 121.24 280.199 121.713 280.439 122.14C280.692 122.567 281.025 122.907 281.439 123.16C281.852 123.4 282.299 123.52 282.779 123.52ZM291.255 129.02L296.795 116.62H298.675L293.275 129.02H291.255ZM293.375 125.06L289.315 116.62H291.635L294.955 124.02L293.375 125.06ZM303.034 125.18C302.42 125.18 301.827 125.073 301.254 124.86C300.68 124.633 300.207 124.307 299.834 123.88L300.714 122.72C301.074 123.053 301.434 123.307 301.794 123.48C302.167 123.64 302.52 123.72 302.854 123.72C303.12 123.72 303.36 123.693 303.574 123.64C303.787 123.573 303.96 123.467 304.094 123.32C304.227 123.173 304.294 122.98 304.294 122.74C304.294 122.46 304.2 122.24 304.014 122.08C303.827 121.92 303.587 121.787 303.294 121.68C303 121.573 302.687 121.473 302.354 121.38C301.647 121.153 301.114 120.833 300.754 120.42C300.394 119.993 300.214 119.493 300.214 118.92C300.214 118.48 300.32 118.067 300.534 117.68C300.76 117.28 301.1 116.953 301.554 116.7C302.007 116.447 302.567 116.32 303.234 116.32C303.847 116.32 304.387 116.393 304.854 116.54C305.32 116.673 305.754 116.907 306.154 117.24L305.354 118.48C305.114 118.24 304.827 118.06 304.494 117.94C304.174 117.807 303.88 117.733 303.614 117.72C303.374 117.72 303.154 117.76 302.954 117.84C302.754 117.907 302.594 118.013 302.474 118.16C302.354 118.293 302.294 118.453 302.294 118.64C302.28 118.907 302.367 119.127 302.554 119.3C302.754 119.46 303.007 119.593 303.314 119.7C303.62 119.793 303.92 119.893 304.214 120C304.627 120.12 304.994 120.287 305.314 120.5C305.634 120.7 305.887 120.947 306.074 121.24C306.26 121.533 306.354 121.907 306.354 122.36C306.354 122.853 306.234 123.32 305.994 123.76C305.754 124.187 305.387 124.533 304.894 124.8C304.4 125.053 303.78 125.18 303.034 125.18ZM318.762 125.2C317.975 125.2 317.262 125.04 316.622 124.72C315.982 124.387 315.475 123.893 315.102 123.24C314.728 122.587 314.542 121.78 314.542 120.82C314.542 119.873 314.735 119.06 315.122 118.38C315.522 117.7 316.042 117.18 316.682 116.82C317.335 116.447 318.042 116.26 318.802 116.26C319.602 116.26 320.255 116.433 320.762 116.78C321.282 117.113 321.688 117.507 321.982 117.96L321.842 118.28L322.042 116.62H323.942V125H321.882V122.9L322.102 123.4C322.048 123.507 321.935 123.66 321.762 123.86C321.588 124.047 321.355 124.247 321.062 124.46C320.782 124.673 320.448 124.853 320.062 125C319.688 125.133 319.255 125.2 318.762 125.2ZM319.322 123.52C319.762 123.52 320.155 123.44 320.502 123.28C320.848 123.12 321.142 122.893 321.382 122.6C321.622 122.307 321.788 121.96 321.882 121.56V119.82C321.775 119.447 321.595 119.127 321.342 118.86C321.088 118.58 320.782 118.36 320.422 118.2C320.075 118.04 319.688 117.96 319.262 117.96C318.782 117.96 318.342 118.08 317.942 118.32C317.542 118.547 317.222 118.867 316.982 119.28C316.742 119.693 316.622 120.173 316.622 120.72C316.622 121.24 316.742 121.713 316.982 122.14C317.235 122.567 317.568 122.907 317.982 123.16C318.395 123.4 318.842 123.52 319.322 123.52ZM331.198 129.16C330.544 129.16 329.978 129.087 329.498 128.94C329.018 128.793 328.584 128.587 328.198 128.32C327.824 128.067 327.464 127.793 327.118 127.5L328.338 126.08C328.751 126.467 329.178 126.773 329.618 127C330.058 127.24 330.571 127.36 331.158 127.36C331.744 127.36 332.244 127.26 332.658 127.06C333.084 126.873 333.411 126.607 333.638 126.26C333.864 125.913 333.978 125.5 333.978 125.02L333.998 122.84L334.138 123.24C333.911 123.787 333.491 124.253 332.878 124.64C332.264 125.013 331.511 125.2 330.618 125.2C329.858 125.2 329.151 125.007 328.498 124.62C327.858 124.233 327.344 123.707 326.958 123.04C326.571 122.373 326.378 121.62 326.378 120.78C326.378 119.9 326.578 119.127 326.978 118.46C327.391 117.78 327.931 117.247 328.598 116.86C329.264 116.46 329.978 116.26 330.738 116.26C331.484 116.26 332.151 116.407 332.738 116.7C333.324 116.98 333.764 117.333 334.058 117.76L333.938 118.1L334.158 116.62H336.058V125.04C336.058 125.813 335.851 126.507 335.438 127.12C335.038 127.747 334.478 128.24 333.758 128.6C333.038 128.973 332.184 129.16 331.198 129.16ZM328.458 120.72C328.458 121.24 328.578 121.713 328.818 122.14C329.058 122.567 329.384 122.907 329.798 123.16C330.224 123.4 330.698 123.52 331.218 123.52C331.684 123.52 332.104 123.44 332.478 123.28C332.851 123.107 333.164 122.88 333.418 122.6C333.684 122.307 333.878 121.967 333.998 121.58V119.84C333.878 119.453 333.684 119.127 333.418 118.86C333.151 118.58 332.831 118.36 332.458 118.2C332.084 118.04 331.671 117.96 331.218 117.96C330.698 117.96 330.224 118.08 329.798 118.32C329.384 118.547 329.058 118.867 328.818 119.28C328.578 119.693 328.458 120.173 328.458 120.72ZM338.487 120.72C338.487 119.88 338.687 119.127 339.087 118.46C339.487 117.78 340.04 117.247 340.747 116.86C341.454 116.473 342.26 116.28 343.167 116.28C344.087 116.28 344.894 116.473 345.587 116.86C346.28 117.247 346.814 117.78 347.187 118.46C347.574 119.127 347.767 119.88 347.767 120.72C347.767 121.56 347.574 122.32 347.187 123C346.814 123.68 346.28 124.22 345.587 124.62C344.894 125.007 344.08 125.2 343.147 125.2C342.254 125.2 341.454 125.02 340.747 124.66C340.054 124.3 339.5 123.787 339.087 123.12C338.687 122.44 338.487 121.64 338.487 120.72ZM340.567 120.74C340.567 121.26 340.68 121.733 340.907 122.16C341.134 122.573 341.44 122.907 341.827 123.16C342.214 123.4 342.647 123.52 343.127 123.52C343.62 123.52 344.06 123.4 344.447 123.16C344.834 122.907 345.134 122.573 345.347 122.16C345.574 121.733 345.687 121.26 345.687 120.74C345.687 120.22 345.574 119.753 345.347 119.34C345.134 118.927 344.834 118.593 344.447 118.34C344.06 118.087 343.62 117.96 343.127 117.96C342.634 117.96 342.194 118.087 341.807 118.34C341.42 118.593 341.114 118.933 340.887 119.36C340.674 119.773 340.567 120.233 340.567 120.74Z" fill="#4F4F4F" fill-opacity="0.75"/>
<path d="M240.387 44C241.213 43.16 242.013 42.3467 242.787 41.56C243.56 40.7733 244.253 40.0067 244.867 39.26C245.493 38.5133 245.98 37.7933 246.327 37.1C246.687 36.4067 246.867 35.7333 246.867 35.08C246.867 34.68 246.8 34.3333 246.667 34.04C246.547 33.7333 246.373 33.4867 246.147 33.3C245.92 33.1 245.667 32.9533 245.387 32.86C245.107 32.7533 244.807 32.7 244.487 32.7C244.073 32.7 243.72 32.7667 243.427 32.9C243.133 33.0333 242.893 33.2067 242.707 33.42C242.533 33.62 242.4 33.84 242.307 34.08C242.213 34.32 242.167 34.56 242.167 34.8C242.167 35.24 242.233 35.6333 242.367 35.98C242.513 36.3267 242.707 36.6267 242.947 36.88L241.647 38.08C241.313 37.88 241.027 37.5933 240.787 37.22C240.56 36.8333 240.387 36.4267 240.267 36C240.147 35.5733 240.087 35.1933 240.087 34.86C240.087 34.1267 240.267 33.4467 240.627 32.82C241 32.18 241.54 31.66 242.247 31.26C242.967 30.86 243.833 30.66 244.847 30.66C245.7 30.66 246.44 30.8533 247.067 31.24C247.707 31.6267 248.2 32.1467 248.547 32.8C248.907 33.44 249.087 34.14 249.087 34.9C249.087 35.5533 248.96 36.1933 248.707 36.82C248.453 37.4467 248.113 38.0667 247.687 38.68C247.273 39.28 246.807 39.88 246.287 40.48C245.78 41.0667 245.273 41.66 244.767 42.26L243.807 41.94H249.467V44H240.387ZM250.861 39.82C250.861 39.14 250.988 38.5533 251.241 38.06C251.508 37.5667 251.835 37.1533 252.221 36.82C252.608 36.4867 252.995 36.2333 253.381 36.06C253.008 35.7933 252.695 35.48 252.441 35.12C252.201 34.7467 252.081 34.2733 252.081 33.7C252.081 33.1 252.235 32.5733 252.541 32.12C252.848 31.6667 253.268 31.3133 253.801 31.06C254.335 30.7933 254.935 30.66 255.601 30.66C256.268 30.66 256.868 30.7933 257.401 31.06C257.935 31.3133 258.355 31.66 258.661 32.1C258.981 32.54 259.141 33.04 259.141 33.6C259.141 34.2267 259.015 34.7267 258.761 35.1C258.508 35.46 258.188 35.78 257.801 36.06C258.201 36.2467 258.595 36.5067 258.981 36.84C259.381 37.1733 259.708 37.5867 259.961 38.08C260.215 38.5733 260.341 39.1533 260.341 39.82C260.341 40.58 260.128 41.2933 259.701 41.96C259.288 42.6133 258.721 43.1467 258.001 43.56C257.295 43.96 256.488 44.16 255.581 44.16C254.675 44.16 253.868 43.96 253.161 43.56C252.455 43.1467 251.895 42.6133 251.481 41.96C251.068 41.2933 250.861 40.58 250.861 39.82ZM253.041 39.74C253.041 40.2067 253.155 40.64 253.381 41.04C253.621 41.44 253.928 41.76 254.301 42C254.688 42.24 255.115 42.36 255.581 42.36C256.061 42.36 256.501 42.24 256.901 42C257.301 41.76 257.621 41.44 257.861 41.04C258.101 40.64 258.221 40.2067 258.221 39.74C258.221 39.26 258.108 38.8267 257.881 38.44C257.655 38.0533 257.348 37.74 256.961 37.5C256.575 37.26 256.148 37.1333 255.681 37.12C255.215 37.1067 254.781 37.22 254.381 37.46C253.981 37.6867 253.655 38 253.401 38.4C253.161 38.8 253.041 39.2467 253.041 39.74ZM254.141 33.96C254.141 34.3333 254.295 34.66 254.601 34.94C254.908 35.2067 255.255 35.34 255.641 35.34C256.028 35.34 256.368 35.2067 256.661 34.94C256.955 34.66 257.101 34.3333 257.101 33.96C257.101 33.52 256.955 33.16 256.661 32.88C256.381 32.5867 256.041 32.44 255.641 32.44C255.255 32.44 254.908 32.5867 254.601 32.88C254.295 33.16 254.141 33.52 254.141 33.96ZM272.236 44.2C271.45 44.2 270.743 44.02 270.116 43.66C269.49 43.2867 268.996 42.76 268.636 42.08C268.276 41.4 268.096 40.6067 268.096 39.7C268.096 38.7667 268.29 37.9733 268.676 37.32C269.063 36.6533 269.583 36.1467 270.236 35.8C270.903 35.44 271.65 35.26 272.476 35.26C273.116 35.26 273.723 35.3933 274.296 35.66C274.883 35.9133 275.336 36.2733 275.656 36.74L275.596 37.44V28.46H277.636V44H275.576V42.02L275.796 42.56C275.383 43.0267 274.876 43.42 274.276 43.74C273.676 44.0467 272.996 44.2 272.236 44.2ZM272.876 42.46C273.343 42.46 273.756 42.38 274.116 42.22C274.476 42.06 274.783 41.8333 275.036 41.54C275.29 41.2333 275.47 40.88 275.576 40.48V38.8C275.483 38.4267 275.303 38.1 275.036 37.82C274.783 37.5267 274.47 37.3 274.096 37.14C273.723 36.98 273.316 36.9 272.876 36.9C272.383 36.9 271.93 37.02 271.516 37.26C271.116 37.4867 270.79 37.8067 270.536 38.22C270.296 38.6333 270.176 39.1133 270.176 39.66C270.176 40.18 270.296 40.6533 270.536 41.08C270.79 41.5067 271.123 41.8467 271.536 42.1C271.95 42.34 272.396 42.46 272.876 42.46ZM284.289 44.2C283.502 44.2 282.789 44.04 282.149 43.72C281.509 43.3867 281.002 42.8933 280.629 42.24C280.256 41.5867 280.069 40.78 280.069 39.82C280.069 38.8733 280.262 38.06 280.649 37.38C281.049 36.7 281.569 36.18 282.209 35.82C282.862 35.4467 283.569 35.26 284.329 35.26C285.129 35.26 285.782 35.4333 286.289 35.78C286.809 36.1133 287.216 36.5067 287.509 36.96L287.369 37.28L287.569 35.62H289.469V44H287.409V41.9L287.629 42.4C287.576 42.5067 287.462 42.66 287.289 42.86C287.116 43.0467 286.882 43.2467 286.589 43.46C286.309 43.6733 285.976 43.8533 285.589 44C285.216 44.1333 284.782 44.2 284.289 44.2ZM284.849 42.52C285.289 42.52 285.682 42.44 286.029 42.28C286.376 42.12 286.669 41.8933 286.909 41.6C287.149 41.3067 287.316 40.96 287.409 40.56V38.82C287.302 38.4467 287.122 38.1267 286.869 37.86C286.616 37.58 286.309 37.36 285.949 37.2C285.602 37.04 285.216 36.96 284.789 36.96C284.309 36.96 283.869 37.08 283.469 37.32C283.069 37.5467 282.749 37.8667 282.509 38.28C282.269 38.6933 282.149 39.1733 282.149 39.72C282.149 40.24 282.269 40.7133 282.509 41.14C282.762 41.5667 283.096 41.9067 283.509 42.16C283.922 42.4 284.369 42.52 284.849 42.52ZM293.325 48.02L298.865 35.62H300.745L295.345 48.02H293.325ZM295.445 44.06L291.385 35.62H293.705L297.025 43.02L295.445 44.06ZM305.104 44.18C304.491 44.18 303.897 44.0733 303.324 43.86C302.751 43.6333 302.277 43.3067 301.904 42.88L302.784 41.72C303.144 42.0533 303.504 42.3067 303.864 42.48C304.237 42.64 304.591 42.72 304.924 42.72C305.191 42.72 305.431 42.6933 305.644 42.64C305.857 42.5733 306.031 42.4667 306.164 42.32C306.297 42.1733 306.364 41.98 306.364 41.74C306.364 41.46 306.271 41.24 306.084 41.08C305.897 40.92 305.657 40.7867 305.364 40.68C305.071 40.5733 304.757 40.4733 304.424 40.38C303.717 40.1533 303.184 39.8333 302.824 39.42C302.464 38.9933 302.284 38.4933 302.284 37.92C302.284 37.48 302.391 37.0667 302.604 36.68C302.831 36.28 303.171 35.9533 303.624 35.7C304.077 35.4467 304.637 35.32 305.304 35.32C305.917 35.32 306.457 35.3933 306.924 35.54C307.391 35.6733 307.824 35.9067 308.224 36.24L307.424 37.48C307.184 37.24 306.897 37.06 306.564 36.94C306.244 36.8067 305.951 36.7333 305.684 36.72C305.444 36.72 305.224 36.76 305.024 36.84C304.824 36.9067 304.664 37.0133 304.544 37.16C304.424 37.2933 304.364 37.4533 304.364 37.64C304.351 37.9067 304.437 38.1267 304.624 38.3C304.824 38.46 305.077 38.5933 305.384 38.7C305.691 38.7933 305.991 38.8933 306.284 39C306.697 39.12 307.064 39.2867 307.384 39.5C307.704 39.7 307.957 39.9467 308.144 40.24C308.331 40.5333 308.424 40.9067 308.424 41.36C308.424 41.8533 308.304 42.32 308.064 42.76C307.824 43.1867 307.457 43.5333 306.964 43.8C306.471 44.0533 305.851 44.18 305.104 44.18ZM320.832 44.2C320.045 44.2 319.332 44.04 318.692 43.72C318.052 43.3867 317.545 42.8933 317.172 42.24C316.799 41.5867 316.612 40.78 316.612 39.82C316.612 38.8733 316.805 38.06 317.192 37.38C317.592 36.7 318.112 36.18 318.752 35.82C319.405 35.4467 320.112 35.26 320.872 35.26C321.672 35.26 322.325 35.4333 322.832 35.78C323.352 36.1133 323.759 36.5067 324.052 36.96L323.912 37.28L324.112 35.62H326.012V44H323.952V41.9L324.172 42.4C324.119 42.5067 324.005 42.66 323.832 42.86C323.659 43.0467 323.425 43.2467 323.132 43.46C322.852 43.6733 322.519 43.8533 322.132 44C321.759 44.1333 321.325 44.2 320.832 44.2ZM321.392 42.52C321.832 42.52 322.225 42.44 322.572 42.28C322.919 42.12 323.212 41.8933 323.452 41.6C323.692 41.3067 323.859 40.96 323.952 40.56V38.82C323.845 38.4467 323.665 38.1267 323.412 37.86C323.159 37.58 322.852 37.36 322.492 37.2C322.145 37.04 321.759 36.96 321.332 36.96C320.852 36.96 320.412 37.08 320.012 37.32C319.612 37.5467 319.292 37.8667 319.052 38.28C318.812 38.6933 318.692 39.1733 318.692 39.72C318.692 40.24 318.812 40.7133 319.052 41.14C319.305 41.5667 319.639 41.9067 320.052 42.16C320.465 42.4 320.912 42.52 321.392 42.52ZM333.268 48.16C332.615 48.16 332.048 48.0867 331.568 47.94C331.088 47.7933 330.655 47.5867 330.268 47.32C329.895 47.0667 329.535 46.7933 329.188 46.5L330.408 45.08C330.821 45.4667 331.248 45.7733 331.688 46C332.128 46.24 332.641 46.36 333.228 46.36C333.815 46.36 334.315 46.26 334.728 46.06C335.155 45.8733 335.481 45.6067 335.708 45.26C335.935 44.9133 336.048 44.5 336.048 44.02L336.068 41.84L336.208 42.24C335.981 42.7867 335.561 43.2533 334.948 43.64C334.335 44.0133 333.581 44.2 332.688 44.2C331.928 44.2 331.221 44.0067 330.568 43.62C329.928 43.2333 329.415 42.7067 329.028 42.04C328.641 41.3733 328.448 40.62 328.448 39.78C328.448 38.9 328.648 38.1267 329.048 37.46C329.461 36.78 330.001 36.2467 330.668 35.86C331.335 35.46 332.048 35.26 332.808 35.26C333.555 35.26 334.221 35.4067 334.808 35.7C335.395 35.98 335.835 36.3333 336.128 36.76L336.008 37.1L336.228 35.62H338.128V44.04C338.128 44.8133 337.921 45.5067 337.508 46.12C337.108 46.7467 336.548 47.24 335.828 47.6C335.108 47.9733 334.255 48.16 333.268 48.16ZM330.528 39.72C330.528 40.24 330.648 40.7133 330.888 41.14C331.128 41.5667 331.455 41.9067 331.868 42.16C332.295 42.4 332.768 42.52 333.288 42.52C333.755 42.52 334.175 42.44 334.548 42.28C334.921 42.1067 335.235 41.88 335.488 41.6C335.755 41.3067 335.948 40.9667 336.068 40.58V38.84C335.948 38.4533 335.755 38.1267 335.488 37.86C335.221 37.58 334.901 37.36 334.528 37.2C334.155 37.04 333.741 36.96 333.288 36.96C332.768 36.96 332.295 37.08 331.868 37.32C331.455 37.5467 331.128 37.8667 330.888 38.28C330.648 38.6933 330.528 39.1733 330.528 39.72ZM340.557 39.72C340.557 38.88 340.757 38.1267 341.157 37.46C341.557 36.78 342.111 36.2467 342.817 35.86C343.524 35.4733 344.331 35.28 345.237 35.28C346.157 35.28 346.964 35.4733 347.657 35.86C348.351 36.2467 348.884 36.78 349.257 37.46C349.644 38.1267 349.837 38.88 349.837 39.72C349.837 40.56 349.644 41.32 349.257 42C348.884 42.68 348.351 43.22 347.657 43.62C346.964 44.0067 346.151 44.2 345.217 44.2C344.324 44.2 343.524 44.02 342.817 43.66C342.124 43.3 341.571 42.7867 341.157 42.12C340.757 41.44 340.557 40.64 340.557 39.72ZM342.637 39.74C342.637 40.26 342.751 40.7333 342.977 41.16C343.204 41.5733 343.511 41.9067 343.897 42.16C344.284 42.4 344.717 42.52 345.197 42.52C345.691 42.52 346.131 42.4 346.517 42.16C346.904 41.9067 347.204 41.5733 347.417 41.16C347.644 40.7333 347.757 40.26 347.757 39.74C347.757 39.22 347.644 38.7533 347.417 38.34C347.204 37.9267 346.904 37.5933 346.517 37.34C346.131 37.0867 345.691 36.96 345.197 36.96C344.704 36.96 344.264 37.0867 343.877 37.34C343.491 37.5933 343.184 37.9333 342.957 38.36C342.744 38.7733 342.637 39.2333 342.637 39.74Z" fill="#4F4F4F" fill-opacity="0.75"/>
<line x1="114.5" y1="51" x2="114.5" y2="91" stroke="#4F4F4F" stroke-opacity="0.75" stroke-dasharray="2 2"/>
<line x1="114.5" y1="213" x2="114.5" y2="263" stroke="#FF462E" stroke-opacity="0.75" stroke-dasharray="2 2"/>
<line x1="114.5" y1="132" x2="114.5" y2="172" stroke="#4F4F4F" stroke-opacity="0.75" stroke-dasharray="2 2"/>
<path d="M431 184H680" stroke="#4F4F4F" stroke-opacity="0.25" stroke-width="10" stroke-linecap="round"/>
<path d="M431 248H674" stroke="#4F4F4F" stroke-opacity="0.25" stroke-width="10" stroke-linecap="round"/>
<path d="M431 308H674" stroke="#4F4F4F" stroke-opacity="0.25" stroke-width="10" stroke-linecap="round"/>
<path d="M431 196H680" stroke="#4F4F4F" stroke-opacity="0.25" stroke-width="10" stroke-linecap="round"/>
<path d="M431 260H674" stroke="#4F4F4F" stroke-opacity="0.25" stroke-width="10" stroke-linecap="round"/>
<path d="M431 320H674" stroke="#4F4F4F" stroke-opacity="0.25" stroke-width="10" stroke-linecap="round"/>
<path d="M431 208H680" stroke="#4F4F4F" stroke-opacity="0.25" stroke-width="10" stroke-linecap="round"/>
<path d="M431 272H674" stroke="#4F4F4F" stroke-opacity="0.25" stroke-width="10" stroke-linecap="round"/>
<path d="M431 332H519" stroke="#4F4F4F" stroke-opacity="0.25" stroke-width="10" stroke-linecap="round"/>
<path d="M431 220H607" stroke="#4F4F4F" stroke-opacity="0.25" stroke-width="10" stroke-linecap="round"/>
<path d="M431 284H682" stroke="#4F4F4F" stroke-opacity="0.25" stroke-width="10" stroke-linecap="round"/>
<path d="M431 355H682" stroke="#4F4F4F" stroke-opacity="0.25" stroke-width="10" stroke-linecap="round"/>
<line x1="114.5" y1="-27" x2="114.5" y2="13" stroke="#4F4F4F" stroke-opacity="0.75" stroke-dasharray="2 2"/>
<g clip-path="url(#clip1_1504_1370)">
<path d="M294.503 296.2L296.267 297.965L306.85 287.382L308.617 289.15L296.267 301.5L288.313 293.545L290.08 291.777L292.736 294.434L294.503 296.199V296.2ZM294.505 292.665L300.695 286.474L302.457 288.236L296.267 294.427L294.505 292.665ZM290.971 299.734L289.205 301.5L281.25 293.545L283.018 291.777L284.784 293.544L284.782 293.545L290.971 299.734V299.734Z" fill="#FF462E"/>
</g>
<path d="M436.549 156.22L431.809 147.62H434.249L437.329 154.1L436.069 154.04L438.869 147.62H441.169L436.629 156.22H436.549ZM441.748 152.88V152.86L449.868 142.66H449.888V151.24H451.568V152.88H449.888V156H447.748V152.88H441.748ZM447.868 147.44L444.868 151.34L444.568 151.24H447.748V147.12L447.868 147.44ZM452.889 154.86C452.889 154.54 453.002 154.273 453.229 154.06C453.469 153.833 453.736 153.72 454.029 153.72C454.296 153.72 454.542 153.833 454.769 154.06C455.009 154.273 455.129 154.54 455.129 154.86C455.129 155.207 455.009 155.487 454.769 155.7C454.542 155.9 454.296 156 454.029 156C453.736 156 453.469 155.9 453.229 155.7C453.002 155.487 452.889 155.207 452.889 154.86ZM465.008 142.82L459.808 156H457.408L462.028 144.58L462.748 144.86H456.328V142.82H465.008ZM466.112 154.86C466.112 154.54 466.225 154.273 466.452 154.06C466.692 153.833 466.958 153.72 467.252 153.72C467.518 153.72 467.765 153.833 467.992 154.06C468.232 154.273 468.352 154.54 468.352 154.86C468.352 155.207 468.232 155.487 467.992 155.7C467.765 155.9 467.518 156 467.252 156C466.958 156 466.692 155.9 466.452 155.7C466.225 155.487 466.112 155.207 466.112 154.86ZM469.931 142.82H473.491V156H471.351V144.88H469.931V142.82Z" fill="#FF462E"/>
</g>
<defs>
<clipPath id="clip0_1504_1370">
<rect width="668" height="387" fill="white"/>
</clipPath>
<clipPath id="clip1_1504_1370">
<rect width="30" height="30" fill="white" transform="translate(280 279)"/>
</clipPath>
</defs>
</svg>
