<svg width="328" height="273" viewBox="0 0 328 273" fill="none" xmlns="http://www.w3.org/2000/svg">
<g clip-path="url(#clip0_1341_1186)">
<path d="M187.383 81.2699L351.304 -61V229L187.411 88.846C185.088 86.8598 185.075 83.2731 187.383 81.2699Z" fill="#4F4F4F" fill-opacity="0.05" stroke="#4F4F4F" stroke-opacity="0.25"/>
<line x1="315" y1="200" x2="-7" y2="200" stroke="#4F4F4F" stroke-opacity="0.1" stroke-width="2"/>
<circle cx="37" cy="199.5" r="6" transform="rotate(90 37 199.5)" fill="#FF97DD"/>
<circle cx="78" cy="199.5" r="6" transform="rotate(90 78 199.5)" fill="#FF7BB9"/>
<circle cx="130" cy="199.5" r="6" transform="rotate(90 130 199.5)" fill="#FF618B"/>
<circle cx="208" cy="199.5" r="6" transform="rotate(90 208 199.5)" fill="#FF4754"/>
<circle cx="316" cy="200" r="6" transform="rotate(90 316 200)" fill="#FF462E"/>
<path d="M-13.5 161L76.7161 161C93.1712 161 108.573 169.096 117.903 182.651L129.5 199.5" stroke="#FF618B" stroke-opacity="0.25" stroke-width="2"/>
<path d="M-13 181L-3.46372 181C9.35348 181 21.6812 185.922 30.9737 194.75L36.5 200" stroke="#FF97DD" stroke-opacity="0.25" stroke-width="2"/>
<path d="M-36 238.5L158.804 238.5C178.411 238.5 196.209 227.04 204.323 209.19L208.5 200" stroke="#FF4754" stroke-opacity="0.25" stroke-width="2"/>
<path d="M-9 226L30.8397 226C43.774 226 56.205 220.988 65.5219 212.016L78 200" stroke="#FF7BB9" stroke-opacity="0.25" stroke-width="2"/>
<path d="M216.322 87.1465C215.299 88.0731 215.22 89.6541 216.147 90.6777C217.073 91.7013 218.654 91.78 219.678 90.8535L216.322 87.1465ZM219.678 90.8535L335.678 -14.1465L332.322 -17.8535L216.322 87.1465L219.678 90.8535Z" fill="#4F4F4F" fill-opacity="0.25"/>
<path d="M251.322 93.1465C250.299 94.0731 250.22 95.6541 251.147 96.6777C252.073 97.7013 253.654 97.78 254.678 96.8535L251.322 93.1465ZM254.678 96.8535L370.678 -8.14653L367.322 -11.8535L251.322 93.1465L254.678 96.8535Z" fill="#34A853" fill-opacity="0.25"/>
<path d="M278.322 101.147C277.299 102.073 277.22 103.654 278.147 104.678C279.073 105.701 280.654 105.78 281.678 104.853L278.322 101.147ZM281.678 104.853L397.678 -0.146531L394.322 -3.85345L278.322 101.147L281.678 104.853Z" fill="#34A853" fill-opacity="0.25"/>
<path d="M221.322 93.1465C220.299 94.0731 220.22 95.6541 221.147 96.6777C222.073 97.7013 223.654 97.78 224.678 96.8535L221.322 93.1465ZM224.678 96.8535L340.678 -8.14653L337.322 -11.8535L221.322 93.1465L224.678 96.8535Z" fill="#4F4F4F" fill-opacity="0.25"/>
<path d="M279.322 143.147C278.299 144.073 278.22 145.654 279.147 146.678C280.073 147.701 281.654 147.78 282.678 146.853L279.322 143.147ZM282.678 146.853L398.678 41.8535L395.322 38.1465L279.322 143.147L282.678 146.853Z" fill="#4F4F4F" fill-opacity="0.25"/>
<path d="M291.322 154.147C290.299 155.073 290.22 156.654 291.147 157.678C292.073 158.701 293.654 158.78 294.678 157.853L291.322 154.147ZM294.678 157.853L410.678 52.8535L407.322 49.1465L291.322 154.147L294.678 157.853Z" fill="#34A853" fill-opacity="0.25"/>
<path d="M303.322 164.147C302.299 165.073 302.22 166.654 303.147 167.678C304.073 168.701 305.654 168.78 306.678 167.853L303.322 164.147ZM306.678 167.853L422.678 62.8535L419.322 59.1465L303.322 164.147L306.678 167.853Z" fill="#34A853" fill-opacity="0.25"/>
<path d="M256.322 99.1465C255.299 100.073 255.22 101.654 256.147 102.678C257.073 103.701 258.654 103.78 259.678 102.853L256.322 99.1465ZM259.678 102.853L375.678 -2.14653L372.322 -5.85345L256.322 99.1465L259.678 102.853Z" fill="#ED3232" fill-opacity="0.25"/>
<path d="M283.322 107.147C282.299 108.073 282.22 109.654 283.147 110.678C284.073 111.701 285.654 111.78 286.678 110.853L283.322 107.147ZM286.678 110.853L402.678 5.85347L399.322 2.14655L283.322 107.147L286.678 110.853Z" fill="#ED3232" fill-opacity="0.25"/>
<path d="M227.322 98.1465C226.299 99.0731 226.22 100.654 227.147 101.678C228.073 102.701 229.654 102.78 230.678 101.853L227.322 98.1465ZM230.678 101.853L346.678 -3.14653L343.322 -6.85345L227.322 98.1465L230.678 101.853Z" fill="#4F4F4F" fill-opacity="0.25"/>
<path d="M285.322 148.147C284.299 149.073 284.22 150.654 285.147 151.678C286.073 152.701 287.654 152.78 288.678 151.853L285.322 148.147ZM288.678 151.853L404.678 46.8535L401.322 43.1465L285.322 148.147L288.678 151.853Z" fill="#4F4F4F" fill-opacity="0.25"/>
<path d="M297.322 159.147C296.299 160.073 296.22 161.654 297.147 162.678C298.073 163.701 299.654 163.78 300.678 162.853L297.322 159.147ZM300.678 162.853L416.678 57.8535L413.322 54.1465L297.322 159.147L300.678 162.853Z" fill="#34A853" fill-opacity="0.25"/>
<path d="M309.322 169.147C308.299 170.073 308.22 171.654 309.147 172.678C310.073 173.701 311.654 173.78 312.678 172.853L309.322 169.147ZM312.678 172.853L428.678 67.8535L425.322 64.1465L309.322 169.147L312.678 172.853Z" fill="#ED3232" fill-opacity="0.25"/>
<path d="M262.322 104.147C261.299 105.073 261.22 106.654 262.147 107.678C263.073 108.701 264.654 108.78 265.678 107.853L262.322 104.147ZM265.678 107.853L381.678 2.85347L378.322 -0.853452L262.322 104.147L265.678 107.853Z" fill="#ED3232" fill-opacity="0.25"/>
</g>
<defs>
<clipPath id="clip0_1341_1186">
<rect width="328" height="273" fill="white"/>
</clipPath>
</defs>
</svg>
