<?xml version="1.0" encoding="UTF-8"?>
<svg id="Layer_1" data-name="Layer 1" xmlns="http://www.w3.org/2000/svg" viewBox="0 0 1834.21 418.47">
  <defs>
    <style>
      .cls-1 {
        fill: #ff462e;
      }
    </style>
  </defs>
  <path class="cls-1" d="m56.01,80.64c0,23.06.03,44.93,0,66.8-.08,49.55-.09,99.11-.33,148.66-.08,16.04-4.88,29.1-23.39,31.69-19.05,2.66-31.3-7.72-31.68-29.22C-.17,253.91.15,209.24.11,164.57.07,122.69.57,80.81,0,38.94-.27,18.23,9.5,8.01,29.29,5.86c1.39-.15,2.77-.3,4.16-.44C86.77.24,96.8,8.3,109.36,60.62c11.85,49.33,25.51,98.22,38.52,147.26.85,3.19,2.95,6.05,6.31,12.73,14.99-55.65,30.09-107.45,42.75-159.84C210.02,6.7,224.14-3.53,278.42,6.03c17.87,3.14,27.58,12.64,27.61,30.7.15,86.55.31,173.09-.17,259.64-.12,21.28-10.46,31.65-28.11,31.81-17.42.16-28.5-11.3-28.97-33.78-.89-42.56-.34-85.14-.36-127.72-.02-27.87,0-55.74,0-87.96-9.95,13.27-9.97,25.58-12.78,36.56-15.17,59.26-29.38,118.77-44.56,178.03-6.59,25.71-19.05,35.89-39.79,35.15-19.22-.68-31.35-13.63-37.43-38.42-15.73-64.15-31.65-128.25-48.03-192.23-1.37-5.34.07-12.98-9.81-17.16Z"/>
  <path class="cls-1" d="m973.93,98.82c0,20.92-.21,41.84.15,62.75.09,5-3.07,12.39,4.1,14.36,4.92,1.35,8.07-4.48,11.39-7.94,21.18-22.11,42.22-44.36,63.58-66.31,14.35-14.74,31.81-17.44,42.07-5.97,13.66,15.27,4.87,28.23-6,40.3-3.73,4.14-7.81,7.96-11.86,11.79q-30.57,28.96-7.49,65.44c14.88,23.52,30.1,46.83,44.48,70.65,6.9,11.43,7.66,24.08-.34,35.51-5.77,8.24-14.95,9.22-24.42,8.61-10.51-.68-15.98-8.21-20.81-15.76-17.99-28.12-36.31-56.08-52.84-85.05-6.97-12.22-10.47-9.82-19.51-2.47-16.98,13.81-26.18,29.4-22.87,52.03,1.38,9.44-.05,19.53-1.57,29.11-2.47,15.58-13.26,22.45-28.18,22.3-14.77-.15-22.41-9.48-25.55-23.05-.62-2.68-.5-5.55-.5-8.34-.02-87.86-.12-175.72.11-263.58.04-14.84,4.75-27.94,21.05-32.14,17.39-4.48,32.04,5.45,33.27,24.63,1.56,24.28.38,48.74.38,73.12h1.36Z"/>
  <path class="cls-1" d="m1274.84,222.18c-24.03,0-42.87.35-61.68-.13-11.17-.28-14.19,3.25-12.51,14.84,7.49,51.53,61.59,71.69,105.09,38.44,8.29-6.33,15.43-14.15,23.61-20.63,8.64-6.85,18.31-6.98,26.91-.13,8.61,6.87,6.83,16.28,3.06,24.84-4.85,11.02-12.82,19.77-22.47,27.06-43.65,32.99-122.94,28.67-162.81-8.98-42.26-39.91-44.93-127.3-5.27-172.84,38.59-44.31,115.89-49.71,162.99-10.39,23.75,19.83,34.87,46.2,34.07,77.5-.38,14.68-7.2,22.8-21.29,26.83-24.8,7.1-49.99,1.32-69.69,3.59Zm-20.35-31.42c13.94,0,27.89-.32,41.82.11,9.92.31,13.16-2.84,12.15-13.44-2.63-27.4-19.98-46.08-47.68-49.23-26.83-3.05-49.38,12.93-57.56,40.68-4.16,14.12-4.42,24.58,15.75,22.18,11.68-1.39,23.67-.25,35.52-.31Z"/>
  <path class="cls-1" d="m1498.23,268.61c14.95-43.21,27.93-81.27,41.33-119.18,5.33-15.07,11.68-29.77,17.41-44.71,6-15.65,17.83-19.07,32.05-13.81,14.04,5.2,18.46,17.03,13.96,30.65-9.13,27.68-18.89,55.18-29.24,82.43-20.23,53.26-41.12,106.28-61.6,159.45-20.89,54.22-64.96,61.73-112.83,50.65-12.14-2.81-18.82-11.81-16.72-25.1,2.27-14.37,12.67-16.37,24.87-16.16,39.55.69,40.53-.36,55.83-35.46,3.95-9.07,3.94-16.56.19-25.77-22.5-55.36-44.33-111.01-66.39-166.55-1.54-3.88-3.36-7.66-4.7-11.61-7.34-21.72-2.86-35.6,13.5-42.18,16.82-6.77,29.55-.67,37.77,21.82,16.7,45.65,31.89,91.85,47.74,137.81,1.33,3.86,2.93,7.63,6.83,17.72Z"/>
  <path class="cls-1" d="m696.56,126.93c22.94-27.32,49.53-40.13,82.46-37.98,42.14,2.75,69.52,29.58,70.95,72.86,1.48,44.58.71,89.25.38,133.88-.13,16.67-5.59,30.52-25.25,32.39-17.38,1.65-29.08-7.92-30.51-29.21-1.91-28.47-.96-57.12-1.3-85.69-.12-10.46-.14-20.92-.65-31.37-1.69-34.51-12.59-48.44-38.34-49.39-28-1.03-52.59,20.18-54.63,49.44-1.99,28.48-1.77,57.11-2.47,85.68-.26,10.45-.44,20.91-.51,31.36-.14,18.62-9.74,29.36-28.02,29.18-18.45-.17-27.61-11.92-27.7-29.95-.29-59.27-.24-118.54-.28-177.82-.01-16.32,5.17-29.48,23.6-31.19,17.97-1.67,26.32,9.71,30.1,25.58.64,2.67.97,5.42,2.15,12.22Z"/>
  <path class="cls-1" d="m1730.09,328.72c-26.16-1.06-54.33-3.96-77.87-23.5-8.37-6.94-14.03-15.45-17.66-25.37-5.11-13.98-3.52-27.16,10.73-34.15,13.48-6.61,24.63-.38,31.37,12.23,10.23,19.16,25.56,30.55,46.97,34.27,10.62,1.85,20.9,1.15,30.85-2.56,12.12-4.53,23.07-10.32,22.77-26.06-.28-14.82-9.05-23.14-21.77-27.37-19.76-6.57-39.87-12.11-59.83-18.1-4.66-1.4-9.43-2.55-13.91-4.39-25.08-10.3-45.38-25.07-47.28-55.04-1.64-25.79,15.47-51.53,44.63-61.65,40.4-14.02,80.73-12.43,118.75,9.51,8.56,4.94,15.44,11.79,20.16,20.7,5.71,10.79,7.59,21.65-2.63,30.34-10.81,9.19-22.98,9.38-34.19.21-5.34-4.36-9.87-9.77-14.46-14.97-15.51-17.58-41.26-23.23-62.74-13.85-8.81,3.85-15.7,8.9-16.35,19.53-.67,10.76,5.75,17.83,14.19,21.15,15.43,6.07,31.67,10.05,47.53,15.06,15.21,4.81,30.84,8.68,45.42,14.98,26.09,11.28,41.2,33.32,39.31,56.16-2.43,29.25-15.45,51.56-44,62.84-18.44,7.29-37.78,9.11-59.96,9.99Z"/>
  <path class="cls-1" d="m518.64,265.12c10.63-15.23,6.95-30.46-1.62-44.53-5.91-9.71-9.89-19.47-10.46-30.7l-.5.61c7.95-13.07,10.02-26.59-1.52-38.15-12.92-12.95-34.64-12.49-53.26-.53,6.16-18.66,21.78-29.37,43.99-27.31,18,1.67,34.91,6.77,34.35,30.67-.07,2.95,2.33,8.09,4.51,8.65,35.81,9.31,38.41,40.28,43.08,68.26,3.3,19.72,1.2,40.3,2.26,60.46.64,12.13-5.31,16.69-16.12,15.85-28.3-2.19-56.7,7.68-85.38-4.65-11.25-4.84-27.28,1.22-41.1,2.69-6.77.72-13.59,3.38-20.26-3.4,37.43-6.18,5.4-30.44,13.61-46.67,3.91,22.08,16.84,26.92,35.54,20.63,1.95-.66,4.42-1.58,6.11-.95,18.39,6.9,34.82,6.31,47.27-11.37,10.54,5.61,19.84,5.99,20.81-8.68,1.11-16.77.26-33.67.26-56.53-11.06,19.93-10.22,36.03-11.66,51.56-.64,6.86,1.1,14.77-9.9,14.09Z"/>
  <path class="cls-1" d="m407.4,193.23c-.83,7.98,1.4,15.49,6.3,21.32,10.26,12.21,9.47,27.9.98,36.24-14.31,14.06-12.14,29.51-12.23,45.64-.05,8.6.34,17.49-9.54,20.96-9.19,3.22-17.64.6-25.3-5.53-23.47-18.79-32.83-44.92-35.47-73.15-9.33-99.79,60.87-161.37,164.02-149.63,105.89,12.06,149.42,115.49,115.76,201.84-3.15,8.08-7.8,14.32-15,18.39-4.38-1.75-3.16-4.36-1.89-6.78,34.69-66.48,18.77-135.17-42.29-182.31-49.41-38.15-129.32-32.51-179.15,12.64-42.61,38.61-46.15,124.9-6.52,165.94,5.61,5.81,11.87,14,21.17,10.31,8.64-3.43,6.59-12.91,6.58-20.4-.02-13.49-.37-25-10.6-37.81-12.94-16.2-16.15-38.54-2.46-58.62,2.3-3.38,4.8-5.94,5.41-10.66,3.07-23.74,9-27.64,33.88-23.82-25.72,18.49-26.44,20.48-13.09,36.03l-.56-.57Z"/>
  <path class="cls-1" d="m506.56,189.89c-9.68-1.19-11.22,4.32-11.28,12.44-.07,10.06-7.23,12.16-15.79,12.06-9.32-.12-14.11-4.7-14.49-13.91-.08-2.06.05-4.19.47-6.2,2.16-10.19-15.1-17.16-5.2-28.18,9.67-10.77,17.95,4.87,28.56,2.23,18.95-4.71,20.83,7.38,17.23,22.15-.02.02.48-.58.48-.58Z"/>
  <path class="cls-1" d="m407.95,193.81c-7.71-16.35,10.23-12.29,15.15-18.61,2.67-3.43,8.08-.65,7.64,2.46-1.15,8.11,5.17,17.58-.72,23.82-12.15,12.87-13.6-9.19-22.64-8.25.02.01.58.59.58.59Z"/>
</svg>