<svg width="1536" height="1536" viewBox="0 0 1536 1536" fill="none" xmlns="http://www.w3.org/2000/svg">
<path d="M1224.91 629.789C1190.83 629.789 1159.59 699.847 1148.23 734.877C1132.13 852.272 1123.23 1083.09 1216.39 1067.18C1332.84 1047.3 1375.45 910.97 1375.45 814.403C1375.45 717.835 1267.52 629.789 1224.91 629.789Z" fill="#DCDCDC"/>
<path opacity="0.25" d="M1246.15 715.35C1206.82 708.798 1212.06 794.873 1163.78 843.16C1151.47 899.017 1142.76 1012.44 1206.38 1019.25C1285.91 1027.77 1314.31 914.162 1319.99 868.719C1323.67 839.295 1297.27 723.868 1246.15 715.35Z" fill="#6D6D6D"/>
<path d="M498.974 388.372C370.348 555.554 355.047 1309.55 379.662 1535.82H1257.28C1256.33 1319.01 1233.41 715.561 1149.34 536.059C1065.27 356.557 981.861 325.892 834.13 314.526C834.13 314.526 968.357 255.218 925.052 249.203C720.571 220.803 561.469 314.526 498.974 388.372Z" fill="#393939"/>
<path d="M323.914 686.956C407.985 680.139 455.511 771.216 468.765 817.606L468.764 1073.23C452.67 1094.05 409.688 1136.28 366.517 1138.55C312.552 1141.39 198.944 1059.02 167.702 951.096C136.46 843.168 218.826 695.477 323.914 686.956Z" fill="#DCDCDC"/>
<path opacity="0.25" d="M338.225 772.351C375.151 778.033 414.914 880.281 460.355 903.001C485.914 971.166 443.315 1067.73 397.872 1093.3C352.428 1118.86 258.719 1047.85 238.837 962.648C218.956 877.441 276.659 762.879 338.225 772.351Z" fill="#6D6D6D"/>
<path d="M406.567 987.656C395.206 883.136 442.179 822.923 476.262 805.882L496.144 1123.99H427.979C391.624 1085.36 424.554 986.709 437.808 945.053C419.631 942.78 409.407 972.508 406.567 987.656Z" fill="#393939"/>
<path d="M1005.14 600.944C938.779 577.998 875.399 636 852.004 667.869C816.911 650.872 728.222 627.077 654.209 667.869C561.691 718.86 545.74 820.841 536.169 910.075C528.513 981.462 692.492 1020.55 775.438 1031.18C733.965 1177.78 769.058 1419.98 966.853 1388.11C1125.09 1362.62 1073.19 1124.66 1027.47 1008.87C1129.56 1012.06 1155.08 859.084 1155.08 788.972C1155.08 718.86 1088.08 629.626 1005.14 600.944Z" fill="#DCDCDC"/>
</svg>
