<svg width="1219" height="278" viewBox="0 0 1219 278" fill="none" xmlns="http://www.w3.org/2000/svg">
<path fill-rule="evenodd" clip-rule="evenodd" d="M300.44 179.922C291.515 171.415 286.966 147.061 299.775 138.177C297.37 126.883 301.92 121.25 312.1 119.504C322.17 117.697 327.465 125.678 325.361 131.852C324.91 129.593 321.303 122.819 314.239 124.925C304.138 127.937 306.839 137.123 308.042 139.984C312.401 143.899 312.856 149.17 312.134 153.387C317.022 153.969 317.778 157.474 316.643 167.693C316.499 169.695 316.319 171.49 316.071 173.084H308.358C304.29 173.084 300.997 176.099 300.44 179.922ZM301.358 189.981C299.198 196.539 295.403 204.262 289.161 206.506C283.547 208.523 275.439 204.138 271.699 200.246C243.384 170.786 258.424 112.205 286.836 86.3416C313.122 64.1339 357.773 57.033 396.092 78.6525C439.723 107.799 446.828 158.212 423.697 202.744C422.851 204.366 422.037 206.114 424.958 207.286C428.215 208.594 432.859 200.38 434.959 194.967C457.403 137.124 428.378 67.8394 357.773 59.7608C288.995 51.8966 250 106.369 250 159.835C251.431 185.227 261.981 202.902 272.059 208.994C275.928 211.334 283.796 214.381 290.152 212.124C295.979 210.054 300.004 206.252 302.785 201.988L301.358 189.981ZM365.519 211.865C366.825 212.569 368.079 212.941 369.189 212.941H417.916C420.498 211.259 421.842 116.918 390.013 115.666C389.846 115.197 389.674 114.694 389.492 114.161L389.492 114.16C386.728 106.079 381.656 91.2497 360.699 89.7563C343.52 89.7563 337.977 104.938 337.977 111.733C345.309 101.183 356.216 96.5339 368.376 103.329C375.278 107.186 376.267 115.363 377.033 121.695L377.057 121.892C378.786 136.176 370.7 148.684 363.45 159.898C360.475 164.5 357.64 168.884 355.683 173.084H361.119C365.912 173.084 369.629 177.269 369.063 182.028L365.519 211.865ZM352.748 115.365C350.392 113.47 346.548 110.38 342.787 114.451C341.438 115.91 337.543 123.624 346.981 128.586C342.337 133.549 344.104 144.611 353.723 144.978C363.341 145.345 366.906 139.113 363.161 131.143C370.801 129.639 371.85 125.88 371.55 121.819C371.262 117.909 367.955 114.751 364.359 114.751C362.191 114.584 359.929 115.302 358.066 115.894C356.583 116.365 355.352 116.756 354.622 116.556C354.23 116.556 353.582 116.035 352.748 115.365ZM322.356 129.749C320.023 128.402 318.674 130.385 317.847 131.601C317.554 132.031 317.326 132.366 317.144 132.422C316.832 132.619 316.203 132.615 315.445 132.609H315.445H315.445C314.493 132.602 313.337 132.593 312.35 132.982C310.676 133.498 309.586 135.435 310.009 137.288C310.449 139.213 311.473 140.805 315.247 140.406C314.639 144.636 317.189 147.013 321.617 145.463C326.045 143.914 325.29 138.535 322.419 136.901C326.107 133.248 323.192 130.232 322.356 129.749Z" fill="#0F0F0F"/>
<path fill-rule="evenodd" clip-rule="evenodd" d="M310.861 174.872C306.069 174.872 302.352 179.057 302.917 183.816L306.395 213.092H303.729C303.222 213.092 302.869 213.596 303.042 214.073C303.462 215.23 304.561 216 305.792 216H362.559C363.777 216 364.878 215.278 365.365 214.162C365.585 213.657 365.214 213.092 364.663 213.092H362.952L366.43 183.816C366.995 179.057 363.278 174.872 358.486 174.872H310.861Z" fill="#0F0F0F"/>
<path d="M0 216V0H43.7073L112.654 139.474L180.985 0H225V216H188.064V63.5657L127.12 185.76H98.1874L36.9357 63.8743V216H0Z" fill="#0F0F0F"/>
<path d="M467.405 215.979V73.8936H497.333L499.874 97.5745C504.203 89.305 510.414 82.727 518.508 77.8404C526.601 72.9539 536.201 70.5106 547.306 70.5106C558.787 70.5106 568.575 72.9539 576.669 77.8404C584.762 82.539 590.974 89.4929 595.303 98.7021C599.82 107.911 602.079 119.376 602.079 133.096V215.979H568.199V136.197C568.199 124.356 565.564 115.241 560.293 108.851C555.023 102.461 547.212 99.266 536.86 99.266C530.084 99.266 523.966 100.863 518.508 104.059C513.238 107.254 509.003 111.952 505.803 118.154C502.791 124.168 501.285 131.498 501.285 140.144V215.979H467.405Z" fill="#0F0F0F"/>
<path d="M729.557 215.979L666.597 138.17L723.063 73.8936H763.437L693.136 151.984V125.766L771.907 215.979H729.557ZM637.798 215.979V13H671.679V215.979H637.798Z" fill="#0F0F0F"/>
<path d="M850.008 219.362C835.891 219.362 823.469 216.355 812.74 210.34C802.011 204.138 793.635 195.493 787.612 184.404C781.589 173.316 778.577 160.535 778.577 146.064C778.577 131.028 781.495 117.872 787.33 106.596C793.353 95.3191 801.729 86.4858 812.458 80.0957C823.374 73.7057 835.985 70.5106 850.29 70.5106C864.219 70.5106 876.359 73.6117 886.711 79.8138C897.064 86.016 905.063 94.3794 910.71 104.904C916.357 115.241 919.18 126.894 919.18 139.862C919.18 141.741 919.18 143.809 919.18 146.064C919.18 148.319 918.992 150.668 918.615 153.112H802.858V131.404H885.017C884.641 121.067 881.159 112.986 874.571 107.16C867.983 101.145 859.796 98.1383 850.008 98.1383C843.044 98.1383 836.644 99.7358 830.809 102.931C824.974 106.126 820.363 110.918 816.975 117.309C813.587 123.511 811.893 131.404 811.893 140.989V149.165C811.893 157.998 813.493 165.61 816.693 172C820.081 178.39 824.598 183.277 830.245 186.66C836.08 189.855 842.573 191.452 849.726 191.452C857.631 191.452 864.125 189.761 869.207 186.378C874.477 182.995 878.336 178.484 880.782 172.846H915.227C912.592 181.679 908.263 189.667 902.24 196.809C896.217 203.762 888.782 209.307 879.935 213.441C871.089 217.388 861.113 219.362 850.008 219.362Z" fill="#0F0F0F"/>
<path d="M961.343 278L996.07 200.191H987.6L930.851 73.8936H967.836L1010.19 170.309L1050.28 73.8936H1086.13L997.199 278H961.343Z" fill="#0F0F0F"/>
<path d="M1160.23 219.362C1147.62 219.362 1136.61 217.388 1127.2 213.441C1117.98 209.307 1110.64 203.668 1105.18 196.527C1099.91 189.197 1096.8 180.833 1095.86 171.436H1129.74C1130.68 175.383 1132.38 179.048 1134.82 182.431C1137.27 185.626 1140.56 188.163 1144.71 190.043C1149.03 191.922 1154.12 192.862 1159.95 192.862C1165.6 192.862 1170.21 192.11 1173.79 190.606C1177.36 188.915 1180 186.754 1181.69 184.122C1183.39 181.491 1184.23 178.672 1184.23 175.665C1184.23 171.154 1183.01 167.677 1180.56 165.234C1178.12 162.791 1174.54 160.911 1169.83 159.596C1165.32 158.092 1159.86 156.683 1153.46 155.367C1146.68 154.051 1140.09 152.454 1133.69 150.574C1127.48 148.507 1121.84 145.97 1116.75 142.963C1111.86 139.956 1107.91 136.103 1104.9 131.404C1102.07 126.706 1100.66 120.973 1100.66 114.207C1100.66 105.938 1102.83 98.5142 1107.16 91.9362C1111.67 85.3582 1118.07 80.1897 1126.35 76.4308C1134.82 72.484 1144.89 70.5106 1156.56 70.5106C1173.13 70.5106 1186.3 74.3635 1196.09 82.0691C1206.07 89.5869 1211.9 100.206 1213.6 113.926H1181.41C1180.47 108.663 1177.83 104.622 1173.5 101.803C1169.17 98.7961 1163.43 97.2925 1156.28 97.2925C1148.94 97.2925 1143.29 98.7021 1139.34 101.521C1135.58 104.152 1133.69 107.723 1133.69 112.234C1133.69 115.053 1134.82 117.684 1137.08 120.128C1139.53 122.383 1143.01 124.356 1147.53 126.048C1152.05 127.551 1157.6 129.055 1164.19 130.559C1174.73 132.626 1184.04 135.069 1192.14 137.888C1200.23 140.707 1206.63 144.842 1211.34 150.293C1216.04 155.743 1218.39 163.449 1218.39 173.41C1218.58 182.431 1216.23 190.418 1211.34 197.372C1206.63 204.326 1199.95 209.777 1191.29 213.723C1182.63 217.482 1172.28 219.362 1160.23 219.362Z" fill="#0F0F0F"/>
</svg>
