<svg width="538" height="440" viewBox="0 0 538 440" fill="none" xmlns="http://www.w3.org/2000/svg">
<path fill-rule="evenodd" clip-rule="evenodd" d="M140.164 337.262C115.792 312.738 103.785 245.943 139.179 221.393C132.455 189.812 145.177 174.061 173.642 169.179C201.801 164.127 216.607 186.443 210.723 203.708C209.462 197.391 199.375 178.448 179.622 184.338C151.379 192.76 158.933 218.445 162.295 226.446C174.483 237.394 175.756 252.131 173.738 263.921C187.405 265.551 189.518 275.351 186.347 303.924C185.942 309.523 185.44 314.543 184.745 319H147.001C142.209 319 138.492 323.185 139.057 327.944L140.164 337.262ZM143.607 366.247C137.567 384.583 126.955 406.179 109.5 412.452C93.8042 418.093 71.1324 405.831 60.673 394.948C-18.5 312.573 23.5563 148.771 103 76.4519C176.5 14.3552 301.353 -5.5 408.5 54.9519C530.5 136.452 550.366 277.413 485.689 401.935C483.321 406.468 481.046 411.357 489.213 414.635C498.32 418.29 511.306 395.323 517.179 380.189C579.936 218.449 498.777 24.7167 301.353 2.12739C109.036 -19.8625 0 132.452 0 281.952C4 352.952 33.5 402.375 61.6797 419.411C72.5 425.952 94.5 434.473 112.273 428.162C128.567 422.375 139.822 411.744 147.595 399.818L143.607 366.247ZM323.011 427.439C326.665 429.407 330.169 430.448 333.273 430.448H469.524C476.742 425.743 480.5 161.948 391.5 158.448C391.035 157.137 390.553 155.728 390.043 154.237C382.315 131.64 368.133 90.1757 309.535 86C261.5 86 246 128.451 246 147.451C266.5 117.951 297 104.951 331 123.951C350.3 134.736 353.065 157.601 355.206 175.307L355.273 175.857C360.107 215.798 337.498 250.772 317.226 282.129C308.907 294.997 300.981 307.256 295.508 319H326.887C331.679 319 335.396 323.185 334.831 327.944L323.011 427.439ZM287.301 157.605C280.713 152.308 269.966 143.668 259.448 155.05C255.678 159.129 244.786 180.7 271.177 194.576C258.191 208.452 263.132 239.382 290.027 240.409C316.922 241.435 326.89 224.01 316.418 201.724C337.782 197.519 340.714 187.007 339.876 175.654C339.069 164.721 329.822 155.891 319.769 155.891C313.705 155.423 307.381 157.431 302.172 159.086C298.024 160.403 294.583 161.496 292.54 160.937C291.445 160.937 289.634 159.481 287.301 157.605ZM202.322 197.827C195.798 194.061 192.025 199.606 189.711 203.005C188.892 204.209 188.256 205.144 187.746 205.301C186.874 205.853 185.116 205.84 182.996 205.824C180.333 205.804 177.101 205.78 174.343 206.867C169.66 208.309 166.612 213.726 167.796 218.908C169.025 224.289 171.891 228.74 182.442 227.625C180.743 239.454 187.872 246.099 200.254 241.767C212.636 237.434 210.525 222.393 202.496 217.825C212.81 207.611 204.659 199.177 202.322 197.827Z" fill="#FAFAFA"/>
<path fill-rule="evenodd" clip-rule="evenodd" d="M154.001 325C149.209 325 145.492 329.185 146.057 333.944L157.69 431.869H148.745C148.051 431.869 147.568 432.558 147.805 433.21L149.314 437.365C149.888 438.947 151.391 440 153.073 440H317.72C319.311 440 320.751 439.057 321.387 437.598L323.274 433.268C323.561 432.608 323.077 431.869 322.357 431.869H315.834L327.467 333.944C328.033 329.185 324.316 325 319.523 325H154.001Z" fill="#FAFAFA"/>
</svg>
