<svg width="936" height="936" viewBox="0 0 936 936" fill="none" xmlns="http://www.w3.org/2000/svg">
<g clip-path="url(#clip0_746_116)">
<g clip-path="url(#clip1_746_116)">
<path d="M287.434 635.842L291.457 642.392C298.245 653.428 307.852 662.455 319.288 668.544C332.076 675.387 346.607 678.284 361.041 676.869C375.476 675.454 389.167 669.79 400.383 660.594C411.599 651.397 419.836 639.082 424.052 625.204C428.269 611.327 428.276 596.511 424.072 582.629C419.867 568.748 411.642 556.425 400.434 547.219C389.226 538.013 375.541 532.336 361.107 530.908C346.674 529.48 332.141 532.364 319.346 539.196C306.552 546.027 296.071 556.499 289.228 569.287C283.017 580.893 280.109 593.653 280.586 606.499L280.866 614.175L265.204 630.757L287.434 635.842ZM229.848 641.478L262.26 607.172C261.665 590.977 265.393 574.915 273.063 560.638C296.949 515.999 352.495 499.176 397.134 523.062C441.773 546.948 458.595 602.494 434.71 647.133C410.824 691.772 355.277 708.594 310.639 684.709C296.343 677.089 284.334 665.801 275.845 652.004L229.848 641.478ZM345.009 550.355C346.135 550.854 347.226 551.437 348.283 552.065C348.703 552.331 349.113 552.613 349.524 552.895C350.731 553.729 351.726 555.269 351.623 556.608C351.108 563.36 350.507 570.118 349.816 576.849C349.66 578.346 348.517 579.762 346.742 580.787C345.53 581.475 344.284 582.099 343.008 582.657C341.467 583.34 338.353 584.439 338.353 584.439C338.353 584.439 337.042 584.964 336.714 586.317C336.585 586.83 336.606 587.684 336.651 588.415L336.717 589.438C336.94 593.996 337.848 598.984 339.478 604.098C339.946 605.554 340.377 607.022 340.915 608.464C342.912 613.826 345.738 618.842 349.28 623.336L349.311 623.374C349.838 624.041 350.099 624.388 350.872 625.353C351.261 625.831 351.679 626.294 352.131 626.712C352.6 627.141 353.185 627.421 353.813 627.516C354.442 627.612 355.084 627.519 355.659 627.249C365.304 623.292 366.084 623.116 366.132 623.142L366.123 623.159C366.733 622.997 367.37 622.968 367.991 623.072C368.613 623.177 369.205 623.414 369.728 623.767C370.195 624.059 370.641 624.411 370.985 624.856C374.226 629.116 379.611 635.937 379.611 635.937L383.186 640.564C383.775 641.368 384.014 642.65 383.575 643.528C383.318 644.086 382.899 644.985 381.857 646.486C380.478 648.441 378.503 650.617 377.168 651.597C376.255 652.265 375.241 652.783 374.164 653.13C372.891 653.55 371.581 653.851 370.252 654.031C369.786 654.102 369.32 654.165 368.852 654.217C367.505 654.317 366.155 654.358 364.805 654.339C362.133 654.331 359.495 653.736 357.078 652.595C355.539 651.876 353.984 651.189 352.523 650.304C352.459 650.269 348.309 647.144 348.309 647.144C338.435 637.973 330.838 626.624 326.121 614.001C325.155 611.415 324.392 608.782 323.583 606.135C320.217 595.133 318.916 584.508 319.519 575.453C319.746 570.972 320.919 566.589 322.959 562.593C325.552 557.668 329.713 553.748 334.783 551.454C335.78 551.01 336.761 550.516 338.212 550.118C339.757 549.697 340.681 549.526 341.574 549.546C342.76 549.578 343.927 549.849 345.005 550.343L345.009 550.355Z" fill="#FF5542"/>
</g>
<g clip-path="url(#clip2_746_116)">
<path d="M402.029 302.177L400.45 269.833C400.336 267.482 400.686 265.132 401.481 262.917C402.275 260.702 403.498 258.665 405.08 256.922C406.662 255.18 408.571 253.766 410.699 252.761C412.828 251.757 415.133 251.182 417.484 251.069L446.721 249.652C448.525 246.145 451.436 243.331 455.002 241.646C458.569 239.962 462.591 239.501 466.446 240.336C470.301 241.171 473.773 243.255 476.323 246.264C478.873 249.273 480.358 253.039 480.55 256.979C480.741 260.918 479.627 264.811 477.38 268.052C475.133 271.294 471.88 273.704 468.124 274.908C464.368 276.112 460.32 276.044 456.607 274.712C452.894 273.381 449.725 270.862 447.589 267.546L418.352 268.962L419.75 297.639C435.516 294.747 452.229 295.831 468.357 300.561C471.884 297.172 476.222 294.744 480.955 293.509C485.688 292.275 490.659 292.276 495.392 293.511C500.125 294.747 504.462 297.176 507.989 300.566C511.515 303.956 514.112 308.195 515.533 312.876L515.581 313.057C516.765 317.276 516.964 321.711 516.162 326.02C515.36 330.328 513.579 334.394 510.956 337.904C511.034 338.264 511.105 338.625 511.168 338.988C520.307 373.617 488.694 410.053 442.363 422.281C396.178 434.47 351.361 418.281 342.405 384.243C342.23 383.73 342.063 383.215 341.905 382.698C335.202 379.975 329.781 374.813 326.733 368.251C323.685 361.69 323.237 354.217 325.48 347.339C327.723 340.461 332.49 334.689 338.82 331.186C345.15 327.683 352.573 326.709 359.592 328.461C371.356 316.338 385.934 307.309 402.029 302.177V302.177ZM495.094 328.814C498.164 326.123 499.428 321.925 498.362 317.991C497.749 316.033 496.585 314.293 495.008 312.979C493.432 311.666 491.511 310.834 489.474 310.584C487.438 310.333 485.372 310.675 483.525 311.568C481.678 312.461 480.127 313.867 479.058 315.618L475.271 321.806L468.427 319.397C451.928 313.578 434.583 312.347 419.094 316.074L410.38 318.374C394.205 322.911 380.128 331.917 368.848 344.854L364.134 350.268L357.818 346.839C356.457 346.103 354.952 345.671 353.408 345.575C351.863 345.478 350.316 345.717 348.874 346.277C347.431 346.837 346.128 347.704 345.054 348.818C343.979 349.931 343.16 351.265 342.652 352.727C342.144 354.188 341.96 355.743 342.112 357.283C342.264 358.823 342.749 360.311 343.534 361.645C344.318 362.979 345.383 364.126 346.655 365.008C347.926 365.889 349.375 366.484 350.899 366.75L357.045 367.815L358.166 373.959C358.442 375.461 358.828 376.925 359.527 379.01C365.722 402.484 400.095 414.907 437.79 404.958C475.651 394.965 500.003 366.895 493.696 342.895C493.423 341.401 493.034 339.929 492.535 338.495L490.548 332.793L495.094 328.814V328.814ZM379.495 360.797C378.585 357.351 379.082 353.685 380.875 350.605C382.669 347.526 385.612 345.285 389.058 344.375C392.504 343.466 396.17 343.962 399.25 345.756C402.329 347.549 404.57 350.493 405.48 353.939C406.389 357.384 405.893 361.05 404.099 364.13C402.306 367.21 399.362 369.451 395.916 370.36C392.47 371.27 388.804 370.773 385.725 368.98C382.645 367.186 380.404 364.243 379.495 360.797ZM440.127 344.794C439.217 341.348 439.714 337.682 441.507 334.603C443.301 331.523 446.244 329.282 449.69 328.373C453.136 327.463 456.802 327.96 459.882 329.753C462.961 331.547 465.202 334.49 466.112 337.936C467.021 341.382 466.525 345.048 464.731 348.128C462.938 351.207 459.994 353.448 456.548 354.358C453.103 355.267 449.437 354.771 446.357 352.977C443.277 351.184 441.036 348.24 440.127 344.794ZM434.608 393.531C422.507 396.724 409.795 396.651 398.217 391.925C397.447 391.374 396.911 390.557 396.713 389.632C396.514 388.707 396.668 387.741 397.144 386.924C397.62 386.106 398.384 385.496 399.287 385.212C400.189 384.928 401.165 384.991 402.023 385.389C411.793 389.231 422.675 389.11 432.601 386.491C442.528 383.871 452.155 378.782 458.854 370.677C459.209 370.084 459.713 369.596 460.317 369.26C460.92 368.925 461.601 368.754 462.292 368.765C462.982 368.777 463.657 368.969 464.25 369.324C464.842 369.679 465.33 370.184 465.665 370.787C465.977 371.399 466.134 372.077 466.123 372.763C466.112 373.449 465.933 374.122 465.602 374.723C461.499 383.19 446.708 390.337 434.608 393.531V393.531Z" fill="#FF5542"/>
</g>
<g clip-path="url(#clip3_746_116)">
<path d="M625.325 241.909L753.934 277.09C756.065 277.673 757.878 279.079 758.973 280.999C760.068 282.918 760.356 285.195 759.773 287.326L724.592 415.935C724.009 418.067 722.603 419.879 720.683 420.974C718.764 422.07 716.488 422.357 714.356 421.774L585.747 386.594C583.615 386.011 581.803 384.604 580.708 382.685C579.612 380.765 579.325 378.489 579.908 376.357L615.088 247.748C615.671 245.617 617.078 243.804 618.997 242.709C620.917 241.614 623.193 241.326 625.325 241.909V241.909ZM628.966 260.184L598.183 372.716L710.715 403.499L741.498 290.967L628.966 260.184ZM640.266 297.833C637.068 296.958 634.349 294.849 632.706 291.969C631.063 289.09 630.632 285.676 631.507 282.478C632.381 279.28 634.491 276.561 637.37 274.918C640.25 273.276 643.664 272.844 646.862 273.719C650.06 274.594 652.779 276.703 654.422 279.583C656.064 282.462 656.496 285.876 655.621 289.074C654.746 292.272 652.637 294.991 649.757 296.634C646.878 298.276 643.463 298.708 640.266 297.833V297.833ZM630.029 303.672L646.105 308.07L629.614 368.355L613.538 363.958L630.029 303.672ZM673.292 319.222C679.229 315.964 685.513 314.53 691.413 316.144C708.06 320.698 715.855 337.336 711.301 353.982L701.956 388.144L685.88 383.746L695.225 349.585C696.246 345.854 695.742 341.871 693.826 338.511C691.91 335.152 688.737 332.691 685.006 331.67C681.276 330.65 677.292 331.153 673.933 333.07C670.573 334.986 668.112 338.158 667.092 341.889L657.747 376.051L641.671 371.653L658.162 311.368L674.238 315.766L673.292 319.222Z" fill="#FF5542"/>
</g>
<g clip-path="url(#clip4_746_116)">
<path d="M869.065 540.825C884.035 532.882 895.419 519.538 900.903 503.503C906.387 487.469 905.56 469.948 898.589 454.502C891.619 439.055 879.029 426.842 863.377 420.346C847.726 413.849 830.188 413.555 814.328 419.525C798.452 425.51 785.454 437.323 777.985 452.557C770.515 467.792 769.135 485.301 774.126 501.517C779.117 517.733 790.104 531.437 804.847 539.834C819.59 548.232 836.98 550.693 853.474 546.715L835.985 500.425L820.394 506.316L814.503 490.725L830.095 484.834L825.223 471.941C821.285 461.518 820.948 457.325 821.535 452.747C822.106 448.221 824.027 443.972 827.048 440.553C829.422 437.83 832.762 435.472 839.076 432.615C841.579 431.482 844.977 430.43 849.275 429.474L854.871 444.286L850.965 445.761C843.817 448.462 840.989 449.913 839.583 451.522C838.736 452.46 838.204 453.639 838.06 454.895C837.791 457.01 838.107 458.886 840.811 466.042L845.686 478.944L865.174 471.581L867.167 488.644L851.576 494.535L869.065 540.825ZM867.343 559.844C824.288 576.111 776.202 554.396 759.935 511.342C743.668 468.287 765.383 420.201 808.437 403.934C851.492 387.667 899.578 409.382 915.845 452.437C932.112 495.491 910.397 543.577 867.343 559.844Z" fill="#FF5542"/>
</g>
<g clip-path="url(#clip5_746_116)">
<path d="M687.055 551.793C687.11 549.103 685.814 546.701 683.893 545.542C680.495 543.484 663.189 536.146 625.243 525.632C587.298 515.117 568.7 512.506 564.694 512.513C562.478 512.516 560.131 513.909 558.783 516.25C556.873 519.571 550.318 533.889 543.766 557.533C537.215 581.177 535.468 596.819 535.392 600.666C535.339 603.348 536.635 605.75 538.55 606.898C541.971 608.972 559.26 616.305 597.205 626.819C635.151 637.333 653.757 639.947 657.755 639.938C659.971 639.934 662.318 638.542 663.666 636.2C665.576 632.88 672.14 618.528 678.683 594.917C685.225 571.307 686.981 555.632 687.055 551.793ZM704.549 552.128C704.239 568.222 695.547 599.59 695.547 599.59C695.547 599.59 686.855 630.958 678.838 644.917C674.395 652.629 666.319 657.428 657.772 657.439C642.249 657.46 592.532 643.684 592.532 643.684C592.532 643.684 542.841 629.915 529.517 621.901C522.17 617.45 517.722 609.189 517.9 600.322C518.21 584.228 526.902 552.86 526.902 552.86C526.902 552.86 535.594 521.492 543.611 507.534C548.054 499.821 556.13 495.022 564.677 495.012C580.225 494.998 629.916 508.767 629.916 508.767C629.916 508.767 679.633 522.543 692.932 530.55C700.279 535.001 704.727 543.261 704.549 552.128V552.128ZM586.182 601.065L602.538 542.039L644.954 585.571L586.182 601.065Z" fill="#FF5542"/>
</g>
<g clip-path="url(#clip6_746_116)">
<path d="M139.201 389.622C132.497 393.255 127.511 399.402 125.339 406.712C123.168 414.021 123.989 421.893 127.622 428.597C131.254 435.301 137.402 440.287 144.711 442.459C152.02 444.63 159.893 443.81 166.596 440.177C173.3 436.544 178.287 430.397 180.458 423.087C182.63 415.778 181.809 407.906 178.176 401.202C174.543 394.498 168.396 389.512 161.087 387.34C153.777 385.169 145.905 385.989 139.201 389.622ZM130.069 372.771C141.242 366.716 154.363 365.348 166.545 368.967C178.727 372.586 188.973 380.897 195.027 392.07C201.082 403.243 202.45 416.364 198.831 428.546C195.212 440.728 186.902 450.973 175.728 457.028C164.555 463.083 151.434 464.451 139.252 460.832C127.07 457.213 116.825 448.902 110.77 437.729C104.715 426.556 103.347 413.435 106.966 401.253C110.586 389.071 118.896 378.826 130.069 372.771V372.771ZM183.695 340.986C185.209 343.779 185.551 347.06 184.646 350.105C183.741 353.151 181.663 355.712 178.87 357.226C176.077 358.739 172.797 359.081 169.751 358.177C166.706 357.272 164.144 355.194 162.631 352.401C161.117 349.608 160.775 346.327 161.68 343.282C162.584 340.236 164.662 337.675 167.455 336.161C170.249 334.648 173.529 334.306 176.574 335.21C179.62 336.115 182.181 338.193 183.695 340.986V340.986ZM116.371 347.494C95.5262 358.79 92.1542 360.693 82.689 366.379C76.2522 370.27 72.2997 373.556 69.0555 377.385C66.1658 380.783 64.4463 383.905 63.1655 388.24C61.9091 392.217 61.5671 396.426 62.165 400.554C62.8014 405.55 64.3138 410.453 67.5856 417.215C72.1883 426.754 73.9002 430.034 85.493 451.427C96.7891 472.272 98.6927 475.644 104.378 485.109C108.265 491.538 111.556 495.499 115.372 498.739C118.79 501.628 121.904 503.352 126.218 504.633C130.591 505.926 134.146 506.19 138.527 505.625C143.562 504.979 148.478 503.471 155.214 500.213C164.753 495.61 168.033 493.898 189.426 482.305C210.271 471.009 213.643 469.106 223.108 463.42C229.528 459.538 233.489 456.247 236.738 452.427C239.615 449.026 241.351 445.894 242.633 441.581C243.933 437.202 244.198 433.647 243.633 429.266C242.983 424.245 241.47 419.321 238.212 412.584C233.609 403.045 231.897 399.765 220.304 378.372C209.008 357.527 207.105 354.155 201.42 344.69C197.537 338.27 194.242 334.3 190.413 331.056C187.28 328.307 183.571 326.294 179.558 325.166C175.582 323.908 171.372 323.566 167.244 324.166C162.248 324.802 157.337 326.319 150.583 329.586C141.044 334.189 137.764 335.901 116.371 347.494ZM107.24 330.642C130.132 318.237 133.034 316.773 142.244 312.327C151.446 307.886 158.317 305.983 164.825 305.159C171.546 304.286 177.801 304.646 185.02 306.783C191.587 308.673 197.663 311.972 202.826 316.449C207.815 320.688 212.546 326.038 217.83 334.783C223.093 343.551 224.75 346.348 237.156 369.24C249.561 392.133 251.025 395.035 255.471 404.245C259.912 413.447 261.807 420.322 262.639 426.826C263.579 433.595 263.025 440.488 261.015 447.021C259.123 453.587 255.825 459.663 251.349 464.826C247.11 469.816 241.76 474.546 233.015 479.83C224.248 485.094 221.451 486.751 198.558 499.157C175.665 511.562 172.763 513.026 163.553 517.472C154.351 521.913 147.476 523.808 140.972 524.64C134.203 525.578 127.31 525.023 120.778 523.016C114.21 521.127 108.134 517.828 102.972 513.35C97.9738 509.115 93.2518 503.761 87.9678 495.016C82.7046 486.248 81.0472 483.451 68.6416 460.559C56.236 437.666 54.7724 434.764 50.3264 425.554C45.8804 416.344 43.9818 409.481 43.1583 402.973C42.2175 396.204 42.7719 389.31 44.7824 382.778C46.6695 376.21 49.9683 370.133 54.4482 364.973C58.6915 359.97 64.0292 355.257 72.7827 349.969C81.5499 344.705 84.3469 343.048 107.24 330.642Z" fill="#FF5542"/>
</g>
<g clip-path="url(#clip7_746_116)">
<path d="M891.082 309.614C894.527 305.49 899.274 302.684 904.518 301.667C911.044 300.388 917.373 298.239 923.362 295.254C957.601 278.296 970.946 241.12 954.625 208.165C938.303 175.211 900.644 163.295 866.405 180.253C832.166 197.21 818.821 234.387 835.143 267.341C843.538 284.293 857.634 295.929 874.551 300.607C877.615 301.439 880.478 302.888 882.963 304.864C885.449 306.841 887.504 309.304 889.004 312.103L891.082 309.614V309.614ZM859.008 165.317C901.081 144.48 948.948 159.151 969.56 200.768C990.172 242.385 972.832 289.352 930.759 310.189C923.466 313.825 915.717 316.462 907.72 318.029C906.217 318.321 904.86 319.121 903.877 320.295L892.301 334.175C891.602 335.014 890.707 335.668 889.696 336.08C888.685 336.492 887.587 336.65 886.501 336.538C885.414 336.427 884.372 336.051 883.465 335.442C882.558 334.834 881.815 334.012 881.3 333.049L874.306 319.96C873.879 319.165 873.294 318.465 872.588 317.904C871.881 317.342 871.067 316.931 870.197 316.694C849.233 310.905 830.996 296.522 820.208 274.738C799.596 233.121 816.943 186.151 859.008 165.317ZM860.533 281.149L865.231 235.487C865.407 233.768 865.938 232.104 866.79 230.601C867.641 229.098 868.795 227.787 870.179 226.752C871.563 225.717 873.146 224.981 874.829 224.589C876.512 224.196 878.258 224.157 879.956 224.474L903.873 228.903C904.941 229.105 906.046 228.953 907.02 228.47C907.995 227.988 908.785 227.201 909.272 226.229L923.971 196.667C925.935 192.728 931.906 194.458 931.457 198.846L926.76 244.508C926.583 246.227 926.053 247.89 925.201 249.394C924.349 250.897 923.195 252.208 921.811 253.243C920.428 254.277 918.844 255.014 917.162 255.406C915.479 255.798 913.733 255.837 912.034 255.521L888.118 251.092C887.049 250.89 885.944 251.042 884.97 251.525C883.996 252.007 883.205 252.794 882.719 253.766L868.016 283.32C866.052 287.259 860.081 285.53 860.53 281.141L860.533 281.149Z" fill="#FF5542"/>
</g>
<g clip-path="url(#clip8_746_116)">
<path d="M926.249 690.028C920.811 686.781 914.315 685.799 908.16 687.292C902.005 688.786 896.683 692.636 893.338 698.014L886.411 709.165C886.038 709.763 885.543 710.275 884.958 710.669C884.373 711.062 883.711 711.327 883.017 711.447C882.322 711.567 881.61 711.538 880.927 711.363C880.245 711.188 879.606 710.871 879.055 710.432L868.79 702.248C855.289 691.472 845.247 676.298 838.455 656.978C820.039 678.109 818.603 699.506 831.177 724.178L838.988 739.497C839.359 740.224 839.547 741.032 839.533 741.849C839.52 742.666 839.307 743.467 838.913 744.182C838.518 744.898 837.954 745.506 837.271 745.953C836.587 746.4 835.804 746.673 834.991 746.747L818.632 748.27C825.156 752.737 831.768 756.276 837.739 758.403C875.522 771.813 913.131 759.808 938.142 717.905C940.184 714.484 940.045 698.262 926.249 690.028V690.028ZM879.185 689.208C883.426 682.384 889.587 676.964 896.895 673.626C904.202 670.287 912.333 669.179 920.267 670.439C928.202 671.699 935.589 675.272 941.503 680.71C947.417 686.149 951.595 693.211 953.514 701.012C958.623 704.013 962.183 707.885 975.367 707.796C965.965 718.101 961.744 722.491 952.453 726.447C919.815 781.13 870.334 787.66 832.168 774.109C805.999 764.817 776.569 736.858 772.897 720.866C778.093 723.443 799.566 733.319 816.325 731.744C810.34 719.35 784.858 672.794 847.758 626.06C851.428 647.437 857.966 664.402 867.367 676.943C873.625 685.287 875.7 686.429 879.187 689.219L879.185 689.208Z" fill="#FF5542"/>
</g>
</g>
<defs>
<clipPath id="clip0_746_116">
<rect width="936" height="936" fill="white"/>
</clipPath>
<clipPath id="clip1_746_116">
<rect width="220" height="220" fill="white" transform="translate(308.795 455) rotate(28.1507)"/>
</clipPath>
<clipPath id="clip2_746_116">
<rect width="215" height="215" fill="white" transform="translate(288 259.866) rotate(-14.7849)"/>
</clipPath>
<clipPath id="clip3_746_116">
<rect width="200" height="200" fill="white" transform="translate(599.77 209) rotate(15.2988)"/>
</clipPath>
<clipPath id="clip4_746_116">
<rect width="200" height="200" fill="white" transform="translate(709 423.686) rotate(-20.6973)"/>
</clipPath>
<clipPath id="clip5_746_116">
<rect width="210" height="210" fill="white" transform="translate(538.076 447) rotate(15.4876)"/>
</clipPath>
<clipPath id="clip6_746_116">
<rect width="230" height="230" fill="white" transform="translate(-3 368.582) rotate(-28.4534)"/>
</clipPath>
<clipPath id="clip7_746_116">
<rect width="200" height="200" fill="white" transform="translate(762 194.764) rotate(-26.3479)"/>
</clipPath>
<clipPath id="clip8_746_116">
<rect width="200" height="200" fill="white" transform="translate(840.471 584.968) rotate(30.8316)"/>
</clipPath>
</defs>
</svg>
